<?xml version="1.0" standalone="no"?><!DOCTYPE svg PUBLIC "-//W3C//DTD SVG 1.1//EN" "http://www.w3.org/Graphics/SVG/1.1/DTD/svg11.dtd" ><svg version="1.1" xmlns="http://www.w3.org/2000/svg"><defs><font horiz-adv-x="0" id="font"><font-face ascent="750" bbox="-142 -318 1129 940" cap-height="700" descent="-250" font-family="Superior Title Light" font-stretch="normal" font-style="normal" font-weight="600" units-per-em="1000" x-height="449" /><missing-glyph d="M436 9 256 341 77 9ZM70 684V17L251 350ZM444 16V685L262 349ZM437 691H76L257 358ZM60 700H454V0H60Z" horiz-adv-x="514" /><glyph d="M241 0H5V9Q49 13 83 54.5Q117 96 143 168L341 708H363L573 118Q593 61 621.5 37Q650 13 681 9V0H418V9Q460 9 474 30.5Q488 52 471 100L426 232H187L166 173Q152 133 151.5 102.5Q151 72 161.5 51Q172 30 192.5 19.5Q213 9 241 9ZM309 574 194 251H420Z" glyph-name="A" horiz-adv-x="686" unicode="A" /><glyph d="M203 0H5V9Q40 14 69.5 48Q99 82 128 154L285 544H302L481 107Q489 87 499.5 69Q510 51 522 37.5Q534 24 547 16.5Q560 9 575 9V0H325V9Q365 10 379 34Q393 58 376 101L348 174H156L144 143Q120 83 135 46.5Q150 10 203 9ZM254 422 163 191H342Z" glyph-name="A.smcp" horiz-adv-x="576" /><glyph d="M229 0H5V9Q29 13 69.5 47.5Q110 82 163 165L461 628Q456 664 433.5 676Q411 688 383 691V700H879L905 537H891Q871 581 845 610Q819 639 790 655.5Q761 672 731 678.5Q701 685 672 685H562V369H633Q670 369 699 371.5Q728 374 748.5 385Q769 396 782 418.5Q795 441 801 481H813V241H801Q795 281 782 303Q769 325 748.5 336Q728 347 699 349.5Q670 352 633 352H562V15H667Q706 15 746 25.5Q786 36 820.5 58.5Q855 81 880 116Q905 151 916 201H930L897 0H379V9Q395 10 410 14.5Q425 19 436.5 29Q448 39 455 54.5Q462 70 462 94V227H227L191 171Q166 132 158.5 102Q151 72 157.5 52Q164 32 183 21Q202 10 229 9ZM462 595 239 246H462Z" glyph-name="AE" horiz-adv-x="970" unicode="&#198;" /><glyph d="M200 0H12V8Q33 11 52.5 22.5Q72 34 88.5 50Q105 66 119.5 84.5Q134 103 146 121L379 475Q369 504 345.5 514.5Q322 525 296 527V536H726L753 403H740Q702 467 651.5 493.5Q601 520 552 520H481V287H525Q555 287 578 290.5Q601 294 617.5 304Q634 314 645 331.5Q656 349 661 376H671V179H661Q656 206 645 223.5Q634 241 617.5 251Q601 261 578 264.5Q555 268 525 268H481V15H542Q575 15 609 24Q643 33 672.5 51Q702 69 724.5 96.5Q747 124 758 162H770L742 0H300V9Q316 10 331 14.5Q346 19 358 29Q370 39 377 55.5Q384 72 384 98V168H197L166 122Q135 75 146 44Q157 13 200 8ZM384 185V449L208 185Z" glyph-name="AE.smcp" horiz-adv-x="804" /><glyph d="M241 0H5V9Q49 13 83 54.5Q117 96 143 168L341 708H363L573 118Q593 61 621.5 37Q650 13 681 9V0H418V9Q460 9 474 30.5Q488 52 471 100L426 232H187L166 173Q152 133 151.5 102.5Q151 72 161.5 51Q172 30 192.5 19.5Q213 9 241 9ZM309 574 194 251H420ZM407 892Q425 906 442 906Q456 906 465 897.5Q474 889 474 876Q474 866 466 854Q458 842 436 834L290 782H271Z" glyph-name="Aacute" horiz-adv-x="686" unicode="&#193;" /><glyph d="M203 0H5V9Q40 14 69.5 48Q99 82 128 154L285 544H302L481 107Q489 87 499.5 69Q510 51 522 37.5Q534 24 547 16.5Q560 9 575 9V0H325V9Q365 10 379 34Q393 58 376 101L348 174H156L144 143Q120 83 135 46.5Q150 10 203 9ZM254 422 163 191H342ZM341 728Q359 742 376 742Q390 742 399 733.5Q408 725 408 712Q408 702 400 690Q392 678 370 670L224 618H205Z" glyph-name="Aacute.smcp" horiz-adv-x="576" /><glyph d="M241 0H5V9Q49 13 83 54.5Q117 96 143 168L341 708H363L573 118Q593 61 621.5 37Q650 13 681 9V0H418V9Q460 9 474 30.5Q488 52 471 100L426 232H187L166 173Q152 133 151.5 102.5Q151 72 161.5 51Q172 30 192.5 19.5Q213 9 241 9ZM309 574 194 251H420ZM355 787Q333 787 311 794Q289 801 271.5 815Q254 829 242.5 850.5Q231 872 229 902H239Q248 868 277.5 852.5Q307 837 355 837Q403 837 433 852.5Q463 868 472 902H481Q479 872 467.5 850.5Q456 829 438.5 815Q421 801 399 794Q377 787 355 787Z" glyph-name="Abreve" horiz-adv-x="686" unicode="&#258;" /><glyph d="M203 0H5V9Q40 14 69.5 48Q99 82 128 154L285 544H302L481 107Q489 87 499.5 69Q510 51 522 37.5Q534 24 547 16.5Q560 9 575 9V0H325V9Q365 10 379 34Q393 58 376 101L348 174H156L144 143Q120 83 135 46.5Q150 10 203 9ZM254 422 163 191H342ZM289 623Q267 623 245 630Q223 637 205.5 651Q188 665 176.5 686.5Q165 708 163 738H173Q182 704 211.5 688.5Q241 673 289 673Q337 673 367 688.5Q397 704 406 738H415Q413 708 401.5 686.5Q390 665 372.5 651Q355 637 333 630Q311 623 289 623Z" glyph-name="Abreve.smcp" horiz-adv-x="576" /><glyph d="M241 0H5V9Q49 13 83 54.5Q117 96 143 168L341 708H363L573 118Q593 61 621.5 37Q650 13 681 9V0H418V9Q460 9 474 30.5Q488 52 471 100L426 232H187L166 173Q152 133 151.5 102.5Q151 72 161.5 51Q172 30 192.5 19.5Q213 9 241 9ZM309 574 194 251H420ZM356 846 220 780H211L348 906H366L499 780H488Z" glyph-name="Acircumflex" horiz-adv-x="686" unicode="&#194;" /><glyph d="M203 0H5V9Q40 14 69.5 48Q99 82 128 154L285 544H302L481 107Q489 87 499.5 69Q510 51 522 37.5Q534 24 547 16.5Q560 9 575 9V0H325V9Q365 10 379 34Q393 58 376 101L348 174H156L144 143Q120 83 135 46.5Q150 10 203 9ZM254 422 163 191H342ZM290 682 154 616H145L282 742H300L433 616H422Z" glyph-name="Acircumflex.smcp" horiz-adv-x="576" /><glyph d="M241 0H5V9Q49 13 83 54.5Q117 96 143 168L341 708H363L573 118Q593 61 621.5 37Q650 13 681 9V0H418V9Q460 9 474 30.5Q488 52 471 100L426 232H187L166 173Q152 133 151.5 102.5Q151 72 161.5 51Q172 30 192.5 19.5Q213 9 241 9ZM309 574 194 251H420ZM429 780Q406 780 390.5 795Q375 810 375 832Q375 855 390.5 870Q406 885 429 885Q452 885 467 870Q482 855 482 832Q482 810 467 795Q452 780 429 780ZM279 780Q256 780 240.5 795Q225 810 225 832Q225 855 240.5 870Q256 885 279 885Q302 885 317 870Q332 855 332 832Q332 810 317 795Q302 780 279 780Z" glyph-name="Adieresis" horiz-adv-x="686" unicode="&#196;" /><glyph d="M203 0H5V9Q40 14 69.5 48Q99 82 128 154L285 544H302L481 107Q489 87 499.5 69Q510 51 522 37.5Q534 24 547 16.5Q560 9 575 9V0H325V9Q365 10 379 34Q393 58 376 101L348 174H156L144 143Q120 83 135 46.5Q150 10 203 9ZM254 422 163 191H342ZM363 616Q340 616 324.5 631Q309 646 309 668Q309 691 324.5 706Q340 721 363 721Q386 721 401 706Q416 691 416 668Q416 646 401 631Q386 616 363 616ZM213 616Q190 616 174.5 631Q159 646 159 668Q159 691 174.5 706Q190 721 213 721Q236 721 251 706Q266 691 266 668Q266 646 251 631Q236 616 213 616Z" glyph-name="Adieresis.smcp" horiz-adv-x="576" /><glyph d="M241 0H5V9Q49 13 83 54.5Q117 96 143 168L341 708H363L573 118Q593 61 621.5 37Q650 13 681 9V0H418V9Q460 9 474 30.5Q488 52 471 100L426 232H187L166 173Q152 133 151.5 102.5Q151 72 161.5 51Q172 30 192.5 19.5Q213 9 241 9ZM309 574 194 251H420ZM411 782 265 834Q243 842 235 854Q227 866 227 876Q227 889 236 897.5Q245 906 259 906Q276 906 294 892L430 782Z" glyph-name="Agrave" horiz-adv-x="686" unicode="&#192;" /><glyph d="M203 0H5V9Q40 14 69.5 48Q99 82 128 154L285 544H302L481 107Q489 87 499.5 69Q510 51 522 37.5Q534 24 547 16.5Q560 9 575 9V0H325V9Q365 10 379 34Q393 58 376 101L348 174H156L144 143Q120 83 135 46.5Q150 10 203 9ZM254 422 163 191H342ZM340 618 194 670Q172 678 164 690Q156 702 156 712Q156 725 165 733.5Q174 742 188 742Q205 742 223 728L359 618Z" glyph-name="Agrave.smcp" horiz-adv-x="576" /><glyph d="M241 0H5V9Q49 13 83 54.5Q117 96 143 168L341 708H363L573 118Q593 61 621.5 37Q650 13 681 9V0H418V9Q460 9 474 30.5Q488 52 471 100L426 232H187L166 173Q152 133 151.5 102.5Q151 72 161.5 51Q172 30 192.5 19.5Q213 9 241 9ZM309 574 194 251H420ZM498 842V815H217V842Z" glyph-name="Amacron" horiz-adv-x="686" unicode="&#256;" /><glyph d="M203 0H5V9Q40 14 69.5 48Q99 82 128 154L285 544H302L481 107Q489 87 499.5 69Q510 51 522 37.5Q534 24 547 16.5Q560 9 575 9V0H325V9Q365 10 379 34Q393 58 376 101L348 174H156L144 143Q120 83 135 46.5Q150 10 203 9ZM254 422 163 191H342ZM433 678V651H152V678Z" glyph-name="Amacron.smcp" horiz-adv-x="576" /><glyph d="M309 574 194 251H420ZM634 -196Q619 -216 596 -228Q573 -240 547 -240Q505 -240 478 -215.5Q451 -191 451 -145Q451 -95 480 -56.5Q509 -18 551 0H418V9Q460 9 474 30.5Q488 52 471 100L426 232H187L166 173Q152 133 151.5 102.5Q151 72 161.5 51Q172 30 192.5 19.5Q213 9 241 9V0H5V9Q49 13 83 54.5Q117 96 143 168L341 708H363L573 118Q593 61 621.5 37Q650 13 681 9V0H576Q544 -15 527.5 -47.5Q511 -80 511 -122Q511 -167 531.5 -189Q552 -211 580 -211Q594 -211 605.5 -206Q617 -201 628 -191Z" glyph-name="Aogonek" horiz-adv-x="686" unicode="&#260;" /><glyph d="M254 422 163 191H342ZM545 -196Q530 -216 507 -228Q484 -240 458 -240Q416 -240 389 -215.5Q362 -191 362 -145Q362 -95 391 -56.5Q420 -18 462 0H325V9Q365 10 379 34Q393 58 376 101L348 174H156L144 143Q120 83 135 46.5Q150 10 203 9V0H5V9Q40 14 69.5 48Q99 82 128 154L285 544H302L481 107Q489 87 499.5 69Q510 51 522 37.5Q534 24 547 16.5Q560 9 575 9V0H487Q455 -15 438.5 -47.5Q422 -80 422 -122Q422 -167 442.5 -189Q463 -211 491 -211Q505 -211 516.5 -206Q528 -201 539 -191Z" glyph-name="Aogonek.smcp" horiz-adv-x="576" /><glyph d="M241 0H5V9Q49 13 83 54.5Q117 96 143 168L335 691Q305 698 285 721.5Q265 745 265 777Q265 814 291 840Q317 866 354 866Q391 866 417.5 840Q444 814 444 777Q444 744 422.5 719.5Q401 695 369 690L573 118Q593 61 621.5 37Q650 13 681 9V0H418V9Q460 9 474 30.5Q488 52 471 100L426 232H187L166 173Q152 133 151.5 102.5Q151 72 161.5 51Q172 30 192.5 19.5Q213 9 241 9ZM309 574 194 251H420ZM354 847Q327 847 308 826.5Q289 806 289 777Q289 748 308 728Q327 708 354 708Q381 708 400.5 728Q420 748 420 777Q420 806 401 826.5Q382 847 354 847Z" glyph-name="Aring" horiz-adv-x="686" unicode="&#197;" /><glyph d="M203 0H5V9Q40 14 69.5 48Q99 82 128 154L278 526Q246 531 225 555.5Q204 580 204 613Q204 650 230 676Q256 702 293 702Q330 702 356.5 676Q383 650 383 613Q383 581 362 556.5Q341 532 309 526L481 107Q489 87 499.5 69Q510 51 522 37.5Q534 24 547 16.5Q560 9 575 9V0H325V9Q365 10 379 34Q393 58 376 101L348 174H156L144 143Q120 83 135 46.5Q150 10 203 9ZM254 422 163 191H342ZM293 683Q266 683 247 662.5Q228 642 228 613Q228 584 247 564Q266 544 293 544Q320 544 339.5 564Q359 584 359 613Q359 642 340 662.5Q321 683 293 683Z" glyph-name="Aring.smcp" horiz-adv-x="576" /><glyph d="M241 0H5V9Q49 13 83 54.5Q117 96 143 168L341 708H363L573 118Q593 61 621.5 37Q650 13 681 9V0H418V9Q460 9 474 30.5Q488 52 471 100L426 232H187L166 173Q152 133 151.5 102.5Q151 72 161.5 51Q172 30 192.5 19.5Q213 9 241 9ZM309 574 194 251H420ZM490 891Q487 863 478.5 844.5Q470 826 459.5 814.5Q449 803 438 798.5Q427 794 417 794Q394 794 376 799.5Q358 805 341 812Q324 819 307 824.5Q290 830 270 830Q236 830 225 790L217 792Q223 842 246 864Q269 886 294 886Q310 886 328.5 880Q347 874 365.5 867Q384 860 402 854Q420 848 436 848Q450 848 461.5 856.5Q473 865 482 893Z" glyph-name="Atilde" horiz-adv-x="686" unicode="&#195;" /><glyph d="M203 0H5V9Q40 14 69.5 48Q99 82 128 154L285 544H302L481 107Q489 87 499.5 69Q510 51 522 37.5Q534 24 547 16.5Q560 9 575 9V0H325V9Q365 10 379 34Q393 58 376 101L348 174H156L144 143Q120 83 135 46.5Q150 10 203 9ZM254 422 163 191H342ZM424 727Q421 699 412.5 680.5Q404 662 393.5 650.5Q383 639 372 634.5Q361 630 351 630Q328 630 310 635.5Q292 641 275 648Q258 655 241 660.5Q224 666 204 666Q170 666 159 626L151 628Q157 678 180 700Q203 722 228 722Q244 722 262.5 716Q281 710 299.5 703Q318 696 336 690Q354 684 370 684Q384 684 395.5 692.5Q407 701 416 729Z" glyph-name="Atilde.smcp" horiz-adv-x="576" /><glyph d="M278 15Q332 15 367.5 29.5Q403 44 424 68.5Q445 93 453.5 126Q462 159 462 196Q462 280 421.5 323.5Q381 367 279 367H210V15ZM210 384H263Q354 384 394 419.5Q434 455 434 535Q434 570 424.5 597.5Q415 625 394 644.5Q373 664 338.5 674.5Q304 685 253 685H210ZM24 0V9Q40 10 55.5 14Q71 18 83 27Q95 36 102 51.5Q109 67 109 91V607Q109 631 102 647Q95 663 83 672Q71 681 55.5 685Q40 689 24 691V700H289Q410 700 474.5 654Q539 608 539 536Q539 480 500 437Q461 394 386 379Q480 364 526.5 314.5Q573 265 573 197Q573 159 557 124Q541 89 509 61Q477 33 427.5 16.5Q378 0 311 0Z" glyph-name="B" horiz-adv-x="602" unicode="B" /><glyph d="M254 15Q296 15 323.5 25.5Q351 36 367 54Q383 72 389.5 97Q396 122 396 152Q396 216 363 247Q330 278 248 278H206V15ZM206 296H235Q310 296 341 323Q372 350 372 410Q372 461 342.5 490.5Q313 520 241 520H206ZM23 0V9Q39 10 54.5 14.5Q70 19 82 28.5Q94 38 101.5 54.5Q109 71 109 96V439Q109 464 101.5 480.5Q94 497 82 506.5Q70 516 54.5 520.5Q39 525 23 527V536H271Q371 536 423 501Q475 466 475 409Q475 366 445 334Q415 302 352 290Q427 278 464 240.5Q501 203 501 150Q501 121 489.5 94Q478 67 453 46Q428 25 388.5 12.5Q349 0 292 0Z" glyph-name="B.smcp" horiz-adv-x="527" /><glyph d="M588 505Q572 603 518.5 650Q465 697 391 697Q341 697 297 675.5Q253 654 220.5 612.5Q188 571 169 510Q150 449 150 370Q150 296 168.5 238Q187 180 221 139.5Q255 99 301.5 77.5Q348 56 404 56Q478 56 531 89.5Q584 123 612 168L623 164Q608 128 585.5 95.5Q563 63 532 39Q501 15 461 1Q421 -13 370 -13Q298 -13 237 14.5Q176 42 131.5 90Q87 138 62 203Q37 268 37 342Q37 426 68.5 495Q100 564 153 613Q206 662 275 689Q344 716 419 716Q484 716 538.5 702Q593 688 632 666L602 503Z" glyph-name="C" horiz-adv-x="668" unicode="C" /><glyph d="M498 120Q475 61 425 24Q375 -13 303 -13Q248 -13 199 9Q150 31 113.5 69.5Q77 108 56 160Q35 212 35 272Q35 333 56 385Q77 437 115.5 474Q154 511 207.5 532Q261 553 326 553Q377 553 424.5 540.5Q472 528 510 513L480 376L468 378Q453 455 411.5 495.5Q370 536 313 536Q279 536 248.5 521.5Q218 507 195 477Q172 447 158.5 399.5Q145 352 145 286Q145 224 159.5 178Q174 132 199.5 101.5Q225 71 260 56Q295 41 335 41Q383 41 424.5 62.5Q466 84 489 123Z" glyph-name="C.smcp" horiz-adv-x="538" /><glyph d="M588 505Q572 603 518.5 650Q465 697 391 697Q341 697 297 675.5Q253 654 220.5 612.5Q188 571 169 510Q150 449 150 370Q150 296 168.5 238Q187 180 221 139.5Q255 99 301.5 77.5Q348 56 404 56Q478 56 531 89.5Q584 123 612 168L623 164Q608 128 585.5 95.5Q563 63 532 39Q501 15 461 1Q421 -13 370 -13Q298 -13 237 14.5Q176 42 131.5 90Q87 138 62 203Q37 268 37 342Q37 426 68.5 495Q100 564 153 613Q206 662 275 689Q344 716 419 716Q484 716 538.5 702Q593 688 632 666L602 503ZM438 892Q456 906 473 906Q487 906 496 897.5Q505 889 505 876Q505 866 497 854Q489 842 467 834L321 782H302Z" glyph-name="Cacute" horiz-adv-x="668" unicode="&#262;" /><glyph d="M498 120Q475 61 425 24Q375 -13 303 -13Q248 -13 199 9Q150 31 113.5 69.5Q77 108 56 160Q35 212 35 272Q35 333 56 385Q77 437 115.5 474Q154 511 207.5 532Q261 553 326 553Q377 553 424.5 540.5Q472 528 510 513L480 376L468 378Q453 455 411.5 495.5Q370 536 313 536Q279 536 248.5 521.5Q218 507 195 477Q172 447 158.5 399.5Q145 352 145 286Q145 224 159.5 178Q174 132 199.5 101.5Q225 71 260 56Q295 41 335 41Q383 41 424.5 62.5Q466 84 489 123ZM366 728Q384 742 401 742Q415 742 424 733.5Q433 725 433 712Q433 702 425 690Q417 678 395 670L249 618H230Z" glyph-name="Cacute.smcp" horiz-adv-x="538" /><glyph d="M588 505Q572 603 518.5 650Q465 697 391 697Q341 697 297 675.5Q253 654 220.5 612.5Q188 571 169 510Q150 449 150 370Q150 296 168.5 238Q187 180 221 139.5Q255 99 301.5 77.5Q348 56 404 56Q478 56 531 89.5Q584 123 612 168L623 164Q608 128 585.5 95.5Q563 63 532 39Q501 15 461 1Q421 -13 370 -13Q298 -13 237 14.5Q176 42 131.5 90Q87 138 62 203Q37 268 37 342Q37 426 68.5 495Q100 564 153 613Q206 662 275 689Q344 716 419 716Q484 716 538.5 702Q593 688 632 666L602 503ZM385 840 521 906H530L393 780H375L242 906H253Z" glyph-name="Ccaron" horiz-adv-x="668" unicode="&#268;" /><glyph d="M498 120Q475 61 425 24Q375 -13 303 -13Q248 -13 199 9Q150 31 113.5 69.5Q77 108 56 160Q35 212 35 272Q35 333 56 385Q77 437 115.5 474Q154 511 207.5 532Q261 553 326 553Q377 553 424.5 540.5Q472 528 510 513L480 376L468 378Q453 455 411.5 495.5Q370 536 313 536Q279 536 248.5 521.5Q218 507 195 477Q172 447 158.5 399.5Q145 352 145 286Q145 224 159.5 178Q174 132 199.5 101.5Q225 71 260 56Q295 41 335 41Q383 41 424.5 62.5Q466 84 489 123ZM312 676 448 742H457L320 616H302L169 742H180Z" glyph-name="Ccaron.smcp" horiz-adv-x="538" /><glyph d="M368 -242Q339 -242 315 -236Q291 -230 274 -216L277 -209Q292 -220 310 -223Q328 -226 344 -226Q388 -224 411 -208.5Q434 -193 434 -163Q434 -128 405 -115Q376 -102 324 -112L321 -108L365 -13Q294 -12 234 16Q174 44 130 92Q86 140 61.5 204Q37 268 37 342Q37 426 68.5 495Q100 564 153 613Q206 662 275 689Q344 716 419 716Q484 716 538.5 702Q593 688 632 666L602 503L588 505Q572 603 518.5 650Q465 697 391 697Q341 697 297 675.5Q253 654 220.5 612.5Q188 571 169 510Q150 449 150 370Q150 296 168.5 238Q187 180 221 139.5Q255 99 301.5 77.5Q348 56 404 56Q478 56 531 89.5Q584 123 612 168L623 164Q608 129 586.5 97.5Q565 66 535.5 42Q506 18 467.5 3Q429 -12 381 -13L352 -75Q359 -73 368 -72Q377 -71 388 -71Q430 -71 458 -91.5Q486 -112 486 -149Q486 -171 476 -187.5Q466 -204 449.5 -215.5Q433 -227 412 -234Q391 -241 368 -242Z" glyph-name="Ccedilla" horiz-adv-x="668" unicode="&#199;" /><glyph d="M307 -242Q278 -242 254 -236Q230 -230 213 -216L216 -209Q231 -220 249 -223Q267 -226 283 -226Q327 -224 350 -208.5Q373 -193 373 -163Q373 -128 344 -115Q315 -102 263 -112L260 -108L304 -13H303Q248 -13 199 9Q150 31 113.5 69.5Q77 108 56 160Q35 212 35 272Q35 333 56 385Q77 437 115.5 474Q154 511 207.5 532Q261 553 326 553Q377 553 424.5 540.5Q472 528 510 513L480 376L468 378Q453 455 411.5 495.5Q370 536 313 536Q279 536 248.5 521.5Q218 507 195 477Q172 447 158.5 399.5Q145 352 145 286Q145 224 159.5 178Q174 132 199.5 101.5Q225 71 260 56Q295 41 335 41Q383 41 424.5 62.5Q466 84 489 123L498 120Q476 65 431 29Q386 -7 320 -12L291 -75Q298 -73 307 -72Q316 -71 327 -71Q369 -71 397 -91.5Q425 -112 425 -149Q425 -171 415 -187.5Q405 -204 388.5 -215.5Q372 -227 351 -234Q330 -241 307 -242Z" glyph-name="Ccedilla.smcp" horiz-adv-x="538" /><glyph d="M588 505Q572 603 518.5 650Q465 697 391 697Q341 697 297 675.5Q253 654 220.5 612.5Q188 571 169 510Q150 449 150 370Q150 296 168.5 238Q187 180 221 139.5Q255 99 301.5 77.5Q348 56 404 56Q478 56 531 89.5Q584 123 612 168L623 164Q608 128 585.5 95.5Q563 63 532 39Q501 15 461 1Q421 -13 370 -13Q298 -13 237 14.5Q176 42 131.5 90Q87 138 62 203Q37 268 37 342Q37 426 68.5 495Q100 564 153 613Q206 662 275 689Q344 716 419 716Q484 716 538.5 702Q593 688 632 666L602 503ZM387 846 251 780H242L379 906H397L530 780H519Z" glyph-name="Ccircumflex" horiz-adv-x="668" unicode="&#264;" /><glyph d="M498 120Q475 61 425 24Q375 -13 303 -13Q248 -13 199 9Q150 31 113.5 69.5Q77 108 56 160Q35 212 35 272Q35 333 56 385Q77 437 115.5 474Q154 511 207.5 532Q261 553 326 553Q377 553 424.5 540.5Q472 528 510 513L480 376L468 378Q453 455 411.5 495.5Q370 536 313 536Q279 536 248.5 521.5Q218 507 195 477Q172 447 158.5 399.5Q145 352 145 286Q145 224 159.5 178Q174 132 199.5 101.5Q225 71 260 56Q295 41 335 41Q383 41 424.5 62.5Q466 84 489 123ZM314 682 178 616H169L306 742H324L457 616H446Z" glyph-name="Ccircumflex.smcp" horiz-adv-x="538" /><glyph d="M588 505Q572 603 518.5 650Q465 697 391 697Q341 697 297 675.5Q253 654 220.5 612.5Q188 571 169 510Q150 449 150 370Q150 296 168.5 238Q187 180 221 139.5Q255 99 301.5 77.5Q348 56 404 56Q478 56 531 89.5Q584 123 612 168L623 164Q608 128 585.5 95.5Q563 63 532 39Q501 15 461 1Q421 -13 370 -13Q298 -13 237 14.5Q176 42 131.5 90Q87 138 62 203Q37 268 37 342Q37 426 68.5 495Q100 564 153 613Q206 662 275 689Q344 716 419 716Q484 716 538.5 702Q593 688 632 666L602 503ZM385 780Q362 780 346.5 795Q331 810 331 832Q331 855 346.5 870Q362 885 385 885Q408 885 423.5 870Q439 855 439 832Q439 810 423.5 795Q408 780 385 780Z" glyph-name="Cdotaccent" horiz-adv-x="668" unicode="&#266;" /><glyph d="M498 120Q475 61 425 24Q375 -13 303 -13Q248 -13 199 9Q150 31 113.5 69.5Q77 108 56 160Q35 212 35 272Q35 333 56 385Q77 437 115.5 474Q154 511 207.5 532Q261 553 326 553Q377 553 424.5 540.5Q472 528 510 513L480 376L468 378Q453 455 411.5 495.5Q370 536 313 536Q279 536 248.5 521.5Q218 507 195 477Q172 447 158.5 399.5Q145 352 145 286Q145 224 159.5 178Q174 132 199.5 101.5Q225 71 260 56Q295 41 335 41Q383 41 424.5 62.5Q466 84 489 123ZM312 616Q289 616 273.5 631Q258 646 258 668Q258 691 273.5 706Q289 721 312 721Q335 721 350.5 706Q366 691 366 668Q366 646 350.5 631Q335 616 312 616Z" glyph-name="Cdotaccent.smcp" horiz-adv-x="538" /><glyph d="M209 685V15H286Q352 15 403 44Q454 73 488.5 121Q523 169 541 230Q559 291 559 354Q559 439 538 501.5Q517 564 479.5 605Q442 646 389.5 665.5Q337 685 274 685ZM24 9Q39 10 54 14Q69 18 81.5 27Q94 36 101.5 51.5Q109 67 109 91V607Q109 631 101.5 646.5Q94 662 81.5 671.5Q69 681 54 685Q39 689 24 691V700H332Q404 700 466.5 677Q529 654 575 610Q621 566 647.5 502.5Q674 439 674 358Q674 295 652 231Q630 167 584.5 116Q539 65 469.5 32.5Q400 0 306 0H24Z" glyph-name="D" horiz-adv-x="711" unicode="D" /><glyph d="M213 520V15H281Q325 15 361 33.5Q397 52 422 86Q447 120 460.5 166.5Q474 213 474 269Q474 337 457.5 385Q441 433 413 463Q385 493 346.5 506.5Q308 520 265 520ZM30 9Q46 10 61.5 14.5Q77 19 89 28.5Q101 38 108.5 54.5Q116 71 116 96V439Q116 464 108.5 480.5Q101 497 89 506.5Q77 516 61.5 520.5Q46 525 30 527V536H306Q364 536 415 517.5Q466 499 504 464.5Q542 430 563.5 381.5Q585 333 585 273Q585 223 566 174Q547 125 510 86.5Q473 48 418.5 24Q364 0 292 0H30Z" glyph-name="D.smcp" horiz-adv-x="620" /><glyph d="M209 685V15H286Q352 15 403 44Q454 73 488.5 121Q523 169 541 230Q559 291 559 354Q559 439 538 501.5Q517 564 479.5 605Q442 646 389.5 665.5Q337 685 274 685ZM24 9Q39 10 54 14Q69 18 81.5 27Q94 36 101.5 51.5Q109 67 109 91V607Q109 631 101.5 646.5Q94 662 81.5 671.5Q69 681 54 685Q39 689 24 691V700H332Q404 700 466.5 677Q529 654 575 610Q621 566 647.5 502.5Q674 439 674 358Q674 295 652 231Q630 167 584.5 116Q539 65 469.5 32.5Q400 0 306 0H24ZM379 840 515 906H524L387 780H369L236 906H247Z" glyph-name="Dcaron" horiz-adv-x="711" unicode="&#270;" /><glyph d="M213 520V15H281Q325 15 361 33.5Q397 52 422 86Q447 120 460.5 166.5Q474 213 474 269Q474 337 457.5 385Q441 433 413 463Q385 493 346.5 506.5Q308 520 265 520ZM30 9Q46 10 61.5 14.5Q77 19 89 28.5Q101 38 108.5 54.5Q116 71 116 96V439Q116 464 108.5 480.5Q101 497 89 506.5Q77 516 61.5 520.5Q46 525 30 527V536H306Q364 536 415 517.5Q466 499 504 464.5Q542 430 563.5 381.5Q585 333 585 273Q585 223 566 174Q547 125 510 86.5Q473 48 418.5 24Q364 0 292 0H30ZM311 675 447 741H456L319 615H301L168 741H179Z" glyph-name="Dcaron.smcp" horiz-adv-x="619" /><glyph d="M286 15Q352 15 403 44Q454 73 488.5 121Q523 169 541 230Q559 291 559 354Q559 439 538 501.5Q517 564 479.5 605Q442 646 389.5 665.5Q337 685 274 685H209V374H343V356H209V15ZM24 0V9Q39 10 54 14Q69 18 81.5 27Q94 36 101.5 51.5Q109 67 109 91V356H23V374H109V607Q109 631 101.5 646.5Q94 662 81.5 671.5Q69 681 54 685Q39 689 24 691V700H332Q404 700 466.5 677Q529 654 575 610Q621 566 647.5 502.5Q674 439 674 358Q674 295 652 231Q630 167 584.5 116Q539 65 469.5 32.5Q400 0 306 0Z" glyph-name="Dcroat" horiz-adv-x="711" unicode="&#272;" /><glyph d="M281 15Q325 15 361 33.5Q397 52 422 86Q447 120 460.5 166.5Q474 213 474 269Q474 337 457.5 385Q441 433 413 463Q385 493 346.5 506.5Q308 520 265 520H213V292H285V275H213V15ZM30 0V9Q46 10 61.5 14.5Q77 19 89 28.5Q101 38 108.5 54.5Q116 71 116 96V275H30V292H116V439Q116 464 108.5 480.5Q101 497 89 506.5Q77 516 61.5 520.5Q46 525 30 527V536H306Q364 536 415 517.5Q466 499 504 464.5Q542 430 563.5 381.5Q585 333 585 273Q585 223 566 174Q547 125 510 86.5Q473 48 418.5 24Q364 0 292 0Z" glyph-name="Dcroat.smcp" horiz-adv-x="620" /><glyph d="M545 0H24V9Q40 10 55.5 14.5Q71 19 83 29Q95 39 102 54.5Q109 70 109 94V608Q109 632 102 647.5Q95 663 83 672Q71 681 55.5 685Q40 689 24 691V700H526L552 537H538Q518 581 492 610Q466 639 437.5 655.5Q409 672 378.5 678.5Q348 685 320 685H209V369H280Q320 369 348 372.5Q376 376 395.5 387.5Q415 399 427.5 421Q440 443 448 481H461V241H448Q440 278 428 300Q416 322 396.5 333.5Q377 345 348.5 348.5Q320 352 280 352H209V15H306Q345 15 386.5 25.5Q428 36 463.5 58.5Q499 81 525.5 116Q552 151 563 201H577Z" glyph-name="E" horiz-adv-x="617" unicode="E" /><glyph d="M467 0H23V9Q39 10 54.5 14.5Q70 19 82 29Q94 39 101.5 55.5Q109 72 109 98V440Q109 465 101.5 481.5Q94 498 82 507.5Q70 517 54.5 521Q39 525 23 527V536H451L477 403H465Q427 468 377 494Q327 520 277 520H206V287H250Q280 287 303 290.5Q326 294 342.5 304Q359 314 370 331.5Q381 349 386 376H396V179H386Q381 206 370 223.5Q359 241 342.5 251Q326 261 303 264.5Q280 268 250 268H206V15H267Q300 15 334.5 24Q369 33 398.5 51.5Q428 70 450.5 97.5Q473 125 482 162H495Z" glyph-name="E.smcp" horiz-adv-x="531" /><glyph d="M545 0H24V9Q40 10 55.5 14.5Q71 19 83 29Q95 39 102 54.5Q109 70 109 94V608Q109 632 102 647.5Q95 663 83 672Q71 681 55.5 685Q40 689 24 691V700H526L552 537H538Q518 581 492 610Q466 639 437.5 655.5Q409 672 378.5 678.5Q348 685 320 685H209V369H280Q320 369 348 372.5Q376 376 395.5 387.5Q415 399 427.5 421Q440 443 448 481H461V241H448Q440 278 428 300Q416 322 396.5 333.5Q377 345 348.5 348.5Q320 352 280 352H209V15H306Q345 15 386.5 25.5Q428 36 463.5 58.5Q499 81 525.5 116Q552 151 563 201H577ZM379 892Q397 906 414 906Q428 906 437 897.5Q446 889 446 876Q446 866 438 854Q430 842 408 834L262 782H243Z" glyph-name="Eacute" horiz-adv-x="617" unicode="&#201;" /><glyph d="M467 0H23V9Q39 10 54.5 14.5Q70 19 82 29Q94 39 101.5 55.5Q109 72 109 98V440Q109 465 101.5 481.5Q94 498 82 507.5Q70 517 54.5 521Q39 525 23 527V536H451L477 403H465Q427 468 377 494Q327 520 277 520H206V287H250Q280 287 303 290.5Q326 294 342.5 304Q359 314 370 331.5Q381 349 386 376H396V179H386Q381 206 370 223.5Q359 241 342.5 251Q326 261 303 264.5Q280 268 250 268H206V15H267Q300 15 334.5 24Q369 33 398.5 51.5Q428 70 450.5 97.5Q473 125 482 162H495ZM338 728Q356 742 373 742Q387 742 396 733.5Q405 725 405 712Q405 702 397 690Q389 678 367 670L221 618H202Z" glyph-name="Eacute.smcp" horiz-adv-x="531" /><glyph d="M545 0H24V9Q40 10 55.5 14.5Q71 19 83 29Q95 39 102 54.5Q109 70 109 94V608Q109 632 102 647.5Q95 663 83 672Q71 681 55.5 685Q40 689 24 691V700H526L552 537H538Q518 581 492 610Q466 639 437.5 655.5Q409 672 378.5 678.5Q348 685 320 685H209V369H280Q320 369 348 372.5Q376 376 395.5 387.5Q415 399 427.5 421Q440 443 448 481H461V241H448Q440 278 428 300Q416 322 396.5 333.5Q377 345 348.5 348.5Q320 352 280 352H209V15H306Q345 15 386.5 25.5Q428 36 463.5 58.5Q499 81 525.5 116Q552 151 563 201H577ZM328 787Q306 787 284 794Q262 801 244.5 815Q227 829 215.5 850.5Q204 872 202 902H212Q221 868 250.5 852.5Q280 837 328 837Q376 837 406 852.5Q436 868 445 902H454Q452 872 440.5 850.5Q429 829 411.5 815Q394 801 372 794Q350 787 328 787Z" glyph-name="Ebreve" horiz-adv-x="617" unicode="&#276;" /><glyph d="M467 0H23V9Q39 10 54.5 14.5Q70 19 82 29Q94 39 101.5 55.5Q109 72 109 98V440Q109 465 101.5 481.5Q94 498 82 507.5Q70 517 54.5 521Q39 525 23 527V536H451L477 403H465Q427 468 377 494Q327 520 277 520H206V287H250Q280 287 303 290.5Q326 294 342.5 304Q359 314 370 331.5Q381 349 386 376H396V179H386Q381 206 370 223.5Q359 241 342.5 251Q326 261 303 264.5Q280 268 250 268H206V15H267Q300 15 334.5 24Q369 33 398.5 51.5Q428 70 450.5 97.5Q473 125 482 162H495ZM286 623Q264 623 242 630Q220 637 202.5 651Q185 665 173.5 686.5Q162 708 160 738H170Q179 704 208.5 688.5Q238 673 286 673Q334 673 364 688.5Q394 704 403 738H412Q410 708 398.5 686.5Q387 665 369.5 651Q352 637 330 630Q308 623 286 623Z" glyph-name="Ebreve.smcp" horiz-adv-x="531" /><glyph d="M545 0H24V9Q40 10 55.5 14.5Q71 19 83 29Q95 39 102 54.5Q109 70 109 94V608Q109 632 102 647.5Q95 663 83 672Q71 681 55.5 685Q40 689 24 691V700H526L552 537H538Q518 581 492 610Q466 639 437.5 655.5Q409 672 378.5 678.5Q348 685 320 685H209V369H280Q320 369 348 372.5Q376 376 395.5 387.5Q415 399 427.5 421Q440 443 448 481H461V241H448Q440 278 428 300Q416 322 396.5 333.5Q377 345 348.5 348.5Q320 352 280 352H209V15H306Q345 15 386.5 25.5Q428 36 463.5 58.5Q499 81 525.5 116Q552 151 563 201H577ZM327 840 463 906H472L335 780H317L184 906H195Z" glyph-name="Ecaron" horiz-adv-x="617" unicode="&#282;" /><glyph d="M467 0H23V9Q39 10 54.5 14.5Q70 19 82 29Q94 39 101.5 55.5Q109 72 109 98V440Q109 465 101.5 481.5Q94 498 82 507.5Q70 517 54.5 521Q39 525 23 527V536H451L477 403H465Q427 468 377 494Q327 520 277 520H206V287H250Q280 287 303 290.5Q326 294 342.5 304Q359 314 370 331.5Q381 349 386 376H396V179H386Q381 206 370 223.5Q359 241 342.5 251Q326 261 303 264.5Q280 268 250 268H206V15H267Q300 15 334.5 24Q369 33 398.5 51.5Q428 70 450.5 97.5Q473 125 482 162H495ZM285 676 421 742H430L293 616H275L142 742H153Z" glyph-name="Ecaron.smcp" horiz-adv-x="531" /><glyph d="M545 0H24V9Q40 10 55.5 14.5Q71 19 83 29Q95 39 102 54.5Q109 70 109 94V608Q109 632 102 647.5Q95 663 83 672Q71 681 55.5 685Q40 689 24 691V700H526L552 537H538Q518 581 492 610Q466 639 437.5 655.5Q409 672 378.5 678.5Q348 685 320 685H209V369H280Q320 369 348 372.5Q376 376 395.5 387.5Q415 399 427.5 421Q440 443 448 481H461V241H448Q440 278 428 300Q416 322 396.5 333.5Q377 345 348.5 348.5Q320 352 280 352H209V15H306Q345 15 386.5 25.5Q428 36 463.5 58.5Q499 81 525.5 116Q552 151 563 201H577ZM329 846 193 780H184L321 906H339L472 780H461Z" glyph-name="Ecircumflex" horiz-adv-x="617" unicode="&#202;" /><glyph d="M467 0H23V9Q39 10 54.5 14.5Q70 19 82 29Q94 39 101.5 55.5Q109 72 109 98V440Q109 465 101.5 481.5Q94 498 82 507.5Q70 517 54.5 521Q39 525 23 527V536H451L477 403H465Q427 468 377 494Q327 520 277 520H206V287H250Q280 287 303 290.5Q326 294 342.5 304Q359 314 370 331.5Q381 349 386 376H396V179H386Q381 206 370 223.5Q359 241 342.5 251Q326 261 303 264.5Q280 268 250 268H206V15H267Q300 15 334.5 24Q369 33 398.5 51.5Q428 70 450.5 97.5Q473 125 482 162H495ZM287 682 151 616H142L279 742H297L430 616H419Z" glyph-name="Ecircumflex.smcp" horiz-adv-x="531" /><glyph d="M545 0H24V9Q40 10 55.5 14.5Q71 19 83 29Q95 39 102 54.5Q109 70 109 94V608Q109 632 102 647.5Q95 663 83 672Q71 681 55.5 685Q40 689 24 691V700H526L552 537H538Q518 581 492 610Q466 639 437.5 655.5Q409 672 378.5 678.5Q348 685 320 685H209V369H280Q320 369 348 372.5Q376 376 395.5 387.5Q415 399 427.5 421Q440 443 448 481H461V241H448Q440 278 428 300Q416 322 396.5 333.5Q377 345 348.5 348.5Q320 352 280 352H209V15H306Q345 15 386.5 25.5Q428 36 463.5 58.5Q499 81 525.5 116Q552 151 563 201H577ZM404 780Q381 780 365.5 795Q350 810 350 832Q350 855 365.5 870Q381 885 404 885Q427 885 442 870Q457 855 457 832Q457 810 442 795Q427 780 404 780ZM254 780Q231 780 215.5 795Q200 810 200 832Q200 855 215.5 870Q231 885 254 885Q277 885 292 870Q307 855 307 832Q307 810 292 795Q277 780 254 780Z" glyph-name="Edieresis" horiz-adv-x="617" unicode="&#203;" /><glyph d="M467 0H23V9Q39 10 54.5 14.5Q70 19 82 29Q94 39 101.5 55.5Q109 72 109 98V440Q109 465 101.5 481.5Q94 498 82 507.5Q70 517 54.5 521Q39 525 23 527V536H451L477 403H465Q427 468 377 494Q327 520 277 520H206V287H250Q280 287 303 290.5Q326 294 342.5 304Q359 314 370 331.5Q381 349 386 376H396V179H386Q381 206 370 223.5Q359 241 342.5 251Q326 261 303 264.5Q280 268 250 268H206V15H267Q300 15 334.5 24Q369 33 398.5 51.5Q428 70 450.5 97.5Q473 125 482 162H495ZM360 616Q337 616 321.5 631Q306 646 306 668Q306 691 321.5 706Q337 721 360 721Q383 721 398 706Q413 691 413 668Q413 646 398 631Q383 616 360 616ZM210 616Q187 616 171.5 631Q156 646 156 668Q156 691 171.5 706Q187 721 210 721Q233 721 248 706Q263 691 263 668Q263 646 248 631Q233 616 210 616Z" glyph-name="Edieresis.smcp" horiz-adv-x="531" /><glyph d="M545 0H24V9Q40 10 55.5 14.5Q71 19 83 29Q95 39 102 54.5Q109 70 109 94V608Q109 632 102 647.5Q95 663 83 672Q71 681 55.5 685Q40 689 24 691V700H526L552 537H538Q518 581 492 610Q466 639 437.5 655.5Q409 672 378.5 678.5Q348 685 320 685H209V369H280Q320 369 348 372.5Q376 376 395.5 387.5Q415 399 427.5 421Q440 443 448 481H461V241H448Q440 278 428 300Q416 322 396.5 333.5Q377 345 348.5 348.5Q320 352 280 352H209V15H306Q345 15 386.5 25.5Q428 36 463.5 58.5Q499 81 525.5 116Q552 151 563 201H577ZM327 780Q304 780 288.5 795Q273 810 273 832Q273 855 288.5 870Q304 885 327 885Q350 885 365.5 870Q381 855 381 832Q381 810 365.5 795Q350 780 327 780Z" glyph-name="Edotaccent" horiz-adv-x="617" unicode="&#278;" /><glyph d="M467 0H23V9Q39 10 54.5 14.5Q70 19 82 29Q94 39 101.5 55.5Q109 72 109 98V440Q109 465 101.5 481.5Q94 498 82 507.5Q70 517 54.5 521Q39 525 23 527V536H451L477 403H465Q427 468 377 494Q327 520 277 520H206V287H250Q280 287 303 290.5Q326 294 342.5 304Q359 314 370 331.5Q381 349 386 376H396V179H386Q381 206 370 223.5Q359 241 342.5 251Q326 261 303 264.5Q280 268 250 268H206V15H267Q300 15 334.5 24Q369 33 398.5 51.5Q428 70 450.5 97.5Q473 125 482 162H495ZM285 616Q262 616 246.5 631Q231 646 231 668Q231 691 246.5 706Q262 721 285 721Q308 721 323.5 706Q339 691 339 668Q339 646 323.5 631Q308 616 285 616Z" glyph-name="Edotaccent.smcp" horiz-adv-x="531" /><glyph d="M545 0H24V9Q40 10 55.5 14.5Q71 19 83 29Q95 39 102 54.5Q109 70 109 94V608Q109 632 102 647.5Q95 663 83 672Q71 681 55.5 685Q40 689 24 691V700H526L552 537H538Q518 581 492 610Q466 639 437.5 655.5Q409 672 378.5 678.5Q348 685 320 685H209V369H280Q320 369 348 372.5Q376 376 395.5 387.5Q415 399 427.5 421Q440 443 448 481H461V241H448Q440 278 428 300Q416 322 396.5 333.5Q377 345 348.5 348.5Q320 352 280 352H209V15H306Q345 15 386.5 25.5Q428 36 463.5 58.5Q499 81 525.5 116Q552 151 563 201H577ZM385 782 239 834Q217 842 209 854Q201 866 201 876Q201 889 210 897.5Q219 906 233 906Q250 906 268 892L404 782Z" glyph-name="Egrave" horiz-adv-x="617" unicode="&#200;" /><glyph d="M467 0H23V9Q39 10 54.5 14.5Q70 19 82 29Q94 39 101.5 55.5Q109 72 109 98V440Q109 465 101.5 481.5Q94 498 82 507.5Q70 517 54.5 521Q39 525 23 527V536H451L477 403H465Q427 468 377 494Q327 520 277 520H206V287H250Q280 287 303 290.5Q326 294 342.5 304Q359 314 370 331.5Q381 349 386 376H396V179H386Q381 206 370 223.5Q359 241 342.5 251Q326 261 303 264.5Q280 268 250 268H206V15H267Q300 15 334.5 24Q369 33 398.5 51.5Q428 70 450.5 97.5Q473 125 482 162H495ZM342 618 196 670Q174 678 166 690Q158 702 158 712Q158 725 167 733.5Q176 742 190 742Q207 742 225 728L361 618Z" glyph-name="Egrave.smcp" horiz-adv-x="531" /><glyph d="M545 0H24V9Q40 10 55.5 14.5Q71 19 83 29Q95 39 102 54.5Q109 70 109 94V608Q109 632 102 647.5Q95 663 83 672Q71 681 55.5 685Q40 689 24 691V700H526L552 537H538Q518 581 492 610Q466 639 437.5 655.5Q409 672 378.5 678.5Q348 685 320 685H209V369H280Q320 369 348 372.5Q376 376 395.5 387.5Q415 399 427.5 421Q440 443 448 481H461V241H448Q440 278 428 300Q416 322 396.5 333.5Q377 345 348.5 348.5Q320 352 280 352H209V15H306Q345 15 386.5 25.5Q428 36 463.5 58.5Q499 81 525.5 116Q552 151 563 201H577ZM472 842V815H191V842Z" glyph-name="Emacron" horiz-adv-x="617" unicode="&#274;" /><glyph d="M467 0H23V9Q39 10 54.5 14.5Q70 19 82 29Q94 39 101.5 55.5Q109 72 109 98V440Q109 465 101.5 481.5Q94 498 82 507.5Q70 517 54.5 521Q39 525 23 527V536H451L477 403H465Q427 468 377 494Q327 520 277 520H206V287H250Q280 287 303 290.5Q326 294 342.5 304Q359 314 370 331.5Q381 349 386 376H396V179H386Q381 206 370 223.5Q359 241 342.5 251Q326 261 303 264.5Q280 268 250 268H206V15H267Q300 15 334.5 24Q369 33 398.5 51.5Q428 70 450.5 97.5Q473 125 482 162H495ZM429 678V651H148V678Z" glyph-name="Emacron.smcp" horiz-adv-x="531" /><glyph d="M422 -236Q407 -236 389 -231.5Q371 -227 354.5 -217.5Q338 -208 327 -192.5Q316 -177 316 -156Q316 -136 329.5 -119.5Q343 -103 367 -103Q390 -103 403.5 -116.5Q417 -130 417 -150Q417 -167 410 -181Q403 -195 403 -205Q403 -214 410 -217Q417 -220 430 -220Q461 -220 487 -202Q513 -184 531.5 -153Q550 -122 559.5 -81Q569 -40 568 5L141 583L143 149Q143 106 155.5 79.5Q168 53 186.5 38Q205 23 227 16.5Q249 10 268 9V0H14V9Q36 10 55 16Q74 22 88 38Q102 54 110.5 82.5Q119 111 119 158L122 514Q123 596 93.5 639.5Q64 683 21 691V700H180L573 165L571 543Q571 584 561 612Q551 640 535.5 657.5Q520 675 499 682.5Q478 690 456 691V700H702V691Q642 689 619 654.5Q596 620 595 543L592 42Q592 -7 584 -56.5Q576 -106 556.5 -146Q537 -186 504.5 -211Q472 -236 422 -236Z" glyph-name="Eng" horiz-adv-x="716" unicode="&#330;" /><glyph d="M352 -176Q336 -176 320 -172.5Q304 -169 291 -162Q278 -155 270 -144Q262 -133 262 -119Q262 -102 274 -90Q286 -78 305 -78Q324 -78 335 -88.5Q346 -99 346 -116Q346 -126 341.5 -135.5Q337 -145 337 -153Q337 -160 343 -162.5Q349 -165 356 -165Q388 -165 412 -148.5Q436 -132 451.5 -108Q467 -84 474 -56.5Q481 -29 480 -6L493 -22L127 434L129 127Q129 70 155.5 40Q182 10 241 7V0H12V7Q32 8 49.5 13.5Q67 19 79.5 32.5Q92 46 99.5 70Q107 94 107 132L109 369Q110 441 83 481Q56 521 17 528V536H168L479 154L477 406Q476 466 451.5 495.5Q427 525 374 528V536H595V528Q577 527 559.5 523Q542 519 528.5 506Q515 493 506.5 468.5Q498 444 498 404L496 -9Q495 -84 456.5 -130Q418 -176 352 -176Z" glyph-name="Eng.smcp" horiz-adv-x="605" /><glyph d="M525 -196Q510 -216 487 -228Q464 -240 438 -240Q396 -240 369 -215.5Q342 -191 342 -145Q342 -95 371 -56.5Q400 -18 442 0H24V9Q40 10 55.5 14.5Q71 19 83 29Q95 39 102 54.5Q109 70 109 94V608Q109 632 102 647.5Q95 663 83 672Q71 681 55.5 685Q40 689 24 691V700H526L552 537H538Q518 581 492 610Q466 639 437.5 655.5Q409 672 378.5 678.5Q348 685 320 685H209V369H280Q320 369 348 372.5Q376 376 395.5 387.5Q415 399 427.5 421Q440 443 448 481H461V241H448Q440 278 428 300Q416 322 396.5 333.5Q377 345 348.5 348.5Q320 352 280 352H209V15H306Q345 15 386.5 25.5Q428 36 463.5 58.5Q499 81 525.5 116Q552 151 563 201H577L545 0H467Q435 -15 418.5 -47.5Q402 -80 402 -122Q402 -167 422.5 -189Q443 -211 471 -211Q485 -211 496.5 -206Q508 -201 519 -191Z" glyph-name="Eogonek" horiz-adv-x="617" unicode="&#280;" /><glyph d="M450 -196Q435 -216 412 -228Q389 -240 363 -240Q321 -240 294 -215.5Q267 -191 267 -145Q267 -95 296 -56.5Q325 -18 367 0H23V9Q39 10 54.5 14.5Q70 19 82 29Q94 39 101.5 55.5Q109 72 109 98V440Q109 465 101.5 481.5Q94 498 82 507.5Q70 517 54.5 521Q39 525 23 527V536H451L477 403H465Q427 468 377 494Q327 520 277 520H206V287H250Q280 287 303 290.5Q326 294 342.5 304Q359 314 370 331.5Q381 349 386 376H396V179H386Q381 206 370 223.5Q359 241 342.5 251Q326 261 303 264.5Q280 268 250 268H206V15H267Q300 15 334.5 24Q369 33 398.5 51.5Q428 70 450.5 97.5Q473 125 482 162H495L467 0H392Q360 -15 343.5 -47.5Q327 -80 327 -122Q327 -167 347.5 -189Q368 -211 396 -211Q410 -211 421.5 -206Q433 -201 444 -191Z" glyph-name="Eogonek.smcp" horiz-adv-x="531" /><glyph d="M286 15Q352 15 403 44Q454 73 488.5 121Q523 169 541 230Q559 291 559 354Q559 439 538 501.5Q517 564 479.5 605Q442 646 389.5 665.5Q337 685 274 685H209V374H343V356H209V15ZM24 0V9Q39 10 54 14Q69 18 81.5 27Q94 36 101.5 51.5Q109 67 109 91V356H23V374H109V607Q109 631 101.5 646.5Q94 662 81.5 671.5Q69 681 54 685Q39 689 24 691V700H332Q404 700 466.5 677Q529 654 575 610Q621 566 647.5 502.5Q674 439 674 358Q674 295 652 231Q630 167 584.5 116Q539 65 469.5 32.5Q400 0 306 0Z" glyph-name="Eth" horiz-adv-x="711" unicode="&#208;" /><glyph d="M281 15Q325 15 361 33.5Q397 52 422 86Q447 120 460.5 166.5Q474 213 474 269Q474 337 457.5 385Q441 433 413 463Q385 493 346.5 506.5Q308 520 265 520H213V292H285V275H213V15ZM30 0V9Q46 10 61.5 14.5Q77 19 89 28.5Q101 38 108.5 54.5Q116 71 116 96V275H30V292H116V439Q116 464 108.5 480.5Q101 497 89 506.5Q77 516 61.5 520.5Q46 525 30 527V536H306Q364 536 415 517.5Q466 499 504 464.5Q542 430 563.5 381.5Q585 333 585 273Q585 223 566 174Q547 125 510 86.5Q473 48 418.5 24Q364 0 292 0Z" glyph-name="Eth.smcp" horiz-adv-x="620" /><glyph d="M562 148Q549 116 531 87.5Q513 59 488.5 37.5Q464 16 431.5 3.5Q399 -9 356 -9Q304 -9 258 11Q212 31 175.5 65.5Q139 100 115 147Q91 194 83 249H13V266H81Q79 280 79 295Q79 310 80 325H13V342H82Q89 397 114 445Q139 493 177.5 528Q216 563 265.5 583Q315 603 371 603Q422 603 472 593Q522 583 557 569L538 410L525 412Q511 497 467.5 543.5Q424 590 367 590Q332 590 302 575.5Q272 561 248.5 530.5Q225 500 211 453Q197 406 194 342H376L368 325H193Q193 312 193.5 296Q194 280 195 266H346L338 249H197Q204 192 222.5 153.5Q241 115 267 92.5Q293 70 323.5 60.5Q354 51 384 51Q402 51 423.5 55Q445 59 467.5 70Q490 81 511 100.5Q532 120 549 152Z" glyph-name="Euro" horiz-adv-x="596" unicode="&#8364;" /><glyph d="M647 171Q632 134 611.5 100.5Q591 67 562.5 42Q534 17 496 2.5Q458 -12 408 -12Q350 -12 298.5 12Q247 36 207 77.5Q167 119 140.5 175.5Q114 232 106 297H28V314H104Q101 351 105 387H28V404H107Q116 470 144.5 527Q173 584 216.5 626Q260 668 315 692Q370 716 433 716Q460 716 489 713Q518 710 545.5 704.5Q573 699 598 691Q623 683 643 674L620 489L605 491Q589 590 541 643.5Q493 697 426 697Q387 697 352.5 681Q318 665 291 630Q264 595 247 539Q230 483 226 404H435L426 387H225Q225 368 225.5 349.5Q226 331 227 314H400L391 297H228Q235 227 256 181Q277 135 306.5 107.5Q336 80 370.5 69Q405 58 439 58Q460 58 484.5 62.5Q509 67 535 79.5Q561 92 586 115Q611 138 632 175Z" glyph-name="Euro.LP" horiz-adv-x="693" /><glyph d="M537 122Q512 59 460 22.5Q408 -14 336 -14Q288 -14 245.5 4.5Q203 23 169 55Q135 87 112.5 130.5Q90 174 82 224H17V240H80Q78 254 78 266.5Q78 279 79 293H17V309H81Q88 360 112 404.5Q136 449 174 481.5Q212 514 261.5 532.5Q311 551 368 551Q417 551 460 540Q503 529 537 516L513 375L501 377Q487 454 448.5 495Q410 536 355 536Q324 536 295 522.5Q266 509 243 481.5Q220 454 205.5 411Q191 368 189 309H358L351 293H189Q189 262 192 240H330L323 224H194Q208 133 256 89Q304 45 370 45Q418 45 461.5 64Q505 83 530 125Z" glyph-name="Euro.smcp" horiz-adv-x="564" /><glyph d="M299 0H24V9Q40 10 55.5 14.5Q71 19 83 28Q95 37 102 53Q109 69 109 93V608Q109 632 102 647.5Q95 663 83 672Q71 681 55.5 685Q40 689 24 691V700H532L552 507H537Q508 594 444.5 639.5Q381 685 287 685H209V378H267Q306 378 334.5 381.5Q363 385 382.5 396.5Q402 408 414.5 430Q427 452 435 490H447V250H435Q427 287 415 309Q403 331 383.5 342.5Q364 354 335.5 357.5Q307 361 267 361H209V93Q209 69 216.5 53Q224 37 236.5 28Q249 19 265.5 14.5Q282 10 299 9Z" glyph-name="F" horiz-adv-x="573" unicode="F" /><glyph d="M290 0H23V9Q39 10 54.5 14.5Q70 19 82 28.5Q94 38 101.5 54.5Q109 71 109 97V440Q109 465 101.5 481.5Q94 498 82 507.5Q70 517 54.5 521Q39 525 23 527V536H458L479 378H466Q440 453 383.5 486.5Q327 520 259 520H206V289H244Q304 289 337 306Q370 323 381 377H391V182H381Q370 235 337 253Q304 271 244 271H206V97Q206 71 213 54.5Q220 38 232 28.5Q244 19 259 14.5Q274 10 290 9Z" glyph-name="F.smcp" horiz-adv-x="495" /><glyph d="M650 47Q609 25 547.5 5Q486 -15 417 -15Q333 -15 263 14.5Q193 44 143 93.5Q93 143 65 209Q37 275 37 349Q37 430 66.5 497.5Q96 565 148 613.5Q200 662 270.5 689Q341 716 423 716Q460 716 494.5 712Q529 708 559 701Q589 694 613 685.5Q637 677 653 668L623 497L609 499Q591 596 537 648Q483 700 402 700Q343 700 297 675.5Q251 651 218.5 607Q186 563 169 502.5Q152 442 152 370Q152 287 172 219.5Q192 152 228 103.5Q264 55 313.5 28.5Q363 2 423 2Q486 2 520.5 32Q555 62 555 114V226Q555 249 544 264.5Q533 280 516.5 289.5Q500 299 482 303.5Q464 308 449 310V318H732V310Q697 307 673.5 289.5Q650 272 650 226Z" glyph-name="G" horiz-adv-x="753" unicode="G" /><glyph d="M336 553Q391 553 440.5 543Q490 533 529 517L496 373L485 375Q471 453 428 495.5Q385 538 319 538Q234 538 189 471Q144 404 144 279Q144 205 160 152.5Q176 100 202 66.5Q228 33 261 17Q294 1 328 1Q380 1 411 28.5Q442 56 442 106V161Q442 184 431.5 199Q421 214 406 222.5Q391 231 374 235Q357 239 343 240V248H607V240Q575 238 553.5 222.5Q532 207 532 161V42Q478 12 424 -0.5Q370 -13 322 -13Q260 -13 207 8.5Q154 30 116 67.5Q78 105 56.5 156Q35 207 35 266Q35 330 57.5 382.5Q80 435 119.5 473Q159 511 214.5 532Q270 553 336 553Z" glyph-name="G.smcp" horiz-adv-x="621" /><glyph d="M650 47Q609 25 547.5 5Q486 -15 417 -15Q333 -15 263 14.5Q193 44 143 93.5Q93 143 65 209Q37 275 37 349Q37 430 66.5 497.5Q96 565 148 613.5Q200 662 270.5 689Q341 716 423 716Q460 716 494.5 712Q529 708 559 701Q589 694 613 685.5Q637 677 653 668L623 497L609 499Q591 596 537 648Q483 700 402 700Q343 700 297 675.5Q251 651 218.5 607Q186 563 169 502.5Q152 442 152 370Q152 287 172 219.5Q192 152 228 103.5Q264 55 313.5 28.5Q363 2 423 2Q486 2 520.5 32Q555 62 555 114V226Q555 249 544 264.5Q533 280 516.5 289.5Q500 299 482 303.5Q464 308 449 310V318H732V310Q697 307 673.5 289.5Q650 272 650 226ZM407 787Q385 787 363 794Q341 801 323.5 815Q306 829 294.5 850.5Q283 872 281 902H291Q300 868 329.5 852.5Q359 837 407 837Q455 837 485 852.5Q515 868 524 902H533Q531 872 519.5 850.5Q508 829 490.5 815Q473 801 451 794Q429 787 407 787Z" glyph-name="Gbreve" horiz-adv-x="753" unicode="&#286;" /><glyph d="M336 553Q391 553 440.5 543Q490 533 529 517L496 373L485 375Q471 453 428 495.5Q385 538 319 538Q234 538 189 471Q144 404 144 279Q144 205 160 152.5Q176 100 202 66.5Q228 33 261 17Q294 1 328 1Q380 1 411 28.5Q442 56 442 106V161Q442 184 431.5 199Q421 214 406 222.5Q391 231 374 235Q357 239 343 240V248H607V240Q575 238 553.5 222.5Q532 207 532 161V42Q478 12 424 -0.5Q370 -13 322 -13Q260 -13 207 8.5Q154 30 116 67.5Q78 105 56.5 156Q35 207 35 266Q35 330 57.5 382.5Q80 435 119.5 473Q159 511 214.5 532Q270 553 336 553ZM321 623Q299 623 277 630Q255 637 237.5 651Q220 665 208.5 686.5Q197 708 195 738H205Q214 704 243.5 688.5Q273 673 321 673Q369 673 399 688.5Q429 704 438 738H447Q445 708 433.5 686.5Q422 665 404.5 651Q387 637 365 630Q343 623 321 623Z" glyph-name="Gbreve.smcp" horiz-adv-x="621" /><glyph d="M650 47Q609 25 547.5 5Q486 -15 417 -15Q333 -15 263 14.5Q193 44 143 93.5Q93 143 65 209Q37 275 37 349Q37 430 66.5 497.5Q96 565 148 613.5Q200 662 270.5 689Q341 716 423 716Q460 716 494.5 712Q529 708 559 701Q589 694 613 685.5Q637 677 653 668L623 497L609 499Q591 596 537 648Q483 700 402 700Q343 700 297 675.5Q251 651 218.5 607Q186 563 169 502.5Q152 442 152 370Q152 287 172 219.5Q192 152 228 103.5Q264 55 313.5 28.5Q363 2 423 2Q486 2 520.5 32Q555 62 555 114V226Q555 249 544 264.5Q533 280 516.5 289.5Q500 299 482 303.5Q464 308 449 310V318H732V310Q697 307 673.5 289.5Q650 272 650 226ZM408 846 272 780H263L400 906H418L551 780H540Z" glyph-name="Gcircumflex" horiz-adv-x="753" unicode="&#284;" /><glyph d="M336 553Q391 553 440.5 543Q490 533 529 517L496 373L485 375Q471 453 428 495.5Q385 538 319 538Q234 538 189 471Q144 404 144 279Q144 205 160 152.5Q176 100 202 66.5Q228 33 261 17Q294 1 328 1Q380 1 411 28.5Q442 56 442 106V161Q442 184 431.5 199Q421 214 406 222.5Q391 231 374 235Q357 239 343 240V248H607V240Q575 238 553.5 222.5Q532 207 532 161V42Q478 12 424 -0.5Q370 -13 322 -13Q260 -13 207 8.5Q154 30 116 67.5Q78 105 56.5 156Q35 207 35 266Q35 330 57.5 382.5Q80 435 119.5 473Q159 511 214.5 532Q270 553 336 553ZM322 682 186 616H177L314 742H332L465 616H454Z" glyph-name="Gcircumflex.smcp" horiz-adv-x="621" /><glyph d="M429 -227Q429 -217 425 -209Q421 -201 402 -197Q377 -192 363.5 -177.5Q350 -163 350 -143Q350 -122 364.5 -106Q379 -90 402 -90Q425 -90 443 -107.5Q461 -125 461 -170Q461 -224 436.5 -264Q412 -304 366 -316L360 -304Q394 -294 411.5 -272Q429 -250 429 -227ZM650 47Q609 25 547.5 5Q486 -15 417 -15Q333 -15 263 14.5Q193 44 143 93.5Q93 143 65 209Q37 275 37 349Q37 430 66.5 497.5Q96 565 148 613.5Q200 662 270.5 689Q341 716 423 716Q460 716 494.5 712Q529 708 559 701Q589 694 613 685.5Q637 677 653 668L623 497L609 499Q591 596 537 648Q483 700 402 700Q343 700 297 675.5Q251 651 218.5 607Q186 563 169 502.5Q152 442 152 370Q152 287 172 219.5Q192 152 228 103.5Q264 55 313.5 28.5Q363 2 423 2Q486 2 520.5 32Q555 62 555 114V226Q555 249 544 264.5Q533 280 516.5 289.5Q500 299 482 303.5Q464 308 449 310V318H732V310Q697 307 673.5 289.5Q650 272 650 226Z" glyph-name="Gcommaaccent" horiz-adv-x="753" unicode="&#290;" /><glyph d="M347 -227Q347 -217 343 -209Q339 -201 320 -197Q295 -192 281.5 -177.5Q268 -163 268 -143Q268 -122 282.5 -106Q297 -90 320 -90Q343 -90 361 -107.5Q379 -125 379 -170Q379 -224 354.5 -264Q330 -304 284 -316L278 -304Q312 -294 329.5 -272Q347 -250 347 -227ZM336 553Q391 553 440.5 543Q490 533 529 517L496 373L485 375Q471 453 428 495.5Q385 538 319 538Q234 538 189 471Q144 404 144 279Q144 205 160 152.5Q176 100 202 66.5Q228 33 261 17Q294 1 328 1Q380 1 411 28.5Q442 56 442 106V161Q442 184 431.5 199Q421 214 406 222.5Q391 231 374 235Q357 239 343 240V248H607V240Q575 238 553.5 222.5Q532 207 532 161V42Q478 12 424 -0.5Q370 -13 322 -13Q260 -13 207 8.5Q154 30 116 67.5Q78 105 56.5 156Q35 207 35 266Q35 330 57.5 382.5Q80 435 119.5 473Q159 511 214.5 532Q270 553 336 553Z" glyph-name="Gcommaaccent.smcp" horiz-adv-x="621" /><glyph d="M650 47Q609 25 547.5 5Q486 -15 417 -15Q333 -15 263 14.5Q193 44 143 93.5Q93 143 65 209Q37 275 37 349Q37 430 66.5 497.5Q96 565 148 613.5Q200 662 270.5 689Q341 716 423 716Q460 716 494.5 712Q529 708 559 701Q589 694 613 685.5Q637 677 653 668L623 497L609 499Q591 596 537 648Q483 700 402 700Q343 700 297 675.5Q251 651 218.5 607Q186 563 169 502.5Q152 442 152 370Q152 287 172 219.5Q192 152 228 103.5Q264 55 313.5 28.5Q363 2 423 2Q486 2 520.5 32Q555 62 555 114V226Q555 249 544 264.5Q533 280 516.5 289.5Q500 299 482 303.5Q464 308 449 310V318H732V310Q697 307 673.5 289.5Q650 272 650 226ZM406 780Q383 780 367.5 795Q352 810 352 832Q352 855 367.5 870Q383 885 406 885Q429 885 444.5 870Q460 855 460 832Q460 810 444.5 795Q429 780 406 780Z" glyph-name="Gdotaccent" horiz-adv-x="753" unicode="&#288;" /><glyph d="M336 553Q391 553 440.5 543Q490 533 529 517L496 373L485 375Q471 453 428 495.5Q385 538 319 538Q234 538 189 471Q144 404 144 279Q144 205 160 152.5Q176 100 202 66.5Q228 33 261 17Q294 1 328 1Q380 1 411 28.5Q442 56 442 106V161Q442 184 431.5 199Q421 214 406 222.5Q391 231 374 235Q357 239 343 240V248H607V240Q575 238 553.5 222.5Q532 207 532 161V42Q478 12 424 -0.5Q370 -13 322 -13Q260 -13 207 8.5Q154 30 116 67.5Q78 105 56.5 156Q35 207 35 266Q35 330 57.5 382.5Q80 435 119.5 473Q159 511 214.5 532Q270 553 336 553ZM320 616Q297 616 281.5 631Q266 646 266 668Q266 691 281.5 706Q297 721 320 721Q343 721 358.5 706Q374 691 374 668Q374 646 358.5 631Q343 616 320 616Z" glyph-name="Gdotaccent.smcp" horiz-adv-x="621" /><glyph d="M296 0H24V9Q40 10 55.5 14.5Q71 19 83 28Q95 37 102 53Q109 69 109 93V607Q109 631 102 647Q95 663 83 672Q71 681 55.5 685Q40 689 24 691V700H296V691Q279 689 263.5 685Q248 681 236 671Q224 661 216.5 645Q209 629 209 605V373H502V605Q502 629 494.5 645Q487 661 475 671Q463 681 447.5 685Q432 689 415 691V700H687V691Q671 689 655.5 685Q640 681 628 672Q616 663 609 647Q602 631 602 607V93Q602 69 609 53Q616 37 628 28Q640 19 655.5 14.5Q671 10 687 9V0H415V9Q432 10 447.5 14.5Q463 19 475 29Q487 39 494.5 55Q502 71 502 95V354H209V95Q209 71 216.5 55Q224 39 236 29Q248 19 263.5 14.5Q279 10 296 9Z" glyph-name="H" horiz-adv-x="711" unicode="H" /><glyph d="M283 0H23V9Q39 10 54.5 14.5Q70 19 82 28.5Q94 38 101.5 54.5Q109 71 109 97V439Q109 464 101.5 480.5Q94 497 82 506.5Q70 516 54.5 520.5Q39 525 23 527V536H283V527Q248 525 227 504.5Q206 484 206 434V290H422V434Q422 484 400.5 504.5Q379 525 345 527V536H605V527Q588 525 572.5 520.5Q557 516 545 506.5Q533 497 526 480.5Q519 464 519 439V97Q519 71 526 54.5Q533 38 545 28.5Q557 19 572.5 14.5Q588 10 605 9V0H345V9Q379 12 400.5 32Q422 52 422 102V272H206V102Q206 52 227 32Q248 12 283 9Z" glyph-name="H.smcp" horiz-adv-x="626" /><glyph d="M296 0H24V9Q40 10 55.5 14.5Q71 19 83 28Q95 37 102 53Q109 69 109 93V497H21V516H109V607Q109 631 102 647Q95 663 83 672Q71 681 55.5 685Q40 689 24 691V700H296V691Q279 689 263.5 685Q248 681 236 671Q224 661 216.5 645Q209 629 209 605V516H502V605Q502 629 494.5 645Q487 661 475 671Q463 681 447.5 685Q432 689 415 691V700H687V691Q671 689 655.5 685Q640 681 628 672Q616 663 609 647Q602 631 602 607V516H691V497H602V93Q602 69 609 53Q616 37 628 28Q640 19 655.5 14.5Q671 10 687 9V0H415V9Q432 10 447.5 14.5Q463 19 475 29Q487 39 494.5 55Q502 71 502 95V354H209V95Q209 71 216.5 55Q224 39 236 29Q248 19 263.5 14.5Q279 10 296 9ZM502 497H209V373H502Z" glyph-name="Hbar" horiz-adv-x="711" unicode="&#294;" /><glyph d="M283 0H23V9Q39 10 54.5 14.5Q70 19 82 28.5Q94 38 101.5 54.5Q109 71 109 97V379H26V396H109V439Q109 464 101.5 480.5Q94 497 82 506.5Q70 516 54.5 520.5Q39 525 23 527V536H283V527Q248 525 227 504.5Q206 484 206 434V396H422V434Q422 484 400.5 504.5Q379 525 345 527V536H605V527Q588 525 572.5 520.5Q557 516 545 506.5Q533 497 526 480.5Q519 464 519 439V396H600V379H519V97Q519 71 526 54.5Q533 38 545 28.5Q557 19 572.5 14.5Q588 10 605 9V0H345V9Q379 12 400.5 32Q422 52 422 102V272H206V102Q206 52 227 32Q248 12 283 9ZM422 379H206V290H422Z" glyph-name="Hbar.smcp" horiz-adv-x="626" /><glyph d="M296 0H24V9Q40 10 55.5 14.5Q71 19 83 28Q95 37 102 53Q109 69 109 93V607Q109 631 102 647Q95 663 83 672Q71 681 55.5 685Q40 689 24 691V700H296V691Q279 689 263.5 685Q248 681 236 671Q224 661 216.5 645Q209 629 209 605V373H502V605Q502 629 494.5 645Q487 661 475 671Q463 681 447.5 685Q432 689 415 691V700H687V691Q671 689 655.5 685Q640 681 628 672Q616 663 609 647Q602 631 602 607V93Q602 69 609 53Q616 37 628 28Q640 19 655.5 14.5Q671 10 687 9V0H415V9Q432 10 447.5 14.5Q463 19 475 29Q487 39 494.5 55Q502 71 502 95V354H209V95Q209 71 216.5 55Q224 39 236 29Q248 19 263.5 14.5Q279 10 296 9ZM358 846 222 780H213L350 906H368L501 780H490Z" glyph-name="Hcircumflex" horiz-adv-x="711" unicode="&#292;" /><glyph d="M283 0H23V9Q39 10 54.5 14.5Q70 19 82 28.5Q94 38 101.5 54.5Q109 71 109 97V439Q109 464 101.5 480.5Q94 497 82 506.5Q70 516 54.5 520.5Q39 525 23 527V536H283V527Q248 525 227 504.5Q206 484 206 434V290H422V434Q422 484 400.5 504.5Q379 525 345 527V536H605V527Q588 525 572.5 520.5Q557 516 545 506.5Q533 497 526 480.5Q519 464 519 439V97Q519 71 526 54.5Q533 38 545 28.5Q557 19 572.5 14.5Q588 10 605 9V0H345V9Q379 12 400.5 32Q422 52 422 102V272H206V102Q206 52 227 32Q248 12 283 9ZM316 682 180 616H171L308 742H326L459 616H448Z" glyph-name="Hcircumflex.smcp" horiz-adv-x="626" /><glyph d="M294 691Q278 689 262.5 685Q247 681 235 672Q223 663 216 647Q209 631 209 607V93Q209 69 216 53Q223 37 235 28Q247 19 262.5 14.5Q278 10 294 9V0H24V9Q40 10 55.5 14.5Q71 19 83 28Q95 37 102 53Q109 69 109 93V607Q109 631 102 647Q95 663 83 672Q71 681 55.5 685Q40 689 24 691V700H294Z" glyph-name="I" horiz-adv-x="318" unicode="I" /><glyph d="M292 527Q275 525 259.5 520.5Q244 516 232 506.5Q220 497 213 480.5Q206 464 206 439V97Q206 71 213 54.5Q220 38 232 28.5Q244 19 259.5 14.5Q275 10 292 9V0H23V9Q39 10 54.5 14.5Q70 19 82 28.5Q94 38 101.5 54.5Q109 71 109 97V439Q109 464 101.5 480.5Q94 497 82 506.5Q70 516 54.5 520.5Q39 525 23 527V536H292Z" glyph-name="I.smcp" horiz-adv-x="313" /><glyph d="M617 85Q617 26 600 -23.5Q583 -73 554 -109Q525 -145 484.5 -165.5Q444 -186 398 -186Q372 -186 351 -179Q330 -172 315 -160Q300 -148 291.5 -133Q283 -118 283 -103Q283 -80 298.5 -62.5Q314 -45 339 -45Q362 -45 378 -61.5Q394 -78 394 -104Q394 -121 389.5 -128.5Q385 -136 385 -146Q385 -161 394.5 -166Q404 -171 415 -171Q431 -171 449.5 -163.5Q468 -156 483.5 -139Q499 -122 509 -95Q519 -68 519 -28Q519 39 518 83Q517 127 517 158V608Q517 632 510 647.5Q503 663 491.5 672Q480 681 465 685Q450 689 434 691V700H704V691Q687 689 671.5 685Q656 681 644 672Q632 663 624.5 647.5Q617 632 617 608ZM294 691Q278 689 262.5 685Q247 681 235 672Q223 663 216 647Q209 631 209 607V93Q209 69 216 53Q223 37 235 28Q247 19 262.5 14.5Q278 10 294 9V0H24V9Q40 10 55.5 14.5Q71 19 83 28Q95 37 102 53Q109 69 109 93V607Q109 631 102 647Q95 663 83 672Q71 681 55.5 685Q40 689 24 691V700H294Z" glyph-name="IJ" horiz-adv-x="719" unicode="&#306;" /><glyph d="M384 -155Q335 -155 307.5 -134.5Q280 -114 280 -86Q280 -67 293.5 -55Q307 -43 325 -43Q342 -43 356.5 -55Q371 -67 371 -87Q371 -98 368 -106.5Q365 -115 365 -122Q365 -141 391 -141Q403 -141 415.5 -136Q428 -131 439 -119Q450 -107 457 -87.5Q464 -68 464 -40Q464 5 463 40.5Q462 76 462 106V440Q462 465 454.5 481Q447 497 435 507Q423 517 408 521Q393 525 378 527V536H645V527Q628 525 612.5 521Q597 517 585 507Q573 497 565.5 481Q558 465 558 440V46Q558 1 544 -36.5Q530 -74 506 -100Q482 -126 450.5 -140.5Q419 -155 384 -155ZM292 527Q275 525 259.5 520.5Q244 516 232 506.5Q220 497 213 480.5Q206 464 206 439V97Q206 71 213 54.5Q220 38 232 28.5Q244 19 259.5 14.5Q275 10 292 9V0H23V9Q39 10 54.5 14.5Q70 19 82 28.5Q94 38 101.5 54.5Q109 71 109 97V439Q109 464 101.5 480.5Q94 497 82 506.5Q70 516 54.5 520.5Q39 525 23 527V536H292Z" glyph-name="IJ.smcp" horiz-adv-x="660" /><glyph d="M294 691Q278 689 262.5 685Q247 681 235 672Q223 663 216 647Q209 631 209 607V93Q209 69 216 53Q223 37 235 28Q247 19 262.5 14.5Q278 10 294 9V0H24V9Q40 10 55.5 14.5Q71 19 83 28Q95 37 102 53Q109 69 109 93V607Q109 631 102 647Q95 663 83 672Q71 681 55.5 685Q40 689 24 691V700H294ZM212 892Q230 906 247 906Q261 906 270 897.5Q279 889 279 876Q279 866 271 854Q263 842 241 834L95 782H76Z" glyph-name="Iacute" horiz-adv-x="318" unicode="&#205;" /><glyph d="M292 527Q275 525 259.5 520.5Q244 516 232 506.5Q220 497 213 480.5Q206 464 206 439V97Q206 71 213 54.5Q220 38 232 28.5Q244 19 259.5 14.5Q275 10 292 9V0H23V9Q39 10 54.5 14.5Q70 19 82 28.5Q94 38 101.5 54.5Q109 71 109 97V439Q109 464 101.5 480.5Q94 497 82 506.5Q70 516 54.5 520.5Q39 525 23 527V536H292ZM210 728Q228 742 245 742Q259 742 268 733.5Q277 725 277 712Q277 702 269 690Q261 678 239 670L93 618H74Z" glyph-name="Iacute.smcp" horiz-adv-x="313" /><glyph d="M294 691Q278 689 262.5 685Q247 681 235 672Q223 663 216 647Q209 631 209 607V93Q209 69 216 53Q223 37 235 28Q247 19 262.5 14.5Q278 10 294 9V0H24V9Q40 10 55.5 14.5Q71 19 83 28Q95 37 102 53Q109 69 109 93V607Q109 631 102 647Q95 663 83 672Q71 681 55.5 685Q40 689 24 691V700H294ZM160 787Q138 787 116 794Q94 801 76.5 815Q59 829 47.5 850.5Q36 872 34 902H44Q53 868 82.5 852.5Q112 837 160 837Q208 837 238 852.5Q268 868 277 902H286Q284 872 272.5 850.5Q261 829 243.5 815Q226 801 204 794Q182 787 160 787Z" glyph-name="Ibreve" horiz-adv-x="318" unicode="&#300;" /><glyph d="M292 527Q275 525 259.5 520.5Q244 516 232 506.5Q220 497 213 480.5Q206 464 206 439V97Q206 71 213 54.5Q220 38 232 28.5Q244 19 259.5 14.5Q275 10 292 9V0H23V9Q39 10 54.5 14.5Q70 19 82 28.5Q94 38 101.5 54.5Q109 71 109 97V439Q109 464 101.5 480.5Q94 497 82 506.5Q70 516 54.5 520.5Q39 525 23 527V536H292ZM158 623Q136 623 114 630Q92 637 74.5 651Q57 665 45.5 686.5Q34 708 32 738H42Q51 704 80.5 688.5Q110 673 158 673Q206 673 236 688.5Q266 704 275 738H284Q282 708 270.5 686.5Q259 665 241.5 651Q224 637 202 630Q180 623 158 623Z" glyph-name="Ibreve.smcp" horiz-adv-x="313" /><glyph d="M294 691Q278 689 262.5 685Q247 681 235 672Q223 663 216 647Q209 631 209 607V93Q209 69 216 53Q223 37 235 28Q247 19 262.5 14.5Q278 10 294 9V0H24V9Q40 10 55.5 14.5Q71 19 83 28Q95 37 102 53Q109 69 109 93V607Q109 631 102 647Q95 663 83 672Q71 681 55.5 685Q40 689 24 691V700H294ZM161 846 25 780H16L153 906H171L304 780H293Z" glyph-name="Icircumflex" horiz-adv-x="318" unicode="&#206;" /><glyph d="M292 527Q275 525 259.5 520.5Q244 516 232 506.5Q220 497 213 480.5Q206 464 206 439V97Q206 71 213 54.5Q220 38 232 28.5Q244 19 259.5 14.5Q275 10 292 9V0H23V9Q39 10 54.5 14.5Q70 19 82 28.5Q94 38 101.5 54.5Q109 71 109 97V439Q109 464 101.5 480.5Q94 497 82 506.5Q70 516 54.5 520.5Q39 525 23 527V536H292ZM159 682 23 616H14L151 742H169L302 616H291Z" glyph-name="Icircumflex.smcp" horiz-adv-x="313" /><glyph d="M294 691Q278 689 262.5 685Q247 681 235 672Q223 663 216 647Q209 631 209 607V93Q209 69 216 53Q223 37 235 28Q247 19 262.5 14.5Q278 10 294 9V0H24V9Q40 10 55.5 14.5Q71 19 83 28Q95 37 102 53Q109 69 109 93V607Q109 631 102 647Q95 663 83 672Q71 681 55.5 685Q40 689 24 691V700H294ZM236 780Q213 780 197.5 795Q182 810 182 832Q182 855 197.5 870Q213 885 236 885Q259 885 274 870Q289 855 289 832Q289 810 274 795Q259 780 236 780ZM86 780Q63 780 47.5 795Q32 810 32 832Q32 855 47.5 870Q63 885 86 885Q109 885 124 870Q139 855 139 832Q139 810 124 795Q109 780 86 780Z" glyph-name="Idieresis" horiz-adv-x="318" unicode="&#207;" /><glyph d="M292 527Q275 525 259.5 520.5Q244 516 232 506.5Q220 497 213 480.5Q206 464 206 439V97Q206 71 213 54.5Q220 38 232 28.5Q244 19 259.5 14.5Q275 10 292 9V0H23V9Q39 10 54.5 14.5Q70 19 82 28.5Q94 38 101.5 54.5Q109 71 109 97V439Q109 464 101.5 480.5Q94 497 82 506.5Q70 516 54.5 520.5Q39 525 23 527V536H292ZM232 616Q209 616 193.5 631Q178 646 178 668Q178 691 193.5 706Q209 721 232 721Q255 721 270 706Q285 691 285 668Q285 646 270 631Q255 616 232 616ZM82 616Q59 616 43.5 631Q28 646 28 668Q28 691 43.5 706Q59 721 82 721Q105 721 120 706Q135 691 135 668Q135 646 120 631Q105 616 82 616Z" glyph-name="Idieresis.smcp" horiz-adv-x="313" /><glyph d="M294 691Q278 689 262.5 685Q247 681 235 672Q223 663 216 647Q209 631 209 607V93Q209 69 216 53Q223 37 235 28Q247 19 262.5 14.5Q278 10 294 9V0H24V9Q40 10 55.5 14.5Q71 19 83 28Q95 37 102 53Q109 69 109 93V607Q109 631 102 647Q95 663 83 672Q71 681 55.5 685Q40 689 24 691V700H294ZM159 780Q136 780 120.5 795Q105 810 105 832Q105 855 120.5 870Q136 885 159 885Q182 885 197.5 870Q213 855 213 832Q213 810 197.5 795Q182 780 159 780Z" glyph-name="Idotaccent" horiz-adv-x="318" unicode="&#304;" /><glyph d="M292 527Q275 525 259.5 520.5Q244 516 232 506.5Q220 497 213 480.5Q206 464 206 439V97Q206 71 213 54.5Q220 38 232 28.5Q244 19 259.5 14.5Q275 10 292 9V0H23V9Q39 10 54.5 14.5Q70 19 82 28.5Q94 38 101.5 54.5Q109 71 109 97V439Q109 464 101.5 480.5Q94 497 82 506.5Q70 516 54.5 520.5Q39 525 23 527V536H292ZM157 616Q134 616 118.5 631Q103 646 103 668Q103 691 118.5 706Q134 721 157 721Q180 721 195.5 706Q211 691 211 668Q211 646 195.5 631Q180 616 157 616Z" glyph-name="Idotaccent.smcp" horiz-adv-x="313" /><glyph d="M294 691Q278 689 262.5 685Q247 681 235 672Q223 663 216 647Q209 631 209 607V93Q209 69 216 53Q223 37 235 28Q247 19 262.5 14.5Q278 10 294 9V0H24V9Q40 10 55.5 14.5Q71 19 83 28Q95 37 102 53Q109 69 109 93V607Q109 631 102 647Q95 663 83 672Q71 681 55.5 685Q40 689 24 691V700H294ZM217 782 71 834Q49 842 41 854Q33 866 33 876Q33 889 42 897.5Q51 906 65 906Q82 906 100 892L236 782Z" glyph-name="Igrave" horiz-adv-x="318" unicode="&#204;" /><glyph d="M292 527Q275 525 259.5 520.5Q244 516 232 506.5Q220 497 213 480.5Q206 464 206 439V97Q206 71 213 54.5Q220 38 232 28.5Q244 19 259.5 14.5Q275 10 292 9V0H23V9Q39 10 54.5 14.5Q70 19 82 28.5Q94 38 101.5 54.5Q109 71 109 97V439Q109 464 101.5 480.5Q94 497 82 506.5Q70 516 54.5 520.5Q39 525 23 527V536H292ZM214 618 68 670Q46 678 38 690Q30 702 30 712Q30 725 39 733.5Q48 742 62 742Q79 742 97 728L233 618Z" glyph-name="Igrave.smcp" horiz-adv-x="313" /><glyph d="M294 691Q278 689 262.5 685Q247 681 235 672Q223 663 216 647Q209 631 209 607V93Q209 69 216 53Q223 37 235 28Q247 19 262.5 14.5Q278 10 294 9V0H24V9Q40 10 55.5 14.5Q71 19 83 28Q95 37 102 53Q109 69 109 93V607Q109 631 102 647Q95 663 83 672Q71 681 55.5 685Q40 689 24 691V700H294ZM304 842V815H23V842Z" glyph-name="Imacron" horiz-adv-x="318" unicode="&#298;" /><glyph d="M292 527Q275 525 259.5 520.5Q244 516 232 506.5Q220 497 213 480.5Q206 464 206 439V97Q206 71 213 54.5Q220 38 232 28.5Q244 19 259.5 14.5Q275 10 292 9V0H23V9Q39 10 54.5 14.5Q70 19 82 28.5Q94 38 101.5 54.5Q109 71 109 97V439Q109 464 101.5 480.5Q94 497 82 506.5Q70 516 54.5 520.5Q39 525 23 527V536H292ZM301 678V651H20V678Z" glyph-name="Imacron.smcp" horiz-adv-x="313" /><glyph d="M258 -196Q243 -216 220 -228Q197 -240 171 -240Q129 -240 102 -215.5Q75 -191 75 -145Q75 -95 104 -56.5Q133 -18 175 0H24V9Q40 10 55.5 14.5Q71 19 83 28Q95 37 102 53Q109 69 109 93V607Q109 631 102 647Q95 663 83 672Q71 681 55.5 685Q40 689 24 691V700H294V691Q278 689 262.5 685Q247 681 235 672Q223 663 216 647Q209 631 209 607V93Q209 69 216 53Q223 37 235 28Q247 19 262.5 14.5Q278 10 294 9V0H200Q168 -15 151.5 -47.5Q135 -80 135 -122Q135 -167 155.5 -189Q176 -211 204 -211Q218 -211 229.5 -206Q241 -201 252 -191Z" glyph-name="Iogonek" horiz-adv-x="318" unicode="&#302;" /><glyph d="M264 -196Q249 -216 226 -228Q203 -240 177 -240Q135 -240 108 -215.5Q81 -191 81 -145Q81 -95 110 -56.5Q139 -18 181 0H23V9Q39 10 54.5 14.5Q70 19 82 28.5Q94 38 101.5 54.5Q109 71 109 97V439Q109 464 101.5 480.5Q94 497 82 506.5Q70 516 54.5 520.5Q39 525 23 527V536H292V527Q275 525 259.5 520.5Q244 516 232 506.5Q220 497 213 480.5Q206 464 206 439V97Q206 71 213 54.5Q220 38 232 28.5Q244 19 259.5 14.5Q275 10 292 9V0H206Q174 -15 157.5 -47.5Q141 -80 141 -122Q141 -167 161.5 -189Q182 -211 210 -211Q224 -211 235.5 -206Q247 -201 258 -191Z" glyph-name="Iogonek.smcp" horiz-adv-x="313" /><glyph d="M294 691Q278 689 262.5 685Q247 681 235 672Q223 663 216 647Q209 631 209 607V93Q209 69 216 53Q223 37 235 28Q247 19 262.5 14.5Q278 10 294 9V0H24V9Q40 10 55.5 14.5Q71 19 83 28Q95 37 102 53Q109 69 109 93V607Q109 631 102 647Q95 663 83 672Q71 681 55.5 685Q40 689 24 691V700H294ZM295 891Q292 863 283.5 844.5Q275 826 264.5 814.5Q254 803 243 798.5Q232 794 222 794Q199 794 181 799.5Q163 805 146 812Q129 819 112 824.5Q95 830 75 830Q41 830 30 790L22 792Q28 842 51 864Q74 886 99 886Q115 886 133.5 880Q152 874 170.5 867Q189 860 207 854Q225 848 241 848Q255 848 266.5 856.5Q278 865 287 893Z" glyph-name="Itilde" horiz-adv-x="318" unicode="&#296;" /><glyph d="M292 527Q275 525 259.5 520.5Q244 516 232 506.5Q220 497 213 480.5Q206 464 206 439V97Q206 71 213 54.5Q220 38 232 28.5Q244 19 259.5 14.5Q275 10 292 9V0H23V9Q39 10 54.5 14.5Q70 19 82 28.5Q94 38 101.5 54.5Q109 71 109 97V439Q109 464 101.5 480.5Q94 497 82 506.5Q70 516 54.5 520.5Q39 525 23 527V536H292ZM293 727Q290 699 281.5 680.5Q273 662 262.5 650.5Q252 639 241 634.5Q230 630 220 630Q197 630 179 635.5Q161 641 144 648Q127 655 110 660.5Q93 666 73 666Q39 666 28 626L20 628Q26 678 49 700Q72 722 97 722Q113 722 131.5 716Q150 710 168.5 703Q187 696 205 690Q223 684 239 684Q253 684 264.5 692.5Q276 701 285 729Z" glyph-name="Itilde.smcp" horiz-adv-x="313" /><glyph d="M299 85Q299 26 282 -23.5Q265 -73 236 -109Q207 -145 166.5 -165.5Q126 -186 80 -186Q54 -186 33 -179Q12 -172 -3 -160Q-18 -148 -26.5 -133Q-35 -118 -35 -103Q-35 -80 -19.5 -62.5Q-4 -45 21 -45Q44 -45 60 -61.5Q76 -78 76 -104Q76 -121 71.5 -128.5Q67 -136 67 -146Q67 -161 76.5 -166Q86 -171 97 -171Q113 -171 131.5 -163.5Q150 -156 165.5 -139Q181 -122 191 -95Q201 -68 201 -28Q201 39 200 83Q199 127 199 158V608Q199 632 192 647.5Q185 663 173.5 672Q162 681 147 685Q132 689 116 691V700H386V691Q369 689 353.5 685Q338 681 326 672Q314 663 306.5 647.5Q299 632 299 608Z" glyph-name="J" horiz-adv-x="399" unicode="J" /><glyph d="M81 -155Q32 -155 4.5 -134.5Q-23 -114 -23 -86Q-23 -67 -9.5 -55Q4 -43 22 -43Q39 -43 53.5 -55Q68 -67 68 -87Q68 -98 65 -106.5Q62 -115 62 -122Q62 -141 88 -141Q100 -141 112.5 -136Q125 -131 136 -119Q147 -107 154 -87.5Q161 -68 161 -40Q161 5 160 40.5Q159 76 159 106V440Q159 465 151.5 481Q144 497 132 507Q120 517 105 521Q90 525 75 527V536H342V527Q325 525 309.5 521Q294 517 282 507Q270 497 262.5 481Q255 465 255 440V46Q255 1 241 -36.5Q227 -74 203 -100Q179 -126 147.5 -140.5Q116 -155 81 -155Z" glyph-name="J.smcp" horiz-adv-x="357" /><glyph d="M299 85Q299 26 282 -23.5Q265 -73 236 -109Q207 -145 166.5 -165.5Q126 -186 80 -186Q54 -186 33 -179Q12 -172 -3 -160Q-18 -148 -26.5 -133Q-35 -118 -35 -103Q-35 -80 -19.5 -62.5Q-4 -45 21 -45Q44 -45 60 -61.5Q76 -78 76 -104Q76 -121 71.5 -128.5Q67 -136 67 -146Q67 -161 76.5 -166Q86 -171 97 -171Q113 -171 131.5 -163.5Q150 -156 165.5 -139Q181 -122 191 -95Q201 -68 201 -28Q201 39 200 83Q199 127 199 158V608Q199 632 192 647.5Q185 663 173.5 672Q162 681 147 685Q132 689 116 691V700H386V691Q369 689 353.5 685Q338 681 326 672Q314 663 306.5 647.5Q299 632 299 608ZM251 846 115 780H106L243 906H261L394 780H383Z" glyph-name="Jcircumflex" horiz-adv-x="399" unicode="&#308;" /><glyph d="M81 -155Q32 -155 4.5 -134.5Q-23 -114 -23 -86Q-23 -67 -9.5 -55Q4 -43 22 -43Q39 -43 53.5 -55Q68 -67 68 -87Q68 -98 65 -106.5Q62 -115 62 -122Q62 -141 88 -141Q100 -141 112.5 -136Q125 -131 136 -119Q147 -107 154 -87.5Q161 -68 161 -40Q161 5 160 40.5Q159 76 159 106V440Q159 465 151.5 481Q144 497 132 507Q120 517 105 521Q90 525 75 527V536H342V527Q325 525 309.5 521Q294 517 282 507Q270 497 262.5 481Q255 465 255 440V46Q255 1 241 -36.5Q227 -74 203 -100Q179 -126 147.5 -140.5Q116 -155 81 -155ZM210 682 74 616H65L202 742H220L353 616H342Z" glyph-name="Jcircumflex.smcp" horiz-adv-x="357" /><glyph d="M499 0 244 346 435 558Q481 610 475.5 647Q470 684 425 691V700H661V690Q642 688 620 680.5Q598 673 573 657.5Q548 642 519.5 617.5Q491 593 458 556L325 406L545 105Q584 51 615 31Q646 11 669 10V0ZM292 691Q276 689 261 685Q246 681 234.5 672Q223 663 216 647Q209 631 209 607V93Q209 69 216 53Q223 37 234.5 28Q246 19 261 14.5Q276 10 292 9V0H24V9Q109 15 109 93V607Q109 631 101.5 647Q94 663 82 672Q70 681 55 685Q40 689 24 691V700H292Z" glyph-name="K" horiz-adv-x="685" unicode="K" /><glyph d="M419 0 225 260 360 409Q404 458 399 490Q394 522 351 528V536H564V527Q515 522 468.5 487.5Q422 453 368 393L300 316L463 98Q501 47 529.5 28.5Q558 10 579 9V0ZM292 527Q275 525 259.5 520.5Q244 516 232 506.5Q220 497 213 480.5Q206 464 206 439V97Q206 71 213 54.5Q220 38 232 28.5Q244 19 259 14.5Q274 10 290 9V0H23V9Q39 10 54.5 14.5Q70 19 82 28.5Q94 38 101.5 54.5Q109 71 109 97V439Q109 464 101.5 480.5Q94 497 82 506.5Q70 516 54.5 520.5Q39 525 23 527V536H292Z" glyph-name="K.smcp" horiz-adv-x="593" /><glyph d="M355 -227Q355 -217 351 -209Q347 -201 328 -197Q303 -192 289.5 -177.5Q276 -163 276 -143Q276 -122 290.5 -106Q305 -90 328 -90Q351 -90 369 -107.5Q387 -125 387 -170Q387 -224 362.5 -264Q338 -304 292 -316L286 -304Q320 -294 337.5 -272Q355 -250 355 -227ZM499 0 244 346 435 558Q481 610 475.5 647Q470 684 425 691V700H661V690Q642 688 620 680.5Q598 673 573 657.5Q548 642 519.5 617.5Q491 593 458 556L325 406L545 105Q584 51 615 31Q646 11 669 10V0ZM292 691Q276 689 261 685Q246 681 234.5 672Q223 663 216 647Q209 631 209 607V93Q209 69 216 53Q223 37 234.5 28Q246 19 261 14.5Q276 10 292 9V0H24V9Q109 15 109 93V607Q109 631 101.5 647Q94 663 82 672Q70 681 55 685Q40 689 24 691V700H292Z" glyph-name="Kcommaaccent" horiz-adv-x="685" unicode="&#310;" /><glyph d="M357 -227Q357 -217 353 -209Q349 -201 330 -197Q305 -192 291.5 -177.5Q278 -163 278 -143Q278 -122 292.5 -106Q307 -90 330 -90Q353 -90 371 -107.5Q389 -125 389 -170Q389 -224 364.5 -264Q340 -304 294 -316L288 -304Q322 -294 339.5 -272Q357 -250 357 -227ZM419 0 225 260 360 409Q404 458 399 490Q394 522 351 528V536H564V527Q515 522 468.5 487.5Q422 453 368 393L300 316L463 98Q501 47 529.5 28.5Q558 10 579 9V0ZM292 527Q275 525 259.5 520.5Q244 516 232 506.5Q220 497 213 480.5Q206 464 206 439V97Q206 71 213 54.5Q220 38 232 28.5Q244 19 259 14.5Q274 10 290 9V0H23V9Q39 10 54.5 14.5Q70 19 82 28.5Q94 38 101.5 54.5Q109 71 109 97V439Q109 464 101.5 480.5Q94 497 82 506.5Q70 516 54.5 520.5Q39 525 23 527V536H292Z" glyph-name="Kcommaaccent.smcp" horiz-adv-x="600" /><glyph d="M209 15H304Q345 15 386 26Q427 37 461.5 59Q496 81 520 113.5Q544 146 552 188H566L545 0H24V9Q39 10 54 14.5Q69 19 81.5 28.5Q94 38 101.5 53.5Q109 69 109 93V608Q109 632 101.5 647.5Q94 663 81.5 672Q69 681 54 685Q39 689 24 691V700H299V691Q282 689 265.5 685Q249 681 236.5 672Q224 663 216.5 647.5Q209 632 209 608Z" glyph-name="L" horiz-adv-x="583" unicode="L" /><glyph d="M206 15H283Q317 15 349 23.5Q381 32 407.5 49Q434 66 453.5 92Q473 118 484 154H497L477 0H23V9Q39 10 54.5 15Q70 20 82 29.5Q94 39 101.5 55.5Q109 72 109 97V440Q109 465 101.5 481.5Q94 498 82 507.5Q70 517 54.5 521.5Q39 526 23 527V536H290V527Q274 526 259 521.5Q244 517 232 507.5Q220 498 213 481.5Q206 465 206 440Z" glyph-name="L.smcp" horiz-adv-x="517" /><glyph d="M209 15H304Q345 15 386 26Q427 37 461.5 59Q496 81 520 113.5Q544 146 552 188H566L545 0H24V9Q39 10 54 14.5Q69 19 81.5 28.5Q94 38 101.5 53.5Q109 69 109 93V608Q109 632 101.5 647.5Q94 663 81.5 672Q69 681 54 685Q39 689 24 691V700H299V691Q282 689 265.5 685Q249 681 236.5 672Q224 663 216.5 647.5Q209 632 209 608ZM206 892Q224 906 241 906Q255 906 264 897.5Q273 889 273 876Q273 866 265 854Q257 842 235 834L89 782H70Z" glyph-name="Lacute" horiz-adv-x="583" unicode="&#313;" /><glyph d="M206 15H283Q317 15 349 23.5Q381 32 407.5 49Q434 66 453.5 92Q473 118 484 154H497L477 0H23V9Q39 10 54.5 15Q70 20 82 29.5Q94 39 101.5 55.5Q109 72 109 97V440Q109 465 101.5 481.5Q94 498 82 507.5Q70 517 54.5 521.5Q39 526 23 527V536H290V527Q274 526 259 521.5Q244 517 232 507.5Q220 498 213 481.5Q206 465 206 440ZM202 728Q220 742 237 742Q251 742 260 733.5Q269 725 269 712Q269 702 261 690Q253 678 231 670L85 618H66Z" glyph-name="Lacute.smcp" horiz-adv-x="518" /><glyph d="M209 15H304Q345 15 386 26Q427 37 461.5 59Q496 81 520 113.5Q544 146 552 188H566L545 0H24V9Q39 10 54 14.5Q69 19 81.5 28.5Q94 38 101.5 53.5Q109 69 109 93V608Q109 632 101.5 647.5Q94 663 81.5 672Q69 681 54 685Q39 689 24 691V700H299V691Q282 689 265.5 685Q249 681 236.5 672Q224 663 216.5 647.5Q209 632 209 608ZM383 467 381 667Q382 693 394.5 706Q407 719 427 719Q443 719 455.5 709Q468 699 468 677Q468 662 460 641L391 467Z" glyph-name="Lcaron" horiz-adv-x="583" unicode="&#317;" /><glyph d="M206 15H283Q317 15 349 23.5Q381 32 407.5 49Q434 66 453.5 92Q473 118 484 154H497L477 0H23V9Q39 10 54.5 15Q70 20 82 29.5Q94 39 101.5 55.5Q109 72 109 97V440Q109 465 101.5 481.5Q94 498 82 507.5Q70 517 54.5 521.5Q39 526 23 527V536H290V527Q274 526 259 521.5Q244 517 232 507.5Q220 498 213 481.5Q206 465 206 440ZM364 303 362 503Q363 529 375.5 542Q388 555 408 555Q424 555 436.5 545Q449 535 449 513Q449 498 441 477L372 303Z" glyph-name="Lcaron.smcp" horiz-adv-x="518" /><glyph d="M331 -227Q331 -217 327 -209Q323 -201 304 -197Q279 -192 265.5 -177.5Q252 -163 252 -143Q252 -122 266.5 -106Q281 -90 304 -90Q327 -90 345 -107.5Q363 -125 363 -170Q363 -224 338.5 -264Q314 -304 268 -316L262 -304Q296 -294 313.5 -272Q331 -250 331 -227ZM209 15H304Q345 15 386 26Q427 37 461.5 59Q496 81 520 113.5Q544 146 552 188H566L545 0H24V9Q39 10 54 14.5Q69 19 81.5 28.5Q94 38 101.5 53.5Q109 69 109 93V608Q109 632 101.5 647.5Q94 663 81.5 672Q69 681 54 685Q39 689 24 691V700H299V691Q282 689 265.5 685Q249 681 236.5 672Q224 663 216.5 647.5Q209 632 209 608Z" glyph-name="Lcommaaccent" horiz-adv-x="583" unicode="&#315;" /><glyph d="M306 -227Q306 -217 302 -209Q298 -201 279 -197Q254 -192 240.5 -177.5Q227 -163 227 -143Q227 -122 241.5 -106Q256 -90 279 -90Q302 -90 320 -107.5Q338 -125 338 -170Q338 -224 313.5 -264Q289 -304 243 -316L237 -304Q271 -294 288.5 -272Q306 -250 306 -227ZM206 15H283Q317 15 349 23.5Q381 32 407.5 49Q434 66 453.5 92Q473 118 484 154H497L477 0H23V9Q39 10 54.5 15Q70 20 82 29.5Q94 39 101.5 55.5Q109 72 109 97V440Q109 465 101.5 481.5Q94 498 82 507.5Q70 517 54.5 521.5Q39 526 23 527V536H290V527Q274 526 259 521.5Q244 517 232 507.5Q220 498 213 481.5Q206 465 206 440Z" glyph-name="Lcommaaccent.smcp" horiz-adv-x="518" /><glyph d="M380 361Q380 384 395.5 399Q411 414 434 414Q457 414 472.5 399Q488 384 488 361Q488 339 472.5 324Q457 309 434 309Q411 309 395.5 324Q380 339 380 361ZM209 18H304Q345 18 386 29Q427 40 461.5 62Q496 84 520 116.5Q544 149 552 191H566L545 3H24V12Q39 13 54 17.5Q69 22 81.5 31.5Q94 41 101.5 56.5Q109 72 109 96V611Q109 635 101.5 650.5Q94 666 81.5 675Q69 684 54 688Q39 692 24 694V703H299V694Q282 692 265.5 688Q249 684 236.5 675Q224 666 216.5 650.5Q209 635 209 611Z" glyph-name="Ldot" horiz-adv-x="583" unicode="&#319;" /><glyph d="M341 296Q341 319 356.5 334Q372 349 395 349Q418 349 433.5 334Q449 319 449 296Q449 274 433.5 259Q418 244 395 244Q372 244 356.5 259Q341 274 341 296ZM206 15H283Q317 15 349 23.5Q381 32 407.5 49Q434 66 453.5 92Q473 118 484 154H497L477 0H23V9Q39 10 54.5 15Q70 20 82 29.5Q94 39 101.5 55.5Q109 72 109 97V440Q109 465 101.5 481.5Q94 498 82 507.5Q70 517 54.5 521.5Q39 526 23 527V536H290V527Q274 526 259 521.5Q244 517 232 507.5Q220 498 213 481.5Q206 465 206 440Z" glyph-name="Ldot.smcp" horiz-adv-x="518" /><glyph d="M24 0V9Q39 10 54 14.5Q69 19 81.5 28.5Q94 38 101.5 53.5Q109 69 109 93V236L0 161V185L109 260V608Q109 632 101.5 647.5Q94 663 81.5 672Q69 681 54 685Q39 689 24 691V700H299V691Q282 689 265.5 685Q249 681 236.5 672Q224 663 216.5 647.5Q209 632 209 608V328L405 463V439L209 304V15H304Q345 15 386 26Q427 37 461.5 59Q496 81 520 113.5Q544 146 552 188H566L545 0Z" glyph-name="Lslash" horiz-adv-x="583" unicode="&#321;" /><glyph d="M23 0V9Q39 10 54.5 15Q70 20 82 29.5Q94 39 101.5 55.5Q109 72 109 97V168L25 113V135L109 190V440Q109 465 101.5 481.5Q94 498 82 507.5Q70 517 54.5 521.5Q39 526 23 527V536H290V527Q274 526 259 521.5Q244 517 232 507.5Q220 498 213 481.5Q206 465 206 440V253L366 357V335L206 231V15H283Q317 15 349 23.5Q381 32 407.5 49Q434 66 453.5 92Q473 118 484 154H497L477 0Z" glyph-name="Lslash.smcp" horiz-adv-x="518" /><glyph d="M631 603 433 -13H416L244 601L150 127Q144 98 150 76.5Q156 55 169.5 40.5Q183 26 202.5 18Q222 10 244 9V0H3V9Q45 11 80 42Q115 73 128 135L211 531Q218 564 217 592.5Q216 621 206.5 642.5Q197 664 177 676.5Q157 689 126 691V700H312L466 156L642 700H826V691Q772 688 750 650.5Q728 613 743 531L824 136Q831 99 844.5 75Q858 51 875.5 36.5Q893 22 912.5 16Q932 10 950 9V0H639V9Q671 10 690.5 18Q710 26 719 41Q728 56 728.5 78Q729 100 724 130Z" glyph-name="M" horiz-adv-x="954" unicode="M" /><glyph d="M512 466 351 -5H337L211 463L150 140Q144 106 148.5 81.5Q153 57 165 41Q177 25 195.5 16.5Q214 8 235 7V0H5V7Q46 9 80.5 41Q115 73 129 143L177 383Q183 413 182.5 438.5Q182 464 173 483.5Q164 503 144.5 514.5Q125 526 92 528V536H281L386 157L517 536H705V528Q673 525 654 513.5Q635 502 626 483Q617 464 617 439Q617 414 623 384L672 123Q678 90 690.5 68.5Q703 47 718.5 33.5Q734 20 752 14Q770 8 788 7V0H497V7Q554 11 570 36Q586 61 575 118Z" glyph-name="M.smcp" horiz-adv-x="794" /><glyph d="M581 -13 142 582 143 149Q143 112 153.5 86Q164 60 181 43.5Q198 27 221 18.5Q244 10 268 9V0H14V9Q36 10 55 16Q74 22 88 38Q102 54 110.5 82.5Q119 111 119 158L122 514Q123 596 93.5 639.5Q64 683 21 691V700H180L573 165L571 543Q570 621 538.5 655Q507 689 456 691V700H702V691Q678 690 658 683.5Q638 677 624 660.5Q610 644 602.5 615.5Q595 587 595 543L592 -13Z" glyph-name="N" horiz-adv-x="716" unicode="N" /><glyph d="M484 -10 128 433 129 127Q129 70 154 40Q179 10 236 7V0H12V7Q32 8 49.5 13.5Q67 19 79.5 32.5Q92 46 99.5 70Q107 94 107 132L109 369Q110 441 83 482Q56 523 17 528V536H168L478 155L476 406Q475 466 452 495.5Q429 525 379 528V536H595V528Q577 527 559.5 523Q542 519 528.5 506Q515 493 506.5 468.5Q498 444 498 404L496 -10Z" glyph-name="N.smcp" horiz-adv-x="605" /><glyph d="M581 -13 142 582 143 149Q143 112 153.5 86Q164 60 181 43.5Q198 27 221 18.5Q244 10 268 9V0H14V9Q36 10 55 16Q74 22 88 38Q102 54 110.5 82.5Q119 111 119 158L122 514Q123 596 93.5 639.5Q64 683 21 691V700H180L573 165L571 543Q570 621 538.5 655Q507 689 456 691V700H702V691Q678 690 658 683.5Q638 677 624 660.5Q610 644 602.5 615.5Q595 587 595 543L592 -13ZM412 893Q430 907 447 907Q461 907 470 898.5Q479 890 479 877Q479 867 471 855Q463 843 441 835L295 783H276Z" glyph-name="Nacute" horiz-adv-x="716" unicode="&#323;" /><glyph d="M484 -10 128 433 129 127Q129 70 154 40Q179 10 236 7V0H12V7Q32 8 49.5 13.5Q67 19 79.5 32.5Q92 46 99.5 70Q107 94 107 132L109 369Q110 441 83 482Q56 523 17 528V536H168L478 155L476 406Q475 466 452 495.5Q429 525 379 528V536H595V528Q577 527 559.5 523Q542 519 528.5 506Q515 493 506.5 468.5Q498 444 498 404L496 -10ZM367 728Q385 742 402 742Q416 742 425 733.5Q434 725 434 712Q434 702 426 690Q418 678 396 670L250 618H231Z" glyph-name="Nacute.smcp" horiz-adv-x="605" /><glyph d="M581 -13 142 582 143 149Q143 112 153.5 86Q164 60 181 43.5Q198 27 221 18.5Q244 10 268 9V0H14V9Q36 10 55 16Q74 22 88 38Q102 54 110.5 82.5Q119 111 119 158L122 514Q123 596 93.5 639.5Q64 683 21 691V700H180L573 165L571 543Q570 621 538.5 655Q507 689 456 691V700H702V691Q678 690 658 683.5Q638 677 624 660.5Q610 644 602.5 615.5Q595 587 595 543L592 -13ZM359 841 495 907H504L367 781H349L216 907H227Z" glyph-name="Ncaron" horiz-adv-x="716" unicode="&#327;" /><glyph d="M484 -10 128 433 129 127Q129 70 154 40Q179 10 236 7V0H12V7Q32 8 49.5 13.5Q67 19 79.5 32.5Q92 46 99.5 70Q107 94 107 132L109 369Q110 441 83 482Q56 523 17 528V536H168L478 155L476 406Q475 466 452 495.5Q429 525 379 528V536H595V528Q577 527 559.5 523Q542 519 528.5 506Q515 493 506.5 468.5Q498 444 498 404L496 -10ZM314 676 450 742H459L322 616H304L171 742H182Z" glyph-name="Ncaron.smcp" horiz-adv-x="605" /><glyph d="M377 -227Q377 -217 373 -209Q369 -201 350 -197Q325 -192 311.5 -177.5Q298 -163 298 -143Q298 -122 312.5 -106Q327 -90 350 -90Q373 -90 391 -107.5Q409 -125 409 -170Q409 -224 384.5 -264Q360 -304 314 -316L308 -304Q342 -294 359.5 -272Q377 -250 377 -227ZM581 -13 142 582 143 149Q143 112 153.5 86Q164 60 181 43.5Q198 27 221 18.5Q244 10 268 9V0H14V9Q36 10 55 16Q74 22 88 38Q102 54 110.5 82.5Q119 111 119 158L122 514Q123 596 93.5 639.5Q64 683 21 691V700H180L573 165L571 543Q570 621 538.5 655Q507 689 456 691V700H702V691Q678 690 658 683.5Q638 677 624 660.5Q610 644 602.5 615.5Q595 587 595 543L592 -13Z" glyph-name="Ncommaaccent" horiz-adv-x="716" unicode="&#325;" /><glyph d="M325 -227Q325 -217 321 -209Q317 -201 298 -197Q273 -192 259.5 -177.5Q246 -163 246 -143Q246 -122 260.5 -106Q275 -90 298 -90Q321 -90 339 -107.5Q357 -125 357 -170Q357 -224 332.5 -264Q308 -304 262 -316L256 -304Q290 -294 307.5 -272Q325 -250 325 -227ZM484 -10 128 433 129 127Q129 70 154 40Q179 10 236 7V0H12V7Q32 8 49.5 13.5Q67 19 79.5 32.5Q92 46 99.5 70Q107 94 107 132L109 369Q110 441 83 482Q56 523 17 528V536H168L478 155L476 406Q475 466 452 495.5Q429 525 379 528V536H595V528Q577 527 559.5 523Q542 519 528.5 506Q515 493 506.5 468.5Q498 444 498 404L496 -10Z" glyph-name="Ncommaaccent.smcp" horiz-adv-x="605" /><glyph d="M581 -13 142 582 143 149Q143 112 153.5 86Q164 60 181 43.5Q198 27 221 18.5Q244 10 268 9V0H14V9Q36 10 55 16Q74 22 88 38Q102 54 110.5 82.5Q119 111 119 158L122 514Q123 596 93.5 639.5Q64 683 21 691V700H180L573 165L571 543Q570 621 538.5 655Q507 689 456 691V700H702V691Q678 690 658 683.5Q638 677 624 660.5Q610 644 602.5 615.5Q595 587 595 543L592 -13ZM495 892Q492 864 483.5 845.5Q475 827 464.5 815.5Q454 804 443 799.5Q432 795 422 795Q399 795 381 800.5Q363 806 346 813Q329 820 312 825.5Q295 831 275 831Q241 831 230 791L222 793Q228 843 251 865Q274 887 299 887Q315 887 333.5 881Q352 875 370.5 868Q389 861 407 855Q425 849 441 849Q455 849 466.5 857.5Q478 866 487 894Z" glyph-name="Ntilde" horiz-adv-x="716" unicode="&#209;" /><glyph d="M484 -10 128 433 129 127Q129 70 154 40Q179 10 236 7V0H12V7Q32 8 49.5 13.5Q67 19 79.5 32.5Q92 46 99.5 70Q107 94 107 132L109 369Q110 441 83 482Q56 523 17 528V536H168L478 155L476 406Q475 466 452 495.5Q429 525 379 528V536H595V528Q577 527 559.5 523Q542 519 528.5 506Q515 493 506.5 468.5Q498 444 498 404L496 -10ZM449 727Q446 699 437.5 680.5Q429 662 418.5 650.5Q408 639 397 634.5Q386 630 376 630Q353 630 335 635.5Q317 641 300 648Q283 655 266 660.5Q249 666 229 666Q195 666 184 626L176 628Q182 678 205 700Q228 722 253 722Q269 722 287.5 716Q306 710 324.5 703Q343 696 361 690Q379 684 395 684Q409 684 420.5 692.5Q432 701 441 729Z" glyph-name="Ntilde.smcp" horiz-adv-x="605" /><glyph d="M392 -2Q435 -2 476.5 17Q518 36 550 77.5Q582 119 602 184.5Q622 250 622 343Q622 444 600 512.5Q578 581 543 623Q508 665 465.5 683.5Q423 702 382 702Q342 702 301.5 683Q261 664 228 622Q195 580 174.5 514Q154 448 154 355Q154 253 176 184Q198 115 232.5 74Q267 33 309.5 15.5Q352 -2 392 -2ZM389 -17Q311 -17 246.5 11.5Q182 40 135.5 90Q89 140 63 207.5Q37 275 37 352Q37 428 64 494.5Q91 561 138.5 610.5Q186 660 250.5 688.5Q315 717 390 717Q468 717 532.5 688.5Q597 660 643.5 610Q690 560 715.5 492.5Q741 425 741 348Q741 272 714 205.5Q687 139 640 89.5Q593 40 528.5 11.5Q464 -17 389 -17Z" glyph-name="O" horiz-adv-x="778" unicode="O" /><glyph d="M305 1Q334 1 362 13.5Q390 26 412 56Q434 86 447.5 137Q461 188 461 266Q461 333 448 383.5Q435 434 413 468.5Q391 503 362 520.5Q333 538 300 538Q273 538 246 525Q219 512 197 481.5Q175 451 161 400Q147 349 147 273Q147 206 160 155.5Q173 105 195 70.5Q217 36 245.5 18.5Q274 1 305 1ZM306 -13Q246 -13 196 9Q146 31 110.5 69Q75 107 55 158.5Q35 210 35 269Q35 327 56 379Q77 431 113.5 469.5Q150 508 199 530.5Q248 553 305 553Q367 553 417 531Q467 509 502 471Q537 433 556 381.5Q575 330 575 270Q575 211 555 159.5Q535 108 499 69.5Q463 31 413.5 9Q364 -13 306 -13Z" glyph-name="O.smcp" horiz-adv-x="610" /><glyph d="M522 0Q490 -8 459 -11.5Q428 -15 398 -15Q325 -15 259.5 13Q194 41 144.5 90Q95 139 66 205.5Q37 272 37 349Q37 427 67 493.5Q97 560 147 609.5Q197 659 263 687Q329 715 400 715Q432 715 463 711.5Q494 708 523 700H960L986 537H972Q952 581 926 610Q900 639 871 655.5Q842 672 812 678.5Q782 685 753 685H643V369H714Q753 369 782 372.5Q811 376 831.5 387.5Q852 399 864 421Q876 443 882 481H894V241H882Q877 278 865 300Q853 322 833 333.5Q813 345 783.5 348.5Q754 352 714 352H643V15H748Q787 15 827 25.5Q867 36 901.5 58.5Q936 81 961 116Q986 151 997 201H1011L978 0ZM401 1Q425 1 450 6Q475 11 496 21.5Q517 32 530 48Q543 64 543 86V612Q543 633 531.5 649Q520 665 500.5 676Q481 687 454.5 693Q428 699 399 699Q354 699 310.5 681Q267 663 232.5 622Q198 581 176.5 514Q155 447 155 349Q155 245 178 178Q201 111 237 71.5Q273 32 316.5 16.5Q360 1 401 1Z" glyph-name="OE" horiz-adv-x="1051" unicode="&#338;" /><glyph d="M419 0Q377 -11 324 -11Q265 -11 212.5 10.5Q160 32 120.5 69.5Q81 107 58 157.5Q35 208 35 267Q35 326 58.5 377Q82 428 122.5 466Q163 504 216.5 525.5Q270 547 330 547Q374 547 420 536H786L812 403H799Q762 467 712 493.5Q662 520 612 520H541V287H585Q615 287 638 290.5Q661 294 677.5 304Q694 314 705 331.5Q716 349 721 376H731V179H721Q716 206 705 223.5Q694 241 677.5 251Q661 261 638 264.5Q615 268 585 268H541V15H602Q635 15 668.5 23.5Q702 32 731.5 50Q761 68 783.5 96Q806 124 818 162H830L802 0ZM330 1Q346 1 366 5.5Q386 10 403.5 19Q421 28 432.5 42Q444 56 444 76V455Q444 479 431 494Q418 509 399.5 517.5Q381 526 361 529.5Q341 533 327 533Q294 533 261.5 519Q229 505 203.5 474Q178 443 162.5 392.5Q147 342 147 269Q147 192 164 140.5Q181 89 207.5 58Q234 27 266.5 14Q299 1 330 1Z" glyph-name="OE.smcp" horiz-adv-x="864" /><glyph d="M392 -2Q435 -2 476.5 17Q518 36 550 77.5Q582 119 602 184.5Q622 250 622 343Q622 444 600 512.5Q578 581 543 623Q508 665 465.5 683.5Q423 702 382 702Q342 702 301.5 683Q261 664 228 622Q195 580 174.5 514Q154 448 154 355Q154 253 176 184Q198 115 232.5 74Q267 33 309.5 15.5Q352 -2 392 -2ZM389 -17Q311 -17 246.5 11.5Q182 40 135.5 90Q89 140 63 207.5Q37 275 37 352Q37 428 64 494.5Q91 561 138.5 610.5Q186 660 250.5 688.5Q315 717 390 717Q468 717 532.5 688.5Q597 660 643.5 610Q690 560 715.5 492.5Q741 425 741 348Q741 272 714 205.5Q687 139 640 89.5Q593 40 528.5 11.5Q464 -17 389 -17ZM442 892Q460 906 477 906Q491 906 500 897.5Q509 889 509 876Q509 866 501 854Q493 842 471 834L325 782H306Z" glyph-name="Oacute" horiz-adv-x="778" unicode="&#211;" /><glyph d="M305 1Q334 1 362 13.5Q390 26 412 56Q434 86 447.5 137Q461 188 461 266Q461 333 448 383.5Q435 434 413 468.5Q391 503 362 520.5Q333 538 300 538Q273 538 246 525Q219 512 197 481.5Q175 451 161 400Q147 349 147 273Q147 206 160 155.5Q173 105 195 70.5Q217 36 245.5 18.5Q274 1 305 1ZM306 -13Q246 -13 196 9Q146 31 110.5 69Q75 107 55 158.5Q35 210 35 269Q35 327 56 379Q77 431 113.5 469.5Q150 508 199 530.5Q248 553 305 553Q367 553 417 531Q467 509 502 471Q537 433 556 381.5Q575 330 575 270Q575 211 555 159.5Q535 108 499 69.5Q463 31 413.5 9Q364 -13 306 -13ZM359 728Q377 742 394 742Q408 742 417 733.5Q426 725 426 712Q426 702 418 690Q410 678 388 670L242 618H223Z" glyph-name="Oacute.smcp" horiz-adv-x="612" /><glyph d="M392 -2Q435 -2 476.5 17Q518 36 550 77.5Q582 119 602 184.5Q622 250 622 343Q622 444 600 512.5Q578 581 543 623Q508 665 465.5 683.5Q423 702 382 702Q342 702 301.5 683Q261 664 228 622Q195 580 174.5 514Q154 448 154 355Q154 253 176 184Q198 115 232.5 74Q267 33 309.5 15.5Q352 -2 392 -2ZM389 -17Q311 -17 246.5 11.5Q182 40 135.5 90Q89 140 63 207.5Q37 275 37 352Q37 428 64 494.5Q91 561 138.5 610.5Q186 660 250.5 688.5Q315 717 390 717Q468 717 532.5 688.5Q597 660 643.5 610Q690 560 715.5 492.5Q741 425 741 348Q741 272 714 205.5Q687 139 640 89.5Q593 40 528.5 11.5Q464 -17 389 -17ZM390 787Q368 787 346 794Q324 801 306.5 815Q289 829 277.5 850.5Q266 872 264 902H274Q283 868 312.5 852.5Q342 837 390 837Q438 837 468 852.5Q498 868 507 902H516Q514 872 502.5 850.5Q491 829 473.5 815Q456 801 434 794Q412 787 390 787Z" glyph-name="Obreve" horiz-adv-x="778" unicode="&#334;" /><glyph d="M305 1Q334 1 362 13.5Q390 26 412 56Q434 86 447.5 137Q461 188 461 266Q461 333 448 383.5Q435 434 413 468.5Q391 503 362 520.5Q333 538 300 538Q273 538 246 525Q219 512 197 481.5Q175 451 161 400Q147 349 147 273Q147 206 160 155.5Q173 105 195 70.5Q217 36 245.5 18.5Q274 1 305 1ZM306 -13Q246 -13 196 9Q146 31 110.5 69Q75 107 55 158.5Q35 210 35 269Q35 327 56 379Q77 431 113.5 469.5Q150 508 199 530.5Q248 553 305 553Q367 553 417 531Q467 509 502 471Q537 433 556 381.5Q575 330 575 270Q575 211 555 159.5Q535 108 499 69.5Q463 31 413.5 9Q364 -13 306 -13ZM307 623Q285 623 263 630Q241 637 223.5 651Q206 665 194.5 686.5Q183 708 181 738H191Q200 704 229.5 688.5Q259 673 307 673Q355 673 385 688.5Q415 704 424 738H433Q431 708 419.5 686.5Q408 665 390.5 651Q373 637 351 630Q329 623 307 623Z" glyph-name="Obreve.smcp" horiz-adv-x="612" /><glyph d="M392 -2Q435 -2 476.5 17Q518 36 550 77.5Q582 119 602 184.5Q622 250 622 343Q622 444 600 512.5Q578 581 543 623Q508 665 465.5 683.5Q423 702 382 702Q342 702 301.5 683Q261 664 228 622Q195 580 174.5 514Q154 448 154 355Q154 253 176 184Q198 115 232.5 74Q267 33 309.5 15.5Q352 -2 392 -2ZM389 -17Q311 -17 246.5 11.5Q182 40 135.5 90Q89 140 63 207.5Q37 275 37 352Q37 428 64 494.5Q91 561 138.5 610.5Q186 660 250.5 688.5Q315 717 390 717Q468 717 532.5 688.5Q597 660 643.5 610Q690 560 715.5 492.5Q741 425 741 348Q741 272 714 205.5Q687 139 640 89.5Q593 40 528.5 11.5Q464 -17 389 -17ZM391 846 255 780H246L383 906H401L534 780H523Z" glyph-name="Ocircumflex" horiz-adv-x="778" unicode="&#212;" /><glyph d="M305 1Q334 1 362 13.5Q390 26 412 56Q434 86 447.5 137Q461 188 461 266Q461 333 448 383.5Q435 434 413 468.5Q391 503 362 520.5Q333 538 300 538Q273 538 246 525Q219 512 197 481.5Q175 451 161 400Q147 349 147 273Q147 206 160 155.5Q173 105 195 70.5Q217 36 245.5 18.5Q274 1 305 1ZM306 -13Q246 -13 196 9Q146 31 110.5 69Q75 107 55 158.5Q35 210 35 269Q35 327 56 379Q77 431 113.5 469.5Q150 508 199 530.5Q248 553 305 553Q367 553 417 531Q467 509 502 471Q537 433 556 381.5Q575 330 575 270Q575 211 555 159.5Q535 108 499 69.5Q463 31 413.5 9Q364 -13 306 -13ZM308 682 172 616H163L300 742H318L451 616H440Z" glyph-name="Ocircumflex.smcp" horiz-adv-x="612" /><glyph d="M392 -2Q435 -2 476.5 17Q518 36 550 77.5Q582 119 602 184.5Q622 250 622 343Q622 444 600 512.5Q578 581 543 623Q508 665 465.5 683.5Q423 702 382 702Q342 702 301.5 683Q261 664 228 622Q195 580 174.5 514Q154 448 154 355Q154 253 176 184Q198 115 232.5 74Q267 33 309.5 15.5Q352 -2 392 -2ZM389 -17Q311 -17 246.5 11.5Q182 40 135.5 90Q89 140 63 207.5Q37 275 37 352Q37 428 64 494.5Q91 561 138.5 610.5Q186 660 250.5 688.5Q315 717 390 717Q468 717 532.5 688.5Q597 660 643.5 610Q690 560 715.5 492.5Q741 425 741 348Q741 272 714 205.5Q687 139 640 89.5Q593 40 528.5 11.5Q464 -17 389 -17ZM464 780Q441 780 425.5 795Q410 810 410 832Q410 855 425.5 870Q441 885 464 885Q487 885 502 870Q517 855 517 832Q517 810 502 795Q487 780 464 780ZM314 780Q291 780 275.5 795Q260 810 260 832Q260 855 275.5 870Q291 885 314 885Q337 885 352 870Q367 855 367 832Q367 810 352 795Q337 780 314 780Z" glyph-name="Odieresis" horiz-adv-x="778" unicode="&#214;" /><glyph d="M305 1Q334 1 362 13.5Q390 26 412 56Q434 86 447.5 137Q461 188 461 266Q461 333 448 383.5Q435 434 413 468.5Q391 503 362 520.5Q333 538 300 538Q273 538 246 525Q219 512 197 481.5Q175 451 161 400Q147 349 147 273Q147 206 160 155.5Q173 105 195 70.5Q217 36 245.5 18.5Q274 1 305 1ZM306 -13Q246 -13 196 9Q146 31 110.5 69Q75 107 55 158.5Q35 210 35 269Q35 327 56 379Q77 431 113.5 469.5Q150 508 199 530.5Q248 553 305 553Q367 553 417 531Q467 509 502 471Q537 433 556 381.5Q575 330 575 270Q575 211 555 159.5Q535 108 499 69.5Q463 31 413.5 9Q364 -13 306 -13ZM381 616Q358 616 342.5 631Q327 646 327 668Q327 691 342.5 706Q358 721 381 721Q404 721 419 706Q434 691 434 668Q434 646 419 631Q404 616 381 616ZM231 616Q208 616 192.5 631Q177 646 177 668Q177 691 192.5 706Q208 721 231 721Q254 721 269 706Q284 691 284 668Q284 646 269 631Q254 616 231 616Z" glyph-name="Odieresis.smcp" horiz-adv-x="612" /><glyph d="M392 -2Q435 -2 476.5 17Q518 36 550 77.5Q582 119 602 184.5Q622 250 622 343Q622 444 600 512.5Q578 581 543 623Q508 665 465.5 683.5Q423 702 382 702Q342 702 301.5 683Q261 664 228 622Q195 580 174.5 514Q154 448 154 355Q154 253 176 184Q198 115 232.5 74Q267 33 309.5 15.5Q352 -2 392 -2ZM389 -17Q311 -17 246.5 11.5Q182 40 135.5 90Q89 140 63 207.5Q37 275 37 352Q37 428 64 494.5Q91 561 138.5 610.5Q186 660 250.5 688.5Q315 717 390 717Q468 717 532.5 688.5Q597 660 643.5 610Q690 560 715.5 492.5Q741 425 741 348Q741 272 714 205.5Q687 139 640 89.5Q593 40 528.5 11.5Q464 -17 389 -17ZM446 782 300 834Q278 842 270 854Q262 866 262 876Q262 889 271 897.5Q280 906 294 906Q311 906 329 892L465 782Z" glyph-name="Ograve" horiz-adv-x="778" unicode="&#210;" /><glyph d="M305 1Q334 1 362 13.5Q390 26 412 56Q434 86 447.5 137Q461 188 461 266Q461 333 448 383.5Q435 434 413 468.5Q391 503 362 520.5Q333 538 300 538Q273 538 246 525Q219 512 197 481.5Q175 451 161 400Q147 349 147 273Q147 206 160 155.5Q173 105 195 70.5Q217 36 245.5 18.5Q274 1 305 1ZM306 -13Q246 -13 196 9Q146 31 110.5 69Q75 107 55 158.5Q35 210 35 269Q35 327 56 379Q77 431 113.5 469.5Q150 508 199 530.5Q248 553 305 553Q367 553 417 531Q467 509 502 471Q537 433 556 381.5Q575 330 575 270Q575 211 555 159.5Q535 108 499 69.5Q463 31 413.5 9Q364 -13 306 -13ZM363 618 217 670Q195 678 187 690Q179 702 179 712Q179 725 188 733.5Q197 742 211 742Q228 742 246 728L382 618Z" glyph-name="Ograve.smcp" horiz-adv-x="612" /><glyph d="M392 -2Q435 -2 476.5 17Q518 36 550 77.5Q582 119 602 184.5Q622 250 622 343Q622 444 600 512.5Q578 581 543 623Q508 665 465.5 683.5Q423 702 382 702Q342 702 301.5 683Q261 664 228 622Q195 580 174.5 514Q154 448 154 355Q154 253 176 184Q198 115 232.5 74Q267 33 309.5 15.5Q352 -2 392 -2ZM389 -17Q311 -17 246.5 11.5Q182 40 135.5 90Q89 140 63 207.5Q37 275 37 352Q37 428 64 494.5Q91 561 138.5 610.5Q186 660 250.5 688.5Q315 717 390 717Q468 717 532.5 688.5Q597 660 643.5 610Q690 560 715.5 492.5Q741 425 741 348Q741 272 714 205.5Q687 139 640 89.5Q593 40 528.5 11.5Q464 -17 389 -17ZM392 873Q413 899 433 899Q444 899 451.5 892.5Q459 886 459 877Q459 857 428 839L326 778H316ZM518 873Q539 899 559 899Q570 899 577.5 892.5Q585 886 585 877Q585 857 554 839L450 778H440Z" glyph-name="Ohungarumlaut" horiz-adv-x="778" unicode="&#336;" /><glyph d="M305 1Q334 1 362 13.5Q390 26 412 56Q434 86 447.5 137Q461 188 461 266Q461 333 448 383.5Q435 434 413 468.5Q391 503 362 520.5Q333 538 300 538Q273 538 246 525Q219 512 197 481.5Q175 451 161 400Q147 349 147 273Q147 206 160 155.5Q173 105 195 70.5Q217 36 245.5 18.5Q274 1 305 1ZM306 -13Q246 -13 196 9Q146 31 110.5 69Q75 107 55 158.5Q35 210 35 269Q35 327 56 379Q77 431 113.5 469.5Q150 508 199 530.5Q248 553 305 553Q367 553 417 531Q467 509 502 471Q537 433 556 381.5Q575 330 575 270Q575 211 555 159.5Q535 108 499 69.5Q463 31 413.5 9Q364 -13 306 -13ZM310 709Q331 735 351 735Q362 735 369.5 728.5Q377 722 377 713Q377 693 346 675L244 614H234ZM436 709Q457 735 477 735Q488 735 495.5 728.5Q503 722 503 713Q503 693 472 675L368 614H358Z" glyph-name="Ohungarumlaut.smcp" horiz-adv-x="612" /><glyph d="M392 -2Q435 -2 476.5 17Q518 36 550 77.5Q582 119 602 184.5Q622 250 622 343Q622 444 600 512.5Q578 581 543 623Q508 665 465.5 683.5Q423 702 382 702Q342 702 301.5 683Q261 664 228 622Q195 580 174.5 514Q154 448 154 355Q154 253 176 184Q198 115 232.5 74Q267 33 309.5 15.5Q352 -2 392 -2ZM389 -17Q311 -17 246.5 11.5Q182 40 135.5 90Q89 140 63 207.5Q37 275 37 352Q37 428 64 494.5Q91 561 138.5 610.5Q186 660 250.5 688.5Q315 717 390 717Q468 717 532.5 688.5Q597 660 643.5 610Q690 560 715.5 492.5Q741 425 741 348Q741 272 714 205.5Q687 139 640 89.5Q593 40 528.5 11.5Q464 -17 389 -17ZM533 842V815H252V842Z" glyph-name="Omacron" horiz-adv-x="778" unicode="&#332;" /><glyph d="M305 1Q334 1 362 13.5Q390 26 412 56Q434 86 447.5 137Q461 188 461 266Q461 333 448 383.5Q435 434 413 468.5Q391 503 362 520.5Q333 538 300 538Q273 538 246 525Q219 512 197 481.5Q175 451 161 400Q147 349 147 273Q147 206 160 155.5Q173 105 195 70.5Q217 36 245.5 18.5Q274 1 305 1ZM306 -13Q246 -13 196 9Q146 31 110.5 69Q75 107 55 158.5Q35 210 35 269Q35 327 56 379Q77 431 113.5 469.5Q150 508 199 530.5Q248 553 305 553Q367 553 417 531Q467 509 502 471Q537 433 556 381.5Q575 330 575 270Q575 211 555 159.5Q535 108 499 69.5Q463 31 413.5 9Q364 -13 306 -13ZM450 678V651H169V678Z" glyph-name="Omacron.smcp" horiz-adv-x="612" /><glyph d="M392 -2Q435 -2 476.5 17Q518 36 550 77.5Q582 119 602 184.5Q622 250 622 343Q622 415 611 469Q600 523 580 564L207 112Q243 49 293.5 23.5Q344 -2 392 -2ZM154 355Q154 283 165 228.5Q176 174 195 134L569 586Q533 649 482 675.5Q431 702 382 702Q342 702 301.5 683Q261 664 228 622Q195 580 174.5 514Q154 448 154 355ZM389 -17Q323 -17 266.5 3.5Q210 24 165 62L110 -5H81L149 77Q95 128 66 198.5Q37 269 37 352Q37 428 64 494.5Q91 561 138.5 610.5Q186 660 250.5 688.5Q315 717 390 717Q456 717 512 696.5Q568 676 612 639L667 705H696L629 624Q683 573 712 502.5Q741 432 741 348Q741 272 714 205.5Q687 139 640 89.5Q593 40 528.5 11.5Q464 -17 389 -17Z" glyph-name="Oslash" horiz-adv-x="778" unicode="&#216;" /><glyph d="M305 1Q334 1 362 13.5Q390 26 412 56Q434 86 447.5 137Q461 188 461 266Q461 313 454.5 351.5Q448 390 437 421L177 103Q200 52 233.5 26.5Q267 1 305 1ZM147 273Q147 228 152.5 191.5Q158 155 169 125L428 441Q405 489 372 513.5Q339 538 300 538Q273 538 246 525Q219 512 197 481.5Q175 451 161 400Q147 349 147 273ZM306 -13Q255 -13 211 3Q167 19 132 48L89 -5H63L118 62Q78 100 56.5 153Q35 206 35 269Q35 327 56 379Q77 431 113.5 469.5Q150 508 199 530.5Q248 553 305 553Q356 553 398.5 538Q441 523 474 497L510 541H535L489 484Q531 446 553 391Q575 336 575 270Q575 211 555 159.5Q535 108 499 69.5Q463 31 413.5 9Q364 -13 306 -13Z" glyph-name="Oslash.smcp" horiz-adv-x="610" /><glyph d="M392 -2Q435 -2 476.5 17Q518 36 550 77.5Q582 119 602 184.5Q622 250 622 343Q622 444 600 512.5Q578 581 543 623Q508 665 465.5 683.5Q423 702 382 702Q342 702 301.5 683Q261 664 228 622Q195 580 174.5 514Q154 448 154 355Q154 253 176 184Q198 115 232.5 74Q267 33 309.5 15.5Q352 -2 392 -2ZM389 -17Q311 -17 246.5 11.5Q182 40 135.5 90Q89 140 63 207.5Q37 275 37 352Q37 428 64 494.5Q91 561 138.5 610.5Q186 660 250.5 688.5Q315 717 390 717Q468 717 532.5 688.5Q597 660 643.5 610Q690 560 715.5 492.5Q741 425 741 348Q741 272 714 205.5Q687 139 640 89.5Q593 40 528.5 11.5Q464 -17 389 -17ZM525 891Q522 863 513.5 844.5Q505 826 494.5 814.5Q484 803 473 798.5Q462 794 452 794Q429 794 411 799.5Q393 805 376 812Q359 819 342 824.5Q325 830 305 830Q271 830 260 790L252 792Q258 842 281 864Q304 886 329 886Q345 886 363.5 880Q382 874 400.5 867Q419 860 437 854Q455 848 471 848Q485 848 496.5 856.5Q508 865 517 893Z" glyph-name="Otilde" horiz-adv-x="778" unicode="&#213;" /><glyph d="M305 1Q334 1 362 13.5Q390 26 412 56Q434 86 447.5 137Q461 188 461 266Q461 333 448 383.5Q435 434 413 468.5Q391 503 362 520.5Q333 538 300 538Q273 538 246 525Q219 512 197 481.5Q175 451 161 400Q147 349 147 273Q147 206 160 155.5Q173 105 195 70.5Q217 36 245.5 18.5Q274 1 305 1ZM306 -13Q246 -13 196 9Q146 31 110.5 69Q75 107 55 158.5Q35 210 35 269Q35 327 56 379Q77 431 113.5 469.5Q150 508 199 530.5Q248 553 305 553Q367 553 417 531Q467 509 502 471Q537 433 556 381.5Q575 330 575 270Q575 211 555 159.5Q535 108 499 69.5Q463 31 413.5 9Q364 -13 306 -13ZM442 727Q439 699 430.5 680.5Q422 662 411.5 650.5Q401 639 390 634.5Q379 630 369 630Q346 630 328 635.5Q310 641 293 648Q276 655 259 660.5Q242 666 222 666Q188 666 177 626L169 628Q175 678 198 700Q221 722 246 722Q262 722 280.5 716Q299 710 317.5 703Q336 696 354 690Q372 684 388 684Q402 684 413.5 692.5Q425 701 434 729Z" glyph-name="Otilde.smcp" horiz-adv-x="612" /><glyph d="M209 302H274Q377 302 427 352.5Q477 403 477 495Q477 538 467 573Q457 608 434.5 633Q412 658 375.5 671.5Q339 685 285 685H209ZM292 0H24V9Q39 10 54.5 14.5Q70 19 82 28Q94 37 101.5 53Q109 69 109 93V607Q109 631 101.5 646.5Q94 662 82 671.5Q70 681 54.5 685Q39 689 24 691V700H317Q386 700 437 684Q488 668 521.5 640Q555 612 571.5 575.5Q588 539 588 499Q588 452 568.5 413.5Q549 375 513 346.5Q477 318 425.5 302.5Q374 287 310 287H209V86Q209 64 216.5 49.5Q224 35 236 26.5Q248 18 262.5 14Q277 10 292 9Z" glyph-name="P" horiz-adv-x="623" unicode="P" /><glyph d="M206 229H250Q328 229 365.5 267Q403 305 403 368Q403 442 370.5 481.5Q338 521 259 521H206ZM290 0H23V9Q39 10 54.5 14.5Q70 19 82 28.5Q94 38 101.5 54.5Q109 71 109 97V438Q109 463 101.5 479.5Q94 496 82 506Q70 516 54.5 520.5Q39 525 23 527V536H285Q340 536 381.5 523.5Q423 511 451 489.5Q479 468 492.5 439.5Q506 411 506 378Q506 342 490 312Q474 282 444.5 260Q415 238 373 225.5Q331 213 279 213H206V96Q206 71 213 54.5Q220 38 232 28.5Q244 19 259 14.5Q274 10 290 9Z" glyph-name="P.smcp" horiz-adv-x="530" /><glyph d="M154 355Q154 253 176 184Q198 115 232.5 74Q267 33 309.5 15.5Q352 -2 392 -2Q435 -2 476.5 17Q518 36 550 77.5Q582 119 602 184.5Q622 250 622 343Q622 444 600 512.5Q578 581 543 623Q508 665 465.5 683.5Q423 702 382 702Q342 702 301.5 683Q261 664 228 622Q195 580 174.5 514Q154 448 154 355ZM519 -259Q472 -259 437 -245Q402 -231 370.5 -214Q339 -197 307.5 -183Q276 -169 236 -169Q210 -169 190.5 -181.5Q171 -194 154 -216L144 -212Q165 -176 193 -144.5Q221 -113 252.5 -87.5Q284 -62 318 -44Q352 -26 385 -17Q308 -16 244 13Q180 42 134 91.5Q88 141 62.5 208Q37 275 37 352Q37 428 64 494.5Q91 561 138.5 610.5Q186 660 250.5 688.5Q315 717 390 717Q468 717 532.5 688.5Q597 660 643.5 610Q690 560 715.5 492.5Q741 425 741 348Q741 281 720 222Q699 163 662.5 116Q626 69 575 36Q524 3 464 -10Q398 -24 350 -46.5Q302 -69 268 -98Q313 -96 345 -109.5Q377 -123 406.5 -139.5Q436 -156 468 -170.5Q500 -185 545 -186Q589 -187 625 -165.5Q661 -144 675 -92L689 -94Q680 -128 665.5 -158Q651 -188 629.5 -210.5Q608 -233 580.5 -246Q553 -259 519 -259Z" glyph-name="Q" horiz-adv-x="778" unicode="Q" /><glyph d="M461 266Q461 333 448 383.5Q435 434 413 468.5Q391 503 362 520.5Q333 538 300 538Q273 538 246 525Q219 512 197 481.5Q175 451 161 400Q147 349 147 273Q147 206 160 155.5Q173 105 195 70.5Q217 36 245.5 18.5Q274 1 305 1Q334 1 362 13.5Q390 26 412 56Q434 86 447.5 137Q461 188 461 266ZM399 -197Q364 -197 337.5 -187Q311 -177 287 -165Q263 -153 237.5 -143Q212 -133 180 -133Q156 -133 142.5 -140Q129 -147 116 -160L107 -156Q120 -131 141.5 -108Q163 -85 188.5 -66.5Q214 -48 242 -34Q270 -20 296 -13Q238 -11 190 11.5Q142 34 107.5 72Q73 110 54 160.5Q35 211 35 269Q35 327 56 379Q77 431 113 469.5Q149 508 198.5 530.5Q248 553 305 553Q367 553 417 531Q467 509 502 471Q537 433 556 381.5Q575 330 575 270Q575 218 559.5 172Q544 126 516.5 90Q489 54 450 28.5Q411 3 364 -7Q304 -21 268.5 -37.5Q233 -54 205 -73Q244 -74 270 -84.5Q296 -95 319.5 -107Q343 -119 367 -129Q391 -139 426 -139Q474 -139 499 -119.5Q524 -100 541 -68L551 -73Q525 -133 490.5 -165Q456 -197 399 -197Z" glyph-name="Q.smcp" horiz-adv-x="610" /><glyph d="M296 0H24V9Q39 10 54 14.5Q69 19 81.5 28Q94 37 101.5 52.5Q109 68 109 92V609Q109 633 101.5 648Q94 663 81.5 672Q69 681 54 685Q39 689 24 691V700H291Q357 700 407.5 685Q458 670 492 644.5Q526 619 543.5 585Q561 551 561 514Q561 445 518.5 393.5Q476 342 401 319L536 104Q549 83 564.5 65.5Q580 48 596.5 35.5Q613 23 629 16Q645 9 659 9V0H484L295 303H209V92Q209 68 216.5 52.5Q224 37 236 28Q248 19 263.5 14.5Q279 10 296 9ZM209 319H250Q352 319 400.5 365Q449 411 449 500Q449 542 439 576Q429 610 406.5 634.5Q384 659 348.5 672Q313 685 261 685H209Z" glyph-name="R" horiz-adv-x="663" unicode="R" /><glyph d="M294 0H23V9Q39 10 54.5 14Q70 18 82 28Q94 38 101.5 54Q109 70 109 96V440Q109 465 101.5 481Q94 497 82 507Q70 517 54.5 521Q39 525 23 527V536H270Q324 536 364.5 524.5Q405 513 432.5 493Q460 473 474 446.5Q488 420 488 390Q488 339 456.5 301.5Q425 264 368 245L468 88Q491 52 519 30.5Q547 9 570 9V0H408L264 230H206V96Q206 70 213.5 54Q221 38 233 28Q245 18 261 14Q277 10 294 9ZM206 243H236Q311 243 348 279Q385 315 385 381Q385 447 353.5 485Q322 523 250 523H206Z" glyph-name="R.smcp" horiz-adv-x="579" /><glyph d="M296 0H24V9Q39 10 54 14.5Q69 19 81.5 28Q94 37 101.5 52.5Q109 68 109 92V609Q109 633 101.5 648Q94 663 81.5 672Q69 681 54 685Q39 689 24 691V700H291Q357 700 407.5 685Q458 670 492 644.5Q526 619 543.5 585Q561 551 561 514Q561 445 518.5 393.5Q476 342 401 319L536 104Q549 83 564.5 65.5Q580 48 596.5 35.5Q613 23 629 16Q645 9 659 9V0H484L295 303H209V92Q209 68 216.5 52.5Q224 37 236 28Q248 19 263.5 14.5Q279 10 296 9ZM209 319H250Q352 319 400.5 365Q449 411 449 500Q449 542 439 576Q429 610 406.5 634.5Q384 659 348.5 672Q313 685 261 685H209ZM386 892Q404 906 421 906Q435 906 444 897.5Q453 889 453 876Q453 866 445 854Q437 842 415 834L269 782H250Z" glyph-name="Racute" horiz-adv-x="663" unicode="&#340;" /><glyph d="M294 0H23V9Q39 10 54.5 14Q70 18 82 28Q94 38 101.5 54Q109 70 109 96V440Q109 465 101.5 481Q94 497 82 507Q70 517 54.5 521Q39 525 23 527V536H270Q324 536 364.5 524.5Q405 513 432.5 493Q460 473 474 446.5Q488 420 488 390Q488 339 456.5 301.5Q425 264 368 245L468 88Q491 52 519 30.5Q547 9 570 9V0H408L264 230H206V96Q206 70 213.5 54Q221 38 233 28Q245 18 261 14Q277 10 294 9ZM206 243H236Q311 243 348 279Q385 315 385 381Q385 447 353.5 485Q322 523 250 523H206ZM344 728Q362 742 379 742Q393 742 402 733.5Q411 725 411 712Q411 702 403 690Q395 678 373 670L227 618H208Z" glyph-name="Racute.smcp" horiz-adv-x="579" /><glyph d="M296 0H24V9Q39 10 54 14.5Q69 19 81.5 28Q94 37 101.5 52.5Q109 68 109 92V609Q109 633 101.5 648Q94 663 81.5 672Q69 681 54 685Q39 689 24 691V700H291Q357 700 407.5 685Q458 670 492 644.5Q526 619 543.5 585Q561 551 561 514Q561 445 518.5 393.5Q476 342 401 319L536 104Q549 83 564.5 65.5Q580 48 596.5 35.5Q613 23 629 16Q645 9 659 9V0H484L295 303H209V92Q209 68 216.5 52.5Q224 37 236 28Q248 19 263.5 14.5Q279 10 296 9ZM209 319H250Q352 319 400.5 365Q449 411 449 500Q449 542 439 576Q429 610 406.5 634.5Q384 659 348.5 672Q313 685 261 685H209ZM334 840 470 906H479L342 780H324L191 906H202Z" glyph-name="Rcaron" horiz-adv-x="663" unicode="&#344;" /><glyph d="M294 0H23V9Q39 10 54.5 14Q70 18 82 28Q94 38 101.5 54Q109 70 109 96V440Q109 465 101.5 481Q94 497 82 507Q70 517 54.5 521Q39 525 23 527V536H270Q324 536 364.5 524.5Q405 513 432.5 493Q460 473 474 446.5Q488 420 488 390Q488 339 456.5 301.5Q425 264 368 245L468 88Q491 52 519 30.5Q547 9 570 9V0H408L264 230H206V96Q206 70 213.5 54Q221 38 233 28Q245 18 261 14Q277 10 294 9ZM206 243H236Q311 243 348 279Q385 315 385 381Q385 447 353.5 485Q322 523 250 523H206ZM290 676 426 742H435L298 616H280L147 742H158Z" glyph-name="Rcaron.smcp" horiz-adv-x="579" /><glyph d="M356 -227Q356 -217 352 -209Q348 -201 329 -197Q304 -192 290.5 -177.5Q277 -163 277 -143Q277 -122 291.5 -106Q306 -90 329 -90Q352 -90 370 -107.5Q388 -125 388 -170Q388 -224 363.5 -264Q339 -304 293 -316L287 -304Q321 -294 338.5 -272Q356 -250 356 -227ZM296 0H24V9Q39 10 54 14.5Q69 19 81.5 28Q94 37 101.5 52.5Q109 68 109 92V609Q109 633 101.5 648Q94 663 81.5 672Q69 681 54 685Q39 689 24 691V700H291Q357 700 407.5 685Q458 670 492 644.5Q526 619 543.5 585Q561 551 561 514Q561 445 518.5 393.5Q476 342 401 319L536 104Q549 83 564.5 65.5Q580 48 596.5 35.5Q613 23 629 16Q645 9 659 9V0H484L295 303H209V92Q209 68 216.5 52.5Q224 37 236 28Q248 19 263.5 14.5Q279 10 296 9ZM209 319H250Q352 319 400.5 365Q449 411 449 500Q449 542 439 576Q429 610 406.5 634.5Q384 659 348.5 672Q313 685 261 685H209Z" glyph-name="Rcommaaccent" horiz-adv-x="663" unicode="&#342;" /><glyph d="M335 -227Q335 -217 331 -209Q327 -201 308 -197Q283 -192 269.5 -177.5Q256 -163 256 -143Q256 -122 270.5 -106Q285 -90 308 -90Q331 -90 349 -107.5Q367 -125 367 -170Q367 -224 342.5 -264Q318 -304 272 -316L266 -304Q300 -294 317.5 -272Q335 -250 335 -227ZM294 0H23V9Q39 10 54.5 14Q70 18 82 28Q94 38 101.5 54Q109 70 109 96V440Q109 465 101.5 481Q94 497 82 507Q70 517 54.5 521Q39 525 23 527V536H270Q324 536 364.5 524.5Q405 513 432.5 493Q460 473 474 446.5Q488 420 488 390Q488 339 456.5 301.5Q425 264 368 245L468 88Q491 52 519 30.5Q547 9 570 9V0H408L264 230H206V96Q206 70 213.5 54Q221 38 233 28Q245 18 261 14Q277 10 294 9ZM206 243H236Q311 243 348 279Q385 315 385 381Q385 447 353.5 485Q322 523 250 523H206Z" glyph-name="Rcommaaccent.smcp" horiz-adv-x="579" /><glyph d="M511 195Q511 150 492.5 111.5Q474 73 441.5 45Q409 17 365 1Q321 -15 270 -15Q219 -15 161.5 0Q104 15 56 41L94 214L106 212Q114 155 127.5 115Q141 75 162 50.5Q183 26 211.5 14.5Q240 3 279 3Q320 3 348.5 14.5Q377 26 395 45.5Q413 65 421 90Q429 115 429 142Q429 194 402.5 227Q376 260 335.5 283Q295 306 248.5 325Q202 344 161.5 369Q121 394 94.5 430.5Q68 467 68 525Q68 565 82 600Q96 635 124 661Q152 687 193 702Q234 717 287 717Q344 717 395.5 703Q447 689 489 665L459 515L448 517Q437 608 391.5 653Q346 698 274 698Q203 698 162 663.5Q121 629 121 577Q121 534 150 505Q179 476 222 452.5Q265 429 316 407.5Q367 386 410 358Q453 330 482 291.5Q511 253 511 195Z" glyph-name="S" horiz-adv-x="567" unicode="S" /><glyph d="M95 168Q98 139 106 109.5Q114 80 130 56Q146 32 171.5 17Q197 2 236 2Q269 2 290.5 10.5Q312 19 324.5 33Q337 47 342.5 64.5Q348 82 348 100Q348 138 326.5 161.5Q305 185 273 201.5Q241 218 203.5 232.5Q166 247 134 267.5Q102 288 80.5 318.5Q59 349 60 399Q60 433 73.5 461Q87 489 110 509Q133 529 164.5 540.5Q196 552 234 552Q280 552 324 540Q368 528 404 506L374 388L365 390Q354 463 314.5 500Q275 537 223 537Q176 537 144.5 512.5Q113 488 113 444Q113 409 135.5 386Q158 363 192.5 345.5Q227 328 266.5 312Q306 296 340.5 274.5Q375 253 397.5 223Q420 193 420 148Q420 116 407.5 87Q395 58 371 35.5Q347 13 312.5 -0.5Q278 -14 234 -14Q189 -14 140 -1.5Q91 11 48 34L87 171Z" glyph-name="S.smcp" horiz-adv-x="463" /><glyph d="M511 195Q511 150 492.5 111.5Q474 73 441.5 45Q409 17 365 1Q321 -15 270 -15Q219 -15 161.5 0Q104 15 56 41L94 214L106 212Q114 155 127.5 115Q141 75 162 50.5Q183 26 211.5 14.5Q240 3 279 3Q320 3 348.5 14.5Q377 26 395 45.5Q413 65 421 90Q429 115 429 142Q429 194 402.5 227Q376 260 335.5 283Q295 306 248.5 325Q202 344 161.5 369Q121 394 94.5 430.5Q68 467 68 525Q68 565 82 600Q96 635 124 661Q152 687 193 702Q234 717 287 717Q344 717 395.5 703Q447 689 489 665L459 515L448 517Q437 608 391.5 653Q346 698 274 698Q203 698 162 663.5Q121 629 121 577Q121 534 150 505Q179 476 222 452.5Q265 429 316 407.5Q367 386 410 358Q453 330 482 291.5Q511 253 511 195ZM330 892Q348 906 365 906Q379 906 388 897.5Q397 889 397 876Q397 866 389 854Q381 842 359 834L213 782H194Z" glyph-name="Sacute" horiz-adv-x="567" unicode="&#346;" /><glyph d="M95 168Q98 139 106 109.5Q114 80 130 56Q146 32 171.5 17Q197 2 236 2Q269 2 290.5 10.5Q312 19 324.5 33Q337 47 342.5 64.5Q348 82 348 100Q348 138 326.5 161.5Q305 185 273 201.5Q241 218 203.5 232.5Q166 247 134 267.5Q102 288 80.5 318.5Q59 349 60 399Q60 433 73.5 461Q87 489 110 509Q133 529 164.5 540.5Q196 552 234 552Q280 552 324 540Q368 528 404 506L374 388L365 390Q354 463 314.5 500Q275 537 223 537Q176 537 144.5 512.5Q113 488 113 444Q113 409 135.5 386Q158 363 192.5 345.5Q227 328 266.5 312Q306 296 340.5 274.5Q375 253 397.5 223Q420 193 420 148Q420 116 407.5 87Q395 58 371 35.5Q347 13 312.5 -0.5Q278 -14 234 -14Q189 -14 140 -1.5Q91 11 48 34L87 171ZM287 728Q305 742 322 742Q336 742 345 733.5Q354 725 354 712Q354 702 346 690Q338 678 316 670L170 618H151Z" glyph-name="Sacute.smcp" horiz-adv-x="465" /><glyph d="M511 195Q511 150 492.5 111.5Q474 73 441.5 45Q409 17 365 1Q321 -15 270 -15Q219 -15 161.5 0Q104 15 56 41L94 214L106 212Q114 155 127.5 115Q141 75 162 50.5Q183 26 211.5 14.5Q240 3 279 3Q320 3 348.5 14.5Q377 26 395 45.5Q413 65 421 90Q429 115 429 142Q429 194 402.5 227Q376 260 335.5 283Q295 306 248.5 325Q202 344 161.5 369Q121 394 94.5 430.5Q68 467 68 525Q68 565 82 600Q96 635 124 661Q152 687 193 702Q234 717 287 717Q344 717 395.5 703Q447 689 489 665L459 515L448 517Q437 608 391.5 653Q346 698 274 698Q203 698 162 663.5Q121 629 121 577Q121 534 150 505Q179 476 222 452.5Q265 429 316 407.5Q367 386 410 358Q453 330 482 291.5Q511 253 511 195ZM278 840 414 906H423L286 780H268L135 906H146Z" glyph-name="Scaron" horiz-adv-x="567" unicode="&#352;" /><glyph d="M95 168Q98 139 106 109.5Q114 80 130 56Q146 32 171.5 17Q197 2 236 2Q269 2 290.5 10.5Q312 19 324.5 33Q337 47 342.5 64.5Q348 82 348 100Q348 138 326.5 161.5Q305 185 273 201.5Q241 218 203.5 232.5Q166 247 134 267.5Q102 288 80.5 318.5Q59 349 60 399Q60 433 73.5 461Q87 489 110 509Q133 529 164.5 540.5Q196 552 234 552Q280 552 324 540Q368 528 404 506L374 388L365 390Q354 463 314.5 500Q275 537 223 537Q176 537 144.5 512.5Q113 488 113 444Q113 409 135.5 386Q158 363 192.5 345.5Q227 328 266.5 312Q306 296 340.5 274.5Q375 253 397.5 223Q420 193 420 148Q420 116 407.5 87Q395 58 371 35.5Q347 13 312.5 -0.5Q278 -14 234 -14Q189 -14 140 -1.5Q91 11 48 34L87 171ZM234 676 370 742H379L242 616H224L91 742H102Z" glyph-name="Scaron.smcp" horiz-adv-x="465" /><glyph d="M287 -242Q258 -242 234 -236Q210 -230 193 -216L196 -209Q211 -220 229 -223Q247 -226 263 -226Q307 -224 330 -208.5Q353 -193 353 -163Q353 -128 324 -115Q295 -102 243 -112L240 -108L283 -15H270Q219 -15 161.5 0Q104 15 56 41L94 214L106 212Q114 155 127.5 115Q141 75 162 50.5Q183 26 211.5 14.5Q240 3 279 3Q320 3 348.5 14.5Q377 26 395 45.5Q413 65 421 90Q429 115 429 142Q429 194 402.5 227Q376 260 335.5 283Q295 306 248.5 325Q202 344 161.5 369Q121 394 94.5 430.5Q68 467 68 525Q68 565 82 600Q96 635 124 661Q152 687 193 702Q234 717 287 717Q344 717 395.5 703Q447 689 489 665L459 515L448 517Q437 608 391.5 653Q346 698 274 698Q203 698 162 663.5Q121 629 121 577Q121 534 150 505Q179 476 222 452.5Q265 429 316 407.5Q367 386 410 358Q453 330 482 291.5Q511 253 511 195Q511 153 495 117Q479 81 450.5 53.5Q422 26 383 8Q344 -10 299 -14L271 -75Q278 -73 287 -72Q296 -71 307 -71Q349 -71 377 -91.5Q405 -112 405 -149Q405 -171 395 -187.5Q385 -204 368.5 -215.5Q352 -227 331 -234Q310 -241 287 -242Z" glyph-name="Scedilla" horiz-adv-x="567" unicode="&#350;" /><glyph d="M234 -242Q205 -242 181 -236Q157 -230 140 -216L143 -209Q158 -220 176 -223Q194 -226 210 -226Q254 -224 277 -208.5Q300 -193 300 -163Q300 -128 271 -115Q242 -102 190 -112L187 -108L230 -14Q186 -13 138 -1Q90 11 48 34L87 171L95 168Q98 139 106 109.5Q114 80 130 56Q146 32 171.5 17Q197 2 236 2Q269 2 290.5 10.5Q312 19 324.5 33Q337 47 342.5 64.5Q348 82 348 100Q348 138 326.5 161.5Q305 185 273 201.5Q241 218 203.5 232.5Q166 247 134 267.5Q102 288 80.5 318.5Q59 349 60 399Q60 433 73.5 461Q87 489 110 509Q133 529 164.5 540.5Q196 552 234 552Q280 552 324 540Q368 528 404 506L374 388L365 390Q354 463 314.5 500Q275 537 223 537Q176 537 144.5 512.5Q113 488 113 444Q113 409 135.5 386Q158 363 192.5 345.5Q227 328 266.5 312Q306 296 340.5 274.5Q375 253 397.5 223Q420 193 420 148Q420 117 408.5 88.5Q397 60 374.5 38Q352 16 319.5 2Q287 -12 246 -14L218 -75Q225 -73 234 -72Q243 -71 254 -71Q296 -71 324 -91.5Q352 -112 352 -149Q352 -171 342 -187.5Q332 -204 315.5 -215.5Q299 -227 278 -234Q257 -241 234 -242Z" glyph-name="Scedilla.smcp" horiz-adv-x="465" /><glyph d="M511 195Q511 150 492.5 111.5Q474 73 441.5 45Q409 17 365 1Q321 -15 270 -15Q219 -15 161.5 0Q104 15 56 41L94 214L106 212Q114 155 127.5 115Q141 75 162 50.5Q183 26 211.5 14.5Q240 3 279 3Q320 3 348.5 14.5Q377 26 395 45.5Q413 65 421 90Q429 115 429 142Q429 194 402.5 227Q376 260 335.5 283Q295 306 248.5 325Q202 344 161.5 369Q121 394 94.5 430.5Q68 467 68 525Q68 565 82 600Q96 635 124 661Q152 687 193 702Q234 717 287 717Q344 717 395.5 703Q447 689 489 665L459 515L448 517Q437 608 391.5 653Q346 698 274 698Q203 698 162 663.5Q121 629 121 577Q121 534 150 505Q179 476 222 452.5Q265 429 316 407.5Q367 386 410 358Q453 330 482 291.5Q511 253 511 195ZM280 846 144 780H135L272 906H290L423 780H412Z" glyph-name="Scircumflex" horiz-adv-x="567" unicode="&#348;" /><glyph d="M95 168Q98 139 106 109.5Q114 80 130 56Q146 32 171.5 17Q197 2 236 2Q269 2 290.5 10.5Q312 19 324.5 33Q337 47 342.5 64.5Q348 82 348 100Q348 138 326.5 161.5Q305 185 273 201.5Q241 218 203.5 232.5Q166 247 134 267.5Q102 288 80.5 318.5Q59 349 60 399Q60 433 73.5 461Q87 489 110 509Q133 529 164.5 540.5Q196 552 234 552Q280 552 324 540Q368 528 404 506L374 388L365 390Q354 463 314.5 500Q275 537 223 537Q176 537 144.5 512.5Q113 488 113 444Q113 409 135.5 386Q158 363 192.5 345.5Q227 328 266.5 312Q306 296 340.5 274.5Q375 253 397.5 223Q420 193 420 148Q420 116 407.5 87Q395 58 371 35.5Q347 13 312.5 -0.5Q278 -14 234 -14Q189 -14 140 -1.5Q91 11 48 34L87 171ZM236 682 100 616H91L228 742H246L379 616H368Z" glyph-name="Scircumflex.smcp" horiz-adv-x="465" /><glyph d="M314 -227Q314 -217 310 -209Q306 -201 287 -197Q262 -192 248.5 -177.5Q235 -163 235 -143Q235 -122 249.5 -106Q264 -90 287 -90Q310 -90 328 -107.5Q346 -125 346 -170Q346 -224 321.5 -264Q297 -304 251 -316L245 -304Q279 -294 296.5 -272Q314 -250 314 -227ZM511 195Q511 150 492.5 111.5Q474 73 441.5 45Q409 17 365 1Q321 -15 270 -15Q219 -15 161.5 0Q104 15 56 41L94 214L106 212Q114 155 127.5 115Q141 75 162 50.5Q183 26 211.5 14.5Q240 3 279 3Q320 3 348.5 14.5Q377 26 395 45.5Q413 65 421 90Q429 115 429 142Q429 194 402.5 227Q376 260 335.5 283Q295 306 248.5 325Q202 344 161.5 369Q121 394 94.5 430.5Q68 467 68 525Q68 565 82 600Q96 635 124 661Q152 687 193 702Q234 717 287 717Q344 717 395.5 703Q447 689 489 665L459 515L448 517Q437 608 391.5 653Q346 698 274 698Q203 698 162 663.5Q121 629 121 577Q121 534 150 505Q179 476 222 452.5Q265 429 316 407.5Q367 386 410 358Q453 330 482 291.5Q511 253 511 195Z" glyph-name="Scommaaccent" horiz-adv-x="567" unicode="&#536;" /><glyph d="M262 -227Q262 -217 258 -209Q254 -201 235 -197Q210 -192 196.5 -177.5Q183 -163 183 -143Q183 -122 197.5 -106Q212 -90 235 -90Q258 -90 276 -107.5Q294 -125 294 -170Q294 -224 269.5 -264Q245 -304 199 -316L193 -304Q227 -294 244.5 -272Q262 -250 262 -227ZM95 168Q98 139 106 109.5Q114 80 130 56Q146 32 171.5 17Q197 2 236 2Q269 2 290.5 10.5Q312 19 324.5 33Q337 47 342.5 64.5Q348 82 348 100Q348 138 326.5 161.5Q305 185 273 201.5Q241 218 203.5 232.5Q166 247 134 267.5Q102 288 80.5 318.5Q59 349 60 399Q60 433 73.5 461Q87 489 110 509Q133 529 164.5 540.5Q196 552 234 552Q280 552 324 540Q368 528 404 506L374 388L365 390Q354 463 314.5 500Q275 537 223 537Q176 537 144.5 512.5Q113 488 113 444Q113 409 135.5 386Q158 363 192.5 345.5Q227 328 266.5 312Q306 296 340.5 274.5Q375 253 397.5 223Q420 193 420 148Q420 116 407.5 87Q395 58 371 35.5Q347 13 312.5 -0.5Q278 -14 234 -14Q189 -14 140 -1.5Q91 11 48 34L87 171Z" glyph-name="Scommaaccent.smcp" horiz-adv-x="465" /><glyph d="M583 700 613 499H600L576 548Q558 586 539.5 612Q521 638 498.5 654.5Q476 671 447 678Q418 685 379 685H363V101Q363 75 370 58Q377 41 388.5 30.5Q400 20 415 15Q430 10 446 9V0H180V9Q196 10 211 15Q226 20 237.5 30.5Q249 41 256 58Q263 75 263 101V685H254Q176 685 128 651Q80 617 48 549L24 499H11L47 700Z" glyph-name="T" horiz-adv-x="623" unicode="T" /><glyph d="M488 536 511 378H501L477 425Q452 474 418.5 496.5Q385 519 328 519H313V98Q313 72 320 55.5Q327 39 339 29Q351 19 366 14.5Q381 10 397 9V0H131V9Q147 10 162.5 14.5Q178 19 190 29Q202 39 209 55.5Q216 72 216 98V519H206Q94 519 49 426L26 378H16L41 536Z" glyph-name="T.smcp" horiz-adv-x="526" /><glyph d="M446 0H180V9Q196 10 211 15Q226 20 237.5 30.5Q249 41 256 58Q263 75 263 101V370H91V387H263V685H254Q176 685 128 651Q80 617 48 549L24 499H11L47 700H583L613 499H600L576 548Q558 586 539.5 612Q521 638 498.5 654.5Q476 671 447 678Q418 685 379 685H363V387H538V370H363V101Q363 75 370 58Q377 41 388.5 30.5Q400 20 415 15Q430 10 446 9Z" glyph-name="Tbar" horiz-adv-x="623" unicode="&#358;" /><glyph d="M397 0H131V9Q147 10 162.5 14.5Q178 19 190 29Q202 39 209 55.5Q216 72 216 98V280H73V298H216V519H206Q94 519 49 426L26 378H16L41 536H488L511 378H501L477 425Q452 474 418.5 496.5Q385 519 328 519H313V298H452V280H313V98Q313 72 320 55.5Q327 39 339 29Q351 19 366 14.5Q381 10 397 9Z" glyph-name="Tbar.smcp" horiz-adv-x="526" /><glyph d="M583 700 613 499H600L576 548Q558 586 539.5 612Q521 638 498.5 654.5Q476 671 447 678Q418 685 379 685H363V101Q363 75 370 58Q377 41 388.5 30.5Q400 20 415 15Q430 10 446 9V0H180V9Q196 10 211 15Q226 20 237.5 30.5Q249 41 256 58Q263 75 263 101V685H254Q176 685 128 651Q80 617 48 549L24 499H11L47 700ZM311 840 447 906H456L319 780H301L168 906H179Z" glyph-name="Tcaron" horiz-adv-x="623" unicode="&#356;" /><glyph d="M488 536 511 378H501L477 425Q452 474 418.5 496.5Q385 519 328 519H313V98Q313 72 320 55.5Q327 39 339 29Q351 19 366 14.5Q381 10 397 9V0H131V9Q147 10 162.5 14.5Q178 19 190 29Q202 39 209 55.5Q216 72 216 98V519H206Q94 519 49 426L26 378H16L41 536ZM261 674 397 740H406L269 614H251L118 740H129Z" glyph-name="Tcaron.smcp" horiz-adv-x="525" /><glyph d="M336 -227Q336 -217 332 -209Q328 -201 309 -197Q284 -192 270.5 -177.5Q257 -163 257 -143Q257 -122 271.5 -106Q286 -90 309 -90Q332 -90 350 -107.5Q368 -125 368 -170Q368 -224 343.5 -264Q319 -304 273 -316L267 -304Q301 -294 318.5 -272Q336 -250 336 -227ZM583 700 613 499H600L576 548Q558 586 539.5 612Q521 638 498.5 654.5Q476 671 447 678Q418 685 379 685H363V101Q363 75 370 58Q377 41 388.5 30.5Q400 20 415 15Q430 10 446 9V0H180V9Q196 10 211 15Q226 20 237.5 30.5Q249 41 256 58Q263 75 263 101V685H254Q176 685 128 651Q80 617 48 549L24 499H11L47 700Z" glyph-name="Tcommaaccent" horiz-adv-x="623" unicode="&#354;" /><glyph d="M286 -229Q286 -219 282 -211Q278 -203 259 -199Q234 -194 220.5 -179.5Q207 -165 207 -145Q207 -124 221.5 -108Q236 -92 259 -92Q282 -92 300 -109.5Q318 -127 318 -172Q318 -226 293.5 -266Q269 -306 223 -318L217 -306Q251 -296 268.5 -274Q286 -252 286 -229ZM488 536 511 378H501L477 425Q452 474 418.5 496.5Q385 519 328 519H313V98Q313 72 320 55.5Q327 39 339 29Q351 19 366 14.5Q381 10 397 9V0H131V9Q147 10 162.5 14.5Q178 19 190 29Q202 39 209 55.5Q216 72 216 98V519H206Q94 519 49 426L26 378H16L41 536Z" glyph-name="Tcommaaccent.smcp" horiz-adv-x="525" /><glyph d="M209 537V167H267Q364 167 411.5 215Q459 263 459 348Q459 392 450 427Q441 462 419.5 486.5Q398 511 363.5 524Q329 537 278 537ZM294 0H24V9Q40 10 55.5 14.5Q71 19 83 28Q95 37 102 53Q109 69 109 93V609Q109 633 102 648Q95 663 83 672Q71 681 55.5 685Q40 689 24 691V700H294V691Q278 689 262.5 685Q247 681 235 672Q223 663 216 647Q209 631 209 607V551H310Q375 551 423 535.5Q471 520 503 493.5Q535 467 551 432.5Q567 398 567 359Q567 314 548 275.5Q529 237 494.5 209.5Q460 182 411.5 166.5Q363 151 303 151H209V93Q209 69 216 53Q223 37 235 28Q247 19 262.5 14.5Q278 10 294 9Z" glyph-name="Thorn" horiz-adv-x="594" unicode="&#222;" /><glyph d="M206 411V132H247Q323 132 359.5 167.5Q396 203 396 265Q396 335 364.5 373Q333 411 258 411ZM290 0H23V9Q39 10 54.5 14.5Q70 19 82 28.5Q94 38 101.5 54.5Q109 71 109 97V439Q109 464 101.5 480.5Q94 497 82 507Q70 517 54.5 521.5Q39 526 23 527V536H290V527Q274 526 259 521.5Q244 517 232 507Q220 497 213 480.5Q206 464 206 439V426H280Q335 426 376 414Q417 402 444 381.5Q471 361 484.5 333Q498 305 498 274Q498 240 482.5 211Q467 182 438.5 161Q410 140 368.5 128Q327 116 276 116H206V97Q206 71 213 54.5Q220 38 232 28.5Q244 19 259 14.5Q274 10 290 9Z" glyph-name="Thorn.smcp" horiz-adv-x="524" /><glyph d="M586 243Q585 190 569 143Q553 96 524 61Q495 26 452.5 5.5Q410 -15 355 -15Q236 -15 171.5 48Q107 111 107 218V607Q107 631 99.5 647Q92 663 80 672Q68 681 53.5 685Q39 689 24 691V700H290V691Q274 689 259 685Q244 681 232.5 672Q221 663 214 647Q207 631 207 607V211Q207 123 252 71.5Q297 20 383 20Q421 20 454.5 35Q488 50 512.5 79Q537 108 551.5 151Q566 194 567 250L572 520Q572 556 566.5 586.5Q561 617 547.5 640Q534 663 511.5 676Q489 689 456 691V700H700V691Q668 689 647.5 676Q627 663 615 640.5Q603 618 598 587.5Q593 557 592 522Z" glyph-name="U" horiz-adv-x="717" unicode="U" /><glyph d="M504 189Q504 149 492 112.5Q480 76 456 48Q432 20 394.5 3.5Q357 -13 306 -13Q254 -13 215 1Q176 15 150.5 39.5Q125 64 112.5 96.5Q100 129 100 166V448Q100 472 93 487Q86 502 75 510.5Q64 519 50 523Q36 527 22 528V536H275V528Q260 527 246 523Q232 519 221 510.5Q210 502 203.5 487Q197 472 197 448V158Q197 96 231.5 56Q266 16 333 16Q364 16 391.5 27Q419 38 439.5 60.5Q460 83 472 117Q484 151 484 196V402Q484 424 479 446.5Q474 469 462.5 486.5Q451 504 432 515.5Q413 527 384 528V536H604V528Q575 527 556.5 515Q538 503 527 485Q516 467 511.5 445Q507 423 507 402Z" glyph-name="U.smcp" horiz-adv-x="621" /><glyph d="M586 243Q585 190 569 143Q553 96 524 61Q495 26 452.5 5.5Q410 -15 355 -15Q236 -15 171.5 48Q107 111 107 218V607Q107 631 99.5 647Q92 663 80 672Q68 681 53.5 685Q39 689 24 691V700H290V691Q274 689 259 685Q244 681 232.5 672Q221 663 214 647Q207 631 207 607V211Q207 123 252 71.5Q297 20 383 20Q421 20 454.5 35Q488 50 512.5 79Q537 108 551.5 151Q566 194 567 250L572 520Q572 556 566.5 586.5Q561 617 547.5 640Q534 663 511.5 676Q489 689 456 691V700H700V691Q668 689 647.5 676Q627 663 615 640.5Q603 618 598 587.5Q593 557 592 522ZM417 892Q435 906 452 906Q466 906 475 897.5Q484 889 484 876Q484 866 476 854Q468 842 446 834L300 782H281Z" glyph-name="Uacute" horiz-adv-x="717" unicode="&#218;" /><glyph d="M504 189Q504 149 492 112.5Q480 76 456 48Q432 20 394.5 3.5Q357 -13 306 -13Q254 -13 215 1Q176 15 150.5 39.5Q125 64 112.5 96.5Q100 129 100 166V448Q100 472 93 487Q86 502 75 510.5Q64 519 50 523Q36 527 22 528V536H275V528Q260 527 246 523Q232 519 221 510.5Q210 502 203.5 487Q197 472 197 448V158Q197 96 231.5 56Q266 16 333 16Q364 16 391.5 27Q419 38 439.5 60.5Q460 83 472 117Q484 151 484 196V402Q484 424 479 446.5Q474 469 462.5 486.5Q451 504 432 515.5Q413 527 384 528V536H604V528Q575 527 556.5 515Q538 503 527 485Q516 467 511.5 445Q507 423 507 402ZM370 727Q388 741 405 741Q419 741 428 732.5Q437 724 437 711Q437 701 429 689Q421 677 399 669L253 617H234Z" glyph-name="Uacute.smcp" horiz-adv-x="615" /><glyph d="M586 243Q585 190 569 143Q553 96 524 61Q495 26 452.5 5.5Q410 -15 355 -15Q236 -15 171.5 48Q107 111 107 218V607Q107 631 99.5 647Q92 663 80 672Q68 681 53.5 685Q39 689 24 691V700H290V691Q274 689 259 685Q244 681 232.5 672Q221 663 214 647Q207 631 207 607V211Q207 123 252 71.5Q297 20 383 20Q421 20 454.5 35Q488 50 512.5 79Q537 108 551.5 151Q566 194 567 250L572 520Q572 556 566.5 586.5Q561 617 547.5 640Q534 663 511.5 676Q489 689 456 691V700H700V691Q668 689 647.5 676Q627 663 615 640.5Q603 618 598 587.5Q593 557 592 522ZM365 787Q343 787 321 794Q299 801 281.5 815Q264 829 252.5 850.5Q241 872 239 902H249Q258 868 287.5 852.5Q317 837 365 837Q413 837 443 852.5Q473 868 482 902H491Q489 872 477.5 850.5Q466 829 448.5 815Q431 801 409 794Q387 787 365 787Z" glyph-name="Ubreve" horiz-adv-x="717" unicode="&#364;" /><glyph d="M504 189Q504 149 492 112.5Q480 76 456 48Q432 20 394.5 3.5Q357 -13 306 -13Q254 -13 215 1Q176 15 150.5 39.5Q125 64 112.5 96.5Q100 129 100 166V448Q100 472 93 487Q86 502 75 510.5Q64 519 50 523Q36 527 22 528V536H275V528Q260 527 246 523Q232 519 221 510.5Q210 502 203.5 487Q197 472 197 448V158Q197 96 231.5 56Q266 16 333 16Q364 16 391.5 27Q419 38 439.5 60.5Q460 83 472 117Q484 151 484 196V402Q484 424 479 446.5Q474 469 462.5 486.5Q451 504 432 515.5Q413 527 384 528V536H604V528Q575 527 556.5 515Q538 503 527 485Q516 467 511.5 445Q507 423 507 402ZM318 622Q296 622 274 629Q252 636 234.5 650Q217 664 205.5 685.5Q194 707 192 737H202Q211 703 240.5 687.5Q270 672 318 672Q366 672 396 687.5Q426 703 435 737H444Q442 707 430.5 685.5Q419 664 401.5 650Q384 636 362 629Q340 622 318 622Z" glyph-name="Ubreve.smcp" horiz-adv-x="615" /><glyph d="M586 243Q585 190 569 143Q553 96 524 61Q495 26 452.5 5.5Q410 -15 355 -15Q236 -15 171.5 48Q107 111 107 218V607Q107 631 99.5 647Q92 663 80 672Q68 681 53.5 685Q39 689 24 691V700H290V691Q274 689 259 685Q244 681 232.5 672Q221 663 214 647Q207 631 207 607V211Q207 123 252 71.5Q297 20 383 20Q421 20 454.5 35Q488 50 512.5 79Q537 108 551.5 151Q566 194 567 250L572 520Q572 556 566.5 586.5Q561 617 547.5 640Q534 663 511.5 676Q489 689 456 691V700H700V691Q668 689 647.5 676Q627 663 615 640.5Q603 618 598 587.5Q593 557 592 522ZM366 846 230 780H221L358 906H376L509 780H498Z" glyph-name="Ucircumflex" horiz-adv-x="717" unicode="&#219;" /><glyph d="M504 189Q504 149 492 112.5Q480 76 456 48Q432 20 394.5 3.5Q357 -13 306 -13Q254 -13 215 1Q176 15 150.5 39.5Q125 64 112.5 96.5Q100 129 100 166V448Q100 472 93 487Q86 502 75 510.5Q64 519 50 523Q36 527 22 528V536H275V528Q260 527 246 523Q232 519 221 510.5Q210 502 203.5 487Q197 472 197 448V158Q197 96 231.5 56Q266 16 333 16Q364 16 391.5 27Q419 38 439.5 60.5Q460 83 472 117Q484 151 484 196V402Q484 424 479 446.5Q474 469 462.5 486.5Q451 504 432 515.5Q413 527 384 528V536H604V528Q575 527 556.5 515Q538 503 527 485Q516 467 511.5 445Q507 423 507 402ZM319 681 183 615H174L311 741H329L462 615H451Z" glyph-name="Ucircumflex.smcp" horiz-adv-x="615" /><glyph d="M586 243Q585 190 569 143Q553 96 524 61Q495 26 452.5 5.5Q410 -15 355 -15Q236 -15 171.5 48Q107 111 107 218V607Q107 631 99.5 647Q92 663 80 672Q68 681 53.5 685Q39 689 24 691V700H290V691Q274 689 259 685Q244 681 232.5 672Q221 663 214 647Q207 631 207 607V211Q207 123 252 71.5Q297 20 383 20Q421 20 454.5 35Q488 50 512.5 79Q537 108 551.5 151Q566 194 567 250L572 520Q572 556 566.5 586.5Q561 617 547.5 640Q534 663 511.5 676Q489 689 456 691V700H700V691Q668 689 647.5 676Q627 663 615 640.5Q603 618 598 587.5Q593 557 592 522ZM439 780Q416 780 400.5 795Q385 810 385 832Q385 855 400.5 870Q416 885 439 885Q462 885 477 870Q492 855 492 832Q492 810 477 795Q462 780 439 780ZM289 780Q266 780 250.5 795Q235 810 235 832Q235 855 250.5 870Q266 885 289 885Q312 885 327 870Q342 855 342 832Q342 810 327 795Q312 780 289 780Z" glyph-name="Udieresis" horiz-adv-x="717" unicode="&#220;" /><glyph d="M504 189Q504 149 492 112.5Q480 76 456 48Q432 20 394.5 3.5Q357 -13 306 -13Q254 -13 215 1Q176 15 150.5 39.5Q125 64 112.5 96.5Q100 129 100 166V448Q100 472 93 487Q86 502 75 510.5Q64 519 50 523Q36 527 22 528V536H275V528Q260 527 246 523Q232 519 221 510.5Q210 502 203.5 487Q197 472 197 448V158Q197 96 231.5 56Q266 16 333 16Q364 16 391.5 27Q419 38 439.5 60.5Q460 83 472 117Q484 151 484 196V402Q484 424 479 446.5Q474 469 462.5 486.5Q451 504 432 515.5Q413 527 384 528V536H604V528Q575 527 556.5 515Q538 503 527 485Q516 467 511.5 445Q507 423 507 402ZM393 615Q370 615 354.5 630Q339 645 339 667Q339 690 354.5 705Q370 720 393 720Q416 720 431 705Q446 690 446 667Q446 645 431 630Q416 615 393 615ZM243 615Q220 615 204.5 630Q189 645 189 667Q189 690 204.5 705Q220 720 243 720Q266 720 281 705Q296 690 296 667Q296 645 281 630Q266 615 243 615Z" glyph-name="Udieresis.smcp" horiz-adv-x="615" /><glyph d="M586 243Q585 190 569 143Q553 96 524 61Q495 26 452.5 5.5Q410 -15 355 -15Q236 -15 171.5 48Q107 111 107 218V607Q107 631 99.5 647Q92 663 80 672Q68 681 53.5 685Q39 689 24 691V700H290V691Q274 689 259 685Q244 681 232.5 672Q221 663 214 647Q207 631 207 607V211Q207 123 252 71.5Q297 20 383 20Q421 20 454.5 35Q488 50 512.5 79Q537 108 551.5 151Q566 194 567 250L572 520Q572 556 566.5 586.5Q561 617 547.5 640Q534 663 511.5 676Q489 689 456 691V700H700V691Q668 689 647.5 676Q627 663 615 640.5Q603 618 598 587.5Q593 557 592 522ZM421 782 275 834Q253 842 245 854Q237 866 237 876Q237 889 246 897.5Q255 906 269 906Q286 906 304 892L440 782Z" glyph-name="Ugrave" horiz-adv-x="717" unicode="&#217;" /><glyph d="M504 189Q504 149 492 112.5Q480 76 456 48Q432 20 394.5 3.5Q357 -13 306 -13Q254 -13 215 1Q176 15 150.5 39.5Q125 64 112.5 96.5Q100 129 100 166V448Q100 472 93 487Q86 502 75 510.5Q64 519 50 523Q36 527 22 528V536H275V528Q260 527 246 523Q232 519 221 510.5Q210 502 203.5 487Q197 472 197 448V158Q197 96 231.5 56Q266 16 333 16Q364 16 391.5 27Q419 38 439.5 60.5Q460 83 472 117Q484 151 484 196V402Q484 424 479 446.5Q474 469 462.5 486.5Q451 504 432 515.5Q413 527 384 528V536H604V528Q575 527 556.5 515Q538 503 527 485Q516 467 511.5 445Q507 423 507 402ZM374 617 228 669Q206 677 198 689Q190 701 190 711Q190 724 199 732.5Q208 741 222 741Q239 741 257 727L393 617Z" glyph-name="Ugrave.smcp" horiz-adv-x="615" /><glyph d="M586 243Q585 190 569 143Q553 96 524 61Q495 26 452.5 5.5Q410 -15 355 -15Q236 -15 171.5 48Q107 111 107 218V607Q107 631 99.5 647Q92 663 80 672Q68 681 53.5 685Q39 689 24 691V700H290V691Q274 689 259 685Q244 681 232.5 672Q221 663 214 647Q207 631 207 607V211Q207 123 252 71.5Q297 20 383 20Q421 20 454.5 35Q488 50 512.5 79Q537 108 551.5 151Q566 194 567 250L572 520Q572 556 566.5 586.5Q561 617 547.5 640Q534 663 511.5 676Q489 689 456 691V700H700V691Q668 689 647.5 676Q627 663 615 640.5Q603 618 598 587.5Q593 557 592 522ZM367 873Q388 899 408 899Q419 899 426.5 892.5Q434 886 434 877Q434 857 403 839L301 778H291ZM493 873Q514 899 534 899Q545 899 552.5 892.5Q560 886 560 877Q560 857 529 839L425 778H415Z" glyph-name="Uhungarumlaut" horiz-adv-x="717" unicode="&#368;" /><glyph d="M504 189Q504 149 492 112.5Q480 76 456 48Q432 20 394.5 3.5Q357 -13 306 -13Q254 -13 215 1Q176 15 150.5 39.5Q125 64 112.5 96.5Q100 129 100 166V448Q100 472 93 487Q86 502 75 510.5Q64 519 50 523Q36 527 22 528V536H275V528Q260 527 246 523Q232 519 221 510.5Q210 502 203.5 487Q197 472 197 448V158Q197 96 231.5 56Q266 16 333 16Q364 16 391.5 27Q419 38 439.5 60.5Q460 83 472 117Q484 151 484 196V402Q484 424 479 446.5Q474 469 462.5 486.5Q451 504 432 515.5Q413 527 384 528V536H604V528Q575 527 556.5 515Q538 503 527 485Q516 467 511.5 445Q507 423 507 402ZM320 708Q341 734 361 734Q372 734 379.5 727.5Q387 721 387 712Q387 692 356 674L254 613H244ZM446 708Q467 734 487 734Q498 734 505.5 727.5Q513 721 513 712Q513 692 482 674L378 613H368Z" glyph-name="Uhungarumlaut.smcp" horiz-adv-x="621" /><glyph d="M586 243Q585 190 569 143Q553 96 524 61Q495 26 452.5 5.5Q410 -15 355 -15Q236 -15 171.5 48Q107 111 107 218V607Q107 631 99.5 647Q92 663 80 672Q68 681 53.5 685Q39 689 24 691V700H290V691Q274 689 259 685Q244 681 232.5 672Q221 663 214 647Q207 631 207 607V211Q207 123 252 71.5Q297 20 383 20Q421 20 454.5 35Q488 50 512.5 79Q537 108 551.5 151Q566 194 567 250L572 520Q572 556 566.5 586.5Q561 617 547.5 640Q534 663 511.5 676Q489 689 456 691V700H700V691Q668 689 647.5 676Q627 663 615 640.5Q603 618 598 587.5Q593 557 592 522ZM508 842V815H227V842Z" glyph-name="Umacron" horiz-adv-x="717" unicode="&#362;" /><glyph d="M504 189Q504 149 492 112.5Q480 76 456 48Q432 20 394.5 3.5Q357 -13 306 -13Q254 -13 215 1Q176 15 150.5 39.5Q125 64 112.5 96.5Q100 129 100 166V448Q100 472 93 487Q86 502 75 510.5Q64 519 50 523Q36 527 22 528V536H275V528Q260 527 246 523Q232 519 221 510.5Q210 502 203.5 487Q197 472 197 448V158Q197 96 231.5 56Q266 16 333 16Q364 16 391.5 27Q419 38 439.5 60.5Q460 83 472 117Q484 151 484 196V402Q484 424 479 446.5Q474 469 462.5 486.5Q451 504 432 515.5Q413 527 384 528V536H604V528Q575 527 556.5 515Q538 503 527 485Q516 467 511.5 445Q507 423 507 402ZM461 677V650H180V677Z" glyph-name="Umacron.smcp" horiz-adv-x="615" /><glyph d="M409 -240Q367 -240 340 -215.5Q313 -191 313 -145Q313 -103 334.5 -68.5Q356 -34 388 -13Q380 -14 372 -14.5Q364 -15 355 -15Q236 -15 171.5 48Q107 111 107 218V607Q107 631 99.5 647Q92 663 80 672Q68 681 53.5 685Q39 689 24 691V700H290V691Q274 689 259 685Q244 681 232.5 672Q221 663 214 647Q207 631 207 607V211Q207 123 252 71.5Q297 20 383 20Q421 20 454.5 35Q488 50 512.5 79Q537 108 551.5 151Q566 194 567 250L572 520Q572 556 566.5 586.5Q561 617 547.5 640Q534 663 511.5 676Q489 689 456 691V700H700V691Q668 689 647.5 676Q627 663 615 640.5Q603 618 598 587.5Q593 557 592 522L586 243Q585 201 575 162Q565 123 545.5 91Q526 59 498 35Q470 11 434 -2Q404 -18 388.5 -49.5Q373 -81 373 -122Q373 -167 393.5 -189Q414 -211 442 -211Q456 -211 467.5 -206Q479 -201 490 -191L496 -196Q481 -216 458 -228Q435 -240 409 -240Z" glyph-name="Uogonek" horiz-adv-x="717" unicode="&#370;" /><glyph d="M355 -240Q313 -240 286 -215.5Q259 -191 259 -145Q259 -102 281 -67Q303 -32 337 -11Q329 -12 321.5 -12.5Q314 -13 306 -13Q254 -13 215 1Q176 15 150.5 39.5Q125 64 112.5 96.5Q100 129 100 166V448Q100 472 93 487Q86 502 75 510.5Q64 519 50 523Q36 527 22 528V536H275V528Q260 527 246 523Q232 519 221 510.5Q210 502 203.5 487Q197 472 197 448V158Q197 96 231.5 56Q266 16 333 16Q364 16 391.5 27Q419 38 439.5 60.5Q460 83 472 117Q484 151 484 196V402Q484 424 479 446.5Q474 469 462.5 486.5Q451 504 432 515.5Q413 527 384 528V536H604V528Q575 527 556.5 515Q538 503 527 485Q516 467 511.5 445Q507 423 507 402L504 189Q504 157 496.5 127.5Q489 98 474 73Q459 48 435.5 28.5Q412 9 381 -2Q350 -18 334.5 -49Q319 -80 319 -122Q319 -167 339.5 -189Q360 -211 388 -211Q402 -211 413.5 -206Q425 -201 436 -191L442 -196Q427 -216 404 -228Q381 -240 355 -240Z" glyph-name="Uogonek.smcp" horiz-adv-x="621" /><glyph d="M586 243Q585 190 569 143Q553 96 524 61Q495 26 452.5 5.5Q410 -15 355 -15Q236 -15 171.5 48Q107 111 107 218V607Q107 631 99.5 647Q92 663 80 672Q68 681 53.5 685Q39 689 24 691V700H290V691Q274 689 259 685Q244 681 232.5 672Q221 663 214 647Q207 631 207 607V211Q207 123 252 71.5Q297 20 383 20Q421 20 454.5 35Q488 50 512.5 79Q537 108 551.5 151Q566 194 567 250L572 520Q572 556 566.5 586.5Q561 617 547.5 640Q534 663 511.5 676Q489 689 456 691V700H700V691Q668 689 647.5 676Q627 663 615 640.5Q603 618 598 587.5Q593 557 592 522ZM364 921Q337 921 318 900.5Q299 880 299 851Q299 822 318 802Q337 782 364 782Q391 782 410.5 802Q430 822 430 851Q430 880 411 900.5Q392 921 364 921ZM364 940Q401 940 427.5 914Q454 888 454 851Q454 814 427.5 788.5Q401 763 364 763Q327 763 301 788.5Q275 814 275 851Q275 888 301 914Q327 940 364 940Z" glyph-name="Uring" horiz-adv-x="717" unicode="&#366;" /><glyph d="M504 189Q504 149 492 112.5Q480 76 456 48Q432 20 394.5 3.5Q357 -13 306 -13Q254 -13 215 1Q176 15 150.5 39.5Q125 64 112.5 96.5Q100 129 100 166V448Q100 472 93 487Q86 502 75 510.5Q64 519 50 523Q36 527 22 528V536H275V528Q260 527 246 523Q232 519 221 510.5Q210 502 203.5 487Q197 472 197 448V158Q197 96 231.5 56Q266 16 333 16Q364 16 391.5 27Q419 38 439.5 60.5Q460 83 472 117Q484 151 484 196V402Q484 424 479 446.5Q474 469 462.5 486.5Q451 504 432 515.5Q413 527 384 528V536H604V528Q575 527 556.5 515Q538 503 527 485Q516 467 511.5 445Q507 423 507 402ZM317 756Q290 756 271 735.5Q252 715 252 686Q252 657 271 637Q290 617 317 617Q344 617 363.5 637Q383 657 383 686Q383 715 364 735.5Q345 756 317 756ZM317 775Q354 775 380.5 749Q407 723 407 686Q407 649 380.5 623.5Q354 598 317 598Q280 598 254 623.5Q228 649 228 686Q228 723 254 749Q280 775 317 775Z" glyph-name="Uring.smcp" horiz-adv-x="615" /><glyph d="M586 243Q585 190 569 143Q553 96 524 61Q495 26 452.5 5.5Q410 -15 355 -15Q236 -15 171.5 48Q107 111 107 218V607Q107 631 99.5 647Q92 663 80 672Q68 681 53.5 685Q39 689 24 691V700H290V691Q274 689 259 685Q244 681 232.5 672Q221 663 214 647Q207 631 207 607V211Q207 123 252 71.5Q297 20 383 20Q421 20 454.5 35Q488 50 512.5 79Q537 108 551.5 151Q566 194 567 250L572 520Q572 556 566.5 586.5Q561 617 547.5 640Q534 663 511.5 676Q489 689 456 691V700H700V691Q668 689 647.5 676Q627 663 615 640.5Q603 618 598 587.5Q593 557 592 522ZM500 891Q497 863 488.5 844.5Q480 826 469.5 814.5Q459 803 448 798.5Q437 794 427 794Q404 794 386 799.5Q368 805 351 812Q334 819 317 824.5Q300 830 280 830Q246 830 235 790L227 792Q233 842 256 864Q279 886 304 886Q320 886 338.5 880Q357 874 375.5 867Q394 860 412 854Q430 848 446 848Q460 848 471.5 856.5Q483 865 492 893Z" glyph-name="Utilde" horiz-adv-x="717" unicode="&#360;" /><glyph d="M504 189Q504 149 492 112.5Q480 76 456 48Q432 20 394.5 3.5Q357 -13 306 -13Q254 -13 215 1Q176 15 150.5 39.5Q125 64 112.5 96.5Q100 129 100 166V448Q100 472 93 487Q86 502 75 510.5Q64 519 50 523Q36 527 22 528V536H275V528Q260 527 246 523Q232 519 221 510.5Q210 502 203.5 487Q197 472 197 448V158Q197 96 231.5 56Q266 16 333 16Q364 16 391.5 27Q419 38 439.5 60.5Q460 83 472 117Q484 151 484 196V402Q484 424 479 446.5Q474 469 462.5 486.5Q451 504 432 515.5Q413 527 384 528V536H604V528Q575 527 556.5 515Q538 503 527 485Q516 467 511.5 445Q507 423 507 402ZM453 726Q450 698 441.5 679.5Q433 661 422.5 649.5Q412 638 401 633.5Q390 629 380 629Q357 629 339 634.5Q321 640 304 647Q287 654 270 659.5Q253 665 233 665Q199 665 188 625L180 627Q186 677 209 699Q232 721 257 721Q273 721 291.5 715Q310 709 328.5 702Q347 695 365 689Q383 683 399 683Q413 683 424.5 691.5Q436 700 445 728Z" glyph-name="Utilde.smcp" horiz-adv-x="615" /><glyph d="M324 -8 112 582Q92 639 63.5 663Q35 687 4 691V700H267V691Q225 691 211 669.5Q197 648 214 600L376 132L519 527Q533 567 533.5 597.5Q534 628 523.5 649Q513 670 492.5 680.5Q472 691 444 691V700H680V691Q636 687 602 645.5Q568 604 542 532L342 -8Z" glyph-name="V" horiz-adv-x="683" unicode="V" /><glyph d="M276 -8 97 429Q89 449 78.5 467Q68 485 56 498.5Q44 512 31 519.5Q18 527 3 527V536H253V527Q213 526 199 502Q185 478 202 435L324 114L434 393Q458 453 443 489.5Q428 526 375 527V536H573V527Q538 522 508.5 488Q479 454 450 382L293 -8Z" glyph-name="V.smcp" horiz-adv-x="576" /><glyph d="M486 437 338 -8H323L93 603Q77 645 57.5 666Q38 687 3 691V700H251V691Q233 691 221 683Q209 675 203.5 661.5Q198 648 199 631Q200 614 207 595L373 155L476 466L435 587Q417 641 392.5 666Q368 691 332 691V700H602V691Q585 691 570 685.5Q555 680 546 668Q537 656 535.5 638Q534 620 542 595L686 162L791 507Q819 598 801 643.5Q783 689 723 691V700H962V691Q945 689 926 681Q907 673 888.5 655.5Q870 638 853.5 611.5Q837 585 825 547L652 -8H637Z" glyph-name="W" horiz-adv-x="967" unicode="W" /><glyph d="M402 354 277 -8H263L83 437Q63 485 44.5 504Q26 523 3 527V536H228V527Q200 526 188 500.5Q176 475 193 430L309 134L393 380L372 437Q354 485 333 505.5Q312 526 283 527V536H526V527Q486 526 475 499.5Q464 473 479 430L581 136L665 384Q675 414 679 438.5Q683 463 678.5 481.5Q674 500 659.5 512Q645 524 618 527V536H805V527Q767 524 736.5 485Q706 446 685 385L548 -8H534Z" glyph-name="W.smcp" horiz-adv-x="809" /><glyph d="M486 437 338 -8H323L93 603Q77 645 57.5 666Q38 687 3 691V700H251V691Q233 691 221 683Q209 675 203.5 661.5Q198 648 199 631Q200 614 207 595L373 155L476 466L435 587Q417 641 392.5 666Q368 691 332 691V700H602V691Q585 691 570 685.5Q555 680 546 668Q537 656 535.5 638Q534 620 542 595L686 162L791 507Q819 598 801 643.5Q783 689 723 691V700H962V691Q945 689 926 681Q907 673 888.5 655.5Q870 638 853.5 611.5Q837 585 825 547L652 -8H637ZM525 892Q543 906 560 906Q574 906 583 897.5Q592 889 592 876Q592 866 584 854Q576 842 554 834L408 782H389Z" glyph-name="Wacute" horiz-adv-x="957" unicode="&#7810;" /><glyph d="M402 354 277 -8H263L83 437Q63 485 44.5 504Q26 523 3 527V536H228V527Q200 526 188 500.5Q176 475 193 430L309 134L393 380L372 437Q354 485 333 505.5Q312 526 283 527V536H526V527Q486 526 475 499.5Q464 473 479 430L581 136L665 384Q675 414 679 438.5Q683 463 678.5 481.5Q674 500 659.5 512Q645 524 618 527V536H805V527Q767 524 736.5 485Q706 446 685 385L548 -8H534ZM462 728Q480 742 497 742Q511 742 520 733.5Q529 725 529 712Q529 702 521 690Q513 678 491 670L345 618H326Z" glyph-name="Wacute.smcp" horiz-adv-x="809" /><glyph d="M486 437 338 -8H323L93 603Q77 645 57.5 666Q38 687 3 691V700H251V691Q233 691 221 683Q209 675 203.5 661.5Q198 648 199 631Q200 614 207 595L373 155L476 466L435 587Q417 641 392.5 666Q368 691 332 691V700H602V691Q585 691 570 685.5Q555 680 546 668Q537 656 535.5 638Q534 620 542 595L686 162L791 507Q819 598 801 643.5Q783 689 723 691V700H962V691Q945 689 926 681Q907 673 888.5 655.5Q870 638 853.5 611.5Q837 585 825 547L652 -8H637ZM474 846 338 780H329L466 906H484L617 780H606Z" glyph-name="Wcircumflex" horiz-adv-x="957" unicode="&#372;" /><glyph d="M402 354 277 -8H263L83 437Q63 485 44.5 504Q26 523 3 527V536H228V527Q200 526 188 500.5Q176 475 193 430L309 134L393 380L372 437Q354 485 333 505.5Q312 526 283 527V536H526V527Q486 526 475 499.5Q464 473 479 430L581 136L665 384Q675 414 679 438.5Q683 463 678.5 481.5Q674 500 659.5 512Q645 524 618 527V536H805V527Q767 524 736.5 485Q706 446 685 385L548 -8H534ZM411 682 275 616H266L403 742H421L554 616H543Z" glyph-name="Wcircumflex.smcp" horiz-adv-x="809" /><glyph d="M486 437 338 -8H323L93 603Q77 645 57.5 666Q38 687 3 691V700H251V691Q233 691 221 683Q209 675 203.5 661.5Q198 648 199 631Q200 614 207 595L373 155L476 466L435 587Q417 641 392.5 666Q368 691 332 691V700H602V691Q585 691 570 685.5Q555 680 546 668Q537 656 535.5 638Q534 620 542 595L686 162L791 507Q819 598 801 643.5Q783 689 723 691V700H962V691Q945 689 926 681Q907 673 888.5 655.5Q870 638 853.5 611.5Q837 585 825 547L652 -8H637ZM547 780Q524 780 508.5 795Q493 810 493 832Q493 855 508.5 870Q524 885 547 885Q570 885 585 870Q600 855 600 832Q600 810 585 795Q570 780 547 780ZM397 780Q374 780 358.5 795Q343 810 343 832Q343 855 358.5 870Q374 885 397 885Q420 885 435 870Q450 855 450 832Q450 810 435 795Q420 780 397 780Z" glyph-name="Wdieresis" horiz-adv-x="957" unicode="&#7812;" /><glyph d="M402 354 277 -8H263L83 437Q63 485 44.5 504Q26 523 3 527V536H228V527Q200 526 188 500.5Q176 475 193 430L309 134L393 380L372 437Q354 485 333 505.5Q312 526 283 527V536H526V527Q486 526 475 499.5Q464 473 479 430L581 136L665 384Q675 414 679 438.5Q683 463 678.5 481.5Q674 500 659.5 512Q645 524 618 527V536H805V527Q767 524 736.5 485Q706 446 685 385L548 -8H534ZM484 616Q461 616 445.5 631Q430 646 430 668Q430 691 445.5 706Q461 721 484 721Q507 721 522 706Q537 691 537 668Q537 646 522 631Q507 616 484 616ZM334 616Q311 616 295.5 631Q280 646 280 668Q280 691 295.5 706Q311 721 334 721Q357 721 372 706Q387 691 387 668Q387 646 372 631Q357 616 334 616Z" glyph-name="Wdieresis.smcp" horiz-adv-x="809" /><glyph d="M486 437 338 -8H323L93 603Q77 645 57.5 666Q38 687 3 691V700H251V691Q233 691 221 683Q209 675 203.5 661.5Q198 648 199 631Q200 614 207 595L373 155L476 466L435 587Q417 641 392.5 666Q368 691 332 691V700H602V691Q585 691 570 685.5Q555 680 546 668Q537 656 535.5 638Q534 620 542 595L686 162L791 507Q819 598 801 643.5Q783 689 723 691V700H962V691Q945 689 926 681Q907 673 888.5 655.5Q870 638 853.5 611.5Q837 585 825 547L652 -8H637ZM529 782 383 834Q361 842 353 854Q345 866 345 876Q345 889 354 897.5Q363 906 377 906Q394 906 412 892L548 782Z" glyph-name="Wgrave" horiz-adv-x="957" unicode="&#7808;" /><glyph d="M402 354 277 -8H263L83 437Q63 485 44.5 504Q26 523 3 527V536H228V527Q200 526 188 500.5Q176 475 193 430L309 134L393 380L372 437Q354 485 333 505.5Q312 526 283 527V536H526V527Q486 526 475 499.5Q464 473 479 430L581 136L665 384Q675 414 679 438.5Q683 463 678.5 481.5Q674 500 659.5 512Q645 524 618 527V536H805V527Q767 524 736.5 485Q706 446 685 385L548 -8H534ZM466 618 320 670Q298 678 290 690Q282 702 282 712Q282 725 291 733.5Q300 742 314 742Q331 742 349 728L485 618Z" glyph-name="Wgrave.smcp" horiz-adv-x="809" /><glyph d="M238 0H3V9Q42 14 89.5 56Q137 98 188 173L298 338L146 584Q133 605 117 625Q101 645 84.5 660Q68 675 51 683.5Q34 692 19 691V700H280V691Q238 691 233 663.5Q228 636 260 582L365 410L458 545Q503 611 499 646.5Q495 682 439 691V700H651V691Q609 682 562 639.5Q515 597 464 523L375 394L546 116Q559 94 575.5 74.5Q592 55 610 40.5Q628 26 647 17.5Q666 9 684 9V0H412V9Q449 9 457 36Q465 63 435 113L309 321L200 159Q156 93 168.5 55Q181 17 238 9Z" glyph-name="X" horiz-adv-x="683" unicode="X" /><glyph d="M220 0H10V7Q43 9 86.5 45.5Q130 82 175 147L247 252L127 422Q95 468 68.5 496Q42 524 14 528V536H251V528Q214 527 207.5 502.5Q201 478 232 433L311 316L364 393Q410 460 408 491Q406 522 363 528V536H551V528Q519 527 475 493.5Q431 460 381 388L321 301L453 114Q485 68 511.5 40Q538 12 570 7V0H327V7Q343 7 355 13Q367 19 371 30.5Q375 42 370.5 60Q366 78 349 103L258 237L193 142Q171 110 164.5 85.5Q158 61 163.5 44Q169 27 184 17.5Q199 8 220 7Z" glyph-name="X.smcp" horiz-adv-x="580" /><glyph d="M178 0V9Q194 10 209 14.5Q224 19 235.5 28Q247 37 254 53Q261 69 261 93V308L103 607Q82 647 57.5 669Q33 691 3 691V700H270V691Q217 686 206.5 660.5Q196 635 220 586L348 329L456 526Q479 569 484.5 600Q490 631 482.5 651Q475 671 457 681Q439 691 414 691V700H638V691Q621 689 604.5 682.5Q588 676 570.5 659.5Q553 643 533.5 615Q514 587 490 544L361 317V93Q361 69 368 53Q375 37 386.5 28Q398 19 413 14.5Q428 10 444 9V0Z" glyph-name="Y" horiz-adv-x="641" unicode="Y" /><glyph d="M124 0V9Q140 10 155.5 14.5Q171 19 183 28.5Q195 38 202 54.5Q209 71 209 97V231L96 448Q55 527 3 528V536H244V528Q196 524 189.5 500.5Q183 477 203 435L293 251L369 386Q408 456 392.5 490.5Q377 525 328 528V536H528V528Q513 527 497.5 520Q482 513 465 496.5Q448 480 429 452.5Q410 425 388 385L306 240V97Q306 71 313 54.5Q320 38 332 28.5Q344 19 359 14.5Q374 10 390 9V0Z" glyph-name="Y.smcp" horiz-adv-x="531" /><glyph d="M178 0V9Q194 10 209 14.5Q224 19 235.5 28Q247 37 254 53Q261 69 261 93V308L103 607Q82 647 57.5 669Q33 691 3 691V700H270V691Q217 686 206.5 660.5Q196 635 220 586L348 329L456 526Q479 569 484.5 600Q490 631 482.5 651Q475 671 457 681Q439 691 414 691V700H638V691Q621 689 604.5 682.5Q588 676 570.5 659.5Q553 643 533.5 615Q514 587 490 544L361 317V93Q361 69 368 53Q375 37 386.5 28Q398 19 413 14.5Q428 10 444 9V0ZM381 892Q399 906 416 906Q430 906 439 897.5Q448 889 448 876Q448 866 440 854Q432 842 410 834L264 782H245Z" glyph-name="Yacute" horiz-adv-x="641" unicode="&#221;" /><glyph d="M124 0V9Q140 10 155.5 14.5Q171 19 183 28.5Q195 38 202 54.5Q209 71 209 97V231L96 448Q55 527 3 528V536H244V528Q196 524 189.5 500.5Q183 477 203 435L293 251L369 386Q408 456 392.5 490.5Q377 525 328 528V536H528V528Q513 527 497.5 520Q482 513 465 496.5Q448 480 429 452.5Q410 425 388 385L306 240V97Q306 71 313 54.5Q320 38 332 28.5Q344 19 359 14.5Q374 10 390 9V0ZM324 728Q342 742 359 742Q373 742 382 733.5Q391 725 391 712Q391 702 383 690Q375 678 353 670L207 618H188Z" glyph-name="Yacute.smcp" horiz-adv-x="531" /><glyph d="M178 0V9Q194 10 209 14.5Q224 19 235.5 28Q247 37 254 53Q261 69 261 93V308L103 607Q82 647 57.5 669Q33 691 3 691V700H270V691Q217 686 206.5 660.5Q196 635 220 586L348 329L456 526Q479 569 484.5 600Q490 631 482.5 651Q475 671 457 681Q439 691 414 691V700H638V691Q621 689 604.5 682.5Q588 676 570.5 659.5Q553 643 533.5 615Q514 587 490 544L361 317V93Q361 69 368 53Q375 37 386.5 28Q398 19 413 14.5Q428 10 444 9V0ZM331 846 195 780H186L323 906H341L474 780H463Z" glyph-name="Ycircumflex" horiz-adv-x="641" unicode="&#374;" /><glyph d="M124 0V9Q140 10 155.5 14.5Q171 19 183 28.5Q195 38 202 54.5Q209 71 209 97V231L96 448Q55 527 3 528V536H244V528Q196 524 189.5 500.5Q183 477 203 435L293 251L369 386Q408 456 392.5 490.5Q377 525 328 528V536H528V528Q513 527 497.5 520Q482 513 465 496.5Q448 480 429 452.5Q410 425 388 385L306 240V97Q306 71 313 54.5Q320 38 332 28.5Q344 19 359 14.5Q374 10 390 9V0ZM273 682 137 616H128L265 742H283L416 616H405Z" glyph-name="Ycircumflex.smcp" horiz-adv-x="531" /><glyph d="M178 0V9Q194 10 209 14.5Q224 19 235.5 28Q247 37 254 53Q261 69 261 93V308L103 607Q82 647 57.5 669Q33 691 3 691V700H270V691Q217 686 206.5 660.5Q196 635 220 586L348 329L456 526Q479 569 484.5 600Q490 631 482.5 651Q475 671 457 681Q439 691 414 691V700H638V691Q621 689 604.5 682.5Q588 676 570.5 659.5Q553 643 533.5 615Q514 587 490 544L361 317V93Q361 69 368 53Q375 37 386.5 28Q398 19 413 14.5Q428 10 444 9V0ZM406 780Q383 780 367.5 795Q352 810 352 832Q352 855 367.5 870Q383 885 406 885Q429 885 444 870Q459 855 459 832Q459 810 444 795Q429 780 406 780ZM256 780Q233 780 217.5 795Q202 810 202 832Q202 855 217.5 870Q233 885 256 885Q279 885 294 870Q309 855 309 832Q309 810 294 795Q279 780 256 780Z" glyph-name="Ydieresis" horiz-adv-x="641" unicode="&#376;" /><glyph d="M124 0V9Q140 10 155.5 14.5Q171 19 183 28.5Q195 38 202 54.5Q209 71 209 97V231L96 448Q55 527 3 528V536H244V528Q196 524 189.5 500.5Q183 477 203 435L293 251L369 386Q408 456 392.5 490.5Q377 525 328 528V536H528V528Q513 527 497.5 520Q482 513 465 496.5Q448 480 429 452.5Q410 425 388 385L306 240V97Q306 71 313 54.5Q320 38 332 28.5Q344 19 359 14.5Q374 10 390 9V0ZM346 616Q323 616 307.5 631Q292 646 292 668Q292 691 307.5 706Q323 721 346 721Q369 721 384 706Q399 691 399 668Q399 646 384 631Q369 616 346 616ZM196 616Q173 616 157.5 631Q142 646 142 668Q142 691 157.5 706Q173 721 196 721Q219 721 234 706Q249 691 249 668Q249 646 234 631Q219 616 196 616Z" glyph-name="Ydieresis.smcp" horiz-adv-x="531" /><glyph d="M178 0V9Q194 10 209 14.5Q224 19 235.5 28Q247 37 254 53Q261 69 261 93V308L103 607Q82 647 57.5 669Q33 691 3 691V700H270V691Q217 686 206.5 660.5Q196 635 220 586L348 329L456 526Q479 569 484.5 600Q490 631 482.5 651Q475 671 457 681Q439 691 414 691V700H638V691Q621 689 604.5 682.5Q588 676 570.5 659.5Q553 643 533.5 615Q514 587 490 544L361 317V93Q361 69 368 53Q375 37 386.5 28Q398 19 413 14.5Q428 10 444 9V0ZM387 782 241 834Q219 842 211 854Q203 866 203 876Q203 889 212 897.5Q221 906 235 906Q252 906 270 892L406 782Z" glyph-name="Ygrave" horiz-adv-x="641" unicode="&#7922;" /><glyph d="M124 0V9Q140 10 155.5 14.5Q171 19 183 28.5Q195 38 202 54.5Q209 71 209 97V231L96 448Q55 527 3 528V536H244V528Q196 524 189.5 500.5Q183 477 203 435L293 251L369 386Q408 456 392.5 490.5Q377 525 328 528V536H528V528Q513 527 497.5 520Q482 513 465 496.5Q448 480 429 452.5Q410 425 388 385L306 240V97Q306 71 313 54.5Q320 38 332 28.5Q344 19 359 14.5Q374 10 390 9V0ZM328 618 182 670Q160 678 152 690Q144 702 144 712Q144 725 153 733.5Q162 742 176 742Q193 742 211 728L347 618Z" glyph-name="Ygrave.smcp" horiz-adv-x="531" /><glyph d="M35 12 450 685H356Q296 685 251 671.5Q206 658 173.5 633.5Q141 609 119 574.5Q97 540 84 498H68L105 700H553V688L148 15H288Q329 15 369 30Q409 45 443 73.5Q477 102 503 142.5Q529 183 543 233H557L534 0H35Z" glyph-name="Z" horiz-adv-x="614" unicode="Z" /><glyph d="M32 11 344 520H273Q196 520 143.5 485.5Q91 451 64 372H47L86 536H460L458 523L148 16H248Q327 16 380 59.5Q433 103 455 188H470L444 0H31Z" glyph-name="Z.smcp" horiz-adv-x="515" /><glyph d="M35 12 450 685H356Q296 685 251 671.5Q206 658 173.5 633.5Q141 609 119 574.5Q97 540 84 498H68L105 700H553V688L148 15H288Q329 15 369 30Q409 45 443 73.5Q477 102 503 142.5Q529 183 543 233H557L534 0H35ZM366 892Q384 906 401 906Q415 906 424 897.5Q433 889 433 876Q433 866 425 854Q417 842 395 834L249 782H230Z" glyph-name="Zacute" horiz-adv-x="614" unicode="&#377;" /><glyph d="M32 11 344 520H273Q196 520 143.5 485.5Q91 451 64 372H47L86 536H460L458 523L148 16H248Q327 16 380 59.5Q433 103 455 188H470L444 0H31ZM319 728Q337 742 354 742Q368 742 377 733.5Q386 725 386 712Q386 702 378 690Q370 678 348 670L202 618H183Z" glyph-name="Zacute.smcp" horiz-adv-x="515" /><glyph d="M35 12 450 685H356Q296 685 251 671.5Q206 658 173.5 633.5Q141 609 119 574.5Q97 540 84 498H68L105 700H553V688L148 15H288Q329 15 369 30Q409 45 443 73.5Q477 102 503 142.5Q529 183 543 233H557L534 0H35ZM313 840 449 906H458L321 780H303L170 906H181Z" glyph-name="Zcaron" horiz-adv-x="614" unicode="&#381;" /><glyph d="M32 11 344 520H273Q196 520 143.5 485.5Q91 451 64 372H47L86 536H460L458 523L148 16H248Q327 16 380 59.5Q433 103 455 188H470L444 0H31ZM266 676 402 742H411L274 616H256L123 742H134Z" glyph-name="Zcaron.smcp" horiz-adv-x="515" /><glyph d="M35 12 450 685H356Q296 685 251 671.5Q206 658 173.5 633.5Q141 609 119 574.5Q97 540 84 498H68L105 700H553V688L148 15H288Q329 15 369 30Q409 45 443 73.5Q477 102 503 142.5Q529 183 543 233H557L534 0H35ZM313 780Q290 780 274.5 795Q259 810 259 832Q259 855 274.5 870Q290 885 313 885Q336 885 351.5 870Q367 855 367 832Q367 810 351.5 795Q336 780 313 780Z" glyph-name="Zdotaccent" horiz-adv-x="614" unicode="&#379;" /><glyph d="M32 11 344 520H273Q196 520 143.5 485.5Q91 451 64 372H47L86 536H460L458 523L148 16H248Q327 16 380 59.5Q433 103 455 188H470L444 0H31ZM266 616Q243 616 227.5 631Q212 646 212 668Q212 691 227.5 706Q243 721 266 721Q289 721 304.5 706Q320 691 320 668Q320 646 304.5 631Q289 616 266 616Z" glyph-name="Zdotaccent.smcp" horiz-adv-x="515" /><glyph d="M358 -9Q330 -9 308 8.5Q286 26 279 58Q247 20 213.5 3.5Q180 -13 145 -13Q96 -13 64.5 15.5Q33 44 33 89Q33 111 42.5 133.5Q52 156 79 179.5Q106 203 153.5 227.5Q201 252 277 278V344Q277 401 260 426.5Q243 452 210 452Q188 452 170.5 437Q153 422 148 373Q146 347 133 330.5Q120 314 96 314Q75 314 63 327.5Q51 341 51 361Q51 382 62.5 400.5Q74 419 95 433.5Q116 448 146 456.5Q176 465 213 465Q294 465 330.5 428Q367 391 367 316V112Q367 71 375.5 54Q384 37 403 37Q417 37 428 46Q439 55 453 77L461 71Q434 24 408 7.5Q382 -9 358 -9ZM194 32Q214 32 234.5 42.5Q255 53 277 76V265Q236 247 209 230Q182 213 166 194.5Q150 176 143 154.5Q136 133 136 108Q136 66 152.5 49Q169 32 194 32Z" glyph-name="a" horiz-adv-x="464" unicode="a" /><glyph d="M358 -9Q330 -9 308 8.5Q286 26 279 58Q247 20 213.5 3.5Q180 -13 145 -13Q96 -13 64.5 15.5Q33 44 33 89Q33 111 42.5 133.5Q52 156 79 179.5Q106 203 153.5 227.5Q201 252 277 278V344Q277 401 260 426.5Q243 452 210 452Q188 452 170.5 437Q153 422 148 373Q146 347 133 330.5Q120 314 96 314Q75 314 63 327.5Q51 341 51 361Q51 382 62.5 400.5Q74 419 95 433.5Q116 448 146 456.5Q176 465 213 465Q294 465 330.5 428Q367 391 367 316V112Q367 71 375.5 54Q384 37 403 37Q417 37 428 46Q439 55 453 77L461 71Q434 24 408 7.5Q382 -9 358 -9ZM194 32Q214 32 234.5 42.5Q255 53 277 76V265Q236 247 209 230Q182 213 166 194.5Q150 176 143 154.5Q136 133 136 108Q136 66 152.5 49Q169 32 194 32ZM141 523 256 655Q273 675 293 675Q307 675 316.5 664.5Q326 654 326 640Q326 629 319.5 618.5Q313 608 297 600L150 523Z" glyph-name="aacute" horiz-adv-x="464" unicode="&#225;" /><glyph d="M358 -9Q330 -9 308 8.5Q286 26 279 58Q247 20 213.5 3.5Q180 -13 145 -13Q96 -13 64.5 15.5Q33 44 33 89Q33 111 42.5 133.5Q52 156 79 179.5Q106 203 153.5 227.5Q201 252 277 278V344Q277 401 260 426.5Q243 452 210 452Q188 452 170.5 437Q153 422 148 373Q146 347 133 330.5Q120 314 96 314Q75 314 63 327.5Q51 341 51 361Q51 382 62.5 400.5Q74 419 95 433.5Q116 448 146 456.5Q176 465 213 465Q294 465 330.5 428Q367 391 367 316V112Q367 71 375.5 54Q384 37 403 37Q417 37 428 46Q439 55 453 77L461 71Q434 24 408 7.5Q382 -9 358 -9ZM194 32Q214 32 234.5 42.5Q255 53 277 76V265Q236 247 209 230Q182 213 166 194.5Q150 176 143 154.5Q136 133 136 108Q136 66 152.5 49Q169 32 194 32ZM213 542Q191 542 169 550Q147 558 129.5 573Q112 588 100.5 610.5Q89 633 87 662H97Q106 629 135.5 610.5Q165 592 213 592Q261 592 291 610.5Q321 629 330 662H339Q337 633 325.5 610.5Q314 588 296.5 573Q279 558 257 550Q235 542 213 542Z" glyph-name="abreve" horiz-adv-x="464" unicode="&#259;" /><glyph d="M358 -9Q330 -9 308 8.5Q286 26 279 58Q247 20 213.5 3.5Q180 -13 145 -13Q96 -13 64.5 15.5Q33 44 33 89Q33 111 42.5 133.5Q52 156 79 179.5Q106 203 153.5 227.5Q201 252 277 278V344Q277 401 260 426.5Q243 452 210 452Q188 452 170.5 437Q153 422 148 373Q146 347 133 330.5Q120 314 96 314Q75 314 63 327.5Q51 341 51 361Q51 382 62.5 400.5Q74 419 95 433.5Q116 448 146 456.5Q176 465 213 465Q294 465 330.5 428Q367 391 367 316V112Q367 71 375.5 54Q384 37 403 37Q417 37 428 46Q439 55 453 77L461 71Q434 24 408 7.5Q382 -9 358 -9ZM194 32Q214 32 234.5 42.5Q255 53 277 76V265Q236 247 209 230Q182 213 166 194.5Q150 176 143 154.5Q136 133 136 108Q136 66 152.5 49Q169 32 194 32ZM215 599 67 522H58L211 672H221L368 522H357Z" glyph-name="acircumflex" horiz-adv-x="464" unicode="&#226;" /><glyph d="M158 523 273 655Q290 675 310 675Q324 675 333.5 664.5Q343 654 343 640Q343 629 336.5 618.5Q330 608 314 600L167 523Z" glyph-name="acute" horiz-adv-x="500" unicode="&#180;" /><glyph d="M283 892Q301 906 318 906Q332 906 341 897.5Q350 889 350 876Q350 866 342 854Q334 842 312 834L166 782H147Z" glyph-name="acute.cap" horiz-adv-x="500" /><glyph d="M358 -9Q330 -9 308 8.5Q286 26 279 58Q247 20 213.5 3.5Q180 -13 145 -13Q96 -13 64.5 15.5Q33 44 33 89Q33 111 42.5 133.5Q52 156 79 179.5Q106 203 153.5 227.5Q201 252 277 278V344Q277 401 260 426.5Q243 452 210 452Q188 452 170.5 437Q153 422 148 373Q146 347 133 330.5Q120 314 96 314Q75 314 63 327.5Q51 341 51 361Q51 382 62.5 400.5Q74 419 95 433.5Q116 448 146 456.5Q176 465 213 465Q294 465 330.5 428Q367 391 367 316V112Q367 71 375.5 54Q384 37 403 37Q417 37 428 46Q439 55 453 77L461 71Q434 24 408 7.5Q382 -9 358 -9ZM194 32Q214 32 234.5 42.5Q255 53 277 76V265Q236 247 209 230Q182 213 166 194.5Q150 176 143 154.5Q136 133 136 108Q136 66 152.5 49Q169 32 194 32ZM85 615Q85 638 100.5 653Q116 668 139 668Q162 668 177 653Q192 638 192 615Q192 593 177 578Q162 563 139 563Q116 563 100.5 578Q85 593 85 615ZM235 615Q235 638 250.5 653Q266 668 289 668Q312 668 327 653Q342 638 342 615Q342 593 327 578Q312 563 289 563Q266 563 250.5 578Q235 593 235 615Z" glyph-name="adieresis" horiz-adv-x="464" unicode="&#228;" /><glyph d="M484 -12Q430 -12 385 13Q340 38 311 86Q276 40 235 13.5Q194 -13 147 -13Q93 -13 63 15.5Q33 44 33 89Q33 111 42.5 134Q52 157 79 180Q106 203 153.5 227.5Q201 252 277 279V344Q277 401 260 426.5Q243 452 210 452Q188 452 170.5 437Q153 422 148 373Q146 347 133 330.5Q120 314 96 314Q75 314 63 327.5Q51 341 51 361Q51 382 62.5 400.5Q74 419 95 433.5Q116 448 146 456.5Q176 465 213 465Q314 465 338 394Q367 428 404 446.5Q441 465 483 465Q516 465 546.5 453Q577 441 601 418.5Q625 396 639.5 362.5Q654 329 655 287H348V273Q348 225 362.5 187.5Q377 150 401 123.5Q425 97 456 83Q487 69 520 69Q567 69 596.5 87Q626 105 645 134L653 130Q629 65 589 26.5Q549 -12 484 -12ZM194 33Q219 33 246 49Q273 65 302 102Q277 154 277 219V264Q236 246 209 229Q182 212 166 193.5Q150 175 143 154Q136 133 136 108Q136 67 152.5 50Q169 33 194 33ZM470 447Q424 447 390.5 411Q357 375 350 305H558Q556 378 534 412.5Q512 447 470 447Z" glyph-name="ae" horiz-adv-x="687" unicode="&#230;" /><glyph d="M358 -9Q330 -9 308 8.5Q286 26 279 58Q247 20 213.5 3.5Q180 -13 145 -13Q96 -13 64.5 15.5Q33 44 33 89Q33 111 42.5 133.5Q52 156 79 179.5Q106 203 153.5 227.5Q201 252 277 278V344Q277 401 260 426.5Q243 452 210 452Q188 452 170.5 437Q153 422 148 373Q146 347 133 330.5Q120 314 96 314Q75 314 63 327.5Q51 341 51 361Q51 382 62.5 400.5Q74 419 95 433.5Q116 448 146 456.5Q176 465 213 465Q294 465 330.5 428Q367 391 367 316V112Q367 71 375.5 54Q384 37 403 37Q417 37 428 46Q439 55 453 77L461 71Q434 24 408 7.5Q382 -9 358 -9ZM194 32Q214 32 234.5 42.5Q255 53 277 76V265Q236 247 209 230Q182 213 166 194.5Q150 176 143 154.5Q136 133 136 108Q136 66 152.5 49Q169 32 194 32ZM257 523 110 599Q94 607 87.5 617.5Q81 628 81 639Q81 653 90.5 663.5Q100 674 114 674Q134 674 151 654L266 523Z" glyph-name="agrave" horiz-adv-x="464" unicode="&#224;" /><glyph d="M358 -9Q330 -9 308 8.5Q286 26 279 58Q247 20 213.5 3.5Q180 -13 145 -13Q96 -13 64.5 15.5Q33 44 33 89Q33 111 42.5 133.5Q52 156 79 179.5Q106 203 153.5 227.5Q201 252 277 278V344Q277 401 260 426.5Q243 452 210 452Q188 452 170.5 437Q153 422 148 373Q146 347 133 330.5Q120 314 96 314Q75 314 63 327.5Q51 341 51 361Q51 382 62.5 400.5Q74 419 95 433.5Q116 448 146 456.5Q176 465 213 465Q294 465 330.5 428Q367 391 367 316V112Q367 71 375.5 54Q384 37 403 37Q417 37 428 46Q439 55 453 77L461 71Q434 24 408 7.5Q382 -9 358 -9ZM194 32Q214 32 234.5 42.5Q255 53 277 76V265Q236 247 209 230Q182 213 166 194.5Q150 176 143 154.5Q136 133 136 108Q136 66 152.5 49Q169 32 194 32ZM354 621V594H73V621Z" glyph-name="amacron" horiz-adv-x="464" unicode="&#257;" /><glyph d="M448 101Q399 39 349.5 13Q300 -13 242 -13Q198 -13 162 0Q126 13 100 36.5Q74 60 59.5 92Q45 124 45 163Q45 204 60 236.5Q75 269 100 296Q125 323 156 345Q187 367 219 388Q192 423 173.5 450.5Q155 478 144 500.5Q133 523 128.5 541.5Q124 560 124 577Q124 608 137 634Q150 660 172.5 678Q195 696 224 706Q253 716 286 716Q318 716 346 707Q374 698 394.5 681.5Q415 665 426.5 642Q438 619 438 591Q438 562 426.5 539Q415 516 397 497.5Q379 479 355.5 463Q332 447 308 431L494 201Q516 240 540 287Q577 361 568.5 396.5Q560 432 514 441V449H698V440Q663 435 633.5 407.5Q604 380 581 331Q561 289 542.5 253.5Q524 218 506 187L576 100Q614 53 639 34Q664 15 687 9V0H528ZM274 32Q321 32 360 52.5Q399 73 435 116L231 373Q177 327 157 287.5Q137 248 137 199Q137 123 174 77.5Q211 32 274 32ZM208 621Q208 586 229 544.5Q250 503 298 444Q334 476 348 507.5Q362 539 362 583Q362 646 337.5 674Q313 702 281 702Q249 702 228.5 680Q208 658 208 621Z" glyph-name="ampersand" horiz-adv-x="732" unicode="&amp;" /><glyph d="M360 68Q325 27 286 7Q247 -13 196 -13Q160 -13 130 -3.5Q100 6 78.5 24Q57 42 44.5 67Q32 92 32 122Q32 151 42.5 175Q53 199 71.5 219.5Q90 240 116 259Q142 278 173 297L166 305Q125 355 111.5 387Q98 419 98 443Q98 468 109 488.5Q120 509 138.5 523Q157 537 182 545Q207 553 236 553Q296 553 329 525.5Q362 498 362 457Q362 436 354 420Q346 404 331.5 389.5Q317 375 297.5 362Q278 349 255 335L404 159Q423 192 446 234Q471 281 464 305.5Q457 330 418 338V345H571V337Q539 333 516.5 313Q494 293 477 259Q460 227 445 198.5Q430 170 415 146L497 49Q522 19 562 7V0H416ZM234 28Q266 28 293.5 41Q321 54 348 83L182 286Q152 260 135.5 229Q119 198 119 154Q119 122 128 98.5Q137 75 153 59Q169 43 189.5 35.5Q210 28 234 28ZM176 475Q176 446 193 417.5Q210 389 248 344Q276 368 285.5 395.5Q295 423 295 449Q295 493 276.5 517.5Q258 542 232 542Q209 542 192.5 524.5Q176 507 176 475Z" glyph-name="ampersand.smcp" horiz-adv-x="595" /><glyph d="M194 32Q214 32 234.5 42.5Q255 53 277 76V265Q236 247 209 230Q182 213 166 194.5Q150 176 143 154.5Q136 133 136 108Q136 66 152.5 49Q169 32 194 32ZM365 -240Q323 -240 296 -215.5Q269 -191 269 -145Q269 -100 292.5 -64.5Q316 -29 351 -9Q325 -7 305.5 10.5Q286 28 279 58Q247 20 213.5 3.5Q180 -13 145 -13Q96 -13 64.5 15.5Q33 44 33 89Q33 111 42.5 133.5Q52 156 79 179.5Q106 203 153.5 227.5Q201 252 277 278V344Q277 401 260 426.5Q243 452 210 452Q188 452 170.5 437Q153 422 148 373Q146 347 133 330.5Q120 314 96 314Q75 314 63 327.5Q51 341 51 361Q51 382 62.5 400.5Q74 419 95 433.5Q116 448 146 456.5Q176 465 213 465Q294 465 330.5 428Q367 391 367 316V112Q367 71 375.5 54Q384 37 403 37Q417 37 428 46Q439 55 453 77L461 71Q442 38 423.5 21Q405 4 387 -3Q358 -20 343.5 -51Q329 -82 329 -122Q329 -167 349.5 -189Q370 -211 398 -211Q412 -211 423.5 -206Q435 -201 446 -191L452 -196Q437 -216 414 -228Q391 -240 365 -240Z" glyph-name="aogonek" horiz-adv-x="464" unicode="&#261;" /><glyph d="M543 244Q519 224 492.5 210.5Q466 197 431 197Q405 197 370.5 209.5Q336 222 299 237.5Q262 253 225.5 265.5Q189 278 160 278Q126 278 99 262.5Q72 247 48 227V251Q72 271 99 285Q126 299 161 299Q191 299 228 286.5Q265 274 302 258.5Q339 243 373.5 230.5Q408 218 432 218Q465 218 492.5 233Q520 248 543 268ZM543 357Q520 337 493 323Q466 309 431 309Q405 309 370.5 321.5Q336 334 299 349.5Q262 365 225.5 377.5Q189 390 160 390Q126 390 99 375Q72 360 48 340V364Q72 384 99 397.5Q126 411 161 411Q191 411 228 398.5Q265 386 302 370.5Q339 355 373.5 342.5Q408 330 432 330Q465 330 492 345.5Q519 361 543 381Z" glyph-name="approxequal" horiz-adv-x="592" unicode="&#8776;" /><glyph d="M358 -9Q330 -9 308 8.5Q286 26 279 58Q247 20 213.5 3.5Q180 -13 145 -13Q96 -13 64.5 15.5Q33 44 33 89Q33 111 42.5 133.5Q52 156 79 179.5Q106 203 153.5 227.5Q201 252 277 278V344Q277 401 260 426.5Q243 452 210 452Q188 452 170.5 437Q153 422 148 373Q146 347 133 330.5Q120 314 96 314Q75 314 63 327.5Q51 341 51 361Q51 382 62.5 400.5Q74 419 95 433.5Q116 448 146 456.5Q176 465 213 465Q294 465 330.5 428Q367 391 367 316V112Q367 71 375.5 54Q384 37 403 37Q417 37 428 46Q439 55 453 77L461 71Q434 24 408 7.5Q382 -9 358 -9ZM194 32Q214 32 234.5 42.5Q255 53 277 76V265Q236 247 209 230Q182 213 166 194.5Q150 176 143 154.5Q136 133 136 108Q136 66 152.5 49Q169 32 194 32ZM214 674Q187 674 168 653.5Q149 633 149 604Q149 575 168 555Q187 535 214 535Q241 535 260.5 555Q280 575 280 604Q280 633 261 653.5Q242 674 214 674ZM214 693Q251 693 277.5 667Q304 641 304 604Q304 567 277.5 541.5Q251 516 214 516Q177 516 151 541.5Q125 567 125 604Q125 641 151 667Q177 693 214 693Z" glyph-name="aring" horiz-adv-x="464" unicode="&#229;" /><glyph d="M657 345 667 340 426 -14H423L182 341L191 346L414 192L406 700H448L436 192Z" glyph-name="arrowdown" horiz-adv-x="850" unicode="&#8595;" /><glyph d="M418 147 63 388V391L417 632L422 622L269 401L782 413V371L269 379L423 156Z" glyph-name="arrowleft" horiz-adv-x="850" unicode="&#8592;" /><glyph d="M413 156 567 379 54 371V413L567 401L414 622L419 632L773 391V388L418 147Z" glyph-name="arrowright" horiz-adv-x="850" unicode="&#8594;" /><glyph d="M436 508 448 0H406L414 508L191 354L182 359L423 714H426L667 360L657 355Z" glyph-name="arrowup" horiz-adv-x="850" unicode="&#8593;" /><glyph d="M212 502 45 293 35 298 184 568H242L386 298L373 293Z" glyph-name="asciicircum" horiz-adv-x="421" unicode="^" /><glyph d="M492 481Q472 415 436 379.5Q400 344 349 344Q316 344 289 354.5Q262 365 236 378Q210 391 184 401.5Q158 412 128 412Q98 412 68.5 393.5Q39 375 20 319L8 322Q27 388 64 424Q101 460 155 460Q180 460 208 449.5Q236 439 264 426Q292 413 318.5 402.5Q345 392 367 392Q401 392 429.5 410.5Q458 429 480 485Z" glyph-name="asciitilde" horiz-adv-x="500" unicode="~" /><glyph d="M241 261Q229 261 221.5 274.5Q214 288 214 308Q214 325 217 338.5Q220 352 223.5 366Q227 380 230 396Q233 412 233 435L234 483L201 463Q181 451 168.5 440.5Q156 430 146 420.5Q136 411 126 402Q116 393 101 384Q85 375 69.5 375.5Q54 376 48 385Q42 396 49.5 409Q57 422 74 432Q89 441 102 445.5Q115 450 128.5 453.5Q142 457 157 462.5Q172 468 191 478L226 497L192 516Q172 527 157 532Q142 537 128.5 541Q115 545 102 549Q89 553 74 562Q57 572 49.5 584.5Q42 597 48 608Q53 617 69 618Q85 619 102 610Q116 602 126 592.5Q136 583 146.5 572.5Q157 562 169.5 551.5Q182 541 202 530L234 512L233 559Q233 581 230 597.5Q227 614 223.5 628.5Q220 643 217 656.5Q214 670 214 687Q214 707 221.5 720.5Q229 734 241 734Q253 734 261.5 720.5Q270 707 270 687Q270 670 267.5 656Q265 642 261.5 628Q258 614 255 597.5Q252 581 252 559L251 512L283 529Q303 539 315.5 550.5Q328 562 338 572.5Q348 583 358 592.5Q368 602 383 610Q399 619 415 618.5Q431 618 436 610Q443 599 435 585.5Q427 572 410 562Q396 553 383 549Q370 545 356.5 541Q343 537 327 532Q311 527 292 516L258 497L293 478Q312 468 327 462.5Q342 457 356 453.5Q370 450 383 445.5Q396 441 410 432Q427 422 434.5 408.5Q442 395 436 384Q431 375 415 375Q399 375 383 384Q368 392 358 400.5Q348 409 338 418.5Q328 428 315.5 439Q303 450 284 462L251 483L252 436Q252 414 255 397.5Q258 381 261.5 366.5Q265 352 267.5 338.5Q270 325 270 308Q270 288 261.5 274.5Q253 261 241 261Z" glyph-name="asterisk" horiz-adv-x="484" unicode="*" /><glyph d="M337 80Q357 80 388 103Q419 126 457 190Q458 192 458 194Q458 196 459 198L479 275Q487 305 486.5 329.5Q486 354 480.5 370.5Q475 387 465 396Q455 405 444 405Q426 405 400 382.5Q374 360 350 324Q326 288 309 243Q292 198 292 153Q292 114 304.5 97Q317 80 337 80ZM364 -157Q297 -157 239.5 -132.5Q182 -108 140 -65Q98 -22 74 37.5Q50 97 50 166Q50 255 81 333.5Q112 412 166 471Q220 530 293 564Q366 598 450 598Q512 598 565 579Q618 560 657 524Q696 488 718 436.5Q740 385 740 319Q740 264 726.5 213Q713 162 688 123Q663 84 627 60.5Q591 37 545 37Q524 37 506 43.5Q488 50 475 63.5Q462 77 455 97.5Q448 118 450 147Q422 108 398.5 84.5Q375 61 355.5 47.5Q336 34 320.5 29.5Q305 25 293 25Q258 25 235.5 51Q213 77 213 128Q213 177 235.5 229Q258 281 293 324Q328 367 370 395Q412 423 451 423Q476 423 496 408Q516 393 529 372L585 418L588 415L527 175Q514 124 527 95Q540 66 575 66Q604 66 630.5 85.5Q657 105 676.5 139.5Q696 174 707.5 220.5Q719 267 719 320Q719 380 698.5 428.5Q678 477 642 511Q606 545 556.5 563Q507 581 449 581Q371 581 302 549Q233 517 181.5 461Q130 405 100 329Q70 253 70 166Q70 102 92 46.5Q114 -9 153 -50.5Q192 -92 246.5 -116Q301 -140 366 -140Q507 -140 606 -65L615 -80Q564 -117 501 -137Q438 -157 364 -157Z" glyph-name="at" horiz-adv-x="792" unicode="@" /><glyph d="M337 198Q357 198 388 221Q419 244 457 308Q458 310 458 312Q458 314 459 316L479 393Q487 423 486.5 447.5Q486 472 480.5 488.5Q475 505 465 514Q455 523 444 523Q426 523 400 500.5Q374 478 350 442Q326 406 309 361Q292 316 292 271Q292 232 304.5 215Q317 198 337 198ZM364 -39Q297 -39 239.5 -14.5Q182 10 140 53Q98 96 74 155.5Q50 215 50 284Q50 373 81 451.5Q112 530 166 589Q220 648 293 682Q366 716 450 716Q512 716 565 697Q618 678 657 642Q696 606 718 554.5Q740 503 740 437Q740 382 726.5 331Q713 280 688 241Q663 202 627 178.5Q591 155 545 155Q524 155 506 161.5Q488 168 475 181.5Q462 195 455 215.5Q448 236 450 265Q422 226 398.5 202.5Q375 179 355.5 165.5Q336 152 320.5 147.5Q305 143 293 143Q258 143 235.5 169Q213 195 213 246Q213 295 235.5 347Q258 399 293 442Q328 485 370 513Q412 541 451 541Q476 541 496 526Q516 511 529 490L585 536L588 533L527 293Q514 242 527 213Q540 184 575 184Q604 184 630.5 203.5Q657 223 676.5 257.5Q696 292 707.5 338.5Q719 385 719 438Q719 498 698.5 546.5Q678 595 642 629Q606 663 556.5 681Q507 699 449 699Q371 699 302 667Q233 635 181.5 579Q130 523 100 447Q70 371 70 284Q70 220 92 164.5Q114 109 153 67.5Q192 26 246.5 2Q301 -22 366 -22Q507 -22 606 53L615 38Q564 1 501 -19Q438 -39 364 -39Z" glyph-name="at.cap" horiz-adv-x="792" /><glyph d="M274 154Q289 154 311 168Q333 182 359 220Q360 224 360.5 227.5Q361 231 363 236L386 311Q397 355 387 378Q377 401 360 401Q345 401 324 383Q303 365 284 337.5Q265 310 251.5 275.5Q238 241 238 208Q238 177 249 165.5Q260 154 274 154ZM293 -30Q238 -30 191.5 -11Q145 8 111 41Q77 74 57.5 119.5Q38 165 38 219Q38 286 63 346Q88 406 132 451Q176 496 235 522Q294 548 363 548Q414 548 457.5 533.5Q501 519 532.5 491.5Q564 464 581.5 424Q599 384 599 334Q599 291 588 252Q577 213 556.5 183Q536 153 506.5 135.5Q477 118 439 118Q402 118 378 137Q354 156 356 196Q334 169 316 152Q298 135 282.5 125.5Q267 116 254.5 112.5Q242 109 232 109Q203 109 185 129.5Q167 150 167 188Q167 227 185.5 267.5Q204 308 232.5 341Q261 374 295.5 395Q330 416 362 416Q385 416 402.5 404.5Q420 393 430 377L478 411L481 410L429 218Q419 182 428 161.5Q437 141 465 141Q489 141 510 157Q531 173 547 200Q563 227 572.5 262Q582 297 582 336Q582 382 565.5 418.5Q549 455 519.5 481Q490 507 449.5 521Q409 535 362 535Q299 535 243 510.5Q187 486 145 443Q103 400 78.5 343Q54 286 54 220Q54 170 72 127Q90 84 122 52Q154 20 198 1.5Q242 -17 295 -17Q352 -17 401.5 -2.5Q451 12 490 41L498 29Q456 1 404.5 -14.5Q353 -30 293 -30Z" glyph-name="at.smcp" horiz-adv-x="636" /><glyph d="M358 -9Q330 -9 308 8.5Q286 26 279 58Q247 20 213.5 3.5Q180 -13 145 -13Q96 -13 64.5 15.5Q33 44 33 89Q33 111 42.5 133.5Q52 156 79 179.5Q106 203 153.5 227.5Q201 252 277 278V344Q277 401 260 426.5Q243 452 210 452Q188 452 170.5 437Q153 422 148 373Q146 347 133 330.5Q120 314 96 314Q75 314 63 327.5Q51 341 51 361Q51 382 62.5 400.5Q74 419 95 433.5Q116 448 146 456.5Q176 465 213 465Q294 465 330.5 428Q367 391 367 316V112Q367 71 375.5 54Q384 37 403 37Q417 37 428 46Q439 55 453 77L461 71Q434 24 408 7.5Q382 -9 358 -9ZM194 32Q214 32 234.5 42.5Q255 53 277 76V265Q236 247 209 230Q182 213 166 194.5Q150 176 143 154.5Q136 133 136 108Q136 66 152.5 49Q169 32 194 32ZM272 558Q250 558 232.5 564Q215 570 198.5 576.5Q182 583 165 589Q148 595 128 595Q96 595 85 557L76 559Q81 604 104.5 627Q128 650 152 650Q168 650 186 643.5Q204 637 222.5 629.5Q241 622 259 616Q277 610 292 610Q304 610 315 618Q326 626 335 653L344 651Q336 600 313.5 579Q291 558 272 558Z" glyph-name="atilde" horiz-adv-x="464" unicode="&#227;" /><glyph d="M263 2Q289 2 311.5 14Q334 26 351 50.5Q368 75 378 112Q388 149 388 198Q388 296 353.5 344Q319 392 264 392Q235 392 210 377.5Q185 363 163 331V126Q163 66 193.5 34Q224 2 263 2ZM268 -13Q212 -13 171 15.5Q130 44 115 85L82 -7H73V604Q73 630 66.5 646.5Q60 663 49 672Q38 681 22.5 684.5Q7 688 -12 687V696L155 748L163 745V362Q186 407 228.5 436Q271 465 318 465Q349 465 378 449.5Q407 434 429.5 405Q452 376 465.5 335.5Q479 295 479 245Q479 189 461 141.5Q443 94 414 59.5Q385 25 346.5 6Q308 -13 268 -13Z" glyph-name="b" horiz-adv-x="510" unicode="b" /><glyph d="M35 700 390 0H365L10 700Z" glyph-name="backslash" horiz-adv-x="400" unicode="\" /><glyph d="M124 -249H100V700H124Z" glyph-name="bar" horiz-adv-x="224" unicode="|" /><glyph d="M97 349Q97 423 125.5 488.5Q154 554 202.5 602.5Q251 651 316.5 679.5Q382 708 456 708Q531 708 596.5 679.5Q662 651 710.5 602.5Q759 554 787.5 488.5Q816 423 816 349Q816 275 787.5 209.5Q759 144 710.5 95Q662 46 596.5 18Q531 -10 456 -10Q382 -10 316.5 18Q251 46 202.5 95Q154 144 125.5 209.5Q97 275 97 349Z" glyph-name="blackcircle" horiz-adv-x="913" unicode="&#9679;" /><glyph d="M97 534H631V0H97Z" glyph-name="blacksmallsquare" horiz-adv-x="728" unicode="&#9642;" /><glyph d="M805 0H106V699H805Z" glyph-name="blacksquare" horiz-adv-x="911" unicode="&#9632;" /><glyph d="M286 -179Q272 -182 259 -183Q246 -184 234 -184Q197 -184 169 -173Q141 -162 122.5 -143.5Q104 -125 95 -100.5Q86 -76 86 -50Q86 -23 92 1.5Q98 26 105.5 50Q113 74 119 99.5Q125 125 125 153Q125 209 105.5 231Q86 253 35 253H0V271H35Q86 271 105.5 293.5Q125 316 125 373Q125 400 119 424Q113 448 105.5 472Q98 496 92 520Q86 544 86 570Q86 594 94.5 619Q103 644 120.5 664Q138 684 165.5 696.5Q193 709 232 709Q257 709 286 703V691Q271 693 258 694Q245 695 234 695Q189 695 174.5 678Q160 661 160 632Q160 612 167 585Q174 558 182.5 527.5Q191 497 198 462.5Q205 428 205 393Q205 364 194.5 341.5Q184 319 167 303Q150 287 127 276.5Q104 266 80 262Q133 253 169 220Q205 187 205 130Q205 98 198 65Q191 32 182.5 0.5Q174 -31 167 -58.5Q160 -86 160 -106Q160 -137 174.5 -154Q189 -171 234 -171Q245 -171 258 -170Q271 -169 286 -167Z" glyph-name="braceleft" horiz-adv-x="299" unicode="{" /><glyph d="M278 -76Q264 -78 250.5 -79.5Q237 -81 225 -81Q190 -81 164 -72Q138 -63 121 -47.5Q104 -32 95 -12Q86 8 86 30Q86 54 92 76Q98 98 105 120Q112 142 118 164.5Q124 187 124 213Q124 264 106 284.5Q88 305 42 305H-2V323H42Q88 323 106 343Q124 363 124 414Q124 439 118 461Q112 483 105 504.5Q98 526 92 547.5Q86 569 86 592Q86 614 94.5 635Q103 656 120 672.5Q137 689 163 699Q189 709 224 709Q249 709 278 703V691Q262 693 249 694Q236 695 225 695Q186 695 173 682Q160 669 160 646Q160 630 167 606.5Q174 583 183 554.5Q192 526 199 495Q206 464 206 434Q206 383 171.5 353Q137 323 88 314Q137 305 171.5 274.5Q206 244 206 193Q206 163 199 132Q192 101 183 72.5Q174 44 167 20Q160 -4 160 -20Q160 -43 173 -56Q186 -69 224 -69Q235 -69 248 -67.5Q261 -66 278 -64Z" glyph-name="braceleft.cap" horiz-adv-x="291" /><glyph d="M65 -184Q53 -184 40 -183Q27 -182 13 -179V-167Q28 -169 41 -170Q54 -171 65 -171Q110 -171 124.5 -154Q139 -137 139 -106Q139 -86 132 -58.5Q125 -31 116.5 0.5Q108 32 101 65Q94 98 94 130Q94 187 130 220Q166 253 219 262Q195 266 172 276.5Q149 287 132 303Q115 319 104.5 341.5Q94 364 94 393Q94 428 101 462.5Q108 497 116.5 527.5Q125 558 132 585Q139 612 139 632Q139 661 124.5 678Q110 695 65 695Q54 695 41 694Q28 693 13 691V703Q41 709 67 709Q106 709 133.5 696.5Q161 684 178.5 664Q196 644 204.5 619Q213 594 213 570Q213 544 207 520Q201 496 193.5 472Q186 448 180 424Q174 400 174 373Q174 316 193.5 293.5Q213 271 264 271H299V253H264Q213 253 193.5 231Q174 209 174 153Q174 125 180 99.5Q186 74 193.5 50Q201 26 207 1.5Q213 -23 213 -50Q213 -76 204 -100.5Q195 -125 176.5 -143.5Q158 -162 130 -173Q102 -184 65 -184Z" glyph-name="braceright" horiz-adv-x="299" unicode="}" /><glyph d="M66 -81Q54 -81 40.5 -79.5Q27 -78 13 -76V-64Q30 -66 43 -67.5Q56 -69 67 -69Q105 -69 118 -56Q131 -43 131 -20Q131 -4 124 20Q117 44 108 72.5Q99 101 92 132Q85 163 85 193Q85 244 119.5 274.5Q154 305 203 314Q154 323 119.5 353Q85 383 85 434Q85 464 92 495Q99 526 108 554.5Q117 583 124 606.5Q131 630 131 646Q131 669 118 682Q105 695 66 695Q55 695 42 694Q29 693 13 691V703Q41 709 67 709Q102 709 128 699Q154 689 171 672.5Q188 656 196.5 635Q205 614 205 592Q205 569 199 547.5Q193 526 186 504.5Q179 483 173 461Q167 439 167 414Q167 363 185 343Q203 323 249 323H293V305H249Q203 305 185 284.5Q167 264 167 213Q167 187 173 164.5Q179 142 186 120Q193 98 199 76Q205 54 205 30Q205 8 196 -12Q187 -32 170 -47.5Q153 -63 126.5 -72Q100 -81 66 -81Z" glyph-name="braceright.cap" horiz-adv-x="291" /><glyph d="M50 700H269V686H138V-165H269V-179H50Z" glyph-name="bracketleft" horiz-adv-x="282" unicode="[" /><glyph d="M50 700H275V686H138V-56H275V-70H50Z" glyph-name="bracketleft.cap" horiz-adv-x="289" /><glyph d="M232 -179H13V-165H144V686H13V700H232Z" glyph-name="bracketright" horiz-adv-x="282" unicode="]" /><glyph d="M239 -70H14V-56H151V686H14V700H239Z" glyph-name="bracketright.cap" horiz-adv-x="289" /><glyph d="M250 542Q228 542 206 550Q184 558 166.5 573Q149 588 137.5 610.5Q126 633 124 662H134Q143 629 172.5 610.5Q202 592 250 592Q298 592 328 610.5Q358 629 367 662H376Q374 633 362.5 610.5Q351 588 333.5 573Q316 558 294 550Q272 542 250 542Z" glyph-name="breve" horiz-adv-x="500" unicode="&#728;" /><glyph d="M250 787Q228 787 206 794Q184 801 166.5 815Q149 829 137.5 850.5Q126 872 124 902H134Q143 868 172.5 852.5Q202 837 250 837Q298 837 328 852.5Q358 868 367 902H376Q374 872 362.5 850.5Q351 829 333.5 815Q316 801 294 794Q272 787 250 787Z" glyph-name="breve.cap" horiz-adv-x="500" /><glyph d="M124 -249H100V194H124ZM124 258H100V700H124Z" glyph-name="brokenbar" horiz-adv-x="224" unicode="&#166;" /><glyph d="M47 352Q47 374 55.5 393.5Q64 413 78 427.5Q92 442 111.5 450.5Q131 459 153 459Q175 459 195 450.5Q215 442 229 427.5Q243 413 251.5 393.5Q260 374 260 352Q260 330 251.5 310.5Q243 291 229 276.5Q215 262 195 253.5Q175 245 153 245Q131 245 111.5 253.5Q92 262 78 276.5Q64 291 55.5 310.5Q47 330 47 352Z" glyph-name="bullet" horiz-adv-x="307" unicode="&#8226;" /><glyph d="M291 356Q286 372 282 388Q278 404 271.5 417Q265 430 253 438.5Q241 447 220 447Q200 447 179.5 437Q159 427 142 406Q125 385 114 351.5Q103 318 103 272Q103 223 116.5 185Q130 147 153.5 121Q177 95 208 81.5Q239 68 275 68Q318 68 350 86Q382 104 401 133L410 128Q386 62 344.5 24.5Q303 -13 235 -13Q194 -13 157 2.5Q120 18 92 47.5Q64 77 47.5 119.5Q31 162 31 215Q31 266 46.5 311.5Q62 357 90.5 391Q119 425 158.5 445Q198 465 245 465Q280 465 308 456Q336 447 355.5 433Q375 419 385.5 401.5Q396 384 396 367Q396 344 381 328Q366 312 344 312Q327 312 312.5 322.5Q298 333 291 356Z" glyph-name="c" horiz-adv-x="439" unicode="c" /><glyph d="M291 356Q286 372 282 388Q278 404 271.5 417Q265 430 253 438.5Q241 447 220 447Q200 447 179.5 437Q159 427 142 406Q125 385 114 351.5Q103 318 103 272Q103 223 116.5 185Q130 147 153.5 121Q177 95 208 81.5Q239 68 275 68Q318 68 350 86Q382 104 401 133L410 128Q386 62 344.5 24.5Q303 -13 235 -13Q194 -13 157 2.5Q120 18 92 47.5Q64 77 47.5 119.5Q31 162 31 215Q31 266 46.5 311.5Q62 357 90.5 391Q119 425 158.5 445Q198 465 245 465Q280 465 308 456Q336 447 355.5 433Q375 419 385.5 401.5Q396 384 396 367Q396 344 381 328Q366 312 344 312Q327 312 312.5 322.5Q298 333 291 356ZM162 523 277 655Q294 675 314 675Q328 675 337.5 664.5Q347 654 347 640Q347 629 340.5 618.5Q334 608 318 600L171 523Z" glyph-name="cacute" horiz-adv-x="439" unicode="&#263;" /><glyph d="M404 678 250 528H241L94 678H107L247 601L397 678Z" glyph-name="caron" horiz-adv-x="499" unicode="&#711;" /><glyph d="M249 840 385 906H394L257 780H239L106 906H117Z" glyph-name="caron.cap" horiz-adv-x="500" /><glyph d="M184 467 182 667Q183 693 195.5 706Q208 719 228 719Q244 719 256.5 709Q269 699 269 677Q269 662 261 641L192 467Z" glyph-name="caronSlovak" horiz-adv-x="319" /><glyph d="M291 356Q286 372 282 388Q278 404 271.5 417Q265 430 253 438.5Q241 447 220 447Q200 447 179.5 437Q159 427 142 406Q125 385 114 351.5Q103 318 103 272Q103 223 116.5 185Q130 147 153.5 121Q177 95 208 81.5Q239 68 275 68Q318 68 350 86Q382 104 401 133L410 128Q386 62 344.5 24.5Q303 -13 235 -13Q194 -13 157 2.5Q120 18 92 47.5Q64 77 47.5 119.5Q31 162 31 215Q31 266 46.5 311.5Q62 357 90.5 391Q119 425 158.5 445Q198 465 245 465Q280 465 308 456Q336 447 355.5 433Q375 419 385.5 401.5Q396 384 396 367Q396 344 381 328Q366 312 344 312Q327 312 312.5 322.5Q298 333 291 356ZM390 678 236 528H227L80 678H93L233 601L383 678Z" glyph-name="ccaron" horiz-adv-x="439" unicode="&#269;" /><glyph d="M225 -242Q196 -242 172 -236Q148 -230 131 -216L134 -209Q149 -220 167 -223Q185 -226 201 -226Q245 -224 268 -208.5Q291 -193 291 -163Q291 -128 262 -115Q233 -102 181 -112L178 -108L222 -13Q183 -10 148.5 6.5Q114 23 87.5 52.5Q61 82 46 123Q31 164 31 215Q31 266 46.5 311.5Q62 357 90.5 391Q119 425 158.5 445Q198 465 245 465Q280 465 308 456Q336 447 355.5 433Q375 419 385.5 401.5Q396 384 396 367Q396 344 381 328Q366 312 344 312Q327 312 312.5 322.5Q298 333 291 356Q286 372 282 388Q278 404 271.5 417Q265 430 253 438.5Q241 447 220 447Q200 447 179.5 437Q159 427 142 406Q125 385 114 351.5Q103 318 103 272Q103 223 116.5 185Q130 147 153.5 121Q177 95 208 81.5Q239 68 275 68Q318 68 350 86Q382 104 401 133L410 128Q386 62 345 24.5Q304 -13 238 -13L209 -75Q216 -73 225 -72Q234 -71 245 -71Q287 -71 315 -91.5Q343 -112 343 -149Q343 -171 333 -187.5Q323 -204 306.5 -215.5Q290 -227 269 -234Q248 -241 225 -242Z" glyph-name="ccedilla" horiz-adv-x="439" unicode="&#231;" /><glyph d="M291 356Q286 372 282 388Q278 404 271.5 417Q265 430 253 438.5Q241 447 220 447Q200 447 179.5 437Q159 427 142 406Q125 385 114 351.5Q103 318 103 272Q103 223 116.5 185Q130 147 153.5 121Q177 95 208 81.5Q239 68 275 68Q318 68 350 86Q382 104 401 133L410 128Q386 62 344.5 24.5Q303 -13 235 -13Q194 -13 157 2.5Q120 18 92 47.5Q64 77 47.5 119.5Q31 162 31 215Q31 266 46.5 311.5Q62 357 90.5 391Q119 425 158.5 445Q198 465 245 465Q280 465 308 456Q336 447 355.5 433Q375 419 385.5 401.5Q396 384 396 367Q396 344 381 328Q366 312 344 312Q327 312 312.5 322.5Q298 333 291 356ZM236 599 88 522H79L232 672H242L389 522H378Z" glyph-name="ccircumflex" horiz-adv-x="439" unicode="&#265;" /><glyph d="M291 356Q286 372 282 388Q278 404 271.5 417Q265 430 253 438.5Q241 447 220 447Q200 447 179.5 437Q159 427 142 406Q125 385 114 351.5Q103 318 103 272Q103 223 116.5 185Q130 147 153.5 121Q177 95 208 81.5Q239 68 275 68Q318 68 350 86Q382 104 401 133L410 128Q386 62 344.5 24.5Q303 -13 235 -13Q194 -13 157 2.5Q120 18 92 47.5Q64 77 47.5 119.5Q31 162 31 215Q31 266 46.5 311.5Q62 357 90.5 391Q119 425 158.5 445Q198 465 245 465Q280 465 308 456Q336 447 355.5 433Q375 419 385.5 401.5Q396 384 396 367Q396 344 381 328Q366 312 344 312Q327 312 312.5 322.5Q298 333 291 356ZM180 615Q180 638 195.5 653Q211 668 234 668Q257 668 272.5 653Q288 638 288 615Q288 593 272.5 578Q257 563 234 563Q211 563 195.5 578Q180 593 180 615Z" glyph-name="cdotaccent" horiz-adv-x="439" unicode="&#267;" /><glyph d="M238 -242Q209 -242 185 -236Q161 -230 144 -216L147 -209Q162 -220 180 -223Q198 -226 214 -226Q258 -224 281 -208.5Q304 -193 304 -163Q304 -128 275 -115Q246 -102 194 -112L191 -108L235 -12H251L222 -75Q229 -73 238 -72Q247 -71 258 -71Q300 -71 328 -91.5Q356 -112 356 -149Q356 -171 346 -187.5Q336 -204 319.5 -215.5Q303 -227 282 -234Q261 -241 238 -242Z" glyph-name="cedilla" horiz-adv-x="500" unicode="&#184;" /><glyph d="M241 18Q213 18 186 26L166 -62H146L167 32Q110 54 74 108.5Q38 163 38 243Q38 292 52.5 334.5Q67 377 94 408.5Q121 440 159.5 457.5Q198 475 246 475Q251 475 256.5 475Q262 475 267 474L286 560H305L285 472Q335 464 365.5 440.5Q396 417 396 386Q396 364 382 348Q368 332 346 332Q331 332 318 341Q305 350 300 370Q295 390 289.5 405Q284 420 276 431L205 113Q239 95 281 95Q357 95 402 156L410 152Q387 90 345.5 54Q304 18 241 18ZM101 297Q101 243 124 196.5Q147 150 188 123L260 446Q247 456 222 456Q198 456 176 445.5Q154 435 137.5 414.5Q121 394 111 364.5Q101 335 101 297Z" glyph-name="cent" horiz-adv-x="449" unicode="&#162;" /><glyph d="M251 599 103 522H94L247 672H257L404 522H393Z" glyph-name="circumflex" horiz-adv-x="499" unicode="&#710;" /><glyph d="M251 846 115 780H106L243 906H261L394 780H383Z" glyph-name="circumflex.cap" horiz-adv-x="500" /><glyph d="M103 -11Q77 -11 59.5 6Q42 23 42 48Q42 74 59.5 91Q77 108 103 108Q128 108 145.5 91Q163 74 163 48Q163 23 145.5 6Q128 -11 103 -11ZM103 338Q77 338 59.5 355Q42 372 42 397Q42 423 59.5 440Q77 457 103 457Q128 457 145.5 440Q163 423 163 397Q163 372 145.5 355Q128 338 103 338Z" glyph-name="colon" horiz-adv-x="206" unicode=":" /><glyph d="M131 -51Q131 -37 124.5 -27.5Q118 -18 101 -15Q72 -10 57 7.5Q42 25 42 48Q42 73 59 90Q76 107 101 107Q112 107 123.5 102.5Q135 98 144 87Q153 76 158.5 58Q164 40 164 13Q164 -16 158 -42Q152 -68 139 -89.5Q126 -111 106 -126.5Q86 -142 59 -149L55 -137Q95 -125 113 -99.5Q131 -74 131 -51Z" glyph-name="comma" horiz-adv-x="199" unicode="," /><glyph d="M272 -227Q272 -217 268 -209Q264 -201 245 -197Q220 -192 206.5 -177.5Q193 -163 193 -143Q193 -122 207.5 -106Q222 -90 245 -90Q268 -90 286 -107.5Q304 -125 304 -170Q304 -224 279.5 -264Q255 -304 209 -316L203 -304Q237 -294 254.5 -272Q272 -250 272 -227Z" glyph-name="commaaccent" horiz-adv-x="500" unicode="&#63171;" /><glyph d="M511 434Q494 434 481.5 444.5Q469 455 463 473Q456 493 451 509Q446 525 438.5 536Q431 547 420.5 553Q410 559 393 559Q345 559 312.5 516.5Q280 474 280 402Q280 363 292 326Q304 289 326.5 261Q349 233 379.5 216Q410 199 448 199Q482 199 513 214.5Q544 230 566 261L574 257Q551 193 510.5 157.5Q470 122 411 122Q371 122 334.5 137Q298 152 270.5 180Q243 208 227 248.5Q211 289 211 339Q211 390 225.5 433.5Q240 477 266 509.5Q292 542 329.5 560Q367 578 412 578Q446 578 473.5 570.5Q501 563 520 550.5Q539 538 549.5 522Q560 506 560 488Q560 465 546.5 449.5Q533 434 511 434ZM408 1Q482 1 543.5 27.5Q605 54 649.5 101Q694 148 718.5 211Q743 274 743 348Q743 421 718 484Q693 547 648.5 594Q604 641 542 668Q480 695 406 695Q332 695 270 668.5Q208 642 164 595Q120 548 95.5 484.5Q71 421 71 348Q71 275 96 212Q121 149 165.5 102Q210 55 272 28Q334 1 408 1ZM407 -17Q328 -17 262.5 11.5Q197 40 150 89Q103 138 77 204.5Q51 271 51 348Q51 424 77 491Q103 558 150 607Q197 656 262.5 684.5Q328 713 407 713Q486 713 551.5 684.5Q617 656 664 607Q711 558 737 491Q763 424 763 348Q763 271 737 204.5Q711 138 664 89Q617 40 551.5 11.5Q486 -17 407 -17Z" glyph-name="copyright" horiz-adv-x="814" unicode="&#169;" /><glyph d="M418 328Q387 328 377 359Q373 372 369 384Q365 396 359.5 405Q354 414 345.5 419Q337 424 323 424Q290 424 265.5 392Q241 360 241 300Q241 272 249.5 246.5Q258 221 274.5 201Q291 181 315 169Q339 157 370 157Q396 157 421.5 169Q447 181 464 205L470 203Q451 152 418 124.5Q385 97 337 97Q305 97 276 108Q247 119 224 140Q201 161 187.5 191.5Q174 222 174 261Q174 297 185.5 329.5Q197 362 218 386Q239 410 269 424Q299 438 337 438Q399 438 429 416.5Q459 395 459 369Q459 352 448 340Q437 328 418 328ZM329 1Q388 1 437.5 21Q487 41 522.5 76.5Q558 112 578 160.5Q598 209 598 266Q598 322 578 370.5Q558 419 522 455Q486 491 436 511.5Q386 532 327 532Q267 532 217.5 511.5Q168 491 132.5 455Q97 419 77.5 370.5Q58 322 58 266Q58 210 78 162Q98 114 134 78Q170 42 219.5 21.5Q269 1 329 1ZM328 -13Q265 -13 212 8.5Q159 30 121 68Q83 106 62 156.5Q41 207 41 266Q41 324 62 375Q83 426 121 464Q159 502 212 523.5Q265 545 328 545Q391 545 443.5 523.5Q496 502 534.5 464Q573 426 594 375Q615 324 615 266Q615 207 594 156.5Q573 106 534.5 68Q496 30 443.5 8.5Q391 -13 328 -13Z" glyph-name="copyright.smcp" horiz-adv-x="656" /><glyph d="M160 408Q135 408 111.5 417.5Q88 427 69.5 445.5Q51 464 39.5 491.5Q28 519 28 554Q28 587 37.5 615.5Q47 644 65 665Q83 686 108 698Q133 710 164 710Q209 710 234 689.5Q259 669 259 646Q259 632 249.5 621.5Q240 611 226 611Q215 611 205.5 617Q196 623 191 639Q188 648 186 658Q184 668 180 676Q176 684 168 689.5Q160 695 145 695Q113 695 92.5 666.5Q72 638 72 592Q72 565 80 541Q88 517 102.5 499.5Q117 482 137.5 472Q158 462 184 462Q205 462 224.5 471.5Q244 481 261 506L268 504Q257 456 228.5 432Q200 408 160 408Z" glyph-name="cordinal" horiz-adv-x="291" /><glyph d="M342 99Q334 78 320.5 58Q307 38 287.5 22Q268 6 243.5 -3.5Q219 -13 190 -13Q158 -13 129.5 3.5Q101 20 79 50Q57 80 44 120.5Q31 161 31 209Q31 265 48.5 312Q66 359 94.5 393Q123 427 159 446Q195 465 233 465Q263 465 291 454Q319 443 339 420V604Q339 630 332.5 646.5Q326 663 315 672Q304 681 288.5 684.5Q273 688 254 687V696L421 748L429 745V106Q429 55 447 35.5Q465 16 503 18V9L350 -12L342 -9ZM241 64Q273 64 299.5 81.5Q326 99 339 129V334Q332 368 319.5 390.5Q307 413 292 426.5Q277 440 261 445Q245 450 230 450Q207 450 186 438.5Q165 427 148.5 403Q132 379 122 342.5Q112 306 112 255Q112 213 121 177.5Q130 142 147 117Q164 92 188 78Q212 64 241 64Z" glyph-name="d" horiz-adv-x="528" unicode="d" /><glyph d="M230 -78H211V58Q211 106 211 142Q211 178 206.5 205Q202 232 192 253Q182 274 162 292Q182 309 192 327Q202 345 206 364.5Q210 384 210 405Q210 426 210 449H189Q164 449 148.5 446Q133 443 121 439Q109 435 97.5 432Q86 429 69 429Q49 429 37 437Q25 445 25 458Q25 470 37 478.5Q49 487 69 487Q86 487 98 484Q110 481 122.5 477Q135 473 150 470Q165 467 189 467H210V555Q210 581 206.5 598Q203 615 199 628.5Q195 642 191.5 655Q188 668 188 687Q188 708 197.5 722.5Q207 737 220 737Q234 737 243 722.5Q252 708 252 687Q252 668 248.5 655.5Q245 643 241 629.5Q237 616 233.5 599Q230 582 230 555V467H251Q275 467 290.5 470Q306 473 318 477Q330 481 342 484Q354 487 371 487Q391 487 403.5 478.5Q416 470 416 458Q416 445 403.5 437Q391 429 371 429Q354 429 342.5 432Q331 435 319 439Q307 443 291.5 446Q276 449 251 449H230Q230 425 230 404Q230 383 234.5 363.5Q239 344 249 326.5Q259 309 278 292Q258 274 248.5 253Q239 232 234.5 205Q230 178 230 142Q230 106 230 58Z" glyph-name="dagger" horiz-adv-x="441" unicode="&#8224;" /><glyph d="M252 -103Q252 -124 242.5 -138.5Q233 -153 220 -153Q206 -153 197 -138.5Q188 -124 188 -103Q188 -84 191.5 -71.5Q195 -59 199 -45.5Q203 -32 206.5 -15Q210 2 210 29V117H189Q165 117 150 114Q135 111 122.5 107Q110 103 98 100Q86 97 69 97Q49 97 37 105.5Q25 114 25 126Q25 138 37 146.5Q49 155 69 155Q86 155 97.5 151.5Q109 148 121 144.5Q133 141 148.5 137.5Q164 134 189 134H210Q210 158 210 179.5Q210 201 206 220.5Q202 240 191.5 257.5Q181 275 162 292Q182 309 192 327Q202 345 206 364.5Q210 384 210 405Q210 426 210 449H189Q164 449 148.5 446Q133 443 121 439Q109 435 97.5 432Q86 429 69 429Q49 429 37 437Q25 445 25 458Q25 470 37 478.5Q49 487 69 487Q86 487 98 484Q110 481 122.5 477Q135 473 150 470Q165 467 189 467H210V555Q210 581 206.5 598Q203 615 199 628.5Q195 642 191.5 655Q188 668 188 687Q188 708 197.5 722.5Q207 737 220 737Q234 737 243 722.5Q252 708 252 687Q252 668 248.5 655.5Q245 643 241 629.5Q237 616 233.5 599Q230 582 230 555V467H251Q275 467 290.5 470Q306 473 318 477Q330 481 342 484Q354 487 371 487Q391 487 403.5 478.5Q416 470 416 458Q416 445 403.5 437Q391 429 371 429Q354 429 342.5 432Q331 435 319 439Q307 443 291.5 446Q276 449 251 449H230Q230 425 230 404Q230 383 234.5 363.5Q239 344 249 326.5Q259 309 278 292Q258 275 248 257Q238 239 234 219.5Q230 200 230 179Q230 158 230 134H251Q276 134 291.5 137.5Q307 141 319 144.5Q331 148 342.5 151.5Q354 155 371 155Q391 155 403.5 146.5Q416 138 416 126Q416 114 403.5 105.5Q391 97 371 97Q354 97 342 100Q330 103 318 107Q306 111 290.5 114Q275 117 251 117H230V29Q230 3 233.5 -14Q237 -31 241 -44.5Q245 -58 248.5 -71Q252 -84 252 -103Z" glyph-name="daggerdbl" horiz-adv-x="441" unicode="&#8225;" /><glyph d="M342 99Q334 78 320.5 58Q307 38 287.5 22Q268 6 243.5 -3.5Q219 -13 190 -13Q158 -13 129.5 3.5Q101 20 79 50Q57 80 44 120.5Q31 161 31 209Q31 265 48.5 312Q66 359 94.5 393Q123 427 159 446Q195 465 233 465Q263 465 291 454Q319 443 339 420V604Q339 630 332.5 646.5Q326 663 315 672Q304 681 288.5 684.5Q273 688 254 687V696L421 748L429 745V106Q429 55 447 35.5Q465 16 503 18V9L350 -12L342 -9ZM241 64Q273 64 299.5 81.5Q326 99 339 129V334Q332 368 319.5 390.5Q307 413 292 426.5Q277 440 261 445Q245 450 230 450Q207 450 186 438.5Q165 427 148.5 403Q132 379 122 342.5Q112 306 112 255Q112 213 121 177.5Q130 142 147 117Q164 92 188 78Q212 64 241 64ZM521 504 519 704Q520 730 532.5 743Q545 756 565 756Q581 756 593.5 746Q606 736 606 714Q606 699 598 678L529 504Z" glyph-name="dcaron" horiz-adv-x="615" unicode="&#271;" /><glyph d="M342 99Q334 78 320.5 58Q307 38 287.5 22Q268 6 243.5 -3.5Q219 -13 190 -13Q158 -13 129.5 3.5Q101 20 79 50Q57 80 44 120.5Q31 161 31 209Q31 265 48.5 312Q66 359 94.5 393Q123 427 159 446Q195 465 233 465Q263 465 291 454Q319 443 339 420V564H173V582H339V604Q339 630 332.5 646.5Q326 663 315 672Q304 681 288.5 684.5Q273 688 254 687V696L421 748L429 745V582H524V564H429V106Q429 55 447 35.5Q465 16 503 18V9L350 -12L342 -9ZM241 64Q273 64 299.5 81.5Q326 99 339 129V334Q332 368 319.5 390.5Q307 413 292 426.5Q277 440 261 445Q245 450 230 450Q207 450 186 438.5Q165 427 148.5 403Q132 379 122 342.5Q112 306 112 255Q112 213 121 177.5Q130 142 147 117Q164 92 188 78Q212 64 241 64Z" glyph-name="dcroat" horiz-adv-x="528" unicode="&#273;" /><glyph d="M49 557Q49 529 59.5 504.5Q70 480 88 461.5Q106 443 130.5 432.5Q155 422 182 422Q209 422 233.5 432.5Q258 443 276.5 461.5Q295 480 305.5 504.5Q316 529 316 557Q316 585 305.5 610Q295 635 276.5 653.5Q258 672 233.5 682.5Q209 693 182 693Q155 693 130.5 682.5Q106 672 88 653.5Q70 635 59.5 610Q49 585 49 557ZM334 557Q334 525 322 497.5Q310 470 289.5 449.5Q269 429 241.5 417Q214 405 182 405Q151 405 123.5 417Q96 429 75.5 449.5Q55 470 43 497.5Q31 525 31 557Q31 589 43 617Q55 645 75.5 665.5Q96 686 123.5 698Q151 710 182 710Q214 710 241.5 698Q269 686 289.5 665.5Q310 645 322 617Q334 589 334 557Z" glyph-name="degree" horiz-adv-x="365" unicode="&#176;" /><glyph d="M121 615Q121 638 136.5 653Q152 668 175 668Q198 668 213 653Q228 638 228 615Q228 593 213 578Q198 563 175 563Q152 563 136.5 578Q121 593 121 615ZM271 615Q271 638 286.5 653Q302 668 325 668Q348 668 363 653Q378 638 378 615Q378 593 363 578Q348 563 325 563Q302 563 286.5 578Q271 593 271 615Z" glyph-name="dieresis" horiz-adv-x="499" unicode="&#168;" /><glyph d="M325 780Q302 780 286.5 795Q271 810 271 832Q271 855 286.5 870Q302 885 325 885Q348 885 363 870Q378 855 378 832Q378 810 363 795Q348 780 325 780ZM175 780Q152 780 136.5 795Q121 810 121 832Q121 855 136.5 870Q152 885 175 885Q198 885 213 870Q228 855 228 832Q228 810 213 795Q198 780 175 780Z" glyph-name="dieresis.cap" horiz-adv-x="499" /><glyph d="M304 57Q278 57 260.5 74Q243 91 243 116Q243 142 260.5 159Q278 176 304 176Q329 176 346.5 159Q364 142 364 116Q364 91 346.5 74Q329 57 304 57ZM555 311V290H51V311ZM304 425Q278 425 260.5 442Q243 459 243 484Q243 510 260.5 527Q278 544 304 544Q329 544 346.5 527Q364 510 364 484Q364 459 346.5 442Q329 425 304 425Z" glyph-name="divide" horiz-adv-x="606" unicode="&#247;" /><glyph d="M190 -67V-5Q147 -5 114.5 3.5Q82 12 60.5 25.5Q39 39 28.5 55.5Q18 72 18 89Q18 108 30.5 121Q43 134 64 134Q80 134 92.5 125Q105 116 111 98Q115 85 119 70.5Q123 56 131 43Q139 30 153 21Q167 12 190 10V264Q160 278 130.5 292.5Q101 307 77 327Q53 347 38.5 374Q24 401 24 440Q24 468 34 493.5Q44 519 64.5 540Q85 561 116 574.5Q147 588 190 592V652H210V593H215Q254 593 283.5 586Q313 579 333 566.5Q353 554 363 538.5Q373 523 373 507Q373 487 360 473.5Q347 460 327 460Q313 460 300 468.5Q287 477 281 495Q277 507 273.5 521Q270 535 263 547.5Q256 560 243.5 569Q231 578 210 580V354Q243 339 276 323Q309 307 335.5 286Q362 265 378.5 236Q395 207 395 167Q395 132 381 102Q367 72 342.5 49.5Q318 27 284 13Q250 -1 210 -4V-67ZM324 119Q324 146 315 166.5Q306 187 290 202.5Q274 218 253.5 230.5Q233 243 210 254V9Q265 11 294.5 43Q324 75 324 119ZM76 480Q76 459 85 442Q94 425 109.5 411Q125 397 146 385.5Q167 374 190 363V580Q167 578 146.5 570.5Q126 563 110 549.5Q94 536 85 518.5Q76 501 76 480Z" glyph-name="dollar" horiz-adv-x="421" unicode="$" /><glyph d="M203 -83V-7Q153 -7 116 3Q79 13 54.5 29.5Q30 46 18 65.5Q6 85 6 105Q6 128 20 142.5Q34 157 56 157Q73 157 87.5 147Q102 137 108 116Q112 99 117 81Q122 63 131.5 48Q141 33 157.5 22Q174 11 203 9V319Q169 335 135.5 352Q102 369 75.5 392Q49 415 32.5 447Q16 479 16 526Q16 557 26 587Q36 617 58.5 641.5Q81 666 116.5 682.5Q152 699 203 703V776H224V704H232Q276 704 309.5 694.5Q343 685 365.5 670Q388 655 399.5 636Q411 617 411 599Q411 577 396.5 561.5Q382 546 360 546Q344 546 329 555.5Q314 565 308 587Q302 606 296.5 623Q291 640 282.5 653Q274 666 260.5 674Q247 682 224 684V417Q261 400 298.5 381Q336 362 366 336.5Q396 311 415 276.5Q434 242 434 194Q434 153 418.5 118Q403 83 375 56.5Q347 30 308.5 13.5Q270 -3 224 -6V-83ZM357 143Q357 177 346 202.5Q335 228 317 247.5Q299 267 275 281.5Q251 296 224 309V9Q258 10 283 21.5Q308 33 324.5 51.5Q341 70 349 93.5Q357 117 357 143ZM69 567Q69 541 79.5 521Q90 501 108.5 484.5Q127 468 151.5 454Q176 440 203 427V685Q173 684 148 674Q123 664 105.5 648Q88 632 78.5 611Q69 590 69 567Z" glyph-name="dollar.LP" horiz-adv-x="450" /><glyph d="M171 -59V-4Q90 -3 51 22.5Q12 48 12 80Q12 99 24 112Q36 125 56 125Q70 125 82 116.5Q94 108 101 91Q106 79 109.5 65.5Q113 52 120 40Q127 28 138.5 20Q150 12 171 10V234Q143 247 115.5 261.5Q88 276 66 294.5Q44 313 30 337.5Q16 362 16 397Q16 424 26 448Q36 472 56 491Q76 510 104.5 521.5Q133 533 171 536V590H191V537Q266 537 304.5 513.5Q343 490 343 459Q343 441 331 427.5Q319 414 299 414Q285 414 272.5 422.5Q260 431 255 449Q252 460 249 472.5Q246 485 239.5 496Q233 507 221.5 514.5Q210 522 191 524V324Q222 310 253 295.5Q284 281 309 261.5Q334 242 350 216Q366 190 366 154Q366 122 352.5 94Q339 66 315.5 45.5Q292 25 260 12Q228 -1 191 -3V-59ZM294 105Q294 128 286 145.5Q278 163 263.5 177.5Q249 192 230.5 203Q212 214 191 225V9Q243 11 268.5 39Q294 67 294 105ZM71 438Q71 419 79 404Q87 389 100.5 377Q114 365 132 354.5Q150 344 171 334V525Q124 523 97.5 498Q71 473 71 438Z" glyph-name="dollar.smcp" horiz-adv-x="383" /><glyph d="M196 615Q196 638 211.5 653Q227 668 250 668Q273 668 288.5 653Q304 638 304 615Q304 593 288.5 578Q273 563 250 563Q227 563 211.5 578Q196 593 196 615Z" glyph-name="dotaccent" horiz-adv-x="500" unicode="&#729;" /><glyph d="M250 780Q227 780 211.5 795Q196 810 196 832Q196 855 211.5 870Q227 885 250 885Q273 885 288.5 870Q304 855 304 832Q304 810 288.5 795Q273 780 250 780Z" glyph-name="dotaccent.cap" horiz-adv-x="500" /><glyph d="M35 0V9Q49 10 62.5 14Q76 18 86.5 28Q97 38 103.5 54.5Q110 71 110 98V321Q110 347 104 363.5Q98 380 87 389Q76 398 60.5 401.5Q45 405 27 404V413L194 463L202 460L200 349V98Q200 71 206.5 54.5Q213 38 223.5 28Q234 18 247 14Q260 10 274 9V0Z" glyph-name="dotlessi" horiz-adv-x="301" unicode="&#305;" /><glyph d="M24 -234Q-27 -234 -54.5 -210Q-82 -186 -82 -157Q-82 -135 -68.5 -118.5Q-55 -102 -30 -102Q-7 -102 6.5 -116Q20 -130 20 -151Q20 -168 13 -181Q6 -194 6 -204Q6 -213 15 -216.5Q24 -220 34 -220Q64 -220 82 -194Q100 -168 100 -110V321Q100 347 94 363.5Q88 380 77 389Q66 398 50.5 401.5Q35 405 17 404V413L184 463L192 460L190 349V13Q190 -53 175 -99.5Q160 -146 136 -176Q112 -206 82.5 -220Q53 -234 24 -234Z" glyph-name="dotlessj" horiz-adv-x="265" unicode="&#63166;" /><glyph d="M124 -249H100V700H124ZM214 -249H190V700H214Z" glyph-name="doublebar" horiz-adv-x="314" /><glyph d="M222 447Q180 447 145.5 410.5Q111 374 103 305H311Q309 385 284.5 416Q260 447 222 447ZM407 130Q383 65 342.5 26.5Q302 -12 237 -12Q196 -12 158.5 4Q121 20 92.5 49.5Q64 79 47.5 122Q31 165 31 219Q31 272 48.5 317Q66 362 95 395Q124 428 160.5 446.5Q197 465 236 465Q269 465 299.5 453Q330 441 354 418.5Q378 396 392.5 362.5Q407 329 408 287H101V273Q101 225 115.5 187.5Q130 150 154 123.5Q178 97 209 83Q240 69 273 69Q320 69 349.5 87Q379 105 398 134Z" glyph-name="e" horiz-adv-x="441" unicode="e" /><glyph d="M222 447Q180 447 145.5 410.5Q111 374 103 305H311Q309 385 284.5 416Q260 447 222 447ZM407 130Q383 65 342.5 26.5Q302 -12 237 -12Q196 -12 158.5 4Q121 20 92.5 49.5Q64 79 47.5 122Q31 165 31 219Q31 272 48.5 317Q66 362 95 395Q124 428 160.5 446.5Q197 465 236 465Q269 465 299.5 453Q330 441 354 418.5Q378 396 392.5 362.5Q407 329 408 287H101V273Q101 225 115.5 187.5Q130 150 154 123.5Q178 97 209 83Q240 69 273 69Q320 69 349.5 87Q379 105 398 134ZM163 523 278 655Q295 675 315 675Q329 675 338.5 664.5Q348 654 348 640Q348 629 341.5 618.5Q335 608 319 600L172 523Z" glyph-name="eacute" horiz-adv-x="441" unicode="&#233;" /><glyph d="M222 447Q180 447 145.5 410.5Q111 374 103 305H311Q309 385 284.5 416Q260 447 222 447ZM407 130Q383 65 342.5 26.5Q302 -12 237 -12Q196 -12 158.5 4Q121 20 92.5 49.5Q64 79 47.5 122Q31 165 31 219Q31 272 48.5 317Q66 362 95 395Q124 428 160.5 446.5Q197 465 236 465Q269 465 299.5 453Q330 441 354 418.5Q378 396 392.5 362.5Q407 329 408 287H101V273Q101 225 115.5 187.5Q130 150 154 123.5Q178 97 209 83Q240 69 273 69Q320 69 349.5 87Q379 105 398 134ZM235 542Q213 542 191 550Q169 558 151.5 573Q134 588 122.5 610.5Q111 633 109 662H119Q128 629 157.5 610.5Q187 592 235 592Q283 592 313 610.5Q343 629 352 662H361Q359 633 347.5 610.5Q336 588 318.5 573Q301 558 279 550Q257 542 235 542Z" glyph-name="ebreve" horiz-adv-x="441" unicode="&#277;" /><glyph d="M222 447Q180 447 145.5 410.5Q111 374 103 305H311Q309 385 284.5 416Q260 447 222 447ZM407 130Q383 65 342.5 26.5Q302 -12 237 -12Q196 -12 158.5 4Q121 20 92.5 49.5Q64 79 47.5 122Q31 165 31 219Q31 272 48.5 317Q66 362 95 395Q124 428 160.5 446.5Q197 465 236 465Q269 465 299.5 453Q330 441 354 418.5Q378 396 392.5 362.5Q407 329 408 287H101V273Q101 225 115.5 187.5Q130 150 154 123.5Q178 97 209 83Q240 69 273 69Q320 69 349.5 87Q379 105 398 134ZM392 678 238 528H229L82 678H95L235 601L385 678Z" glyph-name="ecaron" horiz-adv-x="441" unicode="&#283;" /><glyph d="M222 447Q180 447 145.5 410.5Q111 374 103 305H311Q309 385 284.5 416Q260 447 222 447ZM407 130Q383 65 342.5 26.5Q302 -12 237 -12Q196 -12 158.5 4Q121 20 92.5 49.5Q64 79 47.5 122Q31 165 31 219Q31 272 48.5 317Q66 362 95 395Q124 428 160.5 446.5Q197 465 236 465Q269 465 299.5 453Q330 441 354 418.5Q378 396 392.5 362.5Q407 329 408 287H101V273Q101 225 115.5 187.5Q130 150 154 123.5Q178 97 209 83Q240 69 273 69Q320 69 349.5 87Q379 105 398 134ZM237 599 89 522H80L233 672H243L390 522H379Z" glyph-name="ecircumflex" horiz-adv-x="441" unicode="&#234;" /><glyph d="M222 447Q180 447 145.5 410.5Q111 374 103 305H311Q309 385 284.5 416Q260 447 222 447ZM407 130Q383 65 342.5 26.5Q302 -12 237 -12Q196 -12 158.5 4Q121 20 92.5 49.5Q64 79 47.5 122Q31 165 31 219Q31 272 48.5 317Q66 362 95 395Q124 428 160.5 446.5Q197 465 236 465Q269 465 299.5 453Q330 441 354 418.5Q378 396 392.5 362.5Q407 329 408 287H101V273Q101 225 115.5 187.5Q130 150 154 123.5Q178 97 209 83Q240 69 273 69Q320 69 349.5 87Q379 105 398 134ZM106 615Q106 638 121.5 653Q137 668 160 668Q183 668 198 653Q213 638 213 615Q213 593 198 578Q183 563 160 563Q137 563 121.5 578Q106 593 106 615ZM256 615Q256 638 271.5 653Q287 668 310 668Q333 668 348 653Q363 638 363 615Q363 593 348 578Q333 563 310 563Q287 563 271.5 578Q256 593 256 615Z" glyph-name="edieresis" horiz-adv-x="441" unicode="&#235;" /></font>
</defs>
</svg>
