<?xml version="1.0" standalone="no"?><!DOCTYPE svg PUBLIC "-//W3C//DTD SVG 1.1//EN" "http://www.w3.org/Graphics/SVG/1.1/DTD/svg11.dtd" ><svg version="1.1" xmlns="http://www.w3.org/2000/svg"><defs><font horiz-adv-x="0" id="font"><font-face ascent="750" bbox="-211 -546 1315 970" cap-height="700" descent="-250" font-family="Superior Title Bold Italic" font-stretch="normal" font-style="normal" font-weight="600" units-per-em="1000" x-height="458" /><missing-glyph d="M286 341 107 9H466ZM100 684V17L281 350ZM474 16V685L292 349ZM467 691H106L287 358ZM90 700H484V0H90Z" horiz-adv-x="515" /><glyph d="M200 0H-45L-42 10Q-20 14 2.5 27.5Q25 41 51 66.5Q77 92 107 131Q137 170 173 227L477 707H528L582 160Q590 90 607 55.5Q624 21 659 10L656 0H330L333 10Q378 18 395 49.5Q412 81 407 139L400 219H196Q165 167 152 129.5Q139 92 141 67Q143 42 159 28Q175 14 203 10ZM210 241H398L376 505Z" glyph-name="A" horiz-adv-x="720" unicode="A" /><glyph d="M157 0H-45L-42 9Q-27 10 -10 19Q7 28 27.5 46.5Q48 65 72 95Q96 125 124 168L372 545H425L472 136Q476 103 481.5 81Q487 59 495 44.5Q503 30 513 22Q523 14 536 9L533 0H251L254 9Q273 12 285 19.5Q297 27 304 41.5Q311 56 312 78Q313 100 310 133L307 159H144Q104 89 109.5 53.5Q115 18 160 9ZM157 179H305L285 376Z" glyph-name="A.smcp" horiz-adv-x="597" /><glyph d="M592 177Q502 78 436 17Q370 -44 319.5 -77.5Q269 -111 229.5 -122.5Q190 -134 153 -134Q110 -134 72.5 -119.5Q35 -105 6.5 -79.5Q-22 -54 -38.5 -19.5Q-55 15 -56 55Q-57 92 -44 125Q-31 158 -7.5 182Q16 206 47.5 220Q79 234 115 234Q141 234 164 227Q187 220 204 206.5Q221 193 231 174.5Q241 156 241 134Q241 105 225.5 84.5Q210 64 178 64Q150 64 132.5 80Q115 96 115 121Q115 145 126 164.5Q137 184 137 197Q137 207 127.5 212Q118 217 102 217Q81 217 61.5 208.5Q42 200 26 184.5Q10 169 0.5 147.5Q-9 126 -9 100Q-9 34 41 -1.5Q91 -37 173 -37Q221 -37 267 -26Q313 -15 365 15.5Q417 46 478.5 100Q540 154 619 239L1065 710H1131L990 113Q983 83 985 64Q987 45 994.5 33.5Q1002 22 1014.5 16.5Q1027 11 1041 10L1038 0H709L712 10Q727 11 742 16.5Q757 22 770.5 33.5Q784 45 795 64Q806 83 813 113L838 219H632ZM908 509 653 241H844Z" glyph-name="A.swsh" horiz-adv-x="1112" /><glyph d="M209 0H-47L-44 9Q-20 18 2 30.5Q24 43 49 64.5Q74 86 105 120Q136 154 179 207L532 640Q527 666 507.5 676.5Q488 687 463 690L466 700H1027L1012 514H998Q986 550 964.5 580Q943 610 914 632Q885 654 850.5 666.5Q816 679 779 679H726L654 380H700Q736 380 767 392Q798 404 822.5 422.5Q847 441 864.5 463.5Q882 486 891 507H904L842 228H828Q830 249 822.5 272Q815 295 798.5 314.5Q782 334 756.5 346.5Q731 359 695 359H649L568 21H631Q674 21 720 37Q766 53 809 80.5Q852 108 889 144Q926 180 950 220H966L899 0H310L313 10Q329 11 344 16Q359 21 372.5 32Q386 43 397 61.5Q408 80 415 110L444 231H229L215 214Q182 173 168.5 137Q155 101 156.5 74Q158 47 173 30Q188 13 212 9ZM529 584 533 604 248 254H450Z" glyph-name="AE" horiz-adv-x="999" unicode="&#198;" /><glyph d="M165 0H-44L-41 9Q-2 17 42.5 51Q87 85 147 154L433 483Q430 506 415 515.5Q400 525 380 527L383 537H837L823 389H811Q777 458 730 488.5Q683 519 629 519H609L554 295H577Q621 295 661 322Q701 349 730 395H740L688 170H677Q676 191 668.5 210Q661 229 647 244Q633 259 614 268Q595 277 572 277H550L486 18H535Q563 18 595.5 27.5Q628 37 660.5 56.5Q693 76 723.5 105.5Q754 135 779 174H793L738 0H262L265 10Q288 12 310 27.5Q332 43 344 91L365 177H196L175 153Q151 125 141.5 101Q132 77 132.5 58Q133 39 143 26Q153 13 168 9ZM429 439 432 454 213 197H370Z" glyph-name="AE.smcp" horiz-adv-x="835" /><glyph d="M200 0H-45L-42 10Q-20 14 2.5 27.5Q25 41 51 66.5Q77 92 107 131Q137 170 173 227L477 707H528L582 160Q590 90 607 55.5Q624 21 659 10L656 0H330L333 10Q378 18 395 49.5Q412 81 407 139L400 219H196Q165 167 152 129.5Q139 92 141 67Q143 42 159 28Q175 14 203 10ZM210 241H398L376 505ZM554 898Q578 922 606 922Q629 922 643 907.5Q657 893 657 872Q657 853 644 836Q631 819 600 811L446 771H435Z" glyph-name="Aacute" horiz-adv-x="720" unicode="&#193;" /><glyph d="M157 0H-45L-42 9Q-27 10 -10 19Q7 28 27.5 46.5Q48 65 72 95Q96 125 124 168L372 545H425L472 136Q476 103 481.5 81Q487 59 495 44.5Q503 30 513 22Q523 14 536 9L533 0H251L254 9Q273 12 285 19.5Q297 27 304 41.5Q311 56 312 78Q313 100 310 133L307 159H144Q104 89 109.5 53.5Q115 18 160 9ZM157 179H305L285 376ZM447 735Q471 759 499 759Q522 759 536 744.5Q550 730 550 709Q550 690 537 673Q524 656 493 648L339 608H328Z" glyph-name="Aacute.smcp" horiz-adv-x="597" /><glyph d="M592 177Q502 78 436 17Q370 -44 319.5 -77.5Q269 -111 229.5 -122.5Q190 -134 153 -134Q110 -134 72.5 -119.5Q35 -105 6.5 -79.5Q-22 -54 -38.5 -19.5Q-55 15 -56 55Q-57 92 -44 125Q-31 158 -7.5 182Q16 206 47.5 220Q79 234 115 234Q141 234 164 227Q187 220 204 206.5Q221 193 231 174.5Q241 156 241 134Q241 105 225.5 84.5Q210 64 178 64Q150 64 132.5 80Q115 96 115 121Q115 145 126 164.5Q137 184 137 197Q137 207 127.5 212Q118 217 102 217Q81 217 61.5 208.5Q42 200 26 184.5Q10 169 0.5 147.5Q-9 126 -9 100Q-9 34 41 -1.5Q91 -37 173 -37Q221 -37 267 -26Q313 -15 365 15.5Q417 46 478.5 100Q540 154 619 239L1065 710H1131L990 113Q983 83 985 64Q987 45 994.5 33.5Q1002 22 1014.5 16.5Q1027 11 1041 10L1038 0H709L712 10Q727 11 742 16.5Q757 22 770.5 33.5Q784 45 795 64Q806 83 813 113L838 219H632ZM908 509 653 241H844ZM1118 898Q1142 922 1170 922Q1193 922 1207 907.5Q1221 893 1221 872Q1221 853 1208 836Q1195 819 1164 811L1010 771H999Z" glyph-name="Aacute.swsh" horiz-adv-x="1112" /><glyph d="M200 0H-45L-42 10Q-20 14 2.5 27.5Q25 41 51 66.5Q77 92 107 131Q137 170 173 227L477 707H528L582 160Q590 90 607 55.5Q624 21 659 10L656 0H330L333 10Q378 18 395 49.5Q412 81 407 139L400 219H196Q165 167 152 129.5Q139 92 141 67Q143 42 159 28Q175 14 203 10ZM210 241H398L376 505ZM512 779Q482 779 457 787Q432 795 414 812Q396 829 387.5 854.5Q379 880 382 915H396Q401 888 429.5 872Q458 856 515 856Q574 856 607 873Q640 890 650 915H664Q661 881 648 855.5Q635 830 614 813Q593 796 566.5 787.5Q540 779 512 779Z" glyph-name="Abreve" horiz-adv-x="720" unicode="&#258;" /><glyph d="M157 0H-45L-42 9Q-27 10 -10 19Q7 28 27.5 46.5Q48 65 72 95Q96 125 124 168L372 545H425L472 136Q476 103 481.5 81Q487 59 495 44.5Q503 30 513 22Q523 14 536 9L533 0H251L254 9Q273 12 285 19.5Q297 27 304 41.5Q311 56 312 78Q313 100 310 133L307 159H144Q104 89 109.5 53.5Q115 18 160 9ZM157 179H305L285 376ZM403 616Q373 616 348 624Q323 632 305 649Q287 666 278.5 691.5Q270 717 273 752H287Q292 725 320.5 709Q349 693 406 693Q465 693 498 710Q531 727 541 752H555Q552 718 539 692.5Q526 667 505 650Q484 633 457.5 624.5Q431 616 403 616Z" glyph-name="Abreve.smcp" horiz-adv-x="597" /><glyph d="M592 177Q502 78 436 17Q370 -44 319.5 -77.5Q269 -111 229.5 -122.5Q190 -134 153 -134Q110 -134 72.5 -119.5Q35 -105 6.5 -79.5Q-22 -54 -38.5 -19.5Q-55 15 -56 55Q-57 92 -44 125Q-31 158 -7.5 182Q16 206 47.5 220Q79 234 115 234Q141 234 164 227Q187 220 204 206.5Q221 193 231 174.5Q241 156 241 134Q241 105 225.5 84.5Q210 64 178 64Q150 64 132.5 80Q115 96 115 121Q115 145 126 164.5Q137 184 137 197Q137 207 127.5 212Q118 217 102 217Q81 217 61.5 208.5Q42 200 26 184.5Q10 169 0.5 147.5Q-9 126 -9 100Q-9 34 41 -1.5Q91 -37 173 -37Q221 -37 267 -26Q313 -15 365 15.5Q417 46 478.5 100Q540 154 619 239L1065 710H1131L990 113Q983 83 985 64Q987 45 994.5 33.5Q1002 22 1014.5 16.5Q1027 11 1041 10L1038 0H709L712 10Q727 11 742 16.5Q757 22 770.5 33.5Q784 45 795 64Q806 83 813 113L838 219H632ZM908 509 653 241H844ZM1074 779Q1044 779 1019 787Q994 795 976 812Q958 829 949.5 854.5Q941 880 944 915H958Q963 888 991.5 872Q1020 856 1077 856Q1136 856 1169 873Q1202 890 1212 915H1226Q1223 881 1210 855.5Q1197 830 1176 813Q1155 796 1128.5 787.5Q1102 779 1074 779Z" glyph-name="Abreve.swsh" horiz-adv-x="1112" /><glyph d="M200 0H-45L-42 10Q-20 14 2.5 27.5Q25 41 51 66.5Q77 92 107 131Q137 170 173 227L477 707H528L582 160Q590 90 607 55.5Q624 21 659 10L656 0H330L333 10Q378 18 395 49.5Q412 81 407 139L400 219H196Q165 167 152 129.5Q139 92 141 67Q143 42 159 28Q175 14 203 10ZM210 241H398L376 505ZM524 832 358 776H344L488 906H583L661 776H644Z" glyph-name="Acircumflex" horiz-adv-x="720" unicode="&#194;" /><glyph d="M157 0H-45L-42 9Q-27 10 -10 19Q7 28 27.5 46.5Q48 65 72 95Q96 125 124 168L372 545H425L472 136Q476 103 481.5 81Q487 59 495 44.5Q503 30 513 22Q523 14 536 9L533 0H251L254 9Q273 12 285 19.5Q297 27 304 41.5Q311 56 312 78Q313 100 310 133L307 159H144Q104 89 109.5 53.5Q115 18 160 9ZM157 179H305L285 376ZM415 669 249 613H235L379 743H474L552 613H535Z" glyph-name="Acircumflex.smcp" horiz-adv-x="597" /><glyph d="M592 177Q502 78 436 17Q370 -44 319.5 -77.5Q269 -111 229.5 -122.5Q190 -134 153 -134Q110 -134 72.5 -119.5Q35 -105 6.5 -79.5Q-22 -54 -38.5 -19.5Q-55 15 -56 55Q-57 92 -44 125Q-31 158 -7.5 182Q16 206 47.5 220Q79 234 115 234Q141 234 164 227Q187 220 204 206.5Q221 193 231 174.5Q241 156 241 134Q241 105 225.5 84.5Q210 64 178 64Q150 64 132.5 80Q115 96 115 121Q115 145 126 164.5Q137 184 137 197Q137 207 127.5 212Q118 217 102 217Q81 217 61.5 208.5Q42 200 26 184.5Q10 169 0.5 147.5Q-9 126 -9 100Q-9 34 41 -1.5Q91 -37 173 -37Q221 -37 267 -26Q313 -15 365 15.5Q417 46 478.5 100Q540 154 619 239L1065 710H1131L990 113Q983 83 985 64Q987 45 994.5 33.5Q1002 22 1014.5 16.5Q1027 11 1041 10L1038 0H709L712 10Q727 11 742 16.5Q757 22 770.5 33.5Q784 45 795 64Q806 83 813 113L838 219H632ZM908 509 653 241H844ZM1086 832 920 776H906L1050 906H1145L1223 776H1206Z" glyph-name="Acircumflex.swsh" horiz-adv-x="1112" /><glyph d="M200 0H-45L-42 10Q-20 14 2.5 27.5Q25 41 51 66.5Q77 92 107 131Q137 170 173 227L477 707H528L582 160Q590 90 607 55.5Q624 21 659 10L656 0H330L333 10Q378 18 395 49.5Q412 81 407 139L400 219H196Q165 167 152 129.5Q139 92 141 67Q143 42 159 28Q175 14 203 10ZM210 241H398L376 505ZM539 858Q539 875 546 890Q553 905 564 916Q575 927 590 933.5Q605 940 622 940Q655 940 678.5 917Q702 894 702 861Q702 844 695 829Q688 814 677 803Q666 792 650.5 785.5Q635 779 619 779Q586 779 562.5 802Q539 825 539 858ZM335 858Q335 875 342 890Q349 905 360 916Q371 927 386 933.5Q401 940 418 940Q451 940 474.5 917Q498 894 498 861Q498 844 491 829Q484 814 473 803Q462 792 446.5 785.5Q431 779 415 779Q382 779 358.5 802Q335 825 335 858Z" glyph-name="Adieresis" horiz-adv-x="720" unicode="&#196;" /><glyph d="M157 0H-45L-42 9Q-27 10 -10 19Q7 28 27.5 46.5Q48 65 72 95Q96 125 124 168L372 545H425L472 136Q476 103 481.5 81Q487 59 495 44.5Q503 30 513 22Q523 14 536 9L533 0H251L254 9Q273 12 285 19.5Q297 27 304 41.5Q311 56 312 78Q313 100 310 133L307 159H144Q104 89 109.5 53.5Q115 18 160 9ZM157 179H305L285 376ZM430 695Q430 712 437 727Q444 742 455 753Q466 764 481 770.5Q496 777 513 777Q546 777 569.5 754Q593 731 593 698Q593 681 586 666Q579 651 568 640Q557 629 541.5 622.5Q526 616 510 616Q477 616 453.5 639Q430 662 430 695ZM226 695Q226 712 233 727Q240 742 251 753Q262 764 277 770.5Q292 777 309 777Q342 777 365.5 754Q389 731 389 698Q389 681 382 666Q375 651 364 640Q353 629 337.5 622.5Q322 616 306 616Q273 616 249.5 639Q226 662 226 695Z" glyph-name="Adieresis.smcp" horiz-adv-x="597" /><glyph d="M592 177Q502 78 436 17Q370 -44 319.5 -77.5Q269 -111 229.5 -122.5Q190 -134 153 -134Q110 -134 72.5 -119.5Q35 -105 6.5 -79.5Q-22 -54 -38.5 -19.5Q-55 15 -56 55Q-57 92 -44 125Q-31 158 -7.5 182Q16 206 47.5 220Q79 234 115 234Q141 234 164 227Q187 220 204 206.5Q221 193 231 174.5Q241 156 241 134Q241 105 225.5 84.5Q210 64 178 64Q150 64 132.5 80Q115 96 115 121Q115 145 126 164.5Q137 184 137 197Q137 207 127.5 212Q118 217 102 217Q81 217 61.5 208.5Q42 200 26 184.5Q10 169 0.5 147.5Q-9 126 -9 100Q-9 34 41 -1.5Q91 -37 173 -37Q221 -37 267 -26Q313 -15 365 15.5Q417 46 478.5 100Q540 154 619 239L1065 710H1131L990 113Q983 83 985 64Q987 45 994.5 33.5Q1002 22 1014.5 16.5Q1027 11 1041 10L1038 0H709L712 10Q727 11 742 16.5Q757 22 770.5 33.5Q784 45 795 64Q806 83 813 113L838 219H632ZM908 509 653 241H844ZM1101 858Q1101 875 1108 890Q1115 905 1126 916Q1137 927 1152 933.5Q1167 940 1184 940Q1217 940 1240.5 917Q1264 894 1264 861Q1264 844 1257 829Q1250 814 1239 803Q1228 792 1212.5 785.5Q1197 779 1181 779Q1148 779 1124.5 802Q1101 825 1101 858ZM897 858Q897 875 904 890Q911 905 922 916Q933 927 948 933.5Q963 940 980 940Q1013 940 1036.5 917Q1060 894 1060 861Q1060 844 1053 829Q1046 814 1035 803Q1024 792 1008.5 785.5Q993 779 977 779Q944 779 920.5 802Q897 825 897 858Z" glyph-name="Adieresis.swsh" horiz-adv-x="1112" /><glyph d="M200 0H-45L-42 10Q-20 14 2.5 27.5Q25 41 51 66.5Q77 92 107 131Q137 170 173 227L477 707H528L582 160Q590 90 607 55.5Q624 21 659 10L656 0H330L333 10Q378 18 395 49.5Q412 81 407 139L400 219H196Q165 167 152 129.5Q139 92 141 67Q143 42 159 28Q175 14 203 10ZM210 241H398L376 505ZM549 771 396 811Q365 819 352 836Q339 853 339 872Q339 893 353 907.5Q367 922 390 922Q418 922 442 898L561 771Z" glyph-name="Agrave" horiz-adv-x="720" unicode="&#192;" /><glyph d="M157 0H-45L-42 9Q-27 10 -10 19Q7 28 27.5 46.5Q48 65 72 95Q96 125 124 168L372 545H425L472 136Q476 103 481.5 81Q487 59 495 44.5Q503 30 513 22Q523 14 536 9L533 0H251L254 9Q273 12 285 19.5Q297 27 304 41.5Q311 56 312 78Q313 100 310 133L307 159H144Q104 89 109.5 53.5Q115 18 160 9ZM157 179H305L285 376ZM441 608 288 648Q257 656 244 673Q231 690 231 709Q231 730 245 744.5Q259 759 282 759Q310 759 334 735L453 608Z" glyph-name="Agrave.smcp" horiz-adv-x="597" /><glyph d="M592 177Q502 78 436 17Q370 -44 319.5 -77.5Q269 -111 229.5 -122.5Q190 -134 153 -134Q110 -134 72.5 -119.5Q35 -105 6.5 -79.5Q-22 -54 -38.5 -19.5Q-55 15 -56 55Q-57 92 -44 125Q-31 158 -7.5 182Q16 206 47.5 220Q79 234 115 234Q141 234 164 227Q187 220 204 206.5Q221 193 231 174.5Q241 156 241 134Q241 105 225.5 84.5Q210 64 178 64Q150 64 132.5 80Q115 96 115 121Q115 145 126 164.5Q137 184 137 197Q137 207 127.5 212Q118 217 102 217Q81 217 61.5 208.5Q42 200 26 184.5Q10 169 0.5 147.5Q-9 126 -9 100Q-9 34 41 -1.5Q91 -37 173 -37Q221 -37 267 -26Q313 -15 365 15.5Q417 46 478.5 100Q540 154 619 239L1065 710H1131L990 113Q983 83 985 64Q987 45 994.5 33.5Q1002 22 1014.5 16.5Q1027 11 1041 10L1038 0H709L712 10Q727 11 742 16.5Q757 22 770.5 33.5Q784 45 795 64Q806 83 813 113L838 219H632ZM908 509 653 241H844ZM1112 771 959 811Q928 819 915 836Q902 853 902 872Q902 893 916 907.5Q930 922 953 922Q981 922 1005 898L1124 771Z" glyph-name="Agrave.swsh" horiz-adv-x="1112" /><glyph d="M200 0H-45L-42 10Q-20 14 2.5 27.5Q25 41 51 66.5Q77 92 107 131Q137 170 173 227L477 707H528L582 160Q590 90 607 55.5Q624 21 659 10L656 0H330L333 10Q378 18 395 49.5Q412 81 407 139L400 219H196Q165 167 152 129.5Q139 92 141 67Q143 42 159 28Q175 14 203 10ZM210 241H398L376 505ZM656 845 650 814H377L383 845Z" glyph-name="Amacron" horiz-adv-x="720" unicode="&#256;" /><glyph d="M157 0H-45L-42 9Q-27 10 -10 19Q7 28 27.5 46.5Q48 65 72 95Q96 125 124 168L372 545H425L472 136Q476 103 481.5 81Q487 59 495 44.5Q503 30 513 22Q523 14 536 9L533 0H251L254 9Q273 12 285 19.5Q297 27 304 41.5Q311 56 312 78Q313 100 310 133L307 159H144Q104 89 109.5 53.5Q115 18 160 9ZM157 179H305L285 376ZM547 682 541 651H268L274 682Z" glyph-name="Amacron.smcp" horiz-adv-x="597" /><glyph d="M592 177Q502 78 436 17Q370 -44 319.5 -77.5Q269 -111 229.5 -122.5Q190 -134 153 -134Q110 -134 72.5 -119.5Q35 -105 6.5 -79.5Q-22 -54 -38.5 -19.5Q-55 15 -56 55Q-57 92 -44 125Q-31 158 -7.5 182Q16 206 47.5 220Q79 234 115 234Q141 234 164 227Q187 220 204 206.5Q221 193 231 174.5Q241 156 241 134Q241 105 225.5 84.5Q210 64 178 64Q150 64 132.5 80Q115 96 115 121Q115 145 126 164.5Q137 184 137 197Q137 207 127.5 212Q118 217 102 217Q81 217 61.5 208.5Q42 200 26 184.5Q10 169 0.5 147.5Q-9 126 -9 100Q-9 34 41 -1.5Q91 -37 173 -37Q221 -37 267 -26Q313 -15 365 15.5Q417 46 478.5 100Q540 154 619 239L1065 710H1131L990 113Q983 83 985 64Q987 45 994.5 33.5Q1002 22 1014.5 16.5Q1027 11 1041 10L1038 0H709L712 10Q727 11 742 16.5Q757 22 770.5 33.5Q784 45 795 64Q806 83 813 113L838 219H632ZM908 509 653 241H844ZM1218 845 1212 814H939L945 845Z" glyph-name="Amacron.swsh" horiz-adv-x="1112" /><glyph d="M210 241H398L376 505ZM560 -203Q543 -217 517.5 -231Q492 -245 462 -245Q420 -245 400 -221Q380 -197 380 -164Q380 -138 390 -113Q400 -88 419 -66.5Q438 -45 464 -28Q490 -11 522 0H330L333 10Q378 18 395 49.5Q412 81 407 139L400 219H196Q165 167 152 129.5Q139 92 141 67Q143 42 159 28Q175 14 203 10L200 0H-45L-42 10Q-20 14 2.5 27.5Q25 41 51 66.5Q77 92 107 131Q137 170 173 227L477 707H528L582 160Q590 90 607 55.5Q624 21 659 10L656 0H561Q545 -4 529 -15.5Q513 -27 500 -45Q487 -63 479 -87.5Q471 -112 471 -140Q471 -174 482.5 -188.5Q494 -203 517 -203Q523 -203 532 -202Q541 -201 555 -195Z" glyph-name="Aogonek" horiz-adv-x="720" unicode="&#260;" /><glyph d="M157 179H305L285 376ZM441 -203Q424 -217 398.5 -231Q373 -245 343 -245Q301 -245 281 -221Q261 -197 261 -164Q261 -138 271 -113Q281 -88 300 -66.5Q319 -45 345 -28Q371 -11 403 0H251L254 9Q273 12 285 19.5Q297 27 304 41.5Q311 56 312 78Q313 100 310 133L307 159H144Q104 89 109.5 53.5Q115 18 160 9L157 0H-45L-42 9Q-27 10 -10 19Q7 28 27.5 46.5Q48 65 72 95Q96 125 124 168L372 545H425L472 136Q476 103 481.5 81Q487 59 495 44.5Q503 30 513 22Q523 14 536 9L533 0H442Q426 -4 410 -15.5Q394 -27 381 -45Q368 -63 360 -87.5Q352 -112 352 -140Q352 -174 363.5 -188.5Q375 -203 398 -203Q404 -203 413 -202Q422 -201 436 -195Z" glyph-name="Aogonek.smcp" horiz-adv-x="597" /><glyph d="M953 -203Q936 -217 910.5 -231Q885 -245 855 -245Q813 -245 793 -221Q773 -197 773 -164Q773 -138 783 -113Q793 -88 812 -66.5Q831 -45 857 -28Q883 -11 915 0H709L712 10Q727 11 742 16.5Q757 22 770.5 33.5Q784 45 795 64Q806 83 813 113L838 219H632L592 177Q502 78 436 17Q370 -44 319.5 -77.5Q269 -111 229.5 -122.5Q190 -134 153 -134Q110 -134 72.5 -119.5Q35 -105 6.5 -79.5Q-22 -54 -38.5 -19.5Q-55 15 -56 55Q-57 92 -44 125Q-31 158 -7.5 182Q16 206 47.5 220Q79 234 115 234Q141 234 164 227Q187 220 204 206.5Q221 193 231 174.5Q241 156 241 134Q241 105 225.5 84.5Q210 64 178 64Q150 64 132.5 80Q115 96 115 121Q115 145 126 164.5Q137 184 137 197Q137 207 127.5 212Q118 217 102 217Q81 217 61.5 208.5Q42 200 26 184.5Q10 169 0.5 147.5Q-9 126 -9 100Q-9 34 41 -1.5Q91 -37 173 -37Q221 -37 267 -26Q313 -15 365 15.5Q417 46 478.5 100Q540 154 619 239L1065 710H1131L990 113Q983 83 985 64Q987 45 994.5 33.5Q1002 22 1014.5 16.5Q1027 11 1041 10L1038 0H954Q938 -4 922 -15.5Q906 -27 893 -45Q880 -63 872 -87.5Q864 -112 864 -140Q864 -174 875.5 -188.5Q887 -203 910 -203Q916 -203 925 -202Q934 -201 948 -195ZM908 509 653 241H844Z" glyph-name="Aogonek.swsh" horiz-adv-x="1112" /><glyph d="M200 0H-45L-42 10Q-20 14 2.5 27.5Q25 41 51 66.5Q77 92 107 131Q137 170 173 227L468 693Q442 704 426.5 728.5Q411 753 411 783Q411 804 419 823.5Q427 843 441 858Q455 873 474 881.5Q493 890 515 890Q536 890 553.5 882Q571 874 583.5 860.5Q596 847 603.5 829.5Q611 812 611 792Q611 754 588 725Q565 696 530 688L582 160Q590 90 607 55.5Q624 21 659 10L656 0H330L333 10Q378 18 395 49.5Q412 81 407 139L400 219H196Q165 167 152 129.5Q139 92 141 67Q143 42 159 28Q175 14 203 10ZM210 241H398L376 505ZM508 707Q541 707 563.5 732.5Q586 758 586 791Q586 823 565.5 845.5Q545 868 514 868Q481 868 458.5 842.5Q436 817 436 784Q436 752 456 729.5Q476 707 508 707Z" glyph-name="Aring" horiz-adv-x="720" unicode="&#197;" /><glyph d="M157 0H-45L-42 9Q-27 10 -10 19Q7 28 27.5 46.5Q48 65 72 95Q96 125 124 168L363 532Q338 543 322.5 567Q307 591 307 621Q307 642 315 661.5Q323 681 337 696Q351 711 370 719.5Q389 728 411 728Q432 728 449.5 720Q467 712 479.5 698.5Q492 685 499.5 667.5Q507 650 507 630Q507 592 484.5 563Q462 534 427 526L472 136Q476 103 481.5 81Q487 59 495 44.5Q503 30 513 22Q523 14 536 9L533 0H251L254 9Q273 12 285 19.5Q297 27 304 41.5Q311 56 312 78Q313 100 310 133L307 159H144Q104 89 109.5 53.5Q115 18 160 9ZM157 179H305L285 376ZM404 545Q437 545 459.5 570.5Q482 596 482 629Q482 661 461.5 683.5Q441 706 410 706Q377 706 354.5 680.5Q332 655 332 622Q332 590 352 567.5Q372 545 404 545Z" glyph-name="Aring.smcp" horiz-adv-x="597" /><glyph d="M592 177Q502 78 436 17Q370 -44 319.5 -77.5Q269 -111 229.5 -122.5Q190 -134 153 -134Q110 -134 72.5 -119.5Q35 -105 6.5 -79.5Q-22 -54 -38.5 -19.5Q-55 15 -56 55Q-57 92 -44 125Q-31 158 -7.5 182Q16 206 47.5 220Q79 234 115 234Q141 234 164 227Q187 220 204 206.5Q221 193 231 174.5Q241 156 241 134Q241 105 225.5 84.5Q210 64 178 64Q150 64 132.5 80Q115 96 115 121Q115 145 126 164.5Q137 184 137 197Q137 207 127.5 212Q118 217 102 217Q81 217 61.5 208.5Q42 200 26 184.5Q10 169 0.5 147.5Q-9 126 -9 100Q-9 34 41 -1.5Q91 -37 173 -37Q221 -37 267 -26Q313 -15 365 15.5Q417 46 478.5 100Q540 154 619 239L1056 701Q1034 714 1021 736.5Q1008 759 1008 786Q1008 807 1016 826.5Q1024 846 1038 861Q1052 876 1071 884.5Q1090 893 1112 893Q1133 893 1150.5 885Q1168 877 1180.5 863.5Q1193 850 1200.5 832.5Q1208 815 1208 795Q1208 757 1184.5 728Q1161 699 1126 691L990 113Q983 83 985 64Q987 45 994.5 33.5Q1002 22 1014.5 16.5Q1027 11 1041 10L1038 0H709L712 10Q727 11 742 16.5Q757 22 770.5 33.5Q784 45 795 64Q806 83 813 113L838 219H632ZM908 509 653 241H844ZM1105 710Q1138 710 1160.5 735.5Q1183 761 1183 794Q1183 826 1162.5 848.5Q1142 871 1111 871Q1078 871 1055.5 845.5Q1033 820 1033 787Q1033 755 1053 732.5Q1073 710 1105 710Z" glyph-name="Aring.swsh" horiz-adv-x="1112" /><glyph d="M200 0H-45L-42 10Q-20 14 2.5 27.5Q25 41 51 66.5Q77 92 107 131Q137 170 173 227L477 707H528L582 160Q590 90 607 55.5Q624 21 659 10L656 0H330L333 10Q378 18 395 49.5Q412 81 407 139L400 219H196Q165 167 152 129.5Q139 92 141 67Q143 42 159 28Q175 14 203 10ZM210 241H398L376 505ZM686 902Q679 846 645.5 811.5Q612 777 568 777Q548 777 531 783.5Q514 790 497 798Q480 806 463.5 812.5Q447 819 429 819Q407 819 391.5 807.5Q376 796 365 778L355 780Q362 835 396 869.5Q430 904 474 904Q493 904 510.5 897.5Q528 891 544.5 883Q561 875 578 868.5Q595 862 613 862Q635 862 650.5 873.5Q666 885 677 904Z" glyph-name="Atilde" horiz-adv-x="720" unicode="&#195;" /><glyph d="M157 0H-45L-42 9Q-27 10 -10 19Q7 28 27.5 46.5Q48 65 72 95Q96 125 124 168L372 545H425L472 136Q476 103 481.5 81Q487 59 495 44.5Q503 30 513 22Q523 14 536 9L533 0H251L254 9Q273 12 285 19.5Q297 27 304 41.5Q311 56 312 78Q313 100 310 133L307 159H144Q104 89 109.5 53.5Q115 18 160 9ZM157 179H305L285 376ZM576 739Q569 683 535.5 648.5Q502 614 458 614Q438 614 421 620.5Q404 627 387 635Q370 643 353.5 649.5Q337 656 319 656Q297 656 281.5 644.5Q266 633 255 615L245 617Q252 672 286 706.5Q320 741 364 741Q383 741 400.5 734.5Q418 728 434.5 720Q451 712 468 705.5Q485 699 503 699Q525 699 540.5 710.5Q556 722 567 741Z" glyph-name="Atilde.smcp" horiz-adv-x="597" /><glyph d="M592 177Q502 78 436 17Q370 -44 319.5 -77.5Q269 -111 229.5 -122.5Q190 -134 153 -134Q110 -134 72.5 -119.5Q35 -105 6.5 -79.5Q-22 -54 -38.5 -19.5Q-55 15 -56 55Q-57 92 -44 125Q-31 158 -7.5 182Q16 206 47.5 220Q79 234 115 234Q141 234 164 227Q187 220 204 206.5Q221 193 231 174.5Q241 156 241 134Q241 105 225.5 84.5Q210 64 178 64Q150 64 132.5 80Q115 96 115 121Q115 145 126 164.5Q137 184 137 197Q137 207 127.5 212Q118 217 102 217Q81 217 61.5 208.5Q42 200 26 184.5Q10 169 0.5 147.5Q-9 126 -9 100Q-9 34 41 -1.5Q91 -37 173 -37Q221 -37 267 -26Q313 -15 365 15.5Q417 46 478.5 100Q540 154 619 239L1065 710H1131L990 113Q983 83 985 64Q987 45 994.5 33.5Q1002 22 1014.5 16.5Q1027 11 1041 10L1038 0H709L712 10Q727 11 742 16.5Q757 22 770.5 33.5Q784 45 795 64Q806 83 813 113L838 219H632ZM908 509 653 241H844ZM1248 902Q1241 846 1207.5 811.5Q1174 777 1130 777Q1110 777 1093 783.5Q1076 790 1059 798Q1042 806 1025.5 812.5Q1009 819 991 819Q969 819 953.5 807.5Q938 796 927 778L917 780Q924 835 958 869.5Q992 904 1036 904Q1055 904 1072.5 897.5Q1090 891 1106.5 883Q1123 875 1140 868.5Q1157 862 1175 862Q1197 862 1212.5 873.5Q1228 885 1239 904Z" glyph-name="Atilde.swsh" horiz-adv-x="1112" /><glyph d="M262 21Q311 21 347.5 37.5Q384 54 408 81.5Q432 109 443.5 146Q455 183 455 224Q455 296 421.5 331Q388 366 332 366H305L222 21ZM310 388H337Q372 388 401.5 402Q431 416 452.5 440Q474 464 486 497Q498 530 498 568Q498 625 472 652Q446 679 399 679H380ZM-35 0 -32 10Q-17 11 -2 16.5Q13 22 26.5 33.5Q40 45 51 64Q62 83 69 113L181 583Q194 637 180.5 661Q167 685 131 690L134 700H461Q510 700 549.5 689Q589 678 616.5 659Q644 640 658.5 613Q673 586 673 555Q673 522 658.5 493Q644 464 619 441.5Q594 419 561 403.5Q528 388 492 383Q564 359 597.5 316.5Q631 274 631 218Q631 175 610.5 135.5Q590 96 549 66Q508 36 444.5 18Q381 0 296 0Z" glyph-name="B" horiz-adv-x="665" unicode="B" /><glyph d="M219 18Q249 18 275 28.5Q301 39 320 58.5Q339 78 350 106Q361 134 361 169Q361 222 335.5 250.5Q310 279 270 279H253L189 18ZM258 299H275Q329 299 363 337.5Q397 376 397 436Q397 519 329 519H312ZM-35 0 -32 10Q-8 12 14 28.5Q36 45 49 95L133 437Q145 486 133.5 505Q122 524 94 527L97 537H382Q461 537 505.5 504.5Q550 472 550 425Q550 401 539 379Q528 357 507.5 340Q487 323 459 311.5Q431 300 398 296Q455 279 488 244Q521 209 521 162Q521 133 506.5 104Q492 75 459 52Q426 29 374 14.5Q322 0 247 0Z" glyph-name="B.smcp" horiz-adv-x="555" /><glyph d="M650 482Q647 532 633 571.5Q619 611 597.5 639Q576 667 547.5 681.5Q519 696 488 696Q442 696 397 670Q352 644 316.5 596.5Q281 549 259 482Q237 415 237 334Q237 269 253 222Q269 175 296.5 144.5Q324 114 361 99.5Q398 85 441 85Q504 85 555.5 114Q607 143 638 197L654 191Q607 88 528.5 35Q450 -18 350 -18Q286 -18 231 5.5Q176 29 136 71Q96 113 73 170Q50 227 50 294Q50 379 86 456Q122 533 184.5 591.5Q247 650 331.5 685Q416 720 514 720Q573 720 634 709Q695 698 737 676L668 480Z" glyph-name="C" horiz-adv-x="690" unicode="C" /><glyph d="M517 151Q478 65 416 25Q354 -15 277 -15Q224 -15 179.5 3.5Q135 22 103 54Q71 86 52.5 130.5Q34 175 34 227Q34 289 59.5 348Q85 407 132 452.5Q179 498 246 526Q313 554 396 554Q444 554 493.5 545.5Q543 537 581 517L513 364L499 366Q499 400 491.5 430.5Q484 461 469 484Q454 507 432 520Q410 533 381 533Q345 533 312 512.5Q279 492 254.5 455.5Q230 419 215 369.5Q200 320 200 262Q200 169 242.5 123Q285 77 354 77Q399 77 437.5 96.5Q476 116 504 157Z" glyph-name="C.smcp" horiz-adv-x="545" /><glyph d="M220 214Q220 143 237.5 89Q255 35 286.5 -2Q318 -39 362.5 -57.5Q407 -76 461 -76Q512 -76 554.5 -60Q597 -44 627.5 -16.5Q658 11 675.5 48Q693 85 693 128Q693 164 681 189.5Q669 215 650 231.5Q631 248 606.5 255.5Q582 263 558 263Q534 263 516 256.5Q498 250 485.5 240Q473 230 467 218Q461 206 461 194Q461 184 466.5 180.5Q472 177 479 177Q488 177 499 181Q510 185 525 185Q549 185 568.5 169.5Q588 154 588 127Q588 98 567 77Q546 56 509 56Q476 56 451 82.5Q426 109 426 157Q426 181 434.5 204Q443 227 459.5 245Q476 263 501 274.5Q526 286 559 286Q593 286 622 275Q651 264 673 243Q695 222 707.5 191.5Q720 161 720 122Q720 63 695 10Q670 -43 625 -83Q580 -123 518.5 -146.5Q457 -170 384 -170Q308 -170 243.5 -142.5Q179 -115 132.5 -66Q86 -17 59.5 51Q33 119 33 199Q33 269 53 334.5Q73 400 109 458Q145 516 195 564Q245 612 305.5 646.5Q366 681 435 700Q504 719 578 719Q653 719 718 706.5Q783 694 838 665L768 469L750 471Q747 525 731.5 567Q716 609 691 637Q666 665 633.5 679.5Q601 694 565 694Q506 694 445 657.5Q384 621 334 556.5Q284 492 252 404Q220 316 220 214Z" glyph-name="C.swsh" horiz-adv-x="792" /><glyph d="M650 482Q647 532 633 571.5Q619 611 597.5 639Q576 667 547.5 681.5Q519 696 488 696Q442 696 397 670Q352 644 316.5 596.5Q281 549 259 482Q237 415 237 334Q237 269 253 222Q269 175 296.5 144.5Q324 114 361 99.5Q398 85 441 85Q504 85 555.5 114Q607 143 638 197L654 191Q607 88 528.5 35Q450 -18 350 -18Q286 -18 231 5.5Q176 29 136 71Q96 113 73 170Q50 227 50 294Q50 379 86 456Q122 533 184.5 591.5Q247 650 331.5 685Q416 720 514 720Q573 720 634 709Q695 698 737 676L668 480ZM572 898Q596 922 624 922Q647 922 661 907.5Q675 893 675 872Q675 853 662 836Q649 819 618 811L464 771H453Z" glyph-name="Cacute" horiz-adv-x="690" unicode="&#262;" /><glyph d="M517 151Q478 65 416 25Q354 -15 277 -15Q224 -15 179.5 3.5Q135 22 103 54Q71 86 52.5 130.5Q34 175 34 227Q34 289 59.5 348Q85 407 132 452.5Q179 498 246 526Q313 554 396 554Q444 554 493.5 545.5Q543 537 581 517L513 364L499 366Q499 400 491.5 430.5Q484 461 469 484Q454 507 432 520Q410 533 381 533Q345 533 312 512.5Q279 492 254.5 455.5Q230 419 215 369.5Q200 320 200 262Q200 169 242.5 123Q285 77 354 77Q399 77 437.5 96.5Q476 116 504 157ZM459 735Q483 759 511 759Q534 759 548 744.5Q562 730 562 709Q562 690 549 673Q536 656 505 648L351 608H340Z" glyph-name="Cacute.smcp" horiz-adv-x="545" /><glyph d="M220 214Q220 143 237.5 89Q255 35 286.5 -2Q318 -39 362.5 -57.5Q407 -76 461 -76Q512 -76 554.5 -60Q597 -44 627.5 -16.5Q658 11 675.5 48Q693 85 693 128Q693 164 681 189.5Q669 215 650 231.5Q631 248 606.5 255.5Q582 263 558 263Q534 263 516 256.5Q498 250 485.5 240Q473 230 467 218Q461 206 461 194Q461 184 466.5 180.5Q472 177 479 177Q488 177 499 181Q510 185 525 185Q549 185 568.5 169.5Q588 154 588 127Q588 98 567 77Q546 56 509 56Q476 56 451 82.5Q426 109 426 157Q426 181 434.5 204Q443 227 459.5 245Q476 263 501 274.5Q526 286 559 286Q593 286 622 275Q651 264 673 243Q695 222 707.5 191.5Q720 161 720 122Q720 63 695 10Q670 -43 625 -83Q580 -123 518.5 -146.5Q457 -170 384 -170Q308 -170 243.5 -142.5Q179 -115 132.5 -66Q86 -17 59.5 51Q33 119 33 199Q33 269 53 334.5Q73 400 109 458Q145 516 195 564Q245 612 305.5 646.5Q366 681 435 700Q504 719 578 719Q653 719 718 706.5Q783 694 838 665L768 469L750 471Q747 525 731.5 567Q716 609 691 637Q666 665 633.5 679.5Q601 694 565 694Q506 694 445 657.5Q384 621 334 556.5Q284 492 252 404Q220 316 220 214ZM655 898Q679 922 707 922Q730 922 744 907.5Q758 893 758 872Q758 853 745 836Q732 819 701 811L547 771H536Z" glyph-name="Cacute.swsh" horiz-adv-x="792" /><glyph d="M650 482Q647 532 633 571.5Q619 611 597.5 639Q576 667 547.5 681.5Q519 696 488 696Q442 696 397 670Q352 644 316.5 596.5Q281 549 259 482Q237 415 237 334Q237 269 253 222Q269 175 296.5 144.5Q324 114 361 99.5Q398 85 441 85Q504 85 555.5 114Q607 143 638 197L654 191Q607 88 528.5 35Q450 -18 350 -18Q286 -18 231 5.5Q176 29 136 71Q96 113 73 170Q50 227 50 294Q50 379 86 456Q122 533 184.5 591.5Q247 650 331.5 685Q416 720 514 720Q573 720 634 709Q695 698 737 676L668 480ZM530 851 696 906H710L566 776H471L393 906H409Z" glyph-name="Ccaron" horiz-adv-x="690" unicode="&#268;" /><glyph d="M517 151Q478 65 416 25Q354 -15 277 -15Q224 -15 179.5 3.5Q135 22 103 54Q71 86 52.5 130.5Q34 175 34 227Q34 289 59.5 348Q85 407 132 452.5Q179 498 246 526Q313 554 396 554Q444 554 493.5 545.5Q543 537 581 517L513 364L499 366Q499 400 491.5 430.5Q484 461 469 484Q454 507 432 520Q410 533 381 533Q345 533 312 512.5Q279 492 254.5 455.5Q230 419 215 369.5Q200 320 200 262Q200 169 242.5 123Q285 77 354 77Q399 77 437.5 96.5Q476 116 504 157ZM417 688 583 743H597L453 613H358L280 743H296Z" glyph-name="Ccaron.smcp" horiz-adv-x="545" /><glyph d="M220 214Q220 143 237.5 89Q255 35 286.5 -2Q318 -39 362.5 -57.5Q407 -76 461 -76Q512 -76 554.5 -60Q597 -44 627.5 -16.5Q658 11 675.5 48Q693 85 693 128Q693 164 681 189.5Q669 215 650 231.5Q631 248 606.5 255.5Q582 263 558 263Q534 263 516 256.5Q498 250 485.5 240Q473 230 467 218Q461 206 461 194Q461 184 466.5 180.5Q472 177 479 177Q488 177 499 181Q510 185 525 185Q549 185 568.5 169.5Q588 154 588 127Q588 98 567 77Q546 56 509 56Q476 56 451 82.5Q426 109 426 157Q426 181 434.5 204Q443 227 459.5 245Q476 263 501 274.5Q526 286 559 286Q593 286 622 275Q651 264 673 243Q695 222 707.5 191.5Q720 161 720 122Q720 63 695 10Q670 -43 625 -83Q580 -123 518.5 -146.5Q457 -170 384 -170Q308 -170 243.5 -142.5Q179 -115 132.5 -66Q86 -17 59.5 51Q33 119 33 199Q33 269 53 334.5Q73 400 109 458Q145 516 195 564Q245 612 305.5 646.5Q366 681 435 700Q504 719 578 719Q653 719 718 706.5Q783 694 838 665L768 469L750 471Q747 525 731.5 567Q716 609 691 637Q666 665 633.5 679.5Q601 694 565 694Q506 694 445 657.5Q384 621 334 556.5Q284 492 252 404Q220 316 220 214ZM613 851 779 906H793L649 776H554L476 906H492Z" glyph-name="Ccaron.swsh" horiz-adv-x="792" /><glyph d="M290 -279Q250 -279 222 -269Q194 -259 172 -242L180 -228Q213 -255 261 -255Q310 -255 335.5 -231.5Q361 -208 361 -176Q361 -120 289 -120Q270 -120 255 -123L252 -119L319 -20Q261 -14 211.5 12Q162 38 126 79.5Q90 121 70 175.5Q50 230 50 294Q50 379 86 456Q122 533 184.5 591.5Q247 650 331.5 685Q416 720 514 720Q573 720 634 709Q695 698 737 676L668 480L650 482Q647 532 633 571.5Q619 611 597.5 639Q576 667 547.5 681.5Q519 696 488 696Q442 696 397 670Q352 644 316.5 596.5Q281 549 259 482Q237 415 237 334Q237 268 253 220.5Q269 173 296.5 142.5Q324 112 361 97Q398 82 441 82Q504 82 555 112.5Q606 143 638 197L654 191Q606 87 528 33Q450 -21 350 -21H341L310 -68Q329 -64 350 -64Q399 -64 426.5 -87Q454 -110 454 -152Q454 -178 443 -201.5Q432 -225 411 -242Q390 -259 359.5 -269Q329 -279 290 -279Z" glyph-name="Ccedilla" horiz-adv-x="690" unicode="&#199;" /><glyph d="M212 -279Q172 -279 144 -269Q116 -259 94 -242L102 -228Q135 -255 183 -255Q232 -255 257.5 -231.5Q283 -208 283 -176Q283 -120 211 -120Q192 -120 177 -123L174 -119L244 -15Q198 -9 159.5 11Q121 31 93 63Q65 95 49.5 137Q34 179 34 227Q34 289 59.5 348Q85 407 132 452.5Q179 498 246 526Q313 554 396 554Q444 554 493.5 545.5Q543 537 581 517L513 364L499 366Q499 400 491.5 430.5Q484 461 469 484Q454 507 432 520Q410 533 381 533Q345 533 312 512.5Q279 492 254.5 455.5Q230 419 215 369.5Q200 320 200 262Q200 169 243 122Q286 75 354 75Q399 75 437 95Q475 115 504 157L517 151Q477 64 415.5 23.5Q354 -17 277 -17H266L232 -68Q251 -64 272 -64Q321 -64 348.5 -87Q376 -110 376 -152Q376 -178 365 -201.5Q354 -225 333 -242Q312 -259 281.5 -269Q251 -279 212 -279Z" glyph-name="Ccedilla.smcp" horiz-adv-x="545" /><glyph d="M345 -434Q305 -434 277 -424Q249 -414 227 -397L235 -383Q268 -410 316 -410Q365 -410 390.5 -386.5Q416 -363 416 -331Q416 -275 344 -275Q325 -275 310 -278L307 -274L377 -170Q302 -169 239 -141Q176 -113 130.5 -64Q85 -15 59 52Q33 119 33 199Q33 269 53 334.5Q73 400 109 458Q145 516 195 564Q245 612 305.5 646.5Q366 681 435 700Q504 719 578 719Q653 719 718 706.5Q783 694 838 665L768 469L750 471Q747 525 731.5 567Q716 609 691 637Q666 665 633.5 679.5Q601 694 565 694Q506 694 445 657.5Q384 621 334 556.5Q284 492 252 404Q220 316 220 214Q220 143 237.5 89Q255 35 286.5 -2Q318 -39 362.5 -57.5Q407 -76 461 -76Q512 -76 554.5 -60Q597 -44 627.5 -16.5Q658 11 675.5 48Q693 85 693 128Q693 164 681 189.5Q669 215 650 231.5Q631 248 606.5 255.5Q582 263 558 263Q534 263 516 256.5Q498 250 485.5 240Q473 230 467 218Q461 206 461 194Q461 184 466.5 180.5Q472 177 479 177Q488 177 499 181Q510 185 525 185Q549 185 568.5 169.5Q588 154 588 127Q588 98 567 77Q546 56 509 56Q476 56 451 82.5Q426 109 426 157Q426 181 434.5 204Q443 227 459.5 245Q476 263 501 274.5Q526 286 559 286Q593 286 622 275Q651 264 673 243Q695 222 707.5 191.5Q720 161 720 122Q720 65 696 13Q672 -39 629.5 -78.5Q587 -118 528.5 -142.5Q470 -167 401 -170L365 -223Q384 -219 405 -219Q454 -219 481.5 -242Q509 -265 509 -307Q509 -333 498 -356.5Q487 -380 466 -397Q445 -414 414.5 -424Q384 -434 345 -434Z" glyph-name="Ccedilla.swsh" horiz-adv-x="792" /><glyph d="M650 482Q647 532 633 571.5Q619 611 597.5 639Q576 667 547.5 681.5Q519 696 488 696Q442 696 397 670Q352 644 316.5 596.5Q281 549 259 482Q237 415 237 334Q237 269 253 222Q269 175 296.5 144.5Q324 114 361 99.5Q398 85 441 85Q504 85 555.5 114Q607 143 638 197L654 191Q607 88 528.5 35Q450 -18 350 -18Q286 -18 231 5.5Q176 29 136 71Q96 113 73 170Q50 227 50 294Q50 379 86 456Q122 533 184.5 591.5Q247 650 331.5 685Q416 720 514 720Q573 720 634 709Q695 698 737 676L668 480ZM540 832 374 776H360L504 906H599L677 776H660Z" glyph-name="Ccircumflex" horiz-adv-x="690" unicode="&#264;" /><glyph d="M517 151Q478 65 416 25Q354 -15 277 -15Q224 -15 179.5 3.5Q135 22 103 54Q71 86 52.5 130.5Q34 175 34 227Q34 289 59.5 348Q85 407 132 452.5Q179 498 246 526Q313 554 396 554Q444 554 493.5 545.5Q543 537 581 517L513 364L499 366Q499 400 491.5 430.5Q484 461 469 484Q454 507 432 520Q410 533 381 533Q345 533 312 512.5Q279 492 254.5 455.5Q230 419 215 369.5Q200 320 200 262Q200 169 242.5 123Q285 77 354 77Q399 77 437.5 96.5Q476 116 504 157ZM427 669 261 613H247L391 743H486L564 613H547Z" glyph-name="Ccircumflex.smcp" horiz-adv-x="545" /><glyph d="M220 214Q220 143 237.5 89Q255 35 286.5 -2Q318 -39 362.5 -57.5Q407 -76 461 -76Q512 -76 554.5 -60Q597 -44 627.5 -16.5Q658 11 675.5 48Q693 85 693 128Q693 164 681 189.5Q669 215 650 231.5Q631 248 606.5 255.5Q582 263 558 263Q534 263 516 256.5Q498 250 485.5 240Q473 230 467 218Q461 206 461 194Q461 184 466.5 180.5Q472 177 479 177Q488 177 499 181Q510 185 525 185Q549 185 568.5 169.5Q588 154 588 127Q588 98 567 77Q546 56 509 56Q476 56 451 82.5Q426 109 426 157Q426 181 434.5 204Q443 227 459.5 245Q476 263 501 274.5Q526 286 559 286Q593 286 622 275Q651 264 673 243Q695 222 707.5 191.5Q720 161 720 122Q720 63 695 10Q670 -43 625 -83Q580 -123 518.5 -146.5Q457 -170 384 -170Q308 -170 243.5 -142.5Q179 -115 132.5 -66Q86 -17 59.5 51Q33 119 33 199Q33 269 53 334.5Q73 400 109 458Q145 516 195 564Q245 612 305.5 646.5Q366 681 435 700Q504 719 578 719Q653 719 718 706.5Q783 694 838 665L768 469L750 471Q747 525 731.5 567Q716 609 691 637Q666 665 633.5 679.5Q601 694 565 694Q506 694 445 657.5Q384 621 334 556.5Q284 492 252 404Q220 316 220 214ZM623 832 457 776H443L587 906H682L760 776H743Z" glyph-name="Ccircumflex.swsh" horiz-adv-x="792" /><glyph d="M650 482Q647 532 633 571.5Q619 611 597.5 639Q576 667 547.5 681.5Q519 696 488 696Q442 696 397 670Q352 644 316.5 596.5Q281 549 259 482Q237 415 237 334Q237 269 253 222Q269 175 296.5 144.5Q324 114 361 99.5Q398 85 441 85Q504 85 555.5 114Q607 143 638 197L654 191Q607 88 528.5 35Q450 -18 350 -18Q286 -18 231 5.5Q176 29 136 71Q96 113 73 170Q50 227 50 294Q50 379 86 456Q122 533 184.5 591.5Q247 650 331.5 685Q416 720 514 720Q573 720 634 709Q695 698 737 676L668 480ZM451 855Q451 872 458 887Q465 902 476 913Q487 924 502 930.5Q517 937 534 937Q567 937 590.5 914Q614 891 614 858Q614 841 607 826Q600 811 589 800Q578 789 562.5 782.5Q547 776 531 776Q498 776 474.5 799Q451 822 451 855Z" glyph-name="Cdotaccent" horiz-adv-x="690" unicode="&#266;" /><glyph d="M517 151Q478 65 416 25Q354 -15 277 -15Q224 -15 179.5 3.5Q135 22 103 54Q71 86 52.5 130.5Q34 175 34 227Q34 289 59.5 348Q85 407 132 452.5Q179 498 246 526Q313 554 396 554Q444 554 493.5 545.5Q543 537 581 517L513 364L499 366Q499 400 491.5 430.5Q484 461 469 484Q454 507 432 520Q410 533 381 533Q345 533 312 512.5Q279 492 254.5 455.5Q230 419 215 369.5Q200 320 200 262Q200 169 242.5 123Q285 77 354 77Q399 77 437.5 96.5Q476 116 504 157ZM338 692Q338 709 345 724Q352 739 363 750Q374 761 389 767.5Q404 774 421 774Q454 774 477.5 751Q501 728 501 695Q501 678 494 663Q487 648 476 637Q465 626 449.5 619.5Q434 613 418 613Q385 613 361.5 636Q338 659 338 692Z" glyph-name="Cdotaccent.smcp" horiz-adv-x="545" /><glyph d="M220 214Q220 143 237.5 89Q255 35 286.5 -2Q318 -39 362.5 -57.5Q407 -76 461 -76Q512 -76 554.5 -60Q597 -44 627.5 -16.5Q658 11 675.5 48Q693 85 693 128Q693 164 681 189.5Q669 215 650 231.5Q631 248 606.5 255.5Q582 263 558 263Q534 263 516 256.5Q498 250 485.5 240Q473 230 467 218Q461 206 461 194Q461 184 466.5 180.5Q472 177 479 177Q488 177 499 181Q510 185 525 185Q549 185 568.5 169.5Q588 154 588 127Q588 98 567 77Q546 56 509 56Q476 56 451 82.5Q426 109 426 157Q426 181 434.5 204Q443 227 459.5 245Q476 263 501 274.5Q526 286 559 286Q593 286 622 275Q651 264 673 243Q695 222 707.5 191.5Q720 161 720 122Q720 63 695 10Q670 -43 625 -83Q580 -123 518.5 -146.5Q457 -170 384 -170Q308 -170 243.5 -142.5Q179 -115 132.5 -66Q86 -17 59.5 51Q33 119 33 199Q33 269 53 334.5Q73 400 109 458Q145 516 195 564Q245 612 305.5 646.5Q366 681 435 700Q504 719 578 719Q653 719 718 706.5Q783 694 838 665L768 469L750 471Q747 525 731.5 567Q716 609 691 637Q666 665 633.5 679.5Q601 694 565 694Q506 694 445 657.5Q384 621 334 556.5Q284 492 252 404Q220 316 220 214ZM534 855Q534 872 541 887Q548 902 559 913Q570 924 585 930.5Q600 937 617 937Q650 937 673.5 914Q697 891 697 858Q697 841 690 826Q683 811 672 800Q661 789 645.5 782.5Q630 776 614 776Q581 776 557.5 799Q534 822 534 855Z" glyph-name="Cdotaccent.swsh" horiz-adv-x="792" /><glyph d="M381 679 223 21H288Q350 21 402.5 55Q455 89 493.5 147.5Q532 206 553.5 284Q575 362 575 450Q575 510 563.5 553.5Q552 597 531.5 624.5Q511 652 483 665.5Q455 679 421 679ZM-32 10Q-17 11 -2 16.5Q13 22 26.5 33.5Q40 45 51 64Q62 83 69 113L183 588Q189 617 187 636Q185 655 177.5 666.5Q170 678 157.5 683Q145 688 130 690L133 700H468Q541 700 597 676.5Q653 653 690.5 613.5Q728 574 747 521.5Q766 469 766 411Q766 324 729.5 249Q693 174 630 118.5Q567 63 482.5 31.5Q398 0 303 0H-35Z" glyph-name="D" horiz-adv-x="765" unicode="D" /><glyph d="M313 519 190 18H230Q274 18 314 41.5Q354 65 384.5 108.5Q415 152 433 213Q451 274 451 349Q451 440 421 479.5Q391 519 334 519ZM-32 10Q-20 11 -8 15Q4 19 14.5 28.5Q25 38 34 53.5Q43 69 49 94L134 444Q145 489 132.5 507Q120 525 94 527L97 537H371Q435 537 482 517.5Q529 498 559.5 466Q590 434 604.5 393Q619 352 619 309Q619 241 588.5 184Q558 127 507 86Q456 45 389 22.5Q322 0 250 0H-35Z" glyph-name="D.smcp" horiz-adv-x="639" /><glyph d="M381 679 223 21H288Q350 21 402.5 55Q455 89 493.5 147.5Q532 206 553.5 284Q575 362 575 450Q575 510 563.5 553.5Q552 597 531.5 624.5Q511 652 483 665.5Q455 679 421 679ZM-32 10Q-17 11 -2 16.5Q13 22 26.5 33.5Q40 45 51 64Q62 83 69 113L183 588Q189 617 187 636Q185 655 177.5 666.5Q170 678 157.5 683Q145 688 130 690L133 700H468Q541 700 597 676.5Q653 653 690.5 613.5Q728 574 747 521.5Q766 469 766 411Q766 324 729.5 249Q693 174 630 118.5Q567 63 482.5 31.5Q398 0 303 0H-35ZM509 851 675 906H689L545 776H450L372 906H388Z" glyph-name="Dcaron" horiz-adv-x="765" unicode="&#270;" /><glyph d="M313 519 190 18H230Q274 18 314 41.5Q354 65 384.5 108.5Q415 152 433 213Q451 274 451 349Q451 440 421 479.5Q391 519 334 519ZM-32 10Q-20 11 -8 15Q4 19 14.5 28.5Q25 38 34 53.5Q43 69 49 94L134 444Q145 489 132.5 507Q120 525 94 527L97 537H371Q435 537 482 517.5Q529 498 559.5 466Q590 434 604.5 393Q619 352 619 309Q619 241 588.5 184Q558 127 507 86Q456 45 389 22.5Q322 0 250 0H-35ZM409 688 575 743H589L445 613H350L272 743H288Z" glyph-name="Dcaron.smcp" horiz-adv-x="639" /><glyph d="M288 21Q350 21 402.5 55Q455 89 493.5 147.5Q532 206 553.5 284Q575 362 575 450Q575 510 563.5 553.5Q552 597 531.5 624.5Q511 652 483 665.5Q455 679 421 679H381L310 385H411L406 364H305L223 21ZM-35 0 -32 10Q-17 11 -2 16.5Q13 22 26.5 33.5Q40 45 51 64Q62 83 69 113L129 364H52L57 385H134L183 588Q189 617 187 636Q185 655 177.5 666.5Q170 678 157.5 683Q145 688 130 690L133 700H468Q541 700 597 676.5Q653 653 690.5 613.5Q728 574 747 521.5Q766 469 766 411Q766 324 729.5 249Q693 174 630 118.5Q567 63 482.5 31.5Q398 0 303 0Z" glyph-name="Dcroat" horiz-adv-x="765" unicode="&#272;" /><glyph d="M230 18Q274 18 314 41.5Q354 65 384.5 108.5Q415 152 433 213Q451 274 451 349Q451 440 421 479.5Q391 519 334 519H313L256 287H339L334 268H251L190 18ZM-35 0 -32 10Q-20 11 -8 15Q4 19 14.5 28.5Q25 38 34 53.5Q43 69 49 94L91 268H27L32 287H96L134 444Q145 489 132.5 507Q120 525 94 527L97 537H371Q435 537 482 517.5Q529 498 559.5 466Q590 434 604.5 393Q619 352 619 309Q619 241 588.5 184Q558 127 507 86Q456 45 389 22.5Q322 0 250 0Z" glyph-name="Dcroat.smcp" horiz-adv-x="639" /><glyph d="M554 0H-35L-32 10Q-17 11 -2 16Q13 21 26 32Q39 43 50 61.5Q61 80 68 110L182 584Q189 614 187 633.5Q185 653 177.5 665Q170 677 157.5 682.5Q145 688 131 690L134 700H682L667 514H652Q620 595 561 637Q502 679 433 679H380L309 380H355Q385 380 414 389.5Q443 399 469 416Q495 433 515 456.5Q535 480 547 507H560L497 228H483Q485 255 475.5 279Q466 303 448 321Q430 339 405 349Q380 359 350 359H304L223 21H285Q320 21 363.5 34Q407 47 451.5 72Q496 97 536 134.5Q576 172 605 220H622Z" glyph-name="E" horiz-adv-x="654" unicode="E" /><glyph d="M443 0H-34L-31 10Q-7 12 14.5 27.5Q36 43 48 91L133 439Q145 486 133.5 505Q122 524 94 527L97 537H541L527 389H515Q482 458 434.5 488.5Q387 519 333 519H313L258 295H281Q325 295 365 322Q405 349 434 395H444L392 170H381Q381 191 373 210Q365 229 351.5 244Q338 259 319 268Q300 277 276 277H254L190 18H239Q267 18 300 27.5Q333 37 365.5 56.5Q398 76 428.5 105.5Q459 135 484 174H498Z" glyph-name="E.smcp" horiz-adv-x="539" /><glyph d="M551 89Q444 -119 250 -119Q195 -119 149 -102.5Q103 -86 70 -56.5Q37 -27 18.5 14Q0 55 0 105Q0 147 13 186.5Q26 226 50.5 261Q75 296 110.5 325Q146 354 190 374Q175 397 166.5 425Q158 453 158 485Q158 533 178 576Q198 619 233.5 650.5Q269 682 318 700.5Q367 719 426 719Q498 719 542.5 689Q587 659 587 600Q587 576 579 555Q571 534 556.5 518.5Q542 503 522 494Q502 485 479 485Q447 485 428 503Q409 521 409 548Q409 574 425 590Q441 606 464 606Q477 606 487.5 602Q498 598 507 592.5Q516 587 524 583Q532 579 541 579Q552 579 558.5 586Q565 593 565 609Q565 628 556 644.5Q547 661 531 673Q515 685 494.5 691.5Q474 698 451 698Q415 698 385.5 682Q356 666 335 639Q314 612 303 575.5Q292 539 292 498Q292 471 297 448Q302 425 310 407Q337 410 366 410Q419 410 441 395Q463 380 463 356Q463 327 435 303.5Q407 280 356 280Q320 280 286 293.5Q252 307 225 332Q195 303 179 263.5Q163 224 163 178Q163 93 212 45Q261 -3 342 -3Q399 -3 450 22Q501 47 536 98ZM401 334Q419 334 430.5 341.5Q442 349 442 360Q442 373 426 381.5Q410 390 381 390Q350 390 322 384Q338 359 359 346.5Q380 334 401 334Z" glyph-name="E.swsh" horiz-adv-x="580" /><glyph d="M554 0H-35L-32 10Q-17 11 -2 16Q13 21 26 32Q39 43 50 61.5Q61 80 68 110L182 584Q189 614 187 633.5Q185 653 177.5 665Q170 677 157.5 682.5Q145 688 131 690L134 700H682L667 514H652Q620 595 561 637Q502 679 433 679H380L309 380H355Q385 380 414 389.5Q443 399 469 416Q495 433 515 456.5Q535 480 547 507H560L497 228H483Q485 255 475.5 279Q466 303 448 321Q430 339 405 349Q380 359 350 359H304L223 21H285Q320 21 363.5 34Q407 47 451.5 72Q496 97 536 134.5Q576 172 605 220H622ZM515 898Q539 922 567 922Q590 922 604 907.5Q618 893 618 872Q618 853 605 836Q592 819 561 811L407 771H396Z" glyph-name="Eacute" horiz-adv-x="654" unicode="&#201;" /><glyph d="M443 0H-34L-31 10Q-7 12 14.5 27.5Q36 43 48 91L133 439Q145 486 133.5 505Q122 524 94 527L97 537H541L527 389H515Q482 458 434.5 488.5Q387 519 333 519H313L258 295H281Q325 295 365 322Q405 349 434 395H444L392 170H381Q381 191 373 210Q365 229 351.5 244Q338 259 319 268Q300 277 276 277H254L190 18H239Q267 18 300 27.5Q333 37 365.5 56.5Q398 76 428.5 105.5Q459 135 484 174H498ZM413 735Q437 759 465 759Q488 759 502 744.5Q516 730 516 709Q516 690 503 673Q490 656 459 648L305 608H294Z" glyph-name="Eacute.smcp" horiz-adv-x="539" /><glyph d="M551 89Q444 -119 250 -119Q195 -119 149 -102.5Q103 -86 70 -56.5Q37 -27 18.5 14Q0 55 0 105Q0 147 13 186.5Q26 226 50.5 261Q75 296 110.5 325Q146 354 190 374Q175 397 166.5 425Q158 453 158 485Q158 533 178 576Q198 619 233.5 650.5Q269 682 318 700.5Q367 719 426 719Q498 719 542.5 689Q587 659 587 600Q587 576 579 555Q571 534 556.5 518.5Q542 503 522 494Q502 485 479 485Q447 485 428 503Q409 521 409 548Q409 574 425 590Q441 606 464 606Q477 606 487.5 602Q498 598 507 592.5Q516 587 524 583Q532 579 541 579Q552 579 558.5 586Q565 593 565 609Q565 628 556 644.5Q547 661 531 673Q515 685 494.5 691.5Q474 698 451 698Q415 698 385.5 682Q356 666 335 639Q314 612 303 575.5Q292 539 292 498Q292 471 297 448Q302 425 310 407Q337 410 366 410Q419 410 441 395Q463 380 463 356Q463 327 435 303.5Q407 280 356 280Q320 280 286 293.5Q252 307 225 332Q195 303 179 263.5Q163 224 163 178Q163 93 212 45Q261 -3 342 -3Q399 -3 450 22Q501 47 536 98ZM401 334Q419 334 430.5 341.5Q442 349 442 360Q442 373 426 381.5Q410 390 381 390Q350 390 322 384Q338 359 359 346.5Q380 334 401 334ZM534 898Q558 922 586 922Q609 922 623 907.5Q637 893 637 872Q637 853 624 836Q611 819 580 811L426 771H415Z" glyph-name="Eacute.swsh" horiz-adv-x="580" /><glyph d="M554 0H-35L-32 10Q-17 11 -2 16Q13 21 26 32Q39 43 50 61.5Q61 80 68 110L182 584Q189 614 187 633.5Q185 653 177.5 665Q170 677 157.5 682.5Q145 688 131 690L134 700H682L667 514H652Q620 595 561 637Q502 679 433 679H380L309 380H355Q385 380 414 389.5Q443 399 469 416Q495 433 515 456.5Q535 480 547 507H560L497 228H483Q485 255 475.5 279Q466 303 448 321Q430 339 405 349Q380 359 350 359H304L223 21H285Q320 21 363.5 34Q407 47 451.5 72Q496 97 536 134.5Q576 172 605 220H622ZM471 779Q441 779 416 787Q391 795 373 812Q355 829 346.5 854.5Q338 880 341 915H355Q360 888 388.5 872Q417 856 474 856Q533 856 566 873Q599 890 609 915H623Q620 881 607 855.5Q594 830 573 813Q552 796 525.5 787.5Q499 779 471 779Z" glyph-name="Ebreve" horiz-adv-x="654" unicode="&#276;" /><glyph d="M443 0H-34L-31 10Q-7 12 14.5 27.5Q36 43 48 91L133 439Q145 486 133.5 505Q122 524 94 527L97 537H541L527 389H515Q482 458 434.5 488.5Q387 519 333 519H313L258 295H281Q325 295 365 322Q405 349 434 395H444L392 170H381Q381 191 373 210Q365 229 351.5 244Q338 259 319 268Q300 277 276 277H254L190 18H239Q267 18 300 27.5Q333 37 365.5 56.5Q398 76 428.5 105.5Q459 135 484 174H498ZM368 616Q338 616 313 624Q288 632 270 649Q252 666 243.5 691.5Q235 717 238 752H252Q257 725 285.5 709Q314 693 371 693Q430 693 463 710Q496 727 506 752H520Q517 718 504 692.5Q491 667 470 650Q449 633 422.5 624.5Q396 616 368 616Z" glyph-name="Ebreve.smcp" horiz-adv-x="539" /><glyph d="M551 89Q444 -119 250 -119Q195 -119 149 -102.5Q103 -86 70 -56.5Q37 -27 18.5 14Q0 55 0 105Q0 147 13 186.5Q26 226 50.5 261Q75 296 110.5 325Q146 354 190 374Q175 397 166.5 425Q158 453 158 485Q158 533 178 576Q198 619 233.5 650.5Q269 682 318 700.5Q367 719 426 719Q498 719 542.5 689Q587 659 587 600Q587 576 579 555Q571 534 556.5 518.5Q542 503 522 494Q502 485 479 485Q447 485 428 503Q409 521 409 548Q409 574 425 590Q441 606 464 606Q477 606 487.5 602Q498 598 507 592.5Q516 587 524 583Q532 579 541 579Q552 579 558.5 586Q565 593 565 609Q565 628 556 644.5Q547 661 531 673Q515 685 494.5 691.5Q474 698 451 698Q415 698 385.5 682Q356 666 335 639Q314 612 303 575.5Q292 539 292 498Q292 471 297 448Q302 425 310 407Q337 410 366 410Q419 410 441 395Q463 380 463 356Q463 327 435 303.5Q407 280 356 280Q320 280 286 293.5Q252 307 225 332Q195 303 179 263.5Q163 224 163 178Q163 93 212 45Q261 -3 342 -3Q399 -3 450 22Q501 47 536 98ZM401 334Q419 334 430.5 341.5Q442 349 442 360Q442 373 426 381.5Q410 390 381 390Q350 390 322 384Q338 359 359 346.5Q380 334 401 334ZM489 779Q459 779 434 787Q409 795 391 812Q373 829 364.5 854.5Q356 880 359 915H373Q378 888 406.5 872Q435 856 492 856Q551 856 584 873Q617 890 627 915H641Q638 881 625 855.5Q612 830 591 813Q570 796 543.5 787.5Q517 779 489 779Z" glyph-name="Ebreve.swsh" horiz-adv-x="580" /><glyph d="M554 0H-35L-32 10Q-17 11 -2 16Q13 21 26 32Q39 43 50 61.5Q61 80 68 110L182 584Q189 614 187 633.5Q185 653 177.5 665Q170 677 157.5 682.5Q145 688 131 690L134 700H682L667 514H652Q620 595 561 637Q502 679 433 679H380L309 380H355Q385 380 414 389.5Q443 399 469 416Q495 433 515 456.5Q535 480 547 507H560L497 228H483Q485 255 475.5 279Q466 303 448 321Q430 339 405 349Q380 359 350 359H304L223 21H285Q320 21 363.5 34Q407 47 451.5 72Q496 97 536 134.5Q576 172 605 220H622ZM473 851 639 906H653L509 776H414L336 906H352Z" glyph-name="Ecaron" horiz-adv-x="654" unicode="&#282;" /><glyph d="M443 0H-34L-31 10Q-7 12 14.5 27.5Q36 43 48 91L133 439Q145 486 133.5 505Q122 524 94 527L97 537H541L527 389H515Q482 458 434.5 488.5Q387 519 333 519H313L258 295H281Q325 295 365 322Q405 349 434 395H444L392 170H381Q381 191 373 210Q365 229 351.5 244Q338 259 319 268Q300 277 276 277H254L190 18H239Q267 18 300 27.5Q333 37 365.5 56.5Q398 76 428.5 105.5Q459 135 484 174H498ZM370 688 536 743H550L406 613H311L233 743H249Z" glyph-name="Ecaron.smcp" horiz-adv-x="539" /><glyph d="M551 89Q444 -119 250 -119Q195 -119 149 -102.5Q103 -86 70 -56.5Q37 -27 18.5 14Q0 55 0 105Q0 147 13 186.5Q26 226 50.5 261Q75 296 110.5 325Q146 354 190 374Q175 397 166.5 425Q158 453 158 485Q158 533 178 576Q198 619 233.5 650.5Q269 682 318 700.5Q367 719 426 719Q498 719 542.5 689Q587 659 587 600Q587 576 579 555Q571 534 556.5 518.5Q542 503 522 494Q502 485 479 485Q447 485 428 503Q409 521 409 548Q409 574 425 590Q441 606 464 606Q477 606 487.5 602Q498 598 507 592.5Q516 587 524 583Q532 579 541 579Q552 579 558.5 586Q565 593 565 609Q565 628 556 644.5Q547 661 531 673Q515 685 494.5 691.5Q474 698 451 698Q415 698 385.5 682Q356 666 335 639Q314 612 303 575.5Q292 539 292 498Q292 471 297 448Q302 425 310 407Q337 410 366 410Q419 410 441 395Q463 380 463 356Q463 327 435 303.5Q407 280 356 280Q320 280 286 293.5Q252 307 225 332Q195 303 179 263.5Q163 224 163 178Q163 93 212 45Q261 -3 342 -3Q399 -3 450 22Q501 47 536 98ZM401 334Q419 334 430.5 341.5Q442 349 442 360Q442 373 426 381.5Q410 390 381 390Q350 390 322 384Q338 359 359 346.5Q380 334 401 334ZM491 851 657 906H671L527 776H432L354 906H370Z" glyph-name="Ecaron.swsh" horiz-adv-x="580" /><glyph d="M554 0H-35L-32 10Q-17 11 -2 16Q13 21 26 32Q39 43 50 61.5Q61 80 68 110L182 584Q189 614 187 633.5Q185 653 177.5 665Q170 677 157.5 682.5Q145 688 131 690L134 700H682L667 514H652Q620 595 561 637Q502 679 433 679H380L309 380H355Q385 380 414 389.5Q443 399 469 416Q495 433 515 456.5Q535 480 547 507H560L497 228H483Q485 255 475.5 279Q466 303 448 321Q430 339 405 349Q380 359 350 359H304L223 21H285Q320 21 363.5 34Q407 47 451.5 72Q496 97 536 134.5Q576 172 605 220H622ZM483 832 317 776H303L447 906H542L620 776H603Z" glyph-name="Ecircumflex" horiz-adv-x="654" unicode="&#202;" /><glyph d="M443 0H-34L-31 10Q-7 12 14.5 27.5Q36 43 48 91L133 439Q145 486 133.5 505Q122 524 94 527L97 537H541L527 389H515Q482 458 434.5 488.5Q387 519 333 519H313L258 295H281Q325 295 365 322Q405 349 434 395H444L392 170H381Q381 191 373 210Q365 229 351.5 244Q338 259 319 268Q300 277 276 277H254L190 18H239Q267 18 300 27.5Q333 37 365.5 56.5Q398 76 428.5 105.5Q459 135 484 174H498ZM380 669 214 613H200L344 743H439L517 613H500Z" glyph-name="Ecircumflex.smcp" horiz-adv-x="539" /><glyph d="M551 89Q444 -119 250 -119Q195 -119 149 -102.5Q103 -86 70 -56.5Q37 -27 18.5 14Q0 55 0 105Q0 147 13 186.5Q26 226 50.5 261Q75 296 110.5 325Q146 354 190 374Q175 397 166.5 425Q158 453 158 485Q158 533 178 576Q198 619 233.5 650.5Q269 682 318 700.5Q367 719 426 719Q498 719 542.5 689Q587 659 587 600Q587 576 579 555Q571 534 556.5 518.5Q542 503 522 494Q502 485 479 485Q447 485 428 503Q409 521 409 548Q409 574 425 590Q441 606 464 606Q477 606 487.5 602Q498 598 507 592.5Q516 587 524 583Q532 579 541 579Q552 579 558.5 586Q565 593 565 609Q565 628 556 644.5Q547 661 531 673Q515 685 494.5 691.5Q474 698 451 698Q415 698 385.5 682Q356 666 335 639Q314 612 303 575.5Q292 539 292 498Q292 471 297 448Q302 425 310 407Q337 410 366 410Q419 410 441 395Q463 380 463 356Q463 327 435 303.5Q407 280 356 280Q320 280 286 293.5Q252 307 225 332Q195 303 179 263.5Q163 224 163 178Q163 93 212 45Q261 -3 342 -3Q399 -3 450 22Q501 47 536 98ZM401 334Q419 334 430.5 341.5Q442 349 442 360Q442 373 426 381.5Q410 390 381 390Q350 390 322 384Q338 359 359 346.5Q380 334 401 334ZM501 832 335 776H321L465 906H560L638 776H621Z" glyph-name="Ecircumflex.swsh" horiz-adv-x="580" /><glyph d="M554 0H-35L-32 10Q-17 11 -2 16Q13 21 26 32Q39 43 50 61.5Q61 80 68 110L182 584Q189 614 187 633.5Q185 653 177.5 665Q170 677 157.5 682.5Q145 688 131 690L134 700H682L667 514H652Q620 595 561 637Q502 679 433 679H380L309 380H355Q385 380 414 389.5Q443 399 469 416Q495 433 515 456.5Q535 480 547 507H560L497 228H483Q485 255 475.5 279Q466 303 448 321Q430 339 405 349Q380 359 350 359H304L223 21H285Q320 21 363.5 34Q407 47 451.5 72Q496 97 536 134.5Q576 172 605 220H622ZM498 858Q498 875 505 890Q512 905 523 916Q534 927 549 933.5Q564 940 581 940Q614 940 637.5 917Q661 894 661 861Q661 844 654 829Q647 814 636 803Q625 792 609.5 785.5Q594 779 578 779Q545 779 521.5 802Q498 825 498 858ZM294 858Q294 875 301 890Q308 905 319 916Q330 927 345 933.5Q360 940 377 940Q410 940 433.5 917Q457 894 457 861Q457 844 450 829Q443 814 432 803Q421 792 405.5 785.5Q390 779 374 779Q341 779 317.5 802Q294 825 294 858Z" glyph-name="Edieresis" horiz-adv-x="654" unicode="&#203;" /><glyph d="M443 0H-34L-31 10Q-7 12 14.5 27.5Q36 43 48 91L133 439Q145 486 133.5 505Q122 524 94 527L97 537H541L527 389H515Q482 458 434.5 488.5Q387 519 333 519H313L258 295H281Q325 295 365 322Q405 349 434 395H444L392 170H381Q381 191 373 210Q365 229 351.5 244Q338 259 319 268Q300 277 276 277H254L190 18H239Q267 18 300 27.5Q333 37 365.5 56.5Q398 76 428.5 105.5Q459 135 484 174H498ZM395 695Q395 712 402 727Q409 742 420 753Q431 764 446 770.5Q461 777 478 777Q511 777 534.5 754Q558 731 558 698Q558 681 551 666Q544 651 533 640Q522 629 506.5 622.5Q491 616 475 616Q442 616 418.5 639Q395 662 395 695ZM191 695Q191 712 198 727Q205 742 216 753Q227 764 242 770.5Q257 777 274 777Q307 777 330.5 754Q354 731 354 698Q354 681 347 666Q340 651 329 640Q318 629 302.5 622.5Q287 616 271 616Q238 616 214.5 639Q191 662 191 695Z" glyph-name="Edieresis.smcp" horiz-adv-x="539" /><glyph d="M551 89Q444 -119 250 -119Q195 -119 149 -102.5Q103 -86 70 -56.5Q37 -27 18.5 14Q0 55 0 105Q0 147 13 186.5Q26 226 50.5 261Q75 296 110.5 325Q146 354 190 374Q175 397 166.5 425Q158 453 158 485Q158 533 178 576Q198 619 233.5 650.5Q269 682 318 700.5Q367 719 426 719Q498 719 542.5 689Q587 659 587 600Q587 576 579 555Q571 534 556.5 518.5Q542 503 522 494Q502 485 479 485Q447 485 428 503Q409 521 409 548Q409 574 425 590Q441 606 464 606Q477 606 487.5 602Q498 598 507 592.5Q516 587 524 583Q532 579 541 579Q552 579 558.5 586Q565 593 565 609Q565 628 556 644.5Q547 661 531 673Q515 685 494.5 691.5Q474 698 451 698Q415 698 385.5 682Q356 666 335 639Q314 612 303 575.5Q292 539 292 498Q292 471 297 448Q302 425 310 407Q337 410 366 410Q419 410 441 395Q463 380 463 356Q463 327 435 303.5Q407 280 356 280Q320 280 286 293.5Q252 307 225 332Q195 303 179 263.5Q163 224 163 178Q163 93 212 45Q261 -3 342 -3Q399 -3 450 22Q501 47 536 98ZM401 334Q419 334 430.5 341.5Q442 349 442 360Q442 373 426 381.5Q410 390 381 390Q350 390 322 384Q338 359 359 346.5Q380 334 401 334ZM516 858Q516 875 523 890Q530 905 541 916Q552 927 567 933.5Q582 940 599 940Q632 940 655.5 917Q679 894 679 861Q679 844 672 829Q665 814 654 803Q643 792 627.5 785.5Q612 779 596 779Q563 779 539.5 802Q516 825 516 858ZM312 858Q312 875 319 890Q326 905 337 916Q348 927 363 933.5Q378 940 395 940Q428 940 451.5 917Q475 894 475 861Q475 844 468 829Q461 814 450 803Q439 792 423.5 785.5Q408 779 392 779Q359 779 335.5 802Q312 825 312 858Z" glyph-name="Edieresis.swsh" horiz-adv-x="580" /><glyph d="M554 0H-35L-32 10Q-17 11 -2 16Q13 21 26 32Q39 43 50 61.5Q61 80 68 110L182 584Q189 614 187 633.5Q185 653 177.5 665Q170 677 157.5 682.5Q145 688 131 690L134 700H682L667 514H652Q620 595 561 637Q502 679 433 679H380L309 380H355Q385 380 414 389.5Q443 399 469 416Q495 433 515 456.5Q535 480 547 507H560L497 228H483Q485 255 475.5 279Q466 303 448 321Q430 339 405 349Q380 359 350 359H304L223 21H285Q320 21 363.5 34Q407 47 451.5 72Q496 97 536 134.5Q576 172 605 220H622ZM394 855Q394 872 401 887Q408 902 419 913Q430 924 445 930.5Q460 937 477 937Q510 937 533.5 914Q557 891 557 858Q557 841 550 826Q543 811 532 800Q521 789 505.5 782.5Q490 776 474 776Q441 776 417.5 799Q394 822 394 855Z" glyph-name="Edotaccent" horiz-adv-x="654" unicode="&#278;" /><glyph d="M443 0H-34L-31 10Q-7 12 14.5 27.5Q36 43 48 91L133 439Q145 486 133.5 505Q122 524 94 527L97 537H541L527 389H515Q482 458 434.5 488.5Q387 519 333 519H313L258 295H281Q325 295 365 322Q405 349 434 395H444L392 170H381Q381 191 373 210Q365 229 351.5 244Q338 259 319 268Q300 277 276 277H254L190 18H239Q267 18 300 27.5Q333 37 365.5 56.5Q398 76 428.5 105.5Q459 135 484 174H498ZM291 692Q291 709 298 724Q305 739 316 750Q327 761 342 767.5Q357 774 374 774Q407 774 430.5 751Q454 728 454 695Q454 678 447 663Q440 648 429 637Q418 626 402.5 619.5Q387 613 371 613Q338 613 314.5 636Q291 659 291 692Z" glyph-name="Edotaccent.smcp" horiz-adv-x="539" /><glyph d="M551 89Q444 -119 250 -119Q195 -119 149 -102.5Q103 -86 70 -56.5Q37 -27 18.5 14Q0 55 0 105Q0 147 13 186.5Q26 226 50.5 261Q75 296 110.5 325Q146 354 190 374Q175 397 166.5 425Q158 453 158 485Q158 533 178 576Q198 619 233.5 650.5Q269 682 318 700.5Q367 719 426 719Q498 719 542.5 689Q587 659 587 600Q587 576 579 555Q571 534 556.5 518.5Q542 503 522 494Q502 485 479 485Q447 485 428 503Q409 521 409 548Q409 574 425 590Q441 606 464 606Q477 606 487.5 602Q498 598 507 592.5Q516 587 524 583Q532 579 541 579Q552 579 558.5 586Q565 593 565 609Q565 628 556 644.5Q547 661 531 673Q515 685 494.5 691.5Q474 698 451 698Q415 698 385.5 682Q356 666 335 639Q314 612 303 575.5Q292 539 292 498Q292 471 297 448Q302 425 310 407Q337 410 366 410Q419 410 441 395Q463 380 463 356Q463 327 435 303.5Q407 280 356 280Q320 280 286 293.5Q252 307 225 332Q195 303 179 263.5Q163 224 163 178Q163 93 212 45Q261 -3 342 -3Q399 -3 450 22Q501 47 536 98ZM401 334Q419 334 430.5 341.5Q442 349 442 360Q442 373 426 381.5Q410 390 381 390Q350 390 322 384Q338 359 359 346.5Q380 334 401 334ZM412 855Q412 872 419 887Q426 902 437 913Q448 924 463 930.5Q478 937 495 937Q528 937 551.5 914Q575 891 575 858Q575 841 568 826Q561 811 550 800Q539 789 523.5 782.5Q508 776 492 776Q459 776 435.5 799Q412 822 412 855Z" glyph-name="Edotaccent.swsh" horiz-adv-x="580" /><glyph d="M554 0H-35L-32 10Q-17 11 -2 16Q13 21 26 32Q39 43 50 61.5Q61 80 68 110L182 584Q189 614 187 633.5Q185 653 177.5 665Q170 677 157.5 682.5Q145 688 131 690L134 700H682L667 514H652Q620 595 561 637Q502 679 433 679H380L309 380H355Q385 380 414 389.5Q443 399 469 416Q495 433 515 456.5Q535 480 547 507H560L497 228H483Q485 255 475.5 279Q466 303 448 321Q430 339 405 349Q380 359 350 359H304L223 21H285Q320 21 363.5 34Q407 47 451.5 72Q496 97 536 134.5Q576 172 605 220H622ZM509 771 356 811Q325 819 312 836Q299 853 299 872Q299 893 313 907.5Q327 922 350 922Q378 922 402 898L521 771Z" glyph-name="Egrave" horiz-adv-x="654" unicode="&#200;" /><glyph d="M443 0H-34L-31 10Q-7 12 14.5 27.5Q36 43 48 91L133 439Q145 486 133.5 505Q122 524 94 527L97 537H541L527 389H515Q482 458 434.5 488.5Q387 519 333 519H313L258 295H281Q325 295 365 322Q405 349 434 395H444L392 170H381Q381 191 373 210Q365 229 351.5 244Q338 259 319 268Q300 277 276 277H254L190 18H239Q267 18 300 27.5Q333 37 365.5 56.5Q398 76 428.5 105.5Q459 135 484 174H498ZM407 608 254 648Q223 656 210 673Q197 690 197 709Q197 730 211 744.5Q225 759 248 759Q276 759 300 735L419 608Z" glyph-name="Egrave.smcp" horiz-adv-x="539" /><glyph d="M551 89Q444 -119 250 -119Q195 -119 149 -102.5Q103 -86 70 -56.5Q37 -27 18.5 14Q0 55 0 105Q0 147 13 186.5Q26 226 50.5 261Q75 296 110.5 325Q146 354 190 374Q175 397 166.5 425Q158 453 158 485Q158 533 178 576Q198 619 233.5 650.5Q269 682 318 700.5Q367 719 426 719Q498 719 542.5 689Q587 659 587 600Q587 576 579 555Q571 534 556.5 518.5Q542 503 522 494Q502 485 479 485Q447 485 428 503Q409 521 409 548Q409 574 425 590Q441 606 464 606Q477 606 487.5 602Q498 598 507 592.5Q516 587 524 583Q532 579 541 579Q552 579 558.5 586Q565 593 565 609Q565 628 556 644.5Q547 661 531 673Q515 685 494.5 691.5Q474 698 451 698Q415 698 385.5 682Q356 666 335 639Q314 612 303 575.5Q292 539 292 498Q292 471 297 448Q302 425 310 407Q337 410 366 410Q419 410 441 395Q463 380 463 356Q463 327 435 303.5Q407 280 356 280Q320 280 286 293.5Q252 307 225 332Q195 303 179 263.5Q163 224 163 178Q163 93 212 45Q261 -3 342 -3Q399 -3 450 22Q501 47 536 98ZM401 334Q419 334 430.5 341.5Q442 349 442 360Q442 373 426 381.5Q410 390 381 390Q350 390 322 384Q338 359 359 346.5Q380 334 401 334ZM528 771 375 811Q344 819 331 836Q318 853 318 872Q318 893 332 907.5Q346 922 369 922Q397 922 421 898L540 771Z" glyph-name="Egrave.swsh" horiz-adv-x="580" /><glyph d="M554 0H-35L-32 10Q-17 11 -2 16Q13 21 26 32Q39 43 50 61.5Q61 80 68 110L182 584Q189 614 187 633.5Q185 653 177.5 665Q170 677 157.5 682.5Q145 688 131 690L134 700H682L667 514H652Q620 595 561 637Q502 679 433 679H380L309 380H355Q385 380 414 389.5Q443 399 469 416Q495 433 515 456.5Q535 480 547 507H560L497 228H483Q485 255 475.5 279Q466 303 448 321Q430 339 405 349Q380 359 350 359H304L223 21H285Q320 21 363.5 34Q407 47 451.5 72Q496 97 536 134.5Q576 172 605 220H622ZM615 845 609 814H336L342 845Z" glyph-name="Emacron" horiz-adv-x="654" unicode="&#274;" /><glyph d="M443 0H-34L-31 10Q-7 12 14.5 27.5Q36 43 48 91L133 439Q145 486 133.5 505Q122 524 94 527L97 537H541L527 389H515Q482 458 434.5 488.5Q387 519 333 519H313L258 295H281Q325 295 365 322Q405 349 434 395H444L392 170H381Q381 191 373 210Q365 229 351.5 244Q338 259 319 268Q300 277 276 277H254L190 18H239Q267 18 300 27.5Q333 37 365.5 56.5Q398 76 428.5 105.5Q459 135 484 174H498ZM512 682 506 651H233L239 682Z" glyph-name="Emacron.smcp" horiz-adv-x="539" /><glyph d="M551 89Q444 -119 250 -119Q195 -119 149 -102.5Q103 -86 70 -56.5Q37 -27 18.5 14Q0 55 0 105Q0 147 13 186.5Q26 226 50.5 261Q75 296 110.5 325Q146 354 190 374Q175 397 166.5 425Q158 453 158 485Q158 533 178 576Q198 619 233.5 650.5Q269 682 318 700.5Q367 719 426 719Q498 719 542.5 689Q587 659 587 600Q587 576 579 555Q571 534 556.5 518.5Q542 503 522 494Q502 485 479 485Q447 485 428 503Q409 521 409 548Q409 574 425 590Q441 606 464 606Q477 606 487.5 602Q498 598 507 592.5Q516 587 524 583Q532 579 541 579Q552 579 558.5 586Q565 593 565 609Q565 628 556 644.5Q547 661 531 673Q515 685 494.5 691.5Q474 698 451 698Q415 698 385.5 682Q356 666 335 639Q314 612 303 575.5Q292 539 292 498Q292 471 297 448Q302 425 310 407Q337 410 366 410Q419 410 441 395Q463 380 463 356Q463 327 435 303.5Q407 280 356 280Q320 280 286 293.5Q252 307 225 332Q195 303 179 263.5Q163 224 163 178Q163 93 212 45Q261 -3 342 -3Q399 -3 450 22Q501 47 536 98ZM401 334Q419 334 430.5 341.5Q442 349 442 360Q442 373 426 381.5Q410 390 381 390Q350 390 322 384Q338 359 359 346.5Q380 334 401 334ZM633 845 627 814H354L360 845Z" glyph-name="Emacron.swsh" horiz-adv-x="580" /><glyph d="M332 -239Q285 -239 264 -221Q243 -203 243 -175Q243 -150 260 -131.5Q277 -113 304 -113Q328 -113 342 -126Q356 -139 365 -155Q374 -171 381.5 -184Q389 -197 400 -197Q416 -197 434.5 -187.5Q453 -178 471.5 -157Q490 -136 508.5 -103Q527 -70 543 -22L227 569L144 223Q120 125 143.5 69Q167 13 226 10L223 0H-49L-46 10Q-23 11 -0.5 22Q22 33 43 58Q64 83 82.5 124Q101 165 116 226L188 515Q196 547 196.5 578Q197 609 188 633.5Q179 658 160.5 673Q142 688 114 690L117 700H377L610 258L667 497Q687 581 670 631.5Q653 682 592 690L595 700H852L849 690Q793 687 755 634Q717 581 694 492L575 7Q546 -110 487 -174.5Q428 -239 332 -239Z" glyph-name="Eng" horiz-adv-x="743" unicode="&#330;" /><glyph d="M268 -185Q224 -185 204 -167Q184 -149 184 -129Q184 -107 198 -93Q212 -79 236 -79Q257 -79 268 -90Q279 -101 286.5 -114Q294 -127 302.5 -138Q311 -149 327 -149Q353 -149 382.5 -118.5Q412 -88 436 -17L173 404L118 197Q105 147 105.5 112.5Q106 78 116 55.5Q126 33 144 22Q162 11 183 10L180 0H-45L-42 10Q-5 11 30.5 50Q66 89 90 181L141 377Q149 407 147.5 434.5Q146 462 137 482Q128 502 113 514.5Q98 527 79 527L82 537H300L497 222L535 374Q570 512 474 527L477 537H687L684 527Q660 525 640.5 512Q621 499 605 478Q589 457 577 430Q565 403 558 373L464 5Q441 -86 393 -135.5Q345 -185 268 -185Z" glyph-name="Eng.smcp" horiz-adv-x="616" /><glyph d="M498 -203Q481 -217 455.5 -231Q430 -245 400 -245Q358 -245 338 -221Q318 -197 318 -164Q318 -138 328 -113Q338 -88 357 -66.5Q376 -45 402 -28Q428 -11 460 0H-35L-32 10Q-17 11 -2 16Q13 21 26 32Q39 43 50 61.5Q61 80 68 110L182 584Q189 614 187 633.5Q185 653 177.5 665Q170 677 157.5 682.5Q145 688 131 690L134 700H682L667 514H652Q620 595 561 637Q502 679 433 679H380L309 380H355Q385 380 414 389.5Q443 399 469 416Q495 433 515 456.5Q535 480 547 507H560L497 228H483Q485 255 475.5 279Q466 303 448 321Q430 339 405 349Q380 359 350 359H304L223 21H285Q320 21 363.5 34Q407 47 451.5 72Q496 97 536 134.5Q576 172 605 220H622L554 0H499Q483 -4 467 -15.5Q451 -27 438 -45Q425 -63 417 -87.5Q409 -112 409 -140Q409 -174 420.5 -188.5Q432 -203 455 -203Q461 -203 470 -202Q479 -201 493 -195Z" glyph-name="Eogonek" horiz-adv-x="654" unicode="&#280;" /><glyph d="M384 -203Q367 -217 341.5 -231Q316 -245 286 -245Q244 -245 224 -221Q204 -197 204 -164Q204 -138 214 -113Q224 -88 243 -66.5Q262 -45 288 -28Q314 -11 346 0H-34L-31 10Q-7 12 14.5 27.5Q36 43 48 91L133 439Q145 486 133.5 505Q122 524 94 527L97 537H541L527 389H515Q482 458 434.5 488.5Q387 519 333 519H313L258 295H281Q325 295 365 322Q405 349 434 395H444L392 170H381Q381 191 373 210Q365 229 351.5 244Q338 259 319 268Q300 277 276 277H254L190 18H239Q267 18 300 27.5Q333 37 365.5 56.5Q398 76 428.5 105.5Q459 135 484 174H498L443 0H385Q369 -4 353 -15.5Q337 -27 324 -45Q311 -63 303 -87.5Q295 -112 295 -140Q295 -174 306.5 -188.5Q318 -203 341 -203Q347 -203 356 -202Q365 -201 379 -195Z" glyph-name="Eogonek.smcp" horiz-adv-x="539" /><glyph d="M386 -288Q369 -302 343.5 -316Q318 -330 288 -330Q246 -330 226 -306Q206 -282 206 -249Q206 -212 226.5 -177.5Q247 -143 283 -117Q275 -118 266.5 -118.5Q258 -119 250 -119Q195 -119 149 -102.5Q103 -86 70 -56.5Q37 -27 18.5 14Q0 55 0 105Q0 147 13 186.5Q26 226 50.5 261Q75 296 110.5 325Q146 354 190 374Q175 397 166.5 425Q158 453 158 485Q158 533 178 576Q198 619 233.5 650.5Q269 682 318 700.5Q367 719 426 719Q498 719 542.5 689Q587 659 587 600Q587 576 579 555Q571 534 556.5 518.5Q542 503 522 494Q502 485 479 485Q447 485 428 503Q409 521 409 548Q409 574 425 590Q441 606 464 606Q477 606 487.5 602Q498 598 507 592.5Q516 587 524 583Q532 579 541 579Q552 579 558.5 586Q565 593 565 609Q565 628 556 644.5Q547 661 531 673Q515 685 494.5 691.5Q474 698 451 698Q415 698 385.5 682Q356 666 335 639Q314 612 303 575.5Q292 539 292 498Q292 471 297 448Q302 425 310 407Q337 410 366 410Q419 410 441 395Q463 380 463 356Q463 327 435 303.5Q407 280 356 280Q320 280 286 293.5Q252 307 225 332Q195 303 179 263.5Q163 224 163 178Q163 93 212 45Q261 -3 342 -3Q399 -3 450 22Q501 47 536 98L551 89Q474 -60 352 -102Q329 -120 313 -151.5Q297 -183 297 -225Q297 -259 308.5 -273.5Q320 -288 343 -288Q349 -288 358 -287Q367 -286 381 -280ZM401 334Q419 334 430.5 341.5Q442 349 442 360Q442 373 426 381.5Q410 390 381 390Q350 390 322 384Q338 359 359 346.5Q380 334 401 334Z" glyph-name="Eogonek.swsh" horiz-adv-x="580" /><glyph d="M288 21Q350 21 402.5 55Q455 89 493.5 147.5Q532 206 553.5 284Q575 362 575 450Q575 510 563.5 553.5Q552 597 531.5 624.5Q511 652 483 665.5Q455 679 421 679H381L310 385H411L406 364H305L223 21ZM-35 0 -32 10Q-17 11 -2 16.5Q13 22 26.5 33.5Q40 45 51 64Q62 83 69 113L129 364H52L57 385H134L183 588Q189 617 187 636Q185 655 177.5 666.5Q170 678 157.5 683Q145 688 130 690L133 700H468Q541 700 597 676.5Q653 653 690.5 613.5Q728 574 747 521.5Q766 469 766 411Q766 324 729.5 249Q693 174 630 118.5Q567 63 482.5 31.5Q398 0 303 0Z" glyph-name="Eth" horiz-adv-x="765" unicode="&#208;" /><glyph d="M230 18Q274 18 314 41.5Q354 65 384.5 108.5Q415 152 433 213Q451 274 451 349Q451 440 421 479.5Q391 519 334 519H313L256 287H339L334 268H251L190 18ZM-35 0 -32 10Q-20 11 -8 15Q4 19 14.5 28.5Q25 38 34 53.5Q43 69 49 94L91 268H27L32 287H96L134 444Q145 489 132.5 507Q120 525 94 527L97 537H371Q435 537 482 517.5Q529 498 559.5 466Q590 434 604.5 393Q619 352 619 309Q619 241 588.5 184Q558 127 507 86Q456 45 389 22.5Q322 0 250 0Z" glyph-name="Eth.smcp" horiz-adv-x="639" /><glyph d="M587 150Q552 71 488.5 26.5Q425 -18 347 -18Q292 -18 246 1Q200 20 167 54.5Q134 89 115.5 136.5Q97 184 97 241H19L25 263H98Q100 294 105 317H38L44 339H110Q126 398 161.5 447.5Q197 497 246 532.5Q295 568 356 588Q417 608 485 608Q533 608 579.5 599Q626 590 664 571L602 414L588 416Q589 455 580 487Q571 519 555.5 541.5Q540 564 518 576Q496 588 470 588Q437 588 406 568.5Q375 549 349 515.5Q323 482 304.5 436.5Q286 391 277 339H459L445 317H274Q271 291 271 264V263H414L400 241H272Q277 152 318 111.5Q359 71 424 71Q471 71 509 92Q547 113 574 156Z" glyph-name="Euro" horiz-adv-x="624" unicode="&#8364;" /><glyph d="M667 180Q623 81 557 30Q491 -21 406 -21Q341 -21 286 2.5Q231 26 191 67.5Q151 109 127.5 166Q104 223 103 289H19L26 311H103Q104 328 106 345Q108 362 111 379H41L47 401H116Q134 468 172.5 526.5Q211 585 267 628Q323 671 393 695.5Q463 720 544 720Q602 720 660 709Q718 698 759 676L694 478L676 480Q673 525 662 564.5Q651 604 631.5 633.5Q612 663 586 680Q560 697 527 697Q488 697 451 675Q414 653 383.5 613.5Q353 574 331 519.5Q309 465 299 401H512L498 379H296Q294 362 293 345Q292 328 292 311H457L443 289H292Q295 232 310 192.5Q325 153 349 128.5Q373 104 403.5 92.5Q434 81 466 81Q526 81 574 109Q622 137 651 186Z" glyph-name="Euro.LP" horiz-adv-x="703" /><glyph d="M533 147Q498 67 441.5 24.5Q385 -18 313 -18Q263 -18 220.5 -0.5Q178 17 147.5 48.5Q117 80 99 123Q81 166 79 217H5L12 238H79Q80 250 81 262Q82 274 84 286H22L28 307H89Q103 359 134 404.5Q165 450 209.5 483Q254 516 311 535Q368 554 433 554Q480 554 525 546Q570 538 605 520L544 365L530 367Q530 405 521.5 435.5Q513 466 498 487.5Q483 509 462 520.5Q441 532 416 532Q387 532 359.5 515.5Q332 499 309.5 469Q287 439 271 397.5Q255 356 249 307H418L405 286H247Q245 275 245 262Q245 249 246 238H374L362 217H248Q255 144 289.5 107.5Q324 71 380 71Q421 71 456.5 90.5Q492 110 518 152Z" glyph-name="Euro.smcp" horiz-adv-x="570" /><glyph d="M300 0H-35L-32 10Q-17 11 -2 16.5Q13 22 26.5 33.5Q40 45 51 64Q62 83 69 113L182 584Q189 612 187.5 632Q186 652 179 664Q172 676 159.5 682Q147 688 131 690L134 700H683L655 477H637Q614 581 563 629.5Q512 678 434 678H382L310 375H334Q370 375 401 387Q432 399 456.5 418Q481 437 498 459.5Q515 482 523 503H537L475 224H461Q463 245 456 268Q449 291 433 310Q417 329 391 341.5Q365 354 329 354H305L247 113Q240 83 242 64Q244 45 252.5 33.5Q261 22 274.5 16.5Q288 11 303 10Z" glyph-name="F" horiz-adv-x="633" unicode="F" /><glyph d="M249 0H-36L-33 10Q-5 12 16 29Q37 46 49 94L133 439Q144 485 133.5 505Q123 525 94 527L97 537H553L529 359H513Q491 446 447 482.5Q403 519 341 519H314L256 282H267Q312 282 352 310.5Q392 339 419 385H429L379 160H368Q367 180 359 198.5Q351 217 337.5 231.5Q324 246 304.5 255Q285 264 262 264H252L210 94Q204 69 205.5 53.5Q207 38 213.5 28.5Q220 19 230 15Q240 11 252 10Z" glyph-name="F.smcp" horiz-adv-x="519" /><glyph d="M660 52Q591 17 520 -2Q449 -21 384 -21Q306 -21 245 4.5Q184 30 141 74.5Q98 119 75.5 178.5Q53 238 53 306Q53 397 90 473Q127 549 191.5 604Q256 659 343 689.5Q430 720 531 720Q599 720 664 708.5Q729 697 769 675L698 477L681 479Q681 521 668.5 560Q656 599 633.5 629Q611 659 581 677Q551 695 516 695Q463 695 413.5 656Q364 617 326 551.5Q288 486 265 399.5Q242 313 242 218Q242 159 253 118Q264 77 283 51.5Q302 26 327 14.5Q352 3 381 3Q423 3 454.5 24.5Q486 46 497 88L531 220Q544 272 526 296Q508 320 470 323L473 333H789L786 323Q773 321 761 316Q749 311 738.5 299.5Q728 288 719 269Q710 250 703 220Z" glyph-name="G" horiz-adv-x="794" unicode="G" /><glyph d="M533 35Q513 24 484 14.5Q455 5 423 -2.5Q391 -10 358 -14Q325 -18 296 -18Q233 -18 183.5 3Q134 24 100.5 59Q67 94 49.5 139.5Q32 185 32 235Q32 301 60.5 359.5Q89 418 141 461Q193 504 266.5 529Q340 554 430 554Q477 554 524.5 546Q572 538 610 519L548 363L533 365Q532 393 523 423Q514 453 497.5 477.5Q481 502 458 517.5Q435 533 406 533Q366 533 329 501Q292 469 264 416Q236 363 219 295Q202 227 202 154Q202 111 209.5 82Q217 53 230 35Q243 17 260.5 9Q278 1 298 1Q330 1 354 19Q378 37 385 67L410 168Q421 212 409.5 230.5Q398 249 367 251L369 260H632L630 251Q613 249 596.5 233Q580 217 567 168Z" glyph-name="G.smcp" horiz-adv-x="645" /><glyph d="M660 52Q591 17 520 -2Q449 -21 384 -21Q306 -21 245 4.5Q184 30 141 74.5Q98 119 75.5 178.5Q53 238 53 306Q53 397 90 473Q127 549 191.5 604Q256 659 343 689.5Q430 720 531 720Q599 720 664 708.5Q729 697 769 675L698 477L681 479Q681 521 668.5 560Q656 599 633.5 629Q611 659 581 677Q551 695 516 695Q463 695 413.5 656Q364 617 326 551.5Q288 486 265 399.5Q242 313 242 218Q242 159 253 118Q264 77 283 51.5Q302 26 327 14.5Q352 3 381 3Q423 3 454.5 24.5Q486 46 497 88L531 220Q544 272 526 296Q508 320 470 323L473 333H789L786 323Q773 321 761 316Q749 311 738.5 299.5Q728 288 719 269Q710 250 703 220ZM551 780Q521 780 496 788Q471 796 453 813Q435 830 426.5 855.5Q418 881 421 916H435Q440 889 468.5 873Q497 857 554 857Q613 857 646 874Q679 891 689 916H703Q700 882 687 856.5Q674 831 653 814Q632 797 605.5 788.5Q579 780 551 780Z" glyph-name="Gbreve" horiz-adv-x="794" unicode="&#286;" /><glyph d="M533 35Q513 24 484 14.5Q455 5 423 -2.5Q391 -10 358 -14Q325 -18 296 -18Q233 -18 183.5 3Q134 24 100.5 59Q67 94 49.5 139.5Q32 185 32 235Q32 301 60.5 359.5Q89 418 141 461Q193 504 266.5 529Q340 554 430 554Q477 554 524.5 546Q572 538 610 519L548 363L533 365Q532 393 523 423Q514 453 497.5 477.5Q481 502 458 517.5Q435 533 406 533Q366 533 329 501Q292 469 264 416Q236 363 219 295Q202 227 202 154Q202 111 209.5 82Q217 53 230 35Q243 17 260.5 9Q278 1 298 1Q330 1 354 19Q378 37 385 67L410 168Q421 212 409.5 230.5Q398 249 367 251L369 260H632L630 251Q613 249 596.5 233Q580 217 567 168ZM439 617Q409 617 384 625Q359 633 341 650Q323 667 314.5 692.5Q306 718 309 753H323Q328 726 356.5 710Q385 694 442 694Q501 694 534 711Q567 728 577 753H591Q588 719 575 693.5Q562 668 541 651Q520 634 493.5 625.5Q467 617 439 617Z" glyph-name="Gbreve.smcp" horiz-adv-x="646" /><glyph d="M660 52Q591 17 520 -2Q449 -21 384 -21Q306 -21 245 4.5Q184 30 141 74.5Q98 119 75.5 178.5Q53 238 53 306Q53 397 90 473Q127 549 191.5 604Q256 659 343 689.5Q430 720 531 720Q599 720 664 708.5Q729 697 769 675L698 477L681 479Q681 521 668.5 560Q656 599 633.5 629Q611 659 581 677Q551 695 516 695Q463 695 413.5 656Q364 617 326 551.5Q288 486 265 399.5Q242 313 242 218Q242 159 253 118Q264 77 283 51.5Q302 26 327 14.5Q352 3 381 3Q423 3 454.5 24.5Q486 46 497 88L531 220Q544 272 526 296Q508 320 470 323L473 333H789L786 323Q773 321 761 316Q749 311 738.5 299.5Q728 288 719 269Q710 250 703 220ZM563 833 397 777H383L527 907H622L700 777H683Z" glyph-name="Gcircumflex" horiz-adv-x="794" unicode="&#284;" /><glyph d="M533 35Q513 24 484 14.5Q455 5 423 -2.5Q391 -10 358 -14Q325 -18 296 -18Q233 -18 183.5 3Q134 24 100.5 59Q67 94 49.5 139.5Q32 185 32 235Q32 301 60.5 359.5Q89 418 141 461Q193 504 266.5 529Q340 554 430 554Q477 554 524.5 546Q572 538 610 519L548 363L533 365Q532 393 523 423Q514 453 497.5 477.5Q481 502 458 517.5Q435 533 406 533Q366 533 329 501Q292 469 264 416Q236 363 219 295Q202 227 202 154Q202 111 209.5 82Q217 53 230 35Q243 17 260.5 9Q278 1 298 1Q330 1 354 19Q378 37 385 67L410 168Q421 212 409.5 230.5Q398 249 367 251L369 260H632L630 251Q613 249 596.5 233Q580 217 567 168ZM451 670 285 614H271L415 744H510L588 614H571Z" glyph-name="Gcircumflex.smcp" horiz-adv-x="646" /><glyph d="M230 -346Q243 -343 259 -336Q275 -329 289 -319Q303 -309 312.5 -297.5Q322 -286 322 -275Q322 -258 307.5 -248.5Q293 -239 276 -228.5Q259 -218 244.5 -202.5Q230 -187 230 -157Q230 -122 256.5 -98Q283 -74 321 -74Q356 -74 378.5 -98Q401 -122 401 -169Q401 -199 387 -231Q373 -263 350 -290Q327 -317 297.5 -336.5Q268 -356 236 -361ZM660 52Q591 17 520 -2Q449 -21 384 -21Q306 -21 245 4.5Q184 30 141 74.5Q98 119 75.5 178.5Q53 238 53 306Q53 397 90 473Q127 549 191.5 604Q256 659 343 689.5Q430 720 531 720Q599 720 664 708.5Q729 697 769 675L698 477L681 479Q681 521 668.5 560Q656 599 633.5 629Q611 659 581 677Q551 695 516 695Q463 695 413.5 656Q364 617 326 551.5Q288 486 265 399.5Q242 313 242 218Q242 159 253 118Q264 77 283 51.5Q302 26 327 14.5Q352 3 381 3Q423 3 454.5 24.5Q486 46 497 88L531 220Q544 272 526 296Q508 320 470 323L473 333H789L786 323Q773 321 761 316Q749 311 738.5 299.5Q728 288 719 269Q710 250 703 220Z" glyph-name="Gcommaaccent" horiz-adv-x="794" unicode="&#290;" /><glyph d="M177 -346Q190 -343 206 -336Q222 -329 236 -319Q250 -309 259.5 -297.5Q269 -286 269 -275Q269 -258 254.5 -248.5Q240 -239 223 -228.5Q206 -218 191.5 -202.5Q177 -187 177 -157Q177 -122 203.5 -98Q230 -74 268 -74Q303 -74 325.5 -98Q348 -122 348 -169Q348 -199 334 -231Q320 -263 297 -290Q274 -317 244.5 -336.5Q215 -356 183 -361ZM533 35Q513 24 484 14.5Q455 5 423 -2.5Q391 -10 358 -14Q325 -18 296 -18Q233 -18 183.5 3Q134 24 100.5 59Q67 94 49.5 139.5Q32 185 32 235Q32 301 60.5 359.5Q89 418 141 461Q193 504 266.5 529Q340 554 430 554Q477 554 524.5 546Q572 538 610 519L548 363L533 365Q532 393 523 423Q514 453 497.5 477.5Q481 502 458 517.5Q435 533 406 533Q366 533 329 501Q292 469 264 416Q236 363 219 295Q202 227 202 154Q202 111 209.5 82Q217 53 230 35Q243 17 260.5 9Q278 1 298 1Q330 1 354 19Q378 37 385 67L410 168Q421 212 409.5 230.5Q398 249 367 251L369 260H632L630 251Q613 249 596.5 233Q580 217 567 168Z" glyph-name="Gcommaaccent.smcp" horiz-adv-x="646" /><glyph d="M660 52Q591 17 520 -2Q449 -21 384 -21Q306 -21 245 4.5Q184 30 141 74.5Q98 119 75.5 178.5Q53 238 53 306Q53 397 90 473Q127 549 191.5 604Q256 659 343 689.5Q430 720 531 720Q599 720 664 708.5Q729 697 769 675L698 477L681 479Q681 521 668.5 560Q656 599 633.5 629Q611 659 581 677Q551 695 516 695Q463 695 413.5 656Q364 617 326 551.5Q288 486 265 399.5Q242 313 242 218Q242 159 253 118Q264 77 283 51.5Q302 26 327 14.5Q352 3 381 3Q423 3 454.5 24.5Q486 46 497 88L531 220Q544 272 526 296Q508 320 470 323L473 333H789L786 323Q773 321 761 316Q749 311 738.5 299.5Q728 288 719 269Q710 250 703 220ZM474 856Q474 873 481 888Q488 903 499 914Q510 925 525 931.5Q540 938 557 938Q590 938 613.5 915Q637 892 637 859Q637 842 630 827Q623 812 612 801Q601 790 585.5 783.5Q570 777 554 777Q521 777 497.5 800Q474 823 474 856Z" glyph-name="Gdotaccent" horiz-adv-x="794" unicode="&#288;" /><glyph d="M533 35Q513 24 484 14.5Q455 5 423 -2.5Q391 -10 358 -14Q325 -18 296 -18Q233 -18 183.5 3Q134 24 100.5 59Q67 94 49.5 139.5Q32 185 32 235Q32 301 60.5 359.5Q89 418 141 461Q193 504 266.5 529Q340 554 430 554Q477 554 524.5 546Q572 538 610 519L548 363L533 365Q532 393 523 423Q514 453 497.5 477.5Q481 502 458 517.5Q435 533 406 533Q366 533 329 501Q292 469 264 416Q236 363 219 295Q202 227 202 154Q202 111 209.5 82Q217 53 230 35Q243 17 260.5 9Q278 1 298 1Q330 1 354 19Q378 37 385 67L410 168Q421 212 409.5 230.5Q398 249 367 251L369 260H632L630 251Q613 249 596.5 233Q580 217 567 168ZM362 693Q362 710 369 725Q376 740 387 751Q398 762 413 768.5Q428 775 445 775Q478 775 501.5 752Q525 729 525 696Q525 679 518 664Q511 649 500 638Q489 627 473.5 620.5Q458 614 442 614Q409 614 385.5 637Q362 660 362 693Z" glyph-name="Gdotaccent.smcp" horiz-adv-x="646" /><glyph d="M290 0H-35L-32 10Q-17 11 -2 16.5Q13 22 26.5 33.5Q40 45 51 64Q62 83 69 113L182 587Q189 617 187 636Q185 655 177 666.5Q169 678 156.5 683Q144 688 131 690L134 700H459L456 690Q443 688 429 684Q415 680 402.5 669.5Q390 659 379 640.5Q368 622 361 592L309 373H535L588 592Q595 622 593 640.5Q591 659 583 669.5Q575 680 563.5 684Q552 688 539 690L542 700H868L865 690Q850 688 835 683Q820 678 806.5 666.5Q793 655 782 636Q771 617 764 587L651 113Q644 83 646 64Q648 45 656 33.5Q664 22 676.5 16.5Q689 11 703 10L700 0H373L376 10Q389 11 403 15.5Q417 20 430 31Q443 42 453.5 60.5Q464 79 471 109L529 350H303L246 109Q239 79 240.5 60.5Q242 42 249.5 31Q257 20 268.5 15.5Q280 11 293 10Z" glyph-name="H" horiz-adv-x="773" unicode="H" /><glyph d="M243 0H-34L-31 10Q-19 11 -7 15Q5 19 15.5 28.5Q26 38 34.5 53.5Q43 69 49 94L134 443Q140 468 139 483.5Q138 499 132 508.5Q126 518 116 522Q106 526 94 527L97 537H375L372 527Q361 526 350.5 522.5Q340 519 329.5 511Q319 503 310.5 487.5Q302 472 296 447L257 286H414L453 447Q459 472 458 487.5Q457 503 451.5 511Q446 519 437 522.5Q428 526 418 527L421 537H697L694 527Q669 525 647.5 508.5Q626 492 614 443L529 94Q523 69 524 53.5Q525 38 531 28.5Q537 19 547 15Q557 11 569 10L566 0H288L291 10Q302 11 313 14.5Q324 18 333.5 26Q343 34 352 49.5Q361 65 367 90L409 264H251L209 90Q203 65 204.5 49.5Q206 34 212 26Q218 18 227 14.5Q236 11 246 10Z" glyph-name="H.smcp" horiz-adv-x="641" /><glyph d="M290 0H-35L-32 10Q-17 11 -2 16.5Q13 22 26.5 33.5Q40 45 51 64Q62 83 69 113L160 494H77L82 516H165L182 587Q189 617 187 636Q185 655 177 666.5Q169 678 156.5 683Q144 688 131 690L134 700H459L456 690Q443 688 429 684Q415 680 402.5 669.5Q390 659 379 640.5Q368 622 361 592L343 516H570L588 592Q595 622 593 640.5Q591 659 583 669.5Q575 680 563.5 684Q552 688 539 690L542 700H868L865 690Q850 688 835 683Q820 678 806.5 666.5Q793 655 782 636Q771 617 764 587L747 516H831L826 494H742L651 113Q644 83 646 64Q648 45 656 33.5Q664 22 676.5 16.5Q689 11 703 10L700 0H373L376 10Q389 11 403 15.5Q417 20 430 31Q443 42 453.5 60.5Q464 79 471 109L529 350H303L246 109Q239 79 240.5 60.5Q242 42 249.5 31Q257 20 268.5 15.5Q280 11 293 10ZM564 494H338L309 373H535Z" glyph-name="Hbar" horiz-adv-x="774" unicode="&#294;" /><glyph d="M243 0H-34L-31 10Q-19 11 -7 15Q5 19 15.5 28.5Q26 38 34.5 53.5Q43 69 49 94L118 376H46L51 395H122L134 443Q140 468 139 483.5Q138 499 132 508.5Q126 518 116 522Q106 526 94 527L97 537H375L372 527Q361 526 350.5 522.5Q340 519 329.5 511Q319 503 310.5 487.5Q302 472 296 447L283 395H440L453 447Q459 472 458 487.5Q457 503 451.5 511Q446 519 437 522.5Q428 526 418 527L421 537H697L694 527Q669 525 647.5 508.5Q626 492 614 443L602 395H675L670 376H598L529 94Q523 69 524 53.5Q525 38 531 28.5Q537 19 547 15Q557 11 569 10L566 0H288L291 10Q302 11 313 14.5Q324 18 333.5 26Q343 34 352 49.5Q361 65 367 90L409 264H251L209 90Q203 65 204.5 49.5Q206 34 212 26Q218 18 227 14.5Q236 11 246 10ZM436 376H279L257 286H414Z" glyph-name="Hbar.smcp" horiz-adv-x="641" /><glyph d="M290 0H-35L-32 10Q-17 11 -2 16.5Q13 22 26.5 33.5Q40 45 51 64Q62 83 69 113L182 587Q189 617 187 636Q185 655 177 666.5Q169 678 156.5 683Q144 688 131 690L134 700H459L456 690Q443 688 429 684Q415 680 402.5 669.5Q390 659 379 640.5Q368 622 361 592L309 373H535L588 592Q595 622 593 640.5Q591 659 583 669.5Q575 680 563.5 684Q552 688 539 690L542 700H868L865 690Q850 688 835 683Q820 678 806.5 666.5Q793 655 782 636Q771 617 764 587L651 113Q644 83 646 64Q648 45 656 33.5Q664 22 676.5 16.5Q689 11 703 10L700 0H373L376 10Q389 11 403 15.5Q417 20 430 31Q443 42 453.5 60.5Q464 79 471 109L529 350H303L246 109Q239 79 240.5 60.5Q242 42 249.5 31Q257 20 268.5 15.5Q280 11 293 10ZM539 832 373 776H359L503 906H598L676 776H659Z" glyph-name="Hcircumflex" horiz-adv-x="773" unicode="&#292;" /><glyph d="M243 0H-34L-31 10Q-19 11 -7 15Q5 19 15.5 28.5Q26 38 34.5 53.5Q43 69 49 94L134 443Q140 468 139 483.5Q138 499 132 508.5Q126 518 116 522Q106 526 94 527L97 537H375L372 527Q361 526 350.5 522.5Q340 519 329.5 511Q319 503 310.5 487.5Q302 472 296 447L257 286H414L453 447Q459 472 458 487.5Q457 503 451.5 511Q446 519 437 522.5Q428 526 418 527L421 537H697L694 527Q669 525 647.5 508.5Q626 492 614 443L529 94Q523 69 524 53.5Q525 38 531 28.5Q537 19 547 15Q557 11 569 10L566 0H288L291 10Q302 11 313 14.5Q324 18 333.5 26Q343 34 352 49.5Q361 65 367 90L409 264H251L209 90Q203 65 204.5 49.5Q206 34 212 26Q218 18 227 14.5Q236 11 246 10ZM438 669 272 613H258L402 743H497L575 613H558Z" glyph-name="Hcircumflex.smcp" horiz-adv-x="641" /><glyph d="M459 690Q444 688 429.5 683Q415 678 401.5 666.5Q388 655 377 636Q366 617 359 587L247 113Q240 83 242 64Q244 45 251.5 33.5Q259 22 271 16.5Q283 11 297 10L294 0H-35L-32 10Q-17 11 -2 16.5Q13 22 26.5 33.5Q40 45 51 64Q62 83 69 113L182 587Q189 617 187 636Q185 655 177 666.5Q169 678 157 683Q145 688 131 690L134 700H462Z" glyph-name="I" horiz-adv-x="369" unicode="I" /><glyph d="M377 527Q365 526 353 522Q341 518 330 508.5Q319 499 310 483.5Q301 468 295 443L210 94Q204 69 205.5 53.5Q207 38 213 28.5Q219 19 228.5 15Q238 11 249 10L246 0H-37L-34 10Q-22 11 -9.5 15Q3 19 14 28.5Q25 38 34 53.5Q43 69 49 94L134 443Q140 468 138.5 483.5Q137 499 131 508.5Q125 518 115 522Q105 526 94 527L97 537H380Z" glyph-name="I.smcp" horiz-adv-x="322" /><glyph d="M641 95Q621 10 577.5 -46.5Q534 -103 483 -136.5Q432 -170 380 -183.5Q328 -197 292 -197Q241 -197 217 -176Q193 -155 193 -122Q193 -94 212.5 -73.5Q232 -53 264 -53Q292 -53 307.5 -69.5Q323 -86 333.5 -105.5Q344 -125 353.5 -141.5Q363 -158 380 -158Q403 -158 416 -124.5Q429 -91 441 -35Q452 15 462.5 77.5Q473 140 488 202L577 585Q584 615 582 634.5Q580 654 571.5 666Q563 678 550 683Q537 688 522 690L525 700H855L852 690Q822 687 796 665.5Q770 644 755 585ZM459 690Q444 688 429.5 683Q415 678 401.5 666.5Q388 655 377 636Q366 617 359 587L247 113Q240 83 242 64Q244 45 251.5 33.5Q259 22 271 16.5Q283 11 297 10L294 0H-35L-32 10Q-17 11 -2 16.5Q13 22 26.5 33.5Q40 45 51 64Q62 83 69 113L182 587Q189 617 187 636Q185 655 177 666.5Q169 678 157 683Q145 688 131 690L134 700H462Z" glyph-name="IJ" horiz-adv-x="759" unicode="&#306;" /><glyph d="M554 75Q540 20 507.5 -24Q475 -68 433 -99Q391 -130 343.5 -146.5Q296 -163 254 -163Q206 -163 185 -144.5Q164 -126 164 -101Q164 -77 180.5 -58.5Q197 -40 224 -40Q247 -40 260.5 -53.5Q274 -67 283.5 -83.5Q293 -100 301.5 -113.5Q310 -127 324 -127Q343 -127 355 -101Q367 -75 376 -32Q385 11 394 66Q403 121 417 178L481 440Q487 465 485 481.5Q483 498 476 507.5Q469 517 458 521.5Q447 526 434 527L437 537H722L719 527Q696 525 675.5 507.5Q655 490 642 440ZM377 527Q365 526 353 522Q341 518 330 508.5Q319 499 310 483.5Q301 468 295 443L210 94Q204 69 205.5 53.5Q207 38 213 28.5Q219 19 228.5 15Q238 11 249 10L246 0H-37L-34 10Q-22 11 -9.5 15Q3 19 14 28.5Q25 38 34 53.5Q43 69 49 94L134 443Q140 468 138.5 483.5Q137 499 131 508.5Q125 518 115 522Q105 526 94 527L97 537H380Z" glyph-name="IJ.smcp" horiz-adv-x="660" /><glyph d="M459 690Q444 688 429.5 683Q415 678 401.5 666.5Q388 655 377 636Q366 617 359 587L247 113Q240 83 242 64Q244 45 251.5 33.5Q259 22 271 16.5Q283 11 297 10L294 0H-35L-32 10Q-17 11 -2 16.5Q13 22 26.5 33.5Q40 45 51 64Q62 83 69 113L182 587Q189 617 187 636Q185 655 177 666.5Q169 678 157 683Q145 688 131 690L134 700H462ZM376 898Q400 922 428 922Q451 922 465 907.5Q479 893 479 872Q479 853 466 836Q453 819 422 811L268 771H257Z" glyph-name="Iacute" horiz-adv-x="369" unicode="&#205;" /><glyph d="M377 527Q365 526 353 522Q341 518 330 508.5Q319 499 310 483.5Q301 468 295 443L210 94Q204 69 205.5 53.5Q207 38 213 28.5Q219 19 228.5 15Q238 11 249 10L246 0H-37L-34 10Q-22 11 -9.5 15Q3 19 14 28.5Q25 38 34 53.5Q43 69 49 94L134 443Q140 468 138.5 483.5Q137 499 131 508.5Q125 518 115 522Q105 526 94 527L97 537H380ZM316 735Q340 759 368 759Q391 759 405 744.5Q419 730 419 709Q419 690 406 673Q393 656 362 648L208 608H197Z" glyph-name="Iacute.smcp" horiz-adv-x="322" /><glyph d="M459 690Q444 688 429.5 683Q415 678 401.5 666.5Q388 655 377 636Q366 617 359 587L247 113Q240 83 242 64Q244 45 251.5 33.5Q259 22 271 16.5Q283 11 297 10L294 0H-35L-32 10Q-17 11 -2 16.5Q13 22 26.5 33.5Q40 45 51 64Q62 83 69 113L182 587Q189 617 187 636Q185 655 177 666.5Q169 678 157 683Q145 688 131 690L134 700H462ZM331 779Q301 779 276 787Q251 795 233 812Q215 829 206.5 854.5Q198 880 201 915H215Q220 888 248.5 872Q277 856 334 856Q393 856 426 873Q459 890 469 915H483Q480 881 467 855.5Q454 830 433 813Q412 796 385.5 787.5Q359 779 331 779Z" glyph-name="Ibreve" horiz-adv-x="369" unicode="&#300;" /><glyph d="M377 527Q365 526 353 522Q341 518 330 508.5Q319 499 310 483.5Q301 468 295 443L210 94Q204 69 205.5 53.5Q207 38 213 28.5Q219 19 228.5 15Q238 11 249 10L246 0H-37L-34 10Q-22 11 -9.5 15Q3 19 14 28.5Q25 38 34 53.5Q43 69 49 94L134 443Q140 468 138.5 483.5Q137 499 131 508.5Q125 518 115 522Q105 526 94 527L97 537H380ZM271 616Q241 616 216 624Q191 632 173 649Q155 666 146.5 691.5Q138 717 141 752H155Q160 725 188.5 709Q217 693 274 693Q333 693 366 710Q399 727 409 752H423Q420 718 407 692.5Q394 667 373 650Q352 633 325.5 624.5Q299 616 271 616Z" glyph-name="Ibreve.smcp" horiz-adv-x="322" /><glyph d="M459 690Q444 688 429.5 683Q415 678 401.5 666.5Q388 655 377 636Q366 617 359 587L247 113Q240 83 242 64Q244 45 251.5 33.5Q259 22 271 16.5Q283 11 297 10L294 0H-35L-32 10Q-17 11 -2 16.5Q13 22 26.5 33.5Q40 45 51 64Q62 83 69 113L182 587Q189 617 187 636Q185 655 177 666.5Q169 678 157 683Q145 688 131 690L134 700H462ZM343 832 177 776H163L307 906H402L480 776H463Z" glyph-name="Icircumflex" horiz-adv-x="369" unicode="&#206;" /><glyph d="M377 527Q365 526 353 522Q341 518 330 508.5Q319 499 310 483.5Q301 468 295 443L210 94Q204 69 205.5 53.5Q207 38 213 28.5Q219 19 228.5 15Q238 11 249 10L246 0H-37L-34 10Q-22 11 -9.5 15Q3 19 14 28.5Q25 38 34 53.5Q43 69 49 94L134 443Q140 468 138.5 483.5Q137 499 131 508.5Q125 518 115 522Q105 526 94 527L97 537H380ZM283 669 117 613H103L247 743H342L420 613H403Z" glyph-name="Icircumflex.smcp" horiz-adv-x="322" /><glyph d="M459 690Q444 688 429.5 683Q415 678 401.5 666.5Q388 655 377 636Q366 617 359 587L247 113Q240 83 242 64Q244 45 251.5 33.5Q259 22 271 16.5Q283 11 297 10L294 0H-35L-32 10Q-17 11 -2 16.5Q13 22 26.5 33.5Q40 45 51 64Q62 83 69 113L182 587Q189 617 187 636Q185 655 177 666.5Q169 678 157 683Q145 688 131 690L134 700H462ZM358 858Q358 875 365 890Q372 905 383 916Q394 927 409 933.5Q424 940 441 940Q474 940 497.5 917Q521 894 521 861Q521 844 514 829Q507 814 496 803Q485 792 469.5 785.5Q454 779 438 779Q405 779 381.5 802Q358 825 358 858ZM154 858Q154 875 161 890Q168 905 179 916Q190 927 205 933.5Q220 940 237 940Q270 940 293.5 917Q317 894 317 861Q317 844 310 829Q303 814 292 803Q281 792 265.5 785.5Q250 779 234 779Q201 779 177.5 802Q154 825 154 858Z" glyph-name="Idieresis" horiz-adv-x="369" unicode="&#207;" /><glyph d="M377 527Q365 526 353 522Q341 518 330 508.5Q319 499 310 483.5Q301 468 295 443L210 94Q204 69 205.5 53.5Q207 38 213 28.5Q219 19 228.5 15Q238 11 249 10L246 0H-37L-34 10Q-22 11 -9.5 15Q3 19 14 28.5Q25 38 34 53.5Q43 69 49 94L134 443Q140 468 138.5 483.5Q137 499 131 508.5Q125 518 115 522Q105 526 94 527L97 537H380ZM298 695Q298 712 305 727Q312 742 323 753Q334 764 349 770.5Q364 777 381 777Q414 777 437.5 754Q461 731 461 698Q461 681 454 666Q447 651 436 640Q425 629 409.5 622.5Q394 616 378 616Q345 616 321.5 639Q298 662 298 695ZM94 695Q94 712 101 727Q108 742 119 753Q130 764 145 770.5Q160 777 177 777Q210 777 233.5 754Q257 731 257 698Q257 681 250 666Q243 651 232 640Q221 629 205.5 622.5Q190 616 174 616Q141 616 117.5 639Q94 662 94 695Z" glyph-name="Idieresis.smcp" horiz-adv-x="322" /><glyph d="M459 690Q444 688 429.5 683Q415 678 401.5 666.5Q388 655 377 636Q366 617 359 587L247 113Q240 83 242 64Q244 45 251.5 33.5Q259 22 271 16.5Q283 11 297 10L294 0H-35L-32 10Q-17 11 -2 16.5Q13 22 26.5 33.5Q40 45 51 64Q62 83 69 113L182 587Q189 617 187 636Q185 655 177 666.5Q169 678 157 683Q145 688 131 690L134 700H462ZM254 855Q254 872 261 887Q268 902 279 913Q290 924 305 930.5Q320 937 337 937Q370 937 393.5 914Q417 891 417 858Q417 841 410 826Q403 811 392 800Q381 789 365.5 782.5Q350 776 334 776Q301 776 277.5 799Q254 822 254 855Z" glyph-name="Idotaccent" horiz-adv-x="369" unicode="&#304;" /><glyph d="M377 527Q365 526 353 522Q341 518 330 508.5Q319 499 310 483.5Q301 468 295 443L210 94Q204 69 205.5 53.5Q207 38 213 28.5Q219 19 228.5 15Q238 11 249 10L246 0H-37L-34 10Q-22 11 -9.5 15Q3 19 14 28.5Q25 38 34 53.5Q43 69 49 94L134 443Q140 468 138.5 483.5Q137 499 131 508.5Q125 518 115 522Q105 526 94 527L97 537H380ZM194 692Q194 709 201 724Q208 739 219 750Q230 761 245 767.5Q260 774 277 774Q310 774 333.5 751Q357 728 357 695Q357 678 350 663Q343 648 332 637Q321 626 305.5 619.5Q290 613 274 613Q241 613 217.5 636Q194 659 194 692Z" glyph-name="Idotaccent.smcp" horiz-adv-x="322" /><glyph d="M459 690Q444 688 429.5 683Q415 678 401.5 666.5Q388 655 377 636Q366 617 359 587L247 113Q240 83 242 64Q244 45 251.5 33.5Q259 22 271 16.5Q283 11 297 10L294 0H-35L-32 10Q-17 11 -2 16.5Q13 22 26.5 33.5Q40 45 51 64Q62 83 69 113L182 587Q189 617 187 636Q185 655 177 666.5Q169 678 157 683Q145 688 131 690L134 700H462ZM369 771 216 811Q185 819 172 836Q159 853 159 872Q159 893 173 907.5Q187 922 210 922Q238 922 262 898L381 771Z" glyph-name="Igrave" horiz-adv-x="369" unicode="&#204;" /><glyph d="M377 527Q365 526 353 522Q341 518 330 508.5Q319 499 310 483.5Q301 468 295 443L210 94Q204 69 205.5 53.5Q207 38 213 28.5Q219 19 228.5 15Q238 11 249 10L246 0H-37L-34 10Q-22 11 -9.5 15Q3 19 14 28.5Q25 38 34 53.5Q43 69 49 94L134 443Q140 468 138.5 483.5Q137 499 131 508.5Q125 518 115 522Q105 526 94 527L97 537H380ZM309 608 156 648Q125 656 112 673Q99 690 99 709Q99 730 113 744.5Q127 759 150 759Q178 759 202 735L321 608Z" glyph-name="Igrave.smcp" horiz-adv-x="322" /><glyph d="M459 690Q444 688 429.5 683Q415 678 401.5 666.5Q388 655 377 636Q366 617 359 587L247 113Q240 83 242 64Q244 45 251.5 33.5Q259 22 271 16.5Q283 11 297 10L294 0H-35L-32 10Q-17 11 -2 16.5Q13 22 26.5 33.5Q40 45 51 64Q62 83 69 113L182 587Q189 617 187 636Q185 655 177 666.5Q169 678 157 683Q145 688 131 690L134 700H462ZM475 845 469 814H196L202 845Z" glyph-name="Imacron" horiz-adv-x="369" unicode="&#298;" /><glyph d="M377 527Q365 526 353 522Q341 518 330 508.5Q319 499 310 483.5Q301 468 295 443L210 94Q204 69 205.5 53.5Q207 38 213 28.5Q219 19 228.5 15Q238 11 249 10L246 0H-37L-34 10Q-22 11 -9.5 15Q3 19 14 28.5Q25 38 34 53.5Q43 69 49 94L134 443Q140 468 138.5 483.5Q137 499 131 508.5Q125 518 115 522Q105 526 94 527L97 537H380ZM415 682 409 651H136L142 682Z" glyph-name="Imacron.smcp" horiz-adv-x="322" /><glyph d="M201 -203Q184 -217 158.5 -231Q133 -245 103 -245Q61 -245 41 -221Q21 -197 21 -164Q21 -138 31 -113Q41 -88 60 -66.5Q79 -45 105 -28Q131 -11 163 0H-35L-32 10Q-17 11 -2 16.5Q13 22 26.5 33.5Q40 45 51 64Q62 83 69 113L182 587Q189 617 187 636Q185 655 177 666.5Q169 678 157 683Q145 688 131 690L134 700H462L459 690Q444 688 429.5 683Q415 678 401.5 666.5Q388 655 377 636Q366 617 359 587L247 113Q240 83 242 64Q244 45 251.5 33.5Q259 22 271 16.5Q283 11 297 10L294 0H202Q186 -4 170 -15.5Q154 -27 141 -45Q128 -63 120 -87.5Q112 -112 112 -140Q112 -174 123.5 -188.5Q135 -203 158 -203Q164 -203 173 -202Q182 -201 196 -195Z" glyph-name="Iogonek" horiz-adv-x="369" unicode="&#302;" /><glyph d="M152 -203Q135 -217 109.5 -231Q84 -245 54 -245Q12 -245 -8 -221Q-28 -197 -28 -164Q-28 -138 -18 -113Q-8 -88 11 -66.5Q30 -45 56 -28Q82 -11 114 0H-37L-34 10Q-22 11 -9.5 15Q3 19 14 28.5Q25 38 34 53.5Q43 69 49 94L134 443Q140 468 138.5 483.5Q137 499 131 508.5Q125 518 115 522Q105 526 94 527L97 537H380L377 527Q365 526 353 522Q341 518 330 508.5Q319 499 310 483.5Q301 468 295 443L210 94Q204 69 205.5 53.5Q207 38 213 28.5Q219 19 228.5 15Q238 11 249 10L246 0H153Q137 -4 121 -15.5Q105 -27 92 -45Q79 -63 71 -87.5Q63 -112 63 -140Q63 -174 74.5 -188.5Q86 -203 109 -203Q115 -203 124 -202Q133 -201 147 -195Z" glyph-name="Iogonek.smcp" horiz-adv-x="322" /><glyph d="M459 690Q444 688 429.5 683Q415 678 401.5 666.5Q388 655 377 636Q366 617 359 587L247 113Q240 83 242 64Q244 45 251.5 33.5Q259 22 271 16.5Q283 11 297 10L294 0H-35L-32 10Q-17 11 -2 16.5Q13 22 26.5 33.5Q40 45 51 64Q62 83 69 113L182 587Q189 617 187 636Q185 655 177 666.5Q169 678 157 683Q145 688 131 690L134 700H462ZM505 902Q498 846 464.5 811.5Q431 777 387 777Q367 777 350 783.5Q333 790 316 798Q299 806 282.5 812.5Q266 819 248 819Q226 819 210.5 807.5Q195 796 184 778L174 780Q181 835 215 869.5Q249 904 293 904Q312 904 329.5 897.5Q347 891 363.5 883Q380 875 397 868.5Q414 862 432 862Q454 862 469.5 873.5Q485 885 496 904Z" glyph-name="Itilde" horiz-adv-x="369" unicode="&#296;" /><glyph d="M377 527Q365 526 353 522Q341 518 330 508.5Q319 499 310 483.5Q301 468 295 443L210 94Q204 69 205.5 53.5Q207 38 213 28.5Q219 19 228.5 15Q238 11 249 10L246 0H-37L-34 10Q-22 11 -9.5 15Q3 19 14 28.5Q25 38 34 53.5Q43 69 49 94L134 443Q140 468 138.5 483.5Q137 499 131 508.5Q125 518 115 522Q105 526 94 527L97 537H380ZM444 739Q437 683 403.5 648.5Q370 614 326 614Q306 614 289 620.5Q272 627 255 635Q238 643 221.5 649.5Q205 656 187 656Q165 656 149.5 644.5Q134 633 123 615L113 617Q120 672 154 706.5Q188 741 232 741Q251 741 268.5 734.5Q286 728 302.5 720Q319 712 336 705.5Q353 699 371 699Q393 699 408.5 710.5Q424 722 435 741Z" glyph-name="Itilde.smcp" horiz-adv-x="322" /><glyph d="M272 95Q252 10 208.5 -46.5Q165 -103 114 -136.5Q63 -170 11 -183.5Q-41 -197 -77 -197Q-128 -197 -152 -176Q-176 -155 -176 -122Q-176 -94 -156.5 -73.5Q-137 -53 -105 -53Q-77 -53 -61.5 -69.5Q-46 -86 -35.5 -105.5Q-25 -125 -15.5 -141.5Q-6 -158 11 -158Q34 -158 47 -124.5Q60 -91 72 -35Q83 15 93.5 77.5Q104 140 119 202L208 585Q215 615 213 634.5Q211 654 202.5 666Q194 678 181 683Q168 688 153 690L156 700H486L483 690Q453 687 427 665.5Q401 644 386 585Z" glyph-name="J" horiz-adv-x="390" unicode="J" /><glyph d="M221 75Q207 20 174.5 -24Q142 -68 100 -99Q58 -130 10.5 -146.5Q-37 -163 -79 -163Q-127 -163 -148 -144.5Q-169 -126 -169 -101Q-169 -77 -152.5 -58.5Q-136 -40 -109 -40Q-86 -40 -72.5 -53.5Q-59 -67 -49.5 -83.5Q-40 -100 -31.5 -113.5Q-23 -127 -9 -127Q10 -127 22 -101Q34 -75 43 -32Q52 11 61 66Q70 121 84 178L148 440Q154 465 152 481.5Q150 498 143 507.5Q136 517 125 521.5Q114 526 101 527L104 537H389L386 527Q363 525 342.5 507.5Q322 490 309 440Z" glyph-name="J.smcp" horiz-adv-x="326" /><glyph d="M272 95Q252 10 208.5 -46.5Q165 -103 114 -136.5Q63 -170 11 -183.5Q-41 -197 -77 -197Q-128 -197 -152 -176Q-176 -155 -176 -122Q-176 -94 -156.5 -73.5Q-137 -53 -105 -53Q-77 -53 -61.5 -69.5Q-46 -86 -35.5 -105.5Q-25 -125 -15.5 -141.5Q-6 -158 11 -158Q34 -158 47 -124.5Q60 -91 72 -35Q83 15 93.5 77.5Q104 140 119 202L208 585Q215 615 213 634.5Q211 654 202.5 666Q194 678 181 683Q168 688 153 690L156 700H486L483 690Q453 687 427 665.5Q401 644 386 585ZM360 832 194 776H180L324 906H419L497 776H480Z" glyph-name="Jcircumflex" horiz-adv-x="390" unicode="&#308;" /><glyph d="M221 75Q207 20 174.5 -24Q142 -68 100 -99Q58 -130 10.5 -146.5Q-37 -163 -79 -163Q-127 -163 -148 -144.5Q-169 -126 -169 -101Q-169 -77 -152.5 -58.5Q-136 -40 -109 -40Q-86 -40 -72.5 -53.5Q-59 -67 -49.5 -83.5Q-40 -100 -31.5 -113.5Q-23 -127 -9 -127Q10 -127 22 -101Q34 -75 43 -32Q52 11 61 66Q70 121 84 178L148 440Q154 465 152 481.5Q150 498 143 507.5Q136 517 125 521.5Q114 526 101 527L104 537H389L386 527Q363 525 342.5 507.5Q322 490 309 440ZM286 669 120 613H106L250 743H345L423 613H406Z" glyph-name="Jcircumflex.smcp" horiz-adv-x="326" /><glyph d="M462 0 323 312 326 327 521 529Q559 569 575 598Q591 627 591 646.5Q591 666 577.5 676.5Q564 687 544 690L547 700H812L809 690Q749 682 685 641Q621 600 549 525L467 440L600 141Q611 115 623 92Q635 69 648 51.5Q661 34 675.5 22.5Q690 11 707 10L704 0ZM464 690Q449 688 433.5 683Q418 678 404 666.5Q390 655 378.5 636Q367 617 360 587L247 113Q240 83 242 64Q244 45 252 33.5Q260 22 273.5 16.5Q287 11 302 10L299 0H-35L-32 10Q-17 11 -2.5 16.5Q12 22 25.5 33.5Q39 45 50.5 64Q62 83 69 113L183 587Q190 617 188 636Q186 655 177.5 666.5Q169 678 156.5 683Q144 688 130 690L133 700H467Z" glyph-name="K" horiz-adv-x="755" unicode="K" /><glyph d="M368 0 268 230 270 245 417 392Q450 425 463.5 449Q477 473 476.5 489Q476 505 463.5 514Q451 523 433 527L436 537H659L657 526Q613 522 562.5 492Q512 462 443 391L392 339L488 119Q507 76 531 47Q555 18 582 10L579 0ZM377 527Q353 525 330 508.5Q307 492 295 443L210 94Q204 69 205.5 53.5Q207 38 214 28.5Q221 19 232 15Q243 11 256 10L253 0H-34L-31 10Q-2 12 18 29.5Q38 47 49 94L134 443Q140 467 139 483Q138 499 132 508.5Q126 518 116 522Q106 526 94 527L97 537H380Z" glyph-name="K.smcp" horiz-adv-x="641" /><glyph d="M465 691Q450 689 434.5 684Q419 679 405 667.5Q391 656 379.5 637Q368 618 361 588L247 113Q240 83 242 64Q244 45 252 33.5Q260 22 273.5 16.5Q287 11 302 10L299 0H-35L-32 10Q-17 11 -2.5 16.5Q12 22 25.5 33.5Q39 45 50.5 64Q62 83 69 113L184 588Q191 618 189 637Q187 656 178.5 667.5Q170 679 157.5 684Q145 689 131 691L134 701H468ZM915 -268Q867 -268 817.5 -257.5Q768 -247 717.5 -221.5Q667 -196 616 -153.5Q565 -111 515.5 -46.5Q466 18 417.5 106.5Q369 195 323 312L326 327L523 530Q561 569 577 598.5Q593 628 592.5 647.5Q592 667 579 677.5Q566 688 546 691L549 701H813L810 691Q750 683 686.5 642Q623 601 551 526L468 441Q550 238 617.5 105.5Q685 -27 742 -104.5Q799 -182 847 -213Q895 -244 937 -244Q957 -244 962 -237.5Q967 -231 967 -219Q967 -207 965.5 -193.5Q964 -180 964 -166Q964 -141 979 -120Q994 -99 1027 -99Q1056 -99 1074 -117.5Q1092 -136 1092 -162Q1092 -181 1080 -200Q1068 -219 1045 -234Q1022 -249 989 -258.5Q956 -268 915 -268Z" glyph-name="K.swsh" horiz-adv-x="755" /><glyph d="M465 691Q450 689 434.5 684Q419 679 405 667.5Q391 656 379.5 637Q368 618 361 588L247 113Q240 83 242 64Q244 45 252 33.5Q260 22 273.5 16.5Q287 11 302 10L299 0H-35L-32 10Q-17 11 -2.5 16.5Q12 22 25.5 33.5Q39 45 50.5 64Q62 83 69 113L184 588Q191 618 189 637Q187 656 178.5 667.5Q170 679 157.5 684Q145 689 131 691L134 701H468ZM840 -237Q777 -237 713 -213Q649 -189 583.5 -127Q518 -65 452.5 41Q387 147 323 312L326 327L523 530Q561 569 577 598.5Q593 628 592.5 647.5Q592 667 579 677.5Q566 688 546 691L549 701H813L810 691Q750 683 686.5 642Q623 601 551 526L468 441Q545 250 602.5 124Q660 -2 706 -77Q752 -152 789 -182.5Q826 -213 862 -213Q882 -213 887 -206.5Q892 -200 892 -188Q892 -177 890.5 -163.5Q889 -150 889 -136Q889 -111 904 -90Q919 -69 952 -69Q981 -69 999 -87Q1017 -105 1017 -132Q1017 -151 1005 -169.5Q993 -188 970 -203Q947 -218 914 -227.5Q881 -237 840 -237Z" glyph-name="K.swsh2" horiz-adv-x="755" /><glyph d="M219 -346Q232 -343 248 -336Q264 -329 278 -319Q292 -309 301.5 -297.5Q311 -286 311 -275Q311 -258 296.5 -248.5Q282 -239 265 -228.5Q248 -218 233.5 -202.5Q219 -187 219 -157Q219 -122 245.5 -98Q272 -74 310 -74Q345 -74 367.5 -98Q390 -122 390 -169Q390 -199 376 -231Q362 -263 339 -290Q316 -317 286.5 -336.5Q257 -356 225 -361ZM462 0 323 312 326 327 521 529Q559 569 575 598Q591 627 591 646.5Q591 666 577.5 676.5Q564 687 544 690L547 700H812L809 690Q749 682 685 641Q621 600 549 525L467 440L600 141Q611 115 623 92Q635 69 648 51.5Q661 34 675.5 22.5Q690 11 707 10L704 0ZM464 690Q449 688 433.5 683Q418 678 404 666.5Q390 655 378.5 636Q367 617 360 587L247 113Q240 83 242 64Q244 45 252 33.5Q260 22 273.5 16.5Q287 11 302 10L299 0H-35L-32 10Q-17 11 -2.5 16.5Q12 22 25.5 33.5Q39 45 50.5 64Q62 83 69 113L183 587Q190 617 188 636Q186 655 177.5 666.5Q169 678 156.5 683Q144 688 130 690L133 700H467Z" glyph-name="Kcommaaccent" horiz-adv-x="755" unicode="&#310;" /><glyph d="M150 -346Q163 -343 179 -336Q195 -329 209 -319Q223 -309 232.5 -297.5Q242 -286 242 -275Q242 -258 227.5 -248.5Q213 -239 196 -228.5Q179 -218 164.5 -202.5Q150 -187 150 -157Q150 -122 176.5 -98Q203 -74 241 -74Q276 -74 298.5 -98Q321 -122 321 -169Q321 -199 307 -231Q293 -263 270 -290Q247 -317 217.5 -336.5Q188 -356 156 -361ZM368 0 268 230 270 245 417 392Q450 425 463.5 449Q477 473 476.5 489Q476 505 463.5 514Q451 523 433 527L436 537H659L657 526Q613 522 562.5 492Q512 462 443 391L392 339L488 119Q507 76 531 47Q555 18 582 10L579 0ZM377 527Q353 525 330 508.5Q307 492 295 443L210 94Q204 69 205.5 53.5Q207 38 214 28.5Q221 19 232 15Q243 11 256 10L253 0H-34L-31 10Q-2 12 18 29.5Q38 47 49 94L134 443Q140 467 139 483Q138 499 132 508.5Q126 518 116 522Q106 526 94 527L97 537H380Z" glyph-name="Kcommaaccent.smcp" horiz-adv-x="641" /><glyph d="M234 -346Q247 -343 263 -336Q279 -329 293 -319Q307 -309 316.5 -297.5Q326 -286 326 -275Q326 -258 311.5 -248.5Q297 -239 280 -228.5Q263 -218 248.5 -202.5Q234 -187 234 -157Q234 -122 260.5 -98Q287 -74 325 -74Q360 -74 382.5 -98Q405 -122 405 -169Q405 -199 391 -231Q377 -263 354 -290Q331 -317 301.5 -336.5Q272 -356 240 -361ZM465 691Q450 689 434.5 684Q419 679 405 667.5Q391 656 379.5 637Q368 618 361 588L247 113Q240 83 242 64Q244 45 252 33.5Q260 22 273.5 16.5Q287 11 302 10L299 0H-35L-32 10Q-17 11 -2.5 16.5Q12 22 25.5 33.5Q39 45 50.5 64Q62 83 69 113L184 588Q191 618 189 637Q187 656 178.5 667.5Q170 679 157.5 684Q145 689 131 691L134 701H468ZM915 -268Q867 -268 817.5 -257.5Q768 -247 717.5 -221.5Q667 -196 616 -153.5Q565 -111 515.5 -46.5Q466 18 417.5 106.5Q369 195 323 312L326 327L523 530Q561 569 577 598.5Q593 628 592.5 647.5Q592 667 579 677.5Q566 688 546 691L549 701H813L810 691Q750 683 686.5 642Q623 601 551 526L468 441Q550 238 617.5 105.5Q685 -27 742 -104.5Q799 -182 847 -213Q895 -244 937 -244Q957 -244 962 -237.5Q967 -231 967 -219Q967 -207 965.5 -193.5Q964 -180 964 -166Q964 -141 979 -120Q994 -99 1027 -99Q1056 -99 1074 -117.5Q1092 -136 1092 -162Q1092 -181 1080 -200Q1068 -219 1045 -234Q1022 -249 989 -258.5Q956 -268 915 -268Z" glyph-name="Kcommaaccent.swsh" horiz-adv-x="755" /><glyph d="M234 -346Q247 -343 263 -336Q279 -329 293 -319Q307 -309 316.5 -297.5Q326 -286 326 -275Q326 -258 311.5 -248.5Q297 -239 280 -228.5Q263 -218 248.5 -202.5Q234 -187 234 -157Q234 -122 260.5 -98Q287 -74 325 -74Q360 -74 382.5 -98Q405 -122 405 -169Q405 -199 391 -231Q377 -263 354 -290Q331 -317 301.5 -336.5Q272 -356 240 -361ZM465 691Q450 689 434.5 684Q419 679 405 667.5Q391 656 379.5 637Q368 618 361 588L247 113Q240 83 242 64Q244 45 252 33.5Q260 22 273.5 16.5Q287 11 302 10L299 0H-35L-32 10Q-17 11 -2.5 16.5Q12 22 25.5 33.5Q39 45 50.5 64Q62 83 69 113L184 588Q191 618 189 637Q187 656 178.5 667.5Q170 679 157.5 684Q145 689 131 691L134 701H468ZM840 -237Q777 -237 713 -213Q649 -189 583.5 -127Q518 -65 452.5 41Q387 147 323 312L326 327L523 530Q561 569 577 598.5Q593 628 592.5 647.5Q592 667 579 677.5Q566 688 546 691L549 701H813L810 691Q750 683 686.5 642Q623 601 551 526L468 441Q545 250 602.5 124Q660 -2 706 -77Q752 -152 789 -182.5Q826 -213 862 -213Q882 -213 887 -206.5Q892 -200 892 -188Q892 -177 890.5 -163.5Q889 -150 889 -136Q889 -111 904 -90Q919 -69 952 -69Q981 -69 999 -87Q1017 -105 1017 -132Q1017 -151 1005 -169.5Q993 -188 970 -203Q947 -218 914 -227.5Q881 -237 840 -237Z" glyph-name="Kcommaaccent.swsh2" horiz-adv-x="755" /><glyph d="M225 21H293Q333 21 376.5 39Q420 57 462 87.5Q504 118 542.5 159.5Q581 201 611 249H629L540 0H-35L-32 10Q-17 11 -2 16.5Q13 22 26.5 33Q40 44 51 63Q62 82 69 112L182 586Q189 616 187 635Q185 654 177 666Q169 678 157 683Q145 688 131 690L134 700H468L465 690Q450 688 434 683Q418 678 403.5 666Q389 654 377.5 635Q366 616 359 586Z" glyph-name="L" horiz-adv-x="647" unicode="L" /><glyph d="M191 18H234Q295 18 362.5 64Q430 110 494 207H510L434 0H-34L-31 10Q-19 11 -7.5 15Q4 19 14.5 28Q25 37 34 53Q43 69 49 93L134 442Q145 489 132.5 507Q120 525 94 527L97 537H385L382 527Q370 526 357 521.5Q344 517 332 507.5Q320 498 310.5 482Q301 466 295 442Z" glyph-name="L.smcp" horiz-adv-x="536" /><glyph d="M225 21H293Q333 21 376.5 39Q420 57 462 87.5Q504 118 542.5 159.5Q581 201 611 249H629L540 0H-35L-32 10Q-17 11 -2 16.5Q13 22 26.5 33Q40 44 51 63Q62 82 69 112L182 586Q189 616 187 635Q185 654 177 666Q169 678 157 683Q145 688 131 690L134 700H468L465 690Q450 688 434 683Q418 678 403.5 666Q389 654 377.5 635Q366 616 359 586ZM377 898Q401 922 429 922Q452 922 466 907.5Q480 893 480 872Q480 853 467 836Q454 819 423 811L269 771H258Z" glyph-name="Lacute" horiz-adv-x="647" unicode="&#313;" /><glyph d="M191 18H234Q295 18 362.5 64Q430 110 494 207H510L434 0H-34L-31 10Q-19 11 -7.5 15Q4 19 14.5 28Q25 37 34 53Q43 69 49 93L134 442Q145 489 132.5 507Q120 525 94 527L97 537H385L382 527Q370 526 357 521.5Q344 517 332 507.5Q320 498 310.5 482Q301 466 295 442ZM316 735Q340 759 368 759Q391 759 405 744.5Q419 730 419 709Q419 690 406 673Q393 656 362 648L208 608H197Z" glyph-name="Lacute.smcp" horiz-adv-x="536" /><glyph d="M225 21H293Q333 21 376.5 39Q420 57 462 87.5Q504 118 542.5 159.5Q581 201 611 249H629L540 0H-35L-32 10Q-17 11 -2 16.5Q13 22 26.5 33Q40 44 51 63Q62 82 69 112L182 586Q189 616 187 635Q185 654 177 666Q169 678 157 683Q145 688 131 690L134 700H468L465 690Q450 688 434 683Q418 678 403.5 666Q389 654 377.5 635Q366 616 359 586ZM515 455 547 655Q552 693 571.5 709.5Q591 726 614 726Q635 726 650 713Q665 700 665 676Q665 665 660.5 650.5Q656 636 644 617L524 455Z" glyph-name="Lcaron" horiz-adv-x="646" unicode="&#317;" /><glyph d="M191 18H234Q295 18 362.5 64Q430 110 494 207H510L434 0H-34L-31 10Q-19 11 -7.5 15Q4 19 14.5 28Q25 37 34 53Q43 69 49 93L134 442Q145 489 132.5 507Q120 525 94 527L97 537H385L382 527Q370 526 357 521.5Q344 517 332 507.5Q320 498 310.5 482Q301 466 295 442ZM398 291 430 491Q435 529 454.5 545.5Q474 562 497 562Q518 562 533 549Q548 536 548 512Q548 501 543.5 486.5Q539 472 527 453L407 291Z" glyph-name="Lcaron.smcp" horiz-adv-x="536" /><glyph d="M163 -346Q176 -343 192 -336Q208 -329 222 -319Q236 -309 245.5 -297.5Q255 -286 255 -275Q255 -258 240.5 -248.5Q226 -239 209 -228.5Q192 -218 177.5 -202.5Q163 -187 163 -157Q163 -122 189.5 -98Q216 -74 254 -74Q289 -74 311.5 -98Q334 -122 334 -169Q334 -199 320 -231Q306 -263 283 -290Q260 -317 230.5 -336.5Q201 -356 169 -361ZM225 21H293Q333 21 376.5 39Q420 57 462 87.5Q504 118 542.5 159.5Q581 201 611 249H629L540 0H-35L-32 10Q-17 11 -2 16.5Q13 22 26.5 33Q40 44 51 63Q62 82 69 112L182 586Q189 616 187 635Q185 654 177 666Q169 678 157 683Q145 688 131 690L134 700H468L465 690Q450 688 434 683Q418 678 403.5 666Q389 654 377.5 635Q366 616 359 586Z" glyph-name="Lcommaaccent" horiz-adv-x="647" unicode="&#315;" /><glyph d="M98 -346Q111 -343 127 -336Q143 -329 157 -319Q171 -309 180.5 -297.5Q190 -286 190 -275Q190 -258 175.5 -248.5Q161 -239 144 -228.5Q127 -218 112.5 -202.5Q98 -187 98 -157Q98 -122 124.5 -98Q151 -74 189 -74Q224 -74 246.5 -98Q269 -122 269 -169Q269 -199 255 -231Q241 -263 218 -290Q195 -317 165.5 -336.5Q136 -356 104 -361ZM191 18H234Q295 18 362.5 64Q430 110 494 207H510L434 0H-34L-31 10Q-19 11 -7.5 15Q4 19 14.5 28Q25 37 34 53Q43 69 49 93L134 442Q145 489 132.5 507Q120 525 94 527L97 537H385L382 527Q370 526 357 521.5Q344 517 332 507.5Q320 498 310.5 482Q301 466 295 442Z" glyph-name="Lcommaaccent.smcp" horiz-adv-x="536" /><glyph d="M440 385Q440 402 447 417Q454 432 465 443Q476 454 491 460.5Q506 467 523 467Q556 467 579.5 444Q603 421 603 388Q603 371 596 356Q589 341 578 330Q567 319 551.5 312.5Q536 306 520 306Q487 306 463.5 329Q440 352 440 385ZM225 21H293Q333 21 376.5 39Q420 57 462 87.5Q504 118 542.5 159.5Q581 201 611 249H629L540 0H-35L-32 10Q-17 11 -2 16.5Q13 22 26.5 33Q40 44 51 63Q62 82 69 112L182 586Q189 616 187 635Q185 654 177 666Q169 678 157 683Q145 688 131 690L134 700H468L465 690Q450 688 434 683Q418 678 403.5 666Q389 654 377.5 635Q366 616 359 586Z" glyph-name="Ldot" horiz-adv-x="646" unicode="&#319;" /><glyph d="M351 309Q351 326 358 341Q365 356 376 367Q387 378 402 384.5Q417 391 434 391Q467 391 490.5 368Q514 345 514 312Q514 295 507 280Q500 265 489 254Q478 243 462.5 236.5Q447 230 431 230Q398 230 374.5 253Q351 276 351 309ZM191 18H234Q295 18 362.5 64Q430 110 494 207H510L434 0H-34L-31 10Q-19 11 -7.5 15Q4 19 14.5 28Q25 37 34 53Q43 69 49 93L134 442Q145 489 132.5 507Q120 525 94 527L97 537H385L382 527Q370 526 357 521.5Q344 517 332 507.5Q320 498 310.5 482Q301 466 295 442Z" glyph-name="Ldot.smcp" horiz-adv-x="536" /><glyph d="M-35 0 -32 10Q-17 11 -2 16.5Q13 22 26.5 33Q40 44 51 63Q62 82 69 112L88 191L-22 123L-15 155L96 223L182 586Q189 616 187 635Q185 654 177 666Q169 678 157 683Q145 688 131 690L134 700H468L465 690Q450 688 434 683Q418 678 403.5 666Q389 654 377.5 635Q366 616 359 586L303 352L505 476L499 446L296 320L225 21H293Q333 21 376.5 39Q420 57 462 87.5Q504 118 542.5 159.5Q581 201 611 249H629L540 0Z" glyph-name="Lslash" horiz-adv-x="647" unicode="&#321;" /><glyph d="M-34 0 -31 10Q-19 11 -7.5 15Q4 19 14.5 28Q25 37 34 53Q43 69 49 93L59 133L-34 79L-28 106L66 161L134 442Q145 489 132.5 507Q120 525 94 527L97 537H385L382 527Q370 526 357 521.5Q344 517 332 507.5Q320 498 310.5 482Q301 466 295 442L253 271L421 369L415 341L246 242L191 18H234Q295 18 362.5 64Q430 110 494 207H510L434 0Z" glyph-name="Lslash.smcp" horiz-adv-x="535" /><glyph d="M718 589 384 -13H367L348 589L218 290Q155 145 160 79Q165 13 236 10L233 0H-45L-42 10Q-13 11 15 25.5Q43 40 71 71.5Q99 103 128 154Q157 205 190 280L300 531Q314 563 317 591Q320 619 312 640.5Q304 662 283.5 675Q263 688 230 690L233 700H522L532 302L753 700H1031L1028 690Q994 688 969 675.5Q944 663 927 641.5Q910 620 901 592Q892 564 890 531L868 146Q863 78 888 47Q913 16 963 10L960 0H570L573 10Q624 12 652 43.5Q680 75 685 143Z" glyph-name="M" horiz-adv-x="1024" unicode="M" /><glyph d="M557 440 295 -10H282L268 440L155 187Q136 145 131 112.5Q126 80 131.5 57.5Q137 35 152 23Q167 11 189 10L186 0H-47L-44 10Q-23 11 -1.5 20.5Q20 30 42 50Q64 70 86 103Q108 136 130 185L230 404Q252 454 237.5 489.5Q223 525 169 527L172 537H416L424 259L590 537H827L824 527Q770 525 741 489.5Q712 454 709 404L691 117Q685 16 766 10L763 0H436L439 10Q474 11 500.5 34.5Q527 58 532 114Z" glyph-name="M.smcp" horiz-adv-x="833" /><glyph d="M483 248Q438 145 397.5 73Q357 1 316.5 -44Q276 -89 234 -109Q192 -129 145 -129Q100 -129 63 -114.5Q26 -100 -0.5 -74Q-27 -48 -41.5 -12.5Q-56 23 -56 65Q-56 103 -43.5 135Q-31 167 -8.5 190Q14 213 44 226Q74 239 109 239Q134 239 157.5 232.5Q181 226 199 213Q217 200 227.5 180.5Q238 161 238 136Q238 106 221.5 84Q205 62 170 62Q141 62 121.5 79.5Q102 97 102 123Q102 136 106.5 147.5Q111 159 116 168.5Q121 178 125.5 186Q130 194 130 202Q130 222 96 222Q75 222 55.5 213.5Q36 205 20 189Q4 173 -5.5 151Q-15 129 -15 101Q-15 42 28 7.5Q71 -27 150 -27Q193 -27 232 -16Q271 -5 308.5 26.5Q346 58 384 114.5Q422 171 463 262L585 531Q600 562 603 590Q606 618 598 640Q590 662 569 675Q548 688 515 690L518 700H809L817 305L1039 700H1315L1312 690Q1278 688 1253 675.5Q1228 663 1211.5 641.5Q1195 620 1186 592Q1177 564 1175 531L1153 146Q1149 78 1174 45.5Q1199 13 1247 10L1244 0H856L859 10Q909 12 937 43.5Q965 75 970 143L1003 587L669 -13H652L635 593Z" glyph-name="M.swsh" horiz-adv-x="1309" /><glyph d="M538 -13 227 569 144 223Q120 125 143.5 69Q167 13 226 10L223 0H-49L-46 10Q-23 11 -0.5 22Q22 33 43 58Q64 83 82.5 124Q101 165 116 226L188 515Q196 547 196.5 578Q197 609 188 633.5Q179 658 160.5 673Q142 688 114 690L117 700H377L610 258L667 497Q687 581 670 631.5Q653 682 592 690L595 700H852L849 690Q793 687 755 634Q717 581 694 492L570 -13Z" glyph-name="N" horiz-adv-x="743" unicode="N" /><glyph d="M431 -10 172 405 118 196Q106 149 106 115Q106 81 115.5 58Q125 35 142.5 23Q160 11 183 10L180 0H-45L-42 10Q-5 11 30.5 50Q66 89 92 187L141 377Q149 407 147.5 434.5Q146 462 137 482Q128 502 113 514.5Q98 527 79 527L82 537H300L497 222L533 366Q550 436 539 477.5Q528 519 474 527L477 537H687L684 527Q660 525 640.5 512Q621 499 605 478Q589 457 577 430Q565 403 558 373L461 -10Z" glyph-name="N.smcp" horiz-adv-x="616" /><glyph d="M443 259Q389 70 311 -17.5Q233 -105 137 -105Q94 -105 59 -90Q24 -75 -1 -48Q-26 -21 -40 15.5Q-54 52 -54 96Q-54 135 -41.5 167.5Q-29 200 -7 223.5Q15 247 45 260.5Q75 274 110 274Q136 274 159.5 267.5Q183 261 201 248Q219 235 230 215.5Q241 196 241 171Q241 139 223 118Q205 97 173 97Q143 97 124 114Q105 131 105 157Q105 170 109.5 182Q114 194 119 203.5Q124 213 128.5 221.5Q133 230 133 236Q133 246 121.5 251.5Q110 257 96 257Q75 257 55.5 247Q36 237 21 219Q6 201 -3.5 177.5Q-13 154 -13 127Q-13 67 27 32.5Q67 -2 142 -2Q240 -2 310.5 64Q381 130 425 282L493 515Q501 548 501 578.5Q501 609 492 633.5Q483 658 465 673Q447 688 418 690L421 700H676L911 255Q942 397 968.5 488Q995 579 1021.5 631Q1048 683 1076 702.5Q1104 722 1137 722Q1166 722 1185.5 705Q1205 688 1205 659Q1205 630 1186.5 610Q1168 590 1142 590Q1131 590 1122 593.5Q1113 597 1105.5 600.5Q1098 604 1091.5 607.5Q1085 611 1078 611Q1053 611 1033 585.5Q1013 560 991 491Q969 422 942.5 300.5Q916 179 878 -13H836L529 566Z" glyph-name="N.swsh" horiz-adv-x="1095" /><glyph d="M538 -13 227 569 144 223Q120 125 143.5 69Q167 13 226 10L223 0H-49L-46 10Q-23 11 -0.5 22Q22 33 43 58Q64 83 82.5 124Q101 165 116 226L188 515Q196 547 196.5 578Q197 609 188 633.5Q179 658 160.5 673Q142 688 114 690L117 700H377L610 258L667 497Q687 581 670 631.5Q653 682 592 690L595 700H852L849 690Q793 687 755 634Q717 581 694 492L570 -13ZM562 898Q586 922 614 922Q637 922 651 907.5Q665 893 665 872Q665 853 652 836Q639 819 608 811L454 771H443Z" glyph-name="Nacute" horiz-adv-x="743" unicode="&#323;" /><glyph d="M431 -10 172 405 118 196Q106 149 106 115Q106 81 115.5 58Q125 35 142.5 23Q160 11 183 10L180 0H-45L-42 10Q-5 11 30.5 50Q66 89 92 187L141 377Q149 407 147.5 434.5Q146 462 137 482Q128 502 113 514.5Q98 527 79 527L82 537H300L497 222L533 366Q550 436 539 477.5Q528 519 474 527L477 537H687L684 527Q660 525 640.5 512Q621 499 605 478Q589 457 577 430Q565 403 558 373L461 -10ZM463 735Q487 759 515 759Q538 759 552 744.5Q566 730 566 709Q566 690 553 673Q540 656 509 648L355 608H344Z" glyph-name="Nacute.smcp" horiz-adv-x="616" /><glyph d="M443 259Q389 70 311 -17.5Q233 -105 137 -105Q94 -105 59 -90Q24 -75 -1 -48Q-26 -21 -40 15.5Q-54 52 -54 96Q-54 135 -41.5 167.5Q-29 200 -7 223.5Q15 247 45 260.5Q75 274 110 274Q136 274 159.5 267.5Q183 261 201 248Q219 235 230 215.5Q241 196 241 171Q241 139 223 118Q205 97 173 97Q143 97 124 114Q105 131 105 157Q105 170 109.5 182Q114 194 119 203.5Q124 213 128.5 221.5Q133 230 133 236Q133 246 121.5 251.5Q110 257 96 257Q75 257 55.5 247Q36 237 21 219Q6 201 -3.5 177.5Q-13 154 -13 127Q-13 67 27 32.5Q67 -2 142 -2Q240 -2 310.5 64Q381 130 425 282L493 515Q501 548 501 578.5Q501 609 492 633.5Q483 658 465 673Q447 688 418 690L421 700H676L911 255Q942 397 968.5 488Q995 579 1021.5 631Q1048 683 1076 702.5Q1104 722 1137 722Q1166 722 1185.5 705Q1205 688 1205 659Q1205 630 1186.5 610Q1168 590 1142 590Q1131 590 1122 593.5Q1113 597 1105.5 600.5Q1098 604 1091.5 607.5Q1085 611 1078 611Q1053 611 1033 585.5Q1013 560 991 491Q969 422 942.5 300.5Q916 179 878 -13H836L529 566ZM934 898Q958 922 986 922Q1009 922 1023 907.5Q1037 893 1037 872Q1037 853 1024 836Q1011 819 980 811L826 771H815Z" glyph-name="Nacute.swsh" horiz-adv-x="1095" /><glyph d="M538 -13 227 569 144 223Q120 125 143.5 69Q167 13 226 10L223 0H-49L-46 10Q-23 11 -0.5 22Q22 33 43 58Q64 83 82.5 124Q101 165 116 226L188 515Q196 547 196.5 578Q197 609 188 633.5Q179 658 160.5 673Q142 688 114 690L117 700H377L610 258L667 497Q687 581 670 631.5Q653 682 592 690L595 700H852L849 690Q793 687 755 634Q717 581 694 492L570 -13ZM520 851 686 906H700L556 776H461L383 906H399Z" glyph-name="Ncaron" horiz-adv-x="743" unicode="&#327;" /><glyph d="M431 -10 172 405 118 196Q106 149 106 115Q106 81 115.5 58Q125 35 142.5 23Q160 11 183 10L180 0H-45L-42 10Q-5 11 30.5 50Q66 89 92 187L141 377Q149 407 147.5 434.5Q146 462 137 482Q128 502 113 514.5Q98 527 79 527L82 537H300L497 222L533 366Q550 436 539 477.5Q528 519 474 527L477 537H687L684 527Q660 525 640.5 512Q621 499 605 478Q589 457 577 430Q565 403 558 373L461 -10ZM421 688 587 743H601L457 613H362L284 743H300Z" glyph-name="Ncaron.smcp" horiz-adv-x="616" /><glyph d="M443 259Q389 70 311 -17.5Q233 -105 137 -105Q94 -105 59 -90Q24 -75 -1 -48Q-26 -21 -40 15.5Q-54 52 -54 96Q-54 135 -41.5 167.5Q-29 200 -7 223.5Q15 247 45 260.5Q75 274 110 274Q136 274 159.5 267.5Q183 261 201 248Q219 235 230 215.5Q241 196 241 171Q241 139 223 118Q205 97 173 97Q143 97 124 114Q105 131 105 157Q105 170 109.5 182Q114 194 119 203.5Q124 213 128.5 221.5Q133 230 133 236Q133 246 121.5 251.5Q110 257 96 257Q75 257 55.5 247Q36 237 21 219Q6 201 -3.5 177.5Q-13 154 -13 127Q-13 67 27 32.5Q67 -2 142 -2Q240 -2 310.5 64Q381 130 425 282L493 515Q501 548 501 578.5Q501 609 492 633.5Q483 658 465 673Q447 688 418 690L421 700H676L911 255Q942 397 968.5 488Q995 579 1021.5 631Q1048 683 1076 702.5Q1104 722 1137 722Q1166 722 1185.5 705Q1205 688 1205 659Q1205 630 1186.5 610Q1168 590 1142 590Q1131 590 1122 593.5Q1113 597 1105.5 600.5Q1098 604 1091.5 607.5Q1085 611 1078 611Q1053 611 1033 585.5Q1013 560 991 491Q969 422 942.5 300.5Q916 179 878 -13H836L529 566ZM892 851 1058 906H1072L928 776H833L755 906H771Z" glyph-name="Ncaron.swsh" horiz-adv-x="1095" /><glyph d="M186 -346Q199 -343 215 -336Q231 -329 245 -319Q259 -309 268.5 -297.5Q278 -286 278 -275Q278 -258 263.5 -248.5Q249 -239 232 -228.5Q215 -218 200.5 -202.5Q186 -187 186 -157Q186 -122 212.5 -98Q239 -74 277 -74Q312 -74 334.5 -98Q357 -122 357 -169Q357 -199 343 -231Q329 -263 306 -290Q283 -317 253.5 -336.5Q224 -356 192 -361ZM538 -13 227 569 144 223Q120 125 143.5 69Q167 13 226 10L223 0H-49L-46 10Q-23 11 -0.5 22Q22 33 43 58Q64 83 82.5 124Q101 165 116 226L188 515Q196 547 196.5 578Q197 609 188 633.5Q179 658 160.5 673Q142 688 114 690L117 700H377L610 258L667 497Q687 581 670 631.5Q653 682 592 690L595 700H852L849 690Q793 687 755 634Q717 581 694 492L570 -13Z" glyph-name="Ncommaaccent" horiz-adv-x="743" unicode="&#325;" /><glyph d="M117 -346Q130 -343 146 -336Q162 -329 176 -319Q190 -309 199.5 -297.5Q209 -286 209 -275Q209 -258 194.5 -248.5Q180 -239 163 -228.5Q146 -218 131.5 -202.5Q117 -187 117 -157Q117 -122 143.5 -98Q170 -74 208 -74Q243 -74 265.5 -98Q288 -122 288 -169Q288 -199 274 -231Q260 -263 237 -290Q214 -317 184.5 -336.5Q155 -356 123 -361ZM431 -10 172 405 118 196Q106 149 106 115Q106 81 115.5 58Q125 35 142.5 23Q160 11 183 10L180 0H-45L-42 10Q-5 11 30.5 50Q66 89 92 187L141 377Q149 407 147.5 434.5Q146 462 137 482Q128 502 113 514.5Q98 527 79 527L82 537H300L497 222L533 366Q550 436 539 477.5Q528 519 474 527L477 537H687L684 527Q660 525 640.5 512Q621 499 605 478Q589 457 577 430Q565 403 558 373L461 -10Z" glyph-name="Ncommaaccent.smcp" horiz-adv-x="616" /><glyph d="M446 -346Q459 -343 475 -336Q491 -329 505 -319Q519 -309 528.5 -297.5Q538 -286 538 -275Q538 -258 523.5 -248.5Q509 -239 492 -228.5Q475 -218 460.5 -202.5Q446 -187 446 -157Q446 -122 472.5 -98Q499 -74 537 -74Q572 -74 594.5 -98Q617 -122 617 -169Q617 -199 603 -231Q589 -263 566 -290Q543 -317 513.5 -336.5Q484 -356 452 -361ZM443 259Q389 70 311 -17.5Q233 -105 137 -105Q94 -105 59 -90Q24 -75 -1 -48Q-26 -21 -40 15.5Q-54 52 -54 96Q-54 135 -41.5 167.5Q-29 200 -7 223.5Q15 247 45 260.5Q75 274 110 274Q136 274 159.5 267.5Q183 261 201 248Q219 235 230 215.5Q241 196 241 171Q241 139 223 118Q205 97 173 97Q143 97 124 114Q105 131 105 157Q105 170 109.5 182Q114 194 119 203.5Q124 213 128.5 221.5Q133 230 133 236Q133 246 121.5 251.5Q110 257 96 257Q75 257 55.5 247Q36 237 21 219Q6 201 -3.5 177.5Q-13 154 -13 127Q-13 67 27 32.5Q67 -2 142 -2Q240 -2 310.5 64Q381 130 425 282L493 515Q501 548 501 578.5Q501 609 492 633.5Q483 658 465 673Q447 688 418 690L421 700H676L911 255Q942 397 968.5 488Q995 579 1021.5 631Q1048 683 1076 702.5Q1104 722 1137 722Q1166 722 1185.5 705Q1205 688 1205 659Q1205 630 1186.5 610Q1168 590 1142 590Q1131 590 1122 593.5Q1113 597 1105.5 600.5Q1098 604 1091.5 607.5Q1085 611 1078 611Q1053 611 1033 585.5Q1013 560 991 491Q969 422 942.5 300.5Q916 179 878 -13H836L529 566Z" glyph-name="Ncommaaccent.swsh" horiz-adv-x="1095" /><glyph d="M538 -13 227 569 144 223Q120 125 143.5 69Q167 13 226 10L223 0H-49L-46 10Q-23 11 -0.5 22Q22 33 43 58Q64 83 82.5 124Q101 165 116 226L188 515Q196 547 196.5 578Q197 609 188 633.5Q179 658 160.5 673Q142 688 114 690L117 700H377L610 258L667 497Q687 581 670 631.5Q653 682 592 690L595 700H852L849 690Q793 687 755 634Q717 581 694 492L570 -13ZM692 902Q685 846 651.5 811.5Q618 777 574 777Q554 777 537 783.5Q520 790 503 798Q486 806 469.5 812.5Q453 819 435 819Q413 819 397.5 807.5Q382 796 371 778L361 780Q368 835 402 869.5Q436 904 480 904Q499 904 516.5 897.5Q534 891 550.5 883Q567 875 584 868.5Q601 862 619 862Q641 862 656.5 873.5Q672 885 683 904Z" glyph-name="Ntilde" horiz-adv-x="743" unicode="&#209;" /><glyph d="M431 -10 172 405 118 196Q106 149 106 115Q106 81 115.5 58Q125 35 142.5 23Q160 11 183 10L180 0H-45L-42 10Q-5 11 30.5 50Q66 89 92 187L141 377Q149 407 147.5 434.5Q146 462 137 482Q128 502 113 514.5Q98 527 79 527L82 537H300L497 222L533 366Q550 436 539 477.5Q528 519 474 527L477 537H687L684 527Q660 525 640.5 512Q621 499 605 478Q589 457 577 430Q565 403 558 373L461 -10ZM593 739Q586 683 552.5 648.5Q519 614 475 614Q455 614 438 620.5Q421 627 404 635Q387 643 370.5 649.5Q354 656 336 656Q314 656 298.5 644.5Q283 633 272 615L262 617Q269 672 303 706.5Q337 741 381 741Q400 741 417.5 734.5Q435 728 451.5 720Q468 712 485 705.5Q502 699 520 699Q542 699 557.5 710.5Q573 722 584 741Z" glyph-name="Ntilde.smcp" horiz-adv-x="616" /><glyph d="M443 259Q389 70 311 -17.5Q233 -105 137 -105Q94 -105 59 -90Q24 -75 -1 -48Q-26 -21 -40 15.5Q-54 52 -54 96Q-54 135 -41.5 167.5Q-29 200 -7 223.5Q15 247 45 260.5Q75 274 110 274Q136 274 159.5 267.5Q183 261 201 248Q219 235 230 215.5Q241 196 241 171Q241 139 223 118Q205 97 173 97Q143 97 124 114Q105 131 105 157Q105 170 109.5 182Q114 194 119 203.5Q124 213 128.5 221.5Q133 230 133 236Q133 246 121.5 251.5Q110 257 96 257Q75 257 55.5 247Q36 237 21 219Q6 201 -3.5 177.5Q-13 154 -13 127Q-13 67 27 32.5Q67 -2 142 -2Q240 -2 310.5 64Q381 130 425 282L493 515Q501 548 501 578.5Q501 609 492 633.5Q483 658 465 673Q447 688 418 690L421 700H676L911 255Q942 397 968.5 488Q995 579 1021.5 631Q1048 683 1076 702.5Q1104 722 1137 722Q1166 722 1185.5 705Q1205 688 1205 659Q1205 630 1186.5 610Q1168 590 1142 590Q1131 590 1122 593.5Q1113 597 1105.5 600.5Q1098 604 1091.5 607.5Q1085 611 1078 611Q1053 611 1033 585.5Q1013 560 991 491Q969 422 942.5 300.5Q916 179 878 -13H836L529 566ZM1064 902Q1057 846 1023.5 811.5Q990 777 946 777Q926 777 909 783.5Q892 790 875 798Q858 806 841.5 812.5Q825 819 807 819Q785 819 769.5 807.5Q754 796 743 778L733 780Q740 835 774 869.5Q808 904 852 904Q871 904 888.5 897.5Q906 891 922.5 883Q939 875 956 868.5Q973 862 991 862Q1013 862 1028.5 873.5Q1044 885 1055 904Z" glyph-name="Ntilde.swsh" horiz-adv-x="1095" /><glyph d="M369 0Q419 0 462.5 41.5Q506 83 538.5 150Q571 217 589.5 301Q608 385 608 469Q608 532 597 576Q586 620 568 647Q550 674 526.5 686Q503 698 479 698Q431 698 388 658Q345 618 312.5 552Q280 486 261 402Q242 318 242 230Q242 167 252.5 123.5Q263 80 281 52.5Q299 25 322 12.5Q345 0 369 0ZM368 -21Q301 -21 243 3.5Q185 28 142 71Q99 114 74.5 172Q50 230 50 296Q50 348 64.5 399.5Q79 451 106.5 498Q134 545 172.5 585.5Q211 626 259 656Q307 686 363 703Q419 720 481 720Q550 720 608 696Q666 672 709 629.5Q752 587 776 528Q800 469 800 399Q800 311 764 234.5Q728 158 668 101Q608 44 530 11.5Q452 -21 368 -21Z" glyph-name="O" horiz-adv-x="802" unicode="O" /><glyph d="M293 -1Q328 -1 358.5 32Q389 65 412 117.5Q435 170 448.5 234.5Q462 299 462 363Q462 451 437 493.5Q412 536 374 536Q340 536 309 504.5Q278 473 254 422Q230 371 216 307Q202 243 202 177Q202 85 228.5 42Q255 -1 293 -1ZM296 -17Q240 -17 191.5 2Q143 21 107.5 54.5Q72 88 52 133.5Q32 179 32 231Q32 288 57.5 346Q83 404 128.5 450Q174 496 237 525Q300 554 374 554Q429 554 476.5 535.5Q524 517 558.5 484Q593 451 612.5 405.5Q632 360 632 305Q632 235 602.5 176Q573 117 525.5 74Q478 31 417.5 7Q357 -17 296 -17Z" glyph-name="O.smcp" horiz-adv-x="653" /><glyph d="M456 0Q430 -6 404 -10Q378 -14 349 -14Q287 -14 232.5 9Q178 32 137.5 73.5Q97 115 73.5 171.5Q50 228 50 296Q50 374 84.5 448.5Q119 523 180 581.5Q241 640 324 676Q407 712 504 712Q530 712 553.5 708.5Q577 705 600 700H1121L1105 514H1090Q1074 554 1050.5 585Q1027 616 998.5 637Q970 658 938 668.5Q906 679 872 679H819L747 380H793Q823 380 852.5 389.5Q882 399 907.5 416Q933 433 953.5 456.5Q974 480 985 507H998L935 228H921Q923 256 914 280Q905 304 887 321.5Q869 339 843.5 349Q818 359 788 359H742L661 21H724Q758 21 801.5 34Q845 47 889.5 72Q934 97 974 134Q1014 171 1043 220H1060L993 0ZM355 6Q380 6 405.5 17Q431 28 453 47Q475 66 491 91.5Q507 117 514 146L609 543Q620 586 614.5 615Q609 644 593.5 661.5Q578 679 555.5 686.5Q533 694 510 694Q472 694 437.5 676Q403 658 373.5 626Q344 594 320 550Q296 506 278.5 455Q261 404 251.5 348Q242 292 241 235Q239 118 271.5 62Q304 6 355 6Z" glyph-name="OE" horiz-adv-x="1092" unicode="&#338;" /><glyph d="M361 0Q341 -5 322 -8Q303 -11 280 -11Q229 -11 183.5 6.5Q138 24 104.5 55.5Q71 87 51.5 131Q32 175 32 227Q32 288 61 345.5Q90 403 139.5 447Q189 491 255.5 518Q322 545 396 545Q416 545 433 542.5Q450 540 466 537H895L881 389H869Q835 458 788 488.5Q741 519 687 519H667L612 295H635Q679 295 719 322Q759 349 788 395H798L746 170H735Q734 191 726.5 210Q719 229 705.5 244Q692 259 673 268Q654 277 630 277H608L544 18H593Q621 18 653.5 27.5Q686 37 718.5 56.5Q751 76 782 105.5Q813 135 838 174H851L796 0ZM295 6Q332 6 361 30.5Q390 55 401 98L484 428Q490 451 486 469.5Q482 488 471.5 500.5Q461 513 445.5 520Q430 527 413 527Q368 527 329 496.5Q290 466 261.5 415.5Q233 365 217 299Q201 233 201 162Q200 83 226.5 44.5Q253 6 295 6Z" glyph-name="OE.smcp" horiz-adv-x="893" /><glyph d="M369 0Q419 0 462.5 41.5Q506 83 538.5 150Q571 217 589.5 301Q608 385 608 469Q608 532 597 576Q586 620 568 647Q550 674 526.5 686Q503 698 479 698Q431 698 388 658Q345 618 312.5 552Q280 486 261 402Q242 318 242 230Q242 167 252.5 123.5Q263 80 281 52.5Q299 25 322 12.5Q345 0 369 0ZM368 -21Q301 -21 243 3.5Q185 28 142 71Q99 114 74.5 172Q50 230 50 296Q50 348 64.5 399.5Q79 451 106.5 498Q134 545 172.5 585.5Q211 626 259 656Q307 686 363 703Q419 720 481 720Q550 720 608 696Q666 672 709 629.5Q752 587 776 528Q800 469 800 399Q800 311 764 234.5Q728 158 668 101Q608 44 530 11.5Q452 -21 368 -21ZM557 898Q581 922 609 922Q632 922 646 907.5Q660 893 660 872Q660 853 647 836Q634 819 603 811L449 771H438Z" glyph-name="Oacute" horiz-adv-x="802" unicode="&#211;" /><glyph d="M293 -1Q328 -1 358.5 32Q389 65 412 117.5Q435 170 448.5 234.5Q462 299 462 363Q462 451 437 493.5Q412 536 374 536Q340 536 309 504.5Q278 473 254 422Q230 371 216 307Q202 243 202 177Q202 85 228.5 42Q255 -1 293 -1ZM296 -17Q240 -17 191.5 2Q143 21 107.5 54.5Q72 88 52 133.5Q32 179 32 231Q32 288 57.5 346Q83 404 128.5 450Q174 496 237 525Q300 554 374 554Q429 554 476.5 535.5Q524 517 558.5 484Q593 451 612.5 405.5Q632 360 632 305Q632 235 602.5 176Q573 117 525.5 74Q478 31 417.5 7Q357 -17 296 -17ZM460 735Q484 759 512 759Q535 759 549 744.5Q563 730 563 709Q563 690 550 673Q537 656 506 648L352 608H341Z" glyph-name="Oacute.smcp" horiz-adv-x="653" /><glyph d="M369 0Q419 0 462.5 41.5Q506 83 538.5 150Q571 217 589.5 301Q608 385 608 469Q608 532 597 576Q586 620 568 647Q550 674 526.5 686Q503 698 479 698Q431 698 388 658Q345 618 312.5 552Q280 486 261 402Q242 318 242 230Q242 167 252.5 123.5Q263 80 281 52.5Q299 25 322 12.5Q345 0 369 0ZM368 -21Q301 -21 243 3.5Q185 28 142 71Q99 114 74.5 172Q50 230 50 296Q50 348 64.5 399.5Q79 451 106.5 498Q134 545 172.5 585.5Q211 626 259 656Q307 686 363 703Q419 720 481 720Q550 720 608 696Q666 672 709 629.5Q752 587 776 528Q800 469 800 399Q800 311 764 234.5Q728 158 668 101Q608 44 530 11.5Q452 -21 368 -21ZM512 779Q482 779 457 787Q432 795 414 812Q396 829 387.5 854.5Q379 880 382 915H396Q401 888 429.5 872Q458 856 515 856Q574 856 607 873Q640 890 650 915H664Q661 881 648 855.5Q635 830 614 813Q593 796 566.5 787.5Q540 779 512 779Z" glyph-name="Obreve" horiz-adv-x="802" unicode="&#334;" /><glyph d="M293 -1Q328 -1 358.5 32Q389 65 412 117.5Q435 170 448.5 234.5Q462 299 462 363Q462 451 437 493.5Q412 536 374 536Q340 536 309 504.5Q278 473 254 422Q230 371 216 307Q202 243 202 177Q202 85 228.5 42Q255 -1 293 -1ZM296 -17Q240 -17 191.5 2Q143 21 107.5 54.5Q72 88 52 133.5Q32 179 32 231Q32 288 57.5 346Q83 404 128.5 450Q174 496 237 525Q300 554 374 554Q429 554 476.5 535.5Q524 517 558.5 484Q593 451 612.5 405.5Q632 360 632 305Q632 235 602.5 176Q573 117 525.5 74Q478 31 417.5 7Q357 -17 296 -17ZM416 616Q386 616 361 624Q336 632 318 649Q300 666 291.5 691.5Q283 717 286 752H300Q305 725 333.5 709Q362 693 419 693Q478 693 511 710Q544 727 554 752H568Q565 718 552 692.5Q539 667 518 650Q497 633 470.5 624.5Q444 616 416 616Z" glyph-name="Obreve.smcp" horiz-adv-x="653" /><glyph d="M369 0Q419 0 462.5 41.5Q506 83 538.5 150Q571 217 589.5 301Q608 385 608 469Q608 532 597 576Q586 620 568 647Q550 674 526.5 686Q503 698 479 698Q431 698 388 658Q345 618 312.5 552Q280 486 261 402Q242 318 242 230Q242 167 252.5 123.5Q263 80 281 52.5Q299 25 322 12.5Q345 0 369 0ZM368 -21Q301 -21 243 3.5Q185 28 142 71Q99 114 74.5 172Q50 230 50 296Q50 348 64.5 399.5Q79 451 106.5 498Q134 545 172.5 585.5Q211 626 259 656Q307 686 363 703Q419 720 481 720Q550 720 608 696Q666 672 709 629.5Q752 587 776 528Q800 469 800 399Q800 311 764 234.5Q728 158 668 101Q608 44 530 11.5Q452 -21 368 -21ZM524 832 358 776H344L488 906H583L661 776H644Z" glyph-name="Ocircumflex" horiz-adv-x="802" unicode="&#212;" /><glyph d="M293 -1Q328 -1 358.5 32Q389 65 412 117.5Q435 170 448.5 234.5Q462 299 462 363Q462 451 437 493.5Q412 536 374 536Q340 536 309 504.5Q278 473 254 422Q230 371 216 307Q202 243 202 177Q202 85 228.5 42Q255 -1 293 -1ZM296 -17Q240 -17 191.5 2Q143 21 107.5 54.5Q72 88 52 133.5Q32 179 32 231Q32 288 57.5 346Q83 404 128.5 450Q174 496 237 525Q300 554 374 554Q429 554 476.5 535.5Q524 517 558.5 484Q593 451 612.5 405.5Q632 360 632 305Q632 235 602.5 176Q573 117 525.5 74Q478 31 417.5 7Q357 -17 296 -17ZM428 669 262 613H248L392 743H487L565 613H548Z" glyph-name="Ocircumflex.smcp" horiz-adv-x="653" /><glyph d="M369 0Q419 0 462.5 41.5Q506 83 538.5 150Q571 217 589.5 301Q608 385 608 469Q608 532 597 576Q586 620 568 647Q550 674 526.5 686Q503 698 479 698Q431 698 388 658Q345 618 312.5 552Q280 486 261 402Q242 318 242 230Q242 167 252.5 123.5Q263 80 281 52.5Q299 25 322 12.5Q345 0 369 0ZM368 -21Q301 -21 243 3.5Q185 28 142 71Q99 114 74.5 172Q50 230 50 296Q50 348 64.5 399.5Q79 451 106.5 498Q134 545 172.5 585.5Q211 626 259 656Q307 686 363 703Q419 720 481 720Q550 720 608 696Q666 672 709 629.5Q752 587 776 528Q800 469 800 399Q800 311 764 234.5Q728 158 668 101Q608 44 530 11.5Q452 -21 368 -21ZM539 858Q539 875 546 890Q553 905 564 916Q575 927 590 933.5Q605 940 622 940Q655 940 678.5 917Q702 894 702 861Q702 844 695 829Q688 814 677 803Q666 792 650.5 785.5Q635 779 619 779Q586 779 562.5 802Q539 825 539 858ZM335 858Q335 875 342 890Q349 905 360 916Q371 927 386 933.5Q401 940 418 940Q451 940 474.5 917Q498 894 498 861Q498 844 491 829Q484 814 473 803Q462 792 446.5 785.5Q431 779 415 779Q382 779 358.5 802Q335 825 335 858Z" glyph-name="Odieresis" horiz-adv-x="802" unicode="&#214;" /><glyph d="M293 -1Q328 -1 358.5 32Q389 65 412 117.5Q435 170 448.5 234.5Q462 299 462 363Q462 451 437 493.5Q412 536 374 536Q340 536 309 504.5Q278 473 254 422Q230 371 216 307Q202 243 202 177Q202 85 228.5 42Q255 -1 293 -1ZM296 -17Q240 -17 191.5 2Q143 21 107.5 54.5Q72 88 52 133.5Q32 179 32 231Q32 288 57.5 346Q83 404 128.5 450Q174 496 237 525Q300 554 374 554Q429 554 476.5 535.5Q524 517 558.5 484Q593 451 612.5 405.5Q632 360 632 305Q632 235 602.5 176Q573 117 525.5 74Q478 31 417.5 7Q357 -17 296 -17ZM443 695Q443 712 450 727Q457 742 468 753Q479 764 494 770.5Q509 777 526 777Q559 777 582.5 754Q606 731 606 698Q606 681 599 666Q592 651 581 640Q570 629 554.5 622.5Q539 616 523 616Q490 616 466.5 639Q443 662 443 695ZM239 695Q239 712 246 727Q253 742 264 753Q275 764 290 770.5Q305 777 322 777Q355 777 378.5 754Q402 731 402 698Q402 681 395 666Q388 651 377 640Q366 629 350.5 622.5Q335 616 319 616Q286 616 262.5 639Q239 662 239 695Z" glyph-name="Odieresis.smcp" horiz-adv-x="653" /><glyph d="M369 0Q419 0 462.5 41.5Q506 83 538.5 150Q571 217 589.5 301Q608 385 608 469Q608 532 597 576Q586 620 568 647Q550 674 526.5 686Q503 698 479 698Q431 698 388 658Q345 618 312.5 552Q280 486 261 402Q242 318 242 230Q242 167 252.5 123.5Q263 80 281 52.5Q299 25 322 12.5Q345 0 369 0ZM368 -21Q301 -21 243 3.5Q185 28 142 71Q99 114 74.5 172Q50 230 50 296Q50 348 64.5 399.5Q79 451 106.5 498Q134 545 172.5 585.5Q211 626 259 656Q307 686 363 703Q419 720 481 720Q550 720 608 696Q666 672 709 629.5Q752 587 776 528Q800 469 800 399Q800 311 764 234.5Q728 158 668 101Q608 44 530 11.5Q452 -21 368 -21ZM550 771 397 811Q366 819 353 836Q340 853 340 872Q340 893 354 907.5Q368 922 391 922Q419 922 443 898L562 771Z" glyph-name="Ograve" horiz-adv-x="802" unicode="&#210;" /><glyph d="M293 -1Q328 -1 358.5 32Q389 65 412 117.5Q435 170 448.5 234.5Q462 299 462 363Q462 451 437 493.5Q412 536 374 536Q340 536 309 504.5Q278 473 254 422Q230 371 216 307Q202 243 202 177Q202 85 228.5 42Q255 -1 293 -1ZM296 -17Q240 -17 191.5 2Q143 21 107.5 54.5Q72 88 52 133.5Q32 179 32 231Q32 288 57.5 346Q83 404 128.5 450Q174 496 237 525Q300 554 374 554Q429 554 476.5 535.5Q524 517 558.5 484Q593 451 612.5 405.5Q632 360 632 305Q632 235 602.5 176Q573 117 525.5 74Q478 31 417.5 7Q357 -17 296 -17ZM454 608 301 648Q270 656 257 673Q244 690 244 709Q244 730 258 744.5Q272 759 295 759Q323 759 347 735L466 608Z" glyph-name="Ograve.smcp" horiz-adv-x="653" /><glyph d="M369 0Q419 0 462.5 41.5Q506 83 538.5 150Q571 217 589.5 301Q608 385 608 469Q608 532 597 576Q586 620 568 647Q550 674 526.5 686Q503 698 479 698Q431 698 388 658Q345 618 312.5 552Q280 486 261 402Q242 318 242 230Q242 167 252.5 123.5Q263 80 281 52.5Q299 25 322 12.5Q345 0 369 0ZM368 -21Q301 -21 243 3.5Q185 28 142 71Q99 114 74.5 172Q50 230 50 296Q50 348 64.5 399.5Q79 451 106.5 498Q134 545 172.5 585.5Q211 626 259 656Q307 686 363 703Q419 720 481 720Q550 720 608 696Q666 672 709 629.5Q752 587 776 528Q800 469 800 399Q800 311 764 234.5Q728 158 668 101Q608 44 530 11.5Q452 -21 368 -21ZM464 885Q486 918 517 918Q535 918 547 907Q559 896 559 880Q559 863 546 846.5Q533 830 507 819L400 775H390ZM631 885Q642 902 656.5 910Q671 918 685 918Q702 918 714 907Q726 896 726 880Q726 863 713.5 846.5Q701 830 675 819L568 775H558Z" glyph-name="Ohungarumlaut" horiz-adv-x="802" unicode="&#336;" /><glyph d="M293 -1Q328 -1 358.5 32Q389 65 412 117.5Q435 170 448.5 234.5Q462 299 462 363Q462 451 437 493.5Q412 536 374 536Q340 536 309 504.5Q278 473 254 422Q230 371 216 307Q202 243 202 177Q202 85 228.5 42Q255 -1 293 -1ZM296 -17Q240 -17 191.5 2Q143 21 107.5 54.5Q72 88 52 133.5Q32 179 32 231Q32 288 57.5 346Q83 404 128.5 450Q174 496 237 525Q300 554 374 554Q429 554 476.5 535.5Q524 517 558.5 484Q593 451 612.5 405.5Q632 360 632 305Q632 235 602.5 176Q573 117 525.5 74Q478 31 417.5 7Q357 -17 296 -17ZM368 722Q390 755 421 755Q439 755 451 744Q463 733 463 717Q463 700 450 683.5Q437 667 411 656L304 612H294ZM535 722Q546 739 560.5 747Q575 755 589 755Q606 755 618 744Q630 733 630 717Q630 700 617.5 683.5Q605 667 579 656L472 612H462Z" glyph-name="Ohungarumlaut.smcp" horiz-adv-x="653" /><glyph d="M369 0Q419 0 462.5 41.5Q506 83 538.5 150Q571 217 589.5 301Q608 385 608 469Q608 532 597 576Q586 620 568 647Q550 674 526.5 686Q503 698 479 698Q431 698 388 658Q345 618 312.5 552Q280 486 261 402Q242 318 242 230Q242 167 252.5 123.5Q263 80 281 52.5Q299 25 322 12.5Q345 0 369 0ZM368 -21Q301 -21 243 3.5Q185 28 142 71Q99 114 74.5 172Q50 230 50 296Q50 348 64.5 399.5Q79 451 106.5 498Q134 545 172.5 585.5Q211 626 259 656Q307 686 363 703Q419 720 481 720Q550 720 608 696Q666 672 709 629.5Q752 587 776 528Q800 469 800 399Q800 311 764 234.5Q728 158 668 101Q608 44 530 11.5Q452 -21 368 -21ZM656 845 650 814H377L383 845Z" glyph-name="Omacron" horiz-adv-x="802" unicode="&#332;" /><glyph d="M293 -1Q328 -1 358.5 32Q389 65 412 117.5Q435 170 448.5 234.5Q462 299 462 363Q462 451 437 493.5Q412 536 374 536Q340 536 309 504.5Q278 473 254 422Q230 371 216 307Q202 243 202 177Q202 85 228.5 42Q255 -1 293 -1ZM296 -17Q240 -17 191.5 2Q143 21 107.5 54.5Q72 88 52 133.5Q32 179 32 231Q32 288 57.5 346Q83 404 128.5 450Q174 496 237 525Q300 554 374 554Q429 554 476.5 535.5Q524 517 558.5 484Q593 451 612.5 405.5Q632 360 632 305Q632 235 602.5 176Q573 117 525.5 74Q478 31 417.5 7Q357 -17 296 -17ZM560 682 554 651H281L287 682Z" glyph-name="Omacron.smcp" horiz-adv-x="653" /><glyph d="M369 0Q419 0 462.5 41.5Q506 83 538.5 150Q571 217 589.5 301Q608 385 608 469Q608 481 607.5 492Q607 503 606 514L245 166Q250 121 262.5 89.5Q275 58 291.5 38Q308 18 328 9Q348 0 369 0ZM242 230Q242 221 242 212Q242 203 243 195L603 542Q597 585 584.5 614.5Q572 644 555.5 662.5Q539 681 519.5 689.5Q500 698 479 698Q431 698 388 658Q345 618 312.5 552Q280 486 261 402Q242 318 242 230ZM368 -21Q302 -21 244.5 3Q187 27 144 69L68 -5H35L129 85Q91 127 70.5 181Q50 235 50 296Q50 348 64.5 399.5Q79 451 106.5 498Q134 545 172.5 585.5Q211 626 259 656Q307 686 363 703Q419 720 481 720Q547 720 603 698Q659 676 701 637L773 706H806L718 621Q756 579 778 522.5Q800 466 800 399Q800 311 764 234.5Q728 158 668 101Q608 44 530 11.5Q452 -21 368 -21Z" glyph-name="Oslash" horiz-adv-x="802" unicode="&#216;" /><glyph d="M293 -1Q328 -1 358.5 32Q389 65 412 117.5Q435 170 448.5 234.5Q462 299 462 363V386L204 137Q209 66 234 32.5Q259 -1 293 -1ZM202 166 459 413Q452 476 429 506Q406 536 374 536Q340 536 309 504.5Q278 473 254 422Q230 371 216 307Q202 243 202 177ZM296 -17Q242 -17 195 0.5Q148 18 113 50L56 -5H25L98 65Q66 98 49 140.5Q32 183 32 231Q32 288 57.5 346Q83 404 128.5 450Q174 496 237 525Q300 554 374 554Q425 554 468 539Q511 524 545 496L593 542H624L561 481Q594 449 613 404Q632 359 632 305Q632 235 602.5 176Q573 117 525.5 74Q478 31 417.5 7Q357 -17 296 -17Z" glyph-name="Oslash.smcp" horiz-adv-x="653" /><glyph d="M369 0Q419 0 462.5 41.5Q506 83 538.5 150Q571 217 589.5 301Q608 385 608 469Q608 532 597 576Q586 620 568 647Q550 674 526.5 686Q503 698 479 698Q431 698 388 658Q345 618 312.5 552Q280 486 261 402Q242 318 242 230Q242 167 252.5 123.5Q263 80 281 52.5Q299 25 322 12.5Q345 0 369 0ZM368 -21Q301 -21 243 3.5Q185 28 142 71Q99 114 74.5 172Q50 230 50 296Q50 348 64.5 399.5Q79 451 106.5 498Q134 545 172.5 585.5Q211 626 259 656Q307 686 363 703Q419 720 481 720Q550 720 608 696Q666 672 709 629.5Q752 587 776 528Q800 469 800 399Q800 311 764 234.5Q728 158 668 101Q608 44 530 11.5Q452 -21 368 -21ZM685 902Q678 846 644.5 811.5Q611 777 567 777Q547 777 530 783.5Q513 790 496 798Q479 806 462.5 812.5Q446 819 428 819Q406 819 390.5 807.5Q375 796 364 778L354 780Q361 835 395 869.5Q429 904 473 904Q492 904 509.5 897.5Q527 891 543.5 883Q560 875 577 868.5Q594 862 612 862Q634 862 649.5 873.5Q665 885 676 904Z" glyph-name="Otilde" horiz-adv-x="802" unicode="&#213;" /><glyph d="M293 -1Q328 -1 358.5 32Q389 65 412 117.5Q435 170 448.5 234.5Q462 299 462 363Q462 451 437 493.5Q412 536 374 536Q340 536 309 504.5Q278 473 254 422Q230 371 216 307Q202 243 202 177Q202 85 228.5 42Q255 -1 293 -1ZM296 -17Q240 -17 191.5 2Q143 21 107.5 54.5Q72 88 52 133.5Q32 179 32 231Q32 288 57.5 346Q83 404 128.5 450Q174 496 237 525Q300 554 374 554Q429 554 476.5 535.5Q524 517 558.5 484Q593 451 612.5 405.5Q632 360 632 305Q632 235 602.5 176Q573 117 525.5 74Q478 31 417.5 7Q357 -17 296 -17ZM590 739Q583 683 549.5 648.5Q516 614 472 614Q452 614 435 620.5Q418 627 401 635Q384 643 367.5 649.5Q351 656 333 656Q311 656 295.5 644.5Q280 633 269 615L259 617Q266 672 300 706.5Q334 741 378 741Q397 741 414.5 734.5Q432 728 448.5 720Q465 712 482 705.5Q499 699 517 699Q539 699 554.5 710.5Q570 722 581 741Z" glyph-name="Otilde.smcp" horiz-adv-x="653" /><glyph d="M288 285H328Q382 285 420 306Q458 327 482 361.5Q506 396 517 439Q528 482 528 526Q528 604 499 641.5Q470 679 416 679H382ZM299 0H-35L-32 10Q-17 11 -2 16.5Q13 22 26.5 33.5Q40 45 51 64Q62 83 69 113L183 591Q189 617 187.5 635.5Q186 654 178 665.5Q170 677 158 682.5Q146 688 131 690L134 700H452Q516 700 563 686.5Q610 673 640.5 649Q671 625 686 591Q701 557 701 517Q701 461 675.5 414.5Q650 368 603.5 333.5Q557 299 492.5 280Q428 261 350 261H282L247 113Q240 83 242 64Q244 45 252.5 33.5Q261 22 274 16.5Q287 11 302 10Z" glyph-name="P" horiz-adv-x="680" unicode="P" /><glyph d="M240 215H256Q300 215 329.5 234Q359 253 377 282.5Q395 312 403 346.5Q411 381 411 412Q411 467 391.5 493Q372 519 339 519H314ZM250 0H-34L-31 10Q-19 11 -7 15Q5 19 15.5 28.5Q26 38 34.5 54Q43 70 49 94L135 447Q141 469 139.5 484Q138 499 131.5 508Q125 517 115 521.5Q105 526 94 527L97 537H358Q414 537 454 525.5Q494 514 519.5 494.5Q545 475 556.5 448.5Q568 422 568 392Q568 349 546.5 313Q525 277 486.5 250.5Q448 224 394 209Q340 194 275 194H234L210 94Q204 70 206 54.5Q208 39 214.5 29.5Q221 20 231.5 15.5Q242 11 253 10Z" glyph-name="P.smcp" horiz-adv-x="565" /><glyph d="M242 230Q242 167 252.5 123.5Q263 80 281 52.5Q299 25 321.5 12.5Q344 0 368 0Q419 0 462.5 41.5Q506 83 538.5 150Q571 217 589.5 301Q608 385 608 469Q608 532 597 576Q586 620 568 647Q550 674 527.5 686Q505 698 481 698Q432 698 388.5 657.5Q345 617 312.5 551Q280 485 261 401Q242 317 242 230ZM450 -294Q402 -294 358 -277Q314 -260 273.5 -239Q233 -218 194.5 -201Q156 -184 118 -184Q96 -184 73 -191Q50 -198 35 -209L27 -202Q53 -170 87 -139.5Q121 -109 158.5 -83.5Q196 -58 234.5 -40Q273 -22 309 -15Q252 -5 204.5 23Q157 51 122.5 92.5Q88 134 69 185.5Q50 237 50 296Q50 374 82 450Q114 526 171.5 586Q229 646 308 683Q387 720 481 720Q549 720 607.5 696Q666 672 708.5 629.5Q751 587 775.5 528Q800 469 800 399Q800 315 767 241Q734 167 678 111Q622 55 549 20.5Q476 -14 397 -20Q337 -25 289.5 -42Q242 -59 203 -82Q255 -79 295.5 -94.5Q336 -110 373.5 -130.5Q411 -151 449 -168.5Q487 -186 535 -186Q582 -186 610.5 -164Q639 -142 657 -109L671 -114Q656 -152 634 -185Q612 -218 584 -242Q556 -266 522 -280Q488 -294 450 -294Z" glyph-name="Q" horiz-adv-x="802" unicode="Q" /><glyph d="M292 -1Q327 -1 358 32Q389 65 412 117.5Q435 170 448.5 234.5Q462 299 462 363Q462 451 437 493.5Q412 536 374 536Q340 536 309 504.5Q278 473 254 422Q230 371 216 307Q202 243 202 177Q202 85 228 42Q254 -1 292 -1ZM342 -231Q307 -231 274.5 -216.5Q242 -202 211 -185Q180 -168 149.5 -154Q119 -140 86 -140Q57 -140 35 -152L30 -146Q47 -124 70 -102.5Q93 -81 120 -63Q147 -45 176.5 -31.5Q206 -18 237 -12Q193 -4 156 17.5Q119 39 91 71Q63 103 47.5 143.5Q32 184 32 229Q32 287 57.5 345Q83 403 128.5 449.5Q174 496 237 525Q300 554 376 554Q430 554 476.5 535.5Q523 517 557.5 484Q592 451 612 404.5Q632 358 632 303Q632 235 604 178Q576 121 530 79Q484 37 424 11.5Q364 -14 301 -17Q287 -17 269.5 -20.5Q252 -24 234 -29Q216 -34 198.5 -40.5Q181 -47 168 -54Q212 -52 241.5 -64.5Q271 -77 296.5 -93Q322 -109 349.5 -122.5Q377 -136 417 -136Q443 -136 469 -124.5Q495 -113 515 -78L525 -82Q467 -231 342 -231Z" glyph-name="Q.smcp" horiz-adv-x="653" /><glyph d="M158 0Q217 0 283 34Q245 73 208.5 99Q172 125 134 125Q103 125 87 106.5Q71 88 71 64Q71 35 93.5 17.5Q116 0 158 0ZM706 -214Q635 -214 577 -192.5Q519 -171 470.5 -137.5Q422 -104 381.5 -64Q341 -24 305 13Q251 -7 200 -17.5Q149 -28 107 -28Q46 -28 10.5 -4Q-25 20 -25 55Q-25 77 -10.5 98Q4 119 31.5 135Q59 151 98.5 160.5Q138 170 187 170Q249 170 299 153.5Q349 137 393 111Q427 142 456.5 179Q486 216 507.5 258Q529 300 541.5 345.5Q554 391 554 438Q554 491 540 533.5Q526 576 501 606Q476 636 441.5 652.5Q407 669 367 669Q328 669 294.5 653.5Q261 638 236.5 612Q212 586 198.5 551Q185 516 185 476Q185 441 195 411Q205 381 223.5 359.5Q242 338 267.5 326Q293 314 324 314Q349 314 370.5 322.5Q392 331 407.5 345Q423 359 431.5 376.5Q440 394 440 413Q440 436 428 447.5Q416 459 400 459Q388 459 379 453Q370 447 361.5 440Q353 433 343.5 427Q334 421 320 421Q298 421 284.5 436Q271 451 271 473Q271 500 293 523.5Q315 547 357 547Q403 547 431.5 514.5Q460 482 459 427Q459 389 444.5 355.5Q430 322 406 297.5Q382 273 349 258.5Q316 244 278 244Q243 244 210.5 256.5Q178 269 153.5 293Q129 317 114.5 351Q100 385 100 428Q100 483 126 536Q152 589 200 629.5Q248 670 316 695Q384 720 468 720Q529 720 578.5 703.5Q628 687 663 655.5Q698 624 717 579Q736 534 736 477Q736 414 712.5 356.5Q689 299 648.5 248Q608 197 554.5 154Q501 111 442 77Q490 41 532 1Q574 -39 616 -73Q658 -107 703.5 -129.5Q749 -152 803 -152Q897 -152 939 -84L952 -91Q922 -148 856 -181Q790 -214 706 -214Z" glyph-name="Q.swsh" horiz-adv-x="737" /><glyph d="M290 0H-35L-32 10Q-17 11 -2 16.5Q13 22 26.5 34Q40 46 51 65.5Q62 85 69 115L182 586Q189 616 187 635Q185 654 177.5 666Q170 678 157.5 683Q145 688 131 690L134 700H468Q526 700 569.5 686.5Q613 673 642 649Q671 625 686 592.5Q701 560 701 523Q701 451 650 395.5Q599 340 512 313L582 128Q594 98 605.5 77.5Q617 57 629.5 43.5Q642 30 655 22Q668 14 682 10L679 0H446L340 290H288L246 115Q239 85 240.5 65.5Q242 46 249 34Q256 22 267.5 16.5Q279 11 293 10ZM293 313H331Q382 313 419 333.5Q456 354 479.5 387Q503 420 514 461.5Q525 503 525 545Q525 612 497.5 645.5Q470 679 419 679H381Z" glyph-name="R" horiz-adv-x="730" unicode="R" /><glyph d="M242 0H-34L-31 10Q-18 11 -6 15.5Q6 20 16.5 30Q27 40 35.5 56Q44 72 50 97L134 441Q146 489 132.5 507Q119 525 94 527L97 537H385Q430 537 465 526Q500 515 524 496.5Q548 478 561 452Q574 426 574 396Q574 344 535.5 302Q497 260 428 238L481 102Q491 77 499.5 61Q508 45 516.5 35Q525 25 533.5 19Q542 13 553 8L551 0H352L273 219H240L210 97Q204 73 205 56.5Q206 40 211.5 30Q217 20 226 15.5Q235 11 245 10ZM245 239H269Q302 239 329 253.5Q356 268 375 293Q394 318 405 350Q416 382 416 418Q416 472 393.5 495.5Q371 519 338 519H313Z" glyph-name="R.smcp" horiz-adv-x="607" /><glyph d="M293 313H331Q383 313 420 333.5Q457 354 480.5 387.5Q504 421 515 462.5Q526 504 526 546Q526 613 498.5 646.5Q471 680 420 680H381ZM928 -270Q857 -270 778.5 -247Q700 -224 622.5 -161.5Q545 -99 472.5 10Q400 119 341 290H288L246 115Q239 85 240.5 65.5Q242 46 249 34Q256 22 267.5 16.5Q279 11 293 10L290 0H-32L-29 10Q1 13 28 34.5Q55 56 69 115L182 587Q189 617 187 636Q185 655 177 667Q169 679 156.5 684Q144 689 131 691L134 701H469Q527 701 570.5 687.5Q614 674 643 650Q672 626 687 593.5Q702 561 702 524Q702 453 652 397.5Q602 342 516 314Q587 149 647.5 40.5Q708 -68 761 -131.5Q814 -195 860.5 -220.5Q907 -246 950 -246Q970 -246 975 -239.5Q980 -233 980 -221Q980 -209 978.5 -195.5Q977 -182 977 -168Q977 -143 992 -122Q1007 -101 1040 -101Q1069 -101 1087 -119Q1105 -137 1105 -164Q1105 -183 1092.5 -202Q1080 -221 1057 -236Q1034 -251 1001.5 -260.5Q969 -270 928 -270Z" glyph-name="R.swsh" horiz-adv-x="729" /><glyph d="M293 313H331Q383 313 420 333.5Q457 354 480.5 387.5Q504 421 515 462.5Q526 504 526 546Q526 613 498.5 646.5Q471 680 420 680H381ZM842 -236Q782 -236 716.5 -213.5Q651 -191 586 -132.5Q521 -74 458.5 28Q396 130 341 290H288L246 115Q239 85 240.5 65.5Q242 46 249 34Q256 22 267.5 16.5Q279 11 293 10L290 0H-32L-29 10Q1 13 28 34.5Q55 56 69 115L182 587Q189 617 187 636Q185 655 177 667Q169 679 156.5 684Q144 689 131 691L134 701H469Q527 701 570.5 687.5Q614 674 643 650Q672 626 687 593.5Q702 561 702 524Q702 453 652 397.5Q602 342 516 314Q580 161 629.5 60Q679 -41 719.5 -101.5Q760 -162 794.5 -187Q829 -212 864 -212Q884 -212 889 -205.5Q894 -199 894 -187Q894 -176 892.5 -162.5Q891 -149 891 -135Q891 -110 906 -89Q921 -68 954 -68Q983 -68 1001 -86Q1019 -104 1019 -131Q1019 -150 1007 -168.5Q995 -187 972 -202Q949 -217 916 -226.5Q883 -236 842 -236Z" glyph-name="R.swsh2" horiz-adv-x="729" /><glyph d="M290 0H-35L-32 10Q-17 11 -2 16.5Q13 22 26.5 34Q40 46 51 65.5Q62 85 69 115L182 586Q189 616 187 635Q185 654 177.5 666Q170 678 157.5 683Q145 688 131 690L134 700H468Q526 700 569.5 686.5Q613 673 642 649Q671 625 686 592.5Q701 560 701 523Q701 451 650 395.5Q599 340 512 313L582 128Q594 98 605.5 77.5Q617 57 629.5 43.5Q642 30 655 22Q668 14 682 10L679 0H446L340 290H288L246 115Q239 85 240.5 65.5Q242 46 249 34Q256 22 267.5 16.5Q279 11 293 10ZM293 313H331Q382 313 419 333.5Q456 354 479.5 387Q503 420 514 461.5Q525 503 525 545Q525 612 497.5 645.5Q470 679 419 679H381ZM507 898Q531 922 559 922Q582 922 596 907.5Q610 893 610 872Q610 853 597 836Q584 819 553 811L399 771H388Z" glyph-name="Racute" horiz-adv-x="730" unicode="&#340;" /><glyph d="M242 0H-34L-31 10Q-18 11 -6 15.5Q6 20 16.5 30Q27 40 35.5 56Q44 72 50 97L134 441Q146 489 132.5 507Q119 525 94 527L97 537H385Q430 537 465 526Q500 515 524 496.5Q548 478 561 452Q574 426 574 396Q574 344 535.5 302Q497 260 428 238L481 102Q491 77 499.5 61Q508 45 516.5 35Q525 25 533.5 19Q542 13 553 8L551 0H352L273 219H240L210 97Q204 73 205 56.5Q206 40 211.5 30Q217 20 226 15.5Q235 11 245 10ZM245 239H269Q302 239 329 253.5Q356 268 375 293Q394 318 405 350Q416 382 416 418Q416 472 393.5 495.5Q371 519 338 519H313ZM419 735Q443 759 471 759Q494 759 508 744.5Q522 730 522 709Q522 690 509 673Q496 656 465 648L311 608H300Z" glyph-name="Racute.smcp" horiz-adv-x="607" /><glyph d="M293 313H331Q383 313 420 333.5Q457 354 480.5 387.5Q504 421 515 462.5Q526 504 526 546Q526 613 498.5 646.5Q471 680 420 680H381ZM928 -270Q857 -270 778.5 -247Q700 -224 622.5 -161.5Q545 -99 472.5 10Q400 119 341 290H288L246 115Q239 85 240.5 65.5Q242 46 249 34Q256 22 267.5 16.5Q279 11 293 10L290 0H-32L-29 10Q1 13 28 34.5Q55 56 69 115L182 587Q189 617 187 636Q185 655 177 667Q169 679 156.5 684Q144 689 131 691L134 701H469Q527 701 570.5 687.5Q614 674 643 650Q672 626 687 593.5Q702 561 702 524Q702 453 652 397.5Q602 342 516 314Q587 149 647.5 40.5Q708 -68 761 -131.5Q814 -195 860.5 -220.5Q907 -246 950 -246Q970 -246 975 -239.5Q980 -233 980 -221Q980 -209 978.5 -195.5Q977 -182 977 -168Q977 -143 992 -122Q1007 -101 1040 -101Q1069 -101 1087 -119Q1105 -137 1105 -164Q1105 -183 1092.5 -202Q1080 -221 1057 -236Q1034 -251 1001.5 -260.5Q969 -270 928 -270ZM507 898Q531 922 559 922Q582 922 596 907.5Q610 893 610 872Q610 853 597 836Q584 819 553 811L399 771H388Z" glyph-name="Racute.swsh" horiz-adv-x="729" /><glyph d="M293 313H331Q383 313 420 333.5Q457 354 480.5 387.5Q504 421 515 462.5Q526 504 526 546Q526 613 498.5 646.5Q471 680 420 680H381ZM842 -236Q782 -236 716.5 -213.5Q651 -191 586 -132.5Q521 -74 458.5 28Q396 130 341 290H288L246 115Q239 85 240.5 65.5Q242 46 249 34Q256 22 267.5 16.5Q279 11 293 10L290 0H-32L-29 10Q1 13 28 34.5Q55 56 69 115L182 587Q189 617 187 636Q185 655 177 667Q169 679 156.5 684Q144 689 131 691L134 701H469Q527 701 570.5 687.5Q614 674 643 650Q672 626 687 593.5Q702 561 702 524Q702 453 652 397.5Q602 342 516 314Q580 161 629.5 60Q679 -41 719.5 -101.5Q760 -162 794.5 -187Q829 -212 864 -212Q884 -212 889 -205.5Q894 -199 894 -187Q894 -176 892.5 -162.5Q891 -149 891 -135Q891 -110 906 -89Q921 -68 954 -68Q983 -68 1001 -86Q1019 -104 1019 -131Q1019 -150 1007 -168.5Q995 -187 972 -202Q949 -217 916 -226.5Q883 -236 842 -236ZM506 898Q530 922 558 922Q581 922 595 907.5Q609 893 609 872Q609 853 596 836Q583 819 552 811L398 771H387Z" glyph-name="Racute.swsh2" horiz-adv-x="729" /><glyph d="M290 0H-35L-32 10Q-17 11 -2 16.5Q13 22 26.5 34Q40 46 51 65.5Q62 85 69 115L182 586Q189 616 187 635Q185 654 177.5 666Q170 678 157.5 683Q145 688 131 690L134 700H468Q526 700 569.5 686.5Q613 673 642 649Q671 625 686 592.5Q701 560 701 523Q701 451 650 395.5Q599 340 512 313L582 128Q594 98 605.5 77.5Q617 57 629.5 43.5Q642 30 655 22Q668 14 682 10L679 0H446L340 290H288L246 115Q239 85 240.5 65.5Q242 46 249 34Q256 22 267.5 16.5Q279 11 293 10ZM293 313H331Q382 313 419 333.5Q456 354 479.5 387Q503 420 514 461.5Q525 503 525 545Q525 612 497.5 645.5Q470 679 419 679H381ZM465 851 631 906H645L501 776H406L328 906H344Z" glyph-name="Rcaron" horiz-adv-x="730" unicode="&#344;" /><glyph d="M242 0H-34L-31 10Q-18 11 -6 15.5Q6 20 16.5 30Q27 40 35.5 56Q44 72 50 97L134 441Q146 489 132.5 507Q119 525 94 527L97 537H385Q430 537 465 526Q500 515 524 496.5Q548 478 561 452Q574 426 574 396Q574 344 535.5 302Q497 260 428 238L481 102Q491 77 499.5 61Q508 45 516.5 35Q525 25 533.5 19Q542 13 553 8L551 0H352L273 219H240L210 97Q204 73 205 56.5Q206 40 211.5 30Q217 20 226 15.5Q235 11 245 10ZM245 239H269Q302 239 329 253.5Q356 268 375 293Q394 318 405 350Q416 382 416 418Q416 472 393.5 495.5Q371 519 338 519H313ZM377 688 543 743H557L413 613H318L240 743H256Z" glyph-name="Rcaron.smcp" horiz-adv-x="607" /><glyph d="M293 313H331Q383 313 420 333.5Q457 354 480.5 387.5Q504 421 515 462.5Q526 504 526 546Q526 613 498.5 646.5Q471 680 420 680H381ZM928 -270Q857 -270 778.5 -247Q700 -224 622.5 -161.5Q545 -99 472.5 10Q400 119 341 290H288L246 115Q239 85 240.5 65.5Q242 46 249 34Q256 22 267.5 16.5Q279 11 293 10L290 0H-32L-29 10Q1 13 28 34.5Q55 56 69 115L182 587Q189 617 187 636Q185 655 177 667Q169 679 156.5 684Q144 689 131 691L134 701H469Q527 701 570.5 687.5Q614 674 643 650Q672 626 687 593.5Q702 561 702 524Q702 453 652 397.5Q602 342 516 314Q587 149 647.5 40.5Q708 -68 761 -131.5Q814 -195 860.5 -220.5Q907 -246 950 -246Q970 -246 975 -239.5Q980 -233 980 -221Q980 -209 978.5 -195.5Q977 -182 977 -168Q977 -143 992 -122Q1007 -101 1040 -101Q1069 -101 1087 -119Q1105 -137 1105 -164Q1105 -183 1092.5 -202Q1080 -221 1057 -236Q1034 -251 1001.5 -260.5Q969 -270 928 -270ZM465 851 631 906H645L501 776H406L328 906H344Z" glyph-name="Rcaron.swsh" horiz-adv-x="729" /><glyph d="M293 313H331Q383 313 420 333.5Q457 354 480.5 387.5Q504 421 515 462.5Q526 504 526 546Q526 613 498.5 646.5Q471 680 420 680H381ZM842 -236Q782 -236 716.5 -213.5Q651 -191 586 -132.5Q521 -74 458.5 28Q396 130 341 290H288L246 115Q239 85 240.5 65.5Q242 46 249 34Q256 22 267.5 16.5Q279 11 293 10L290 0H-32L-29 10Q1 13 28 34.5Q55 56 69 115L182 587Q189 617 187 636Q185 655 177 667Q169 679 156.5 684Q144 689 131 691L134 701H469Q527 701 570.5 687.5Q614 674 643 650Q672 626 687 593.5Q702 561 702 524Q702 453 652 397.5Q602 342 516 314Q580 161 629.5 60Q679 -41 719.5 -101.5Q760 -162 794.5 -187Q829 -212 864 -212Q884 -212 889 -205.5Q894 -199 894 -187Q894 -176 892.5 -162.5Q891 -149 891 -135Q891 -110 906 -89Q921 -68 954 -68Q983 -68 1001 -86Q1019 -104 1019 -131Q1019 -150 1007 -168.5Q995 -187 972 -202Q949 -217 916 -226.5Q883 -236 842 -236ZM464 851 630 906H644L500 776H405L327 906H343Z" glyph-name="Rcaron.swsh2" horiz-adv-x="729" /><glyph d="M189 -346Q202 -343 218 -336Q234 -329 248 -319Q262 -309 271.5 -297.5Q281 -286 281 -275Q281 -258 266.5 -248.5Q252 -239 235 -228.5Q218 -218 203.5 -202.5Q189 -187 189 -157Q189 -122 215.5 -98Q242 -74 280 -74Q315 -74 337.5 -98Q360 -122 360 -169Q360 -199 346 -231Q332 -263 309 -290Q286 -317 256.5 -336.5Q227 -356 195 -361ZM290 0H-35L-32 10Q-17 11 -2 16.5Q13 22 26.5 34Q40 46 51 65.5Q62 85 69 115L182 586Q189 616 187 635Q185 654 177.5 666Q170 678 157.5 683Q145 688 131 690L134 700H468Q526 700 569.5 686.5Q613 673 642 649Q671 625 686 592.5Q701 560 701 523Q701 451 650 395.5Q599 340 512 313L582 128Q594 98 605.5 77.5Q617 57 629.5 43.5Q642 30 655 22Q668 14 682 10L679 0H446L340 290H288L246 115Q239 85 240.5 65.5Q242 46 249 34Q256 22 267.5 16.5Q279 11 293 10ZM293 313H331Q382 313 419 333.5Q456 354 479.5 387Q503 420 514 461.5Q525 503 525 545Q525 612 497.5 645.5Q470 679 419 679H381Z" glyph-name="Rcommaaccent" horiz-adv-x="730" unicode="&#342;" /><glyph d="M145 -346Q158 -343 174 -336Q190 -329 204 -319Q218 -309 227.5 -297.5Q237 -286 237 -275Q237 -258 222.5 -248.5Q208 -239 191 -228.5Q174 -218 159.5 -202.5Q145 -187 145 -157Q145 -122 171.5 -98Q198 -74 236 -74Q271 -74 293.5 -98Q316 -122 316 -169Q316 -199 302 -231Q288 -263 265 -290Q242 -317 212.5 -336.5Q183 -356 151 -361ZM242 0H-34L-31 10Q-18 11 -6 15.5Q6 20 16.5 30Q27 40 35.5 56Q44 72 50 97L134 441Q146 489 132.5 507Q119 525 94 527L97 537H385Q430 537 465 526Q500 515 524 496.5Q548 478 561 452Q574 426 574 396Q574 344 535.5 302Q497 260 428 238L481 102Q491 77 499.5 61Q508 45 516.5 35Q525 25 533.5 19Q542 13 553 8L551 0H352L273 219H240L210 97Q204 73 205 56.5Q206 40 211.5 30Q217 20 226 15.5Q235 11 245 10ZM245 239H269Q302 239 329 253.5Q356 268 375 293Q394 318 405 350Q416 382 416 418Q416 472 393.5 495.5Q371 519 338 519H313Z" glyph-name="Rcommaaccent.smcp" horiz-adv-x="607" /><glyph d="M198 -346Q211 -343 227 -336Q243 -329 257 -319Q271 -309 280.5 -297.5Q290 -286 290 -275Q290 -258 275.5 -248.5Q261 -239 244 -228.5Q227 -218 212.5 -202.5Q198 -187 198 -157Q198 -122 224.5 -98Q251 -74 289 -74Q324 -74 346.5 -98Q369 -122 369 -169Q369 -199 355 -231Q341 -263 318 -290Q295 -317 265.5 -336.5Q236 -356 204 -361ZM293 313H331Q383 313 420 333.5Q457 354 480.5 387.5Q504 421 515 462.5Q526 504 526 546Q526 613 498.5 646.5Q471 680 420 680H381ZM928 -270Q857 -270 778.5 -247Q700 -224 622.5 -161.5Q545 -99 472.5 10Q400 119 341 290H288L246 115Q239 85 240.5 65.5Q242 46 249 34Q256 22 267.5 16.5Q279 11 293 10L290 0H-32L-29 10Q1 13 28 34.5Q55 56 69 115L182 587Q189 617 187 636Q185 655 177 667Q169 679 156.5 684Q144 689 131 691L134 701H469Q527 701 570.5 687.5Q614 674 643 650Q672 626 687 593.5Q702 561 702 524Q702 453 652 397.5Q602 342 516 314Q587 149 647.5 40.5Q708 -68 761 -131.5Q814 -195 860.5 -220.5Q907 -246 950 -246Q970 -246 975 -239.5Q980 -233 980 -221Q980 -209 978.5 -195.5Q977 -182 977 -168Q977 -143 992 -122Q1007 -101 1040 -101Q1069 -101 1087 -119Q1105 -137 1105 -164Q1105 -183 1092.5 -202Q1080 -221 1057 -236Q1034 -251 1001.5 -260.5Q969 -270 928 -270Z" glyph-name="Rcommaaccent.swsh" horiz-adv-x="729" /><glyph d="M217 -346Q230 -343 246 -336Q262 -329 276 -319Q290 -309 299.5 -297.5Q309 -286 309 -275Q309 -258 294.5 -248.5Q280 -239 263 -228.5Q246 -218 231.5 -202.5Q217 -187 217 -157Q217 -122 243.5 -98Q270 -74 308 -74Q343 -74 365.5 -98Q388 -122 388 -169Q388 -199 374 -231Q360 -263 337 -290Q314 -317 284.5 -336.5Q255 -356 223 -361ZM293 313H331Q383 313 420 333.5Q457 354 480.5 387.5Q504 421 515 462.5Q526 504 526 546Q526 613 498.5 646.5Q471 680 420 680H381ZM842 -236Q782 -236 716.5 -213.5Q651 -191 586 -132.5Q521 -74 458.5 28Q396 130 341 290H288L246 115Q239 85 240.5 65.5Q242 46 249 34Q256 22 267.5 16.5Q279 11 293 10L290 0H-32L-29 10Q1 13 28 34.5Q55 56 69 115L182 587Q189 617 187 636Q185 655 177 667Q169 679 156.5 684Q144 689 131 691L134 701H469Q527 701 570.5 687.5Q614 674 643 650Q672 626 687 593.5Q702 561 702 524Q702 453 652 397.5Q602 342 516 314Q580 161 629.5 60Q679 -41 719.5 -101.5Q760 -162 794.5 -187Q829 -212 864 -212Q884 -212 889 -205.5Q894 -199 894 -187Q894 -176 892.5 -162.5Q891 -149 891 -135Q891 -110 906 -89Q921 -68 954 -68Q983 -68 1001 -86Q1019 -104 1019 -131Q1019 -150 1007 -168.5Q995 -187 972 -202Q949 -217 916 -226.5Q883 -236 842 -236Z" glyph-name="Rcommaaccent.swsh2" horiz-adv-x="729" /><glyph d="M548 215Q548 166 527.5 123Q507 80 468.5 48Q430 16 375.5 -2.5Q321 -21 253 -21Q218 -21 181.5 -16.5Q145 -12 111.5 -4Q78 4 49.5 16Q21 28 1 42L89 246L106 244Q103 172 113.5 125Q124 78 143.5 49.5Q163 21 191 9.5Q219 -2 252 -2Q315 -2 353 30Q391 62 391 110Q391 147 370 176Q349 205 317.5 231Q286 257 249.5 283Q213 309 181.5 339Q150 369 129 406.5Q108 444 108 493Q108 541 128.5 582.5Q149 624 185.5 654.5Q222 685 274 702.5Q326 720 389 720Q444 720 500 705.5Q556 691 606 661L522 482L505 484Q512 592 483 646Q454 700 377 700Q320 700 283.5 672Q247 644 247 597Q247 561 269.5 533Q292 505 325 480Q358 455 397.5 430Q437 405 470 374.5Q503 344 525.5 305.5Q548 267 548 215Z" glyph-name="S" horiz-adv-x="587" unicode="S" /><glyph d="M66 190Q64 89 96 44Q128 -1 184 -1Q229 -1 257.5 22Q286 45 286 80Q286 106 269.5 127Q253 148 228.5 167.5Q204 187 175.5 206.5Q147 226 122.5 249.5Q98 273 81.5 301.5Q65 330 65 368Q65 408 81.5 442Q98 476 129 501Q160 526 203.5 540Q247 554 300 554Q357 554 404.5 540.5Q452 527 483 506L413 362L401 364Q406 442 379 489Q352 536 289 536Q243 536 217 514.5Q191 493 191 461Q191 434 208.5 413Q226 392 253 372Q280 352 310.5 332.5Q341 313 368 289Q395 265 412.5 236Q430 207 430 168Q430 129 412.5 95Q395 61 362 36.5Q329 12 282 -2.5Q235 -17 176 -17Q120 -17 68.5 -4.5Q17 8 -18 31L52 192Z" glyph-name="S.smcp" horiz-adv-x="469" /><glyph d="M245 -170Q285 -170 317.5 -158Q350 -146 373.5 -124.5Q397 -103 410 -73Q423 -43 423 -7Q423 41 401 78.5Q379 116 345.5 149.5Q312 183 273.5 216Q235 249 201.5 287Q168 325 146 371.5Q124 418 124 479Q124 531 144.5 575Q165 619 202.5 651.5Q240 684 292.5 702Q345 720 408 720Q464 720 520.5 705.5Q577 691 628 661L544 482L527 486Q535 598 505 649Q475 700 397 700Q337 700 300 669Q263 638 263 581Q263 538 286 505Q309 472 344 442Q379 412 419 382Q459 352 494 315Q529 278 552 230.5Q575 183 575 120Q575 58 550 0.5Q525 -57 479 -101Q433 -145 369.5 -171.5Q306 -198 230 -198Q164 -198 112 -182Q60 -166 24 -139Q-12 -112 -31.5 -75.5Q-51 -39 -51 2Q-51 38 -36.5 69Q-22 100 4 122.5Q30 145 65 158Q100 171 142 171Q201 171 234.5 140Q268 109 268 55Q268 9 245.5 -21Q223 -51 181 -51Q149 -51 128.5 -33.5Q108 -16 108 12Q108 40 126.5 56Q145 72 171 72Q184 72 197.5 68.5Q211 65 221 63Q231 61 237.5 63.5Q244 66 244 78Q244 91 237 103.5Q230 116 218 126Q206 136 189.5 142.5Q173 149 154 149Q133 149 113.5 141Q94 133 79.5 116.5Q65 100 56 75Q47 50 47 16Q47 -26 62 -60.5Q77 -95 103.5 -119.5Q130 -144 166.5 -157Q203 -170 245 -170Z" glyph-name="S.swsh" horiz-adv-x="635" /><glyph d="M548 215Q548 166 527.5 123Q507 80 468.5 48Q430 16 375.5 -2.5Q321 -21 253 -21Q218 -21 181.5 -16.5Q145 -12 111.5 -4Q78 4 49.5 16Q21 28 1 42L89 246L106 244Q103 172 113.5 125Q124 78 143.5 49.5Q163 21 191 9.5Q219 -2 252 -2Q315 -2 353 30Q391 62 391 110Q391 147 370 176Q349 205 317.5 231Q286 257 249.5 283Q213 309 181.5 339Q150 369 129 406.5Q108 444 108 493Q108 541 128.5 582.5Q149 624 185.5 654.5Q222 685 274 702.5Q326 720 389 720Q444 720 500 705.5Q556 691 606 661L522 482L505 484Q512 592 483 646Q454 700 377 700Q320 700 283.5 672Q247 644 247 597Q247 561 269.5 533Q292 505 325 480Q358 455 397.5 430Q437 405 470 374.5Q503 344 525.5 305.5Q548 267 548 215ZM474 898Q498 922 526 922Q549 922 563 907.5Q577 893 577 872Q577 853 564 836Q551 819 520 811L366 771H355Z" glyph-name="Sacute" horiz-adv-x="587" unicode="&#346;" /><glyph d="M66 190Q64 89 96 44Q128 -1 184 -1Q229 -1 257.5 22Q286 45 286 80Q286 106 269.5 127Q253 148 228.5 167.5Q204 187 175.5 206.5Q147 226 122.5 249.5Q98 273 81.5 301.5Q65 330 65 368Q65 408 81.5 442Q98 476 129 501Q160 526 203.5 540Q247 554 300 554Q357 554 404.5 540.5Q452 527 483 506L413 362L401 364Q406 442 379 489Q352 536 289 536Q243 536 217 514.5Q191 493 191 461Q191 434 208.5 413Q226 392 253 372Q280 352 310.5 332.5Q341 313 368 289Q395 265 412.5 236Q430 207 430 168Q430 129 412.5 95Q395 61 362 36.5Q329 12 282 -2.5Q235 -17 176 -17Q120 -17 68.5 -4.5Q17 8 -18 31L52 192ZM372 735Q396 759 424 759Q447 759 461 744.5Q475 730 475 709Q475 690 462 673Q449 656 418 648L264 608H253Z" glyph-name="Sacute.smcp" horiz-adv-x="469" /><glyph d="M245 -170Q285 -170 317.5 -158Q350 -146 373.5 -124.5Q397 -103 410 -73Q423 -43 423 -7Q423 41 401 78.5Q379 116 345.5 149.5Q312 183 273.5 216Q235 249 201.5 287Q168 325 146 371.5Q124 418 124 479Q124 531 144.5 575Q165 619 202.5 651.5Q240 684 292.5 702Q345 720 408 720Q464 720 520.5 705.5Q577 691 628 661L544 482L527 486Q535 598 505 649Q475 700 397 700Q337 700 300 669Q263 638 263 581Q263 538 286 505Q309 472 344 442Q379 412 419 382Q459 352 494 315Q529 278 552 230.5Q575 183 575 120Q575 58 550 0.5Q525 -57 479 -101Q433 -145 369.5 -171.5Q306 -198 230 -198Q164 -198 112 -182Q60 -166 24 -139Q-12 -112 -31.5 -75.5Q-51 -39 -51 2Q-51 38 -36.5 69Q-22 100 4 122.5Q30 145 65 158Q100 171 142 171Q201 171 234.5 140Q268 109 268 55Q268 9 245.5 -21Q223 -51 181 -51Q149 -51 128.5 -33.5Q108 -16 108 12Q108 40 126.5 56Q145 72 171 72Q184 72 197.5 68.5Q211 65 221 63Q231 61 237.5 63.5Q244 66 244 78Q244 91 237 103.5Q230 116 218 126Q206 136 189.5 142.5Q173 149 154 149Q133 149 113.5 141Q94 133 79.5 116.5Q65 100 56 75Q47 50 47 16Q47 -26 62 -60.5Q77 -95 103.5 -119.5Q130 -144 166.5 -157Q203 -170 245 -170ZM479 898Q503 922 531 922Q554 922 568 907.5Q582 893 582 872Q582 853 569 836Q556 819 525 811L371 771H360Z" glyph-name="Sacute.swsh" horiz-adv-x="635" /><glyph d="M548 215Q548 166 527.5 123Q507 80 468.5 48Q430 16 375.5 -2.5Q321 -21 253 -21Q218 -21 181.5 -16.5Q145 -12 111.5 -4Q78 4 49.5 16Q21 28 1 42L89 246L106 244Q103 172 113.5 125Q124 78 143.5 49.5Q163 21 191 9.5Q219 -2 252 -2Q315 -2 353 30Q391 62 391 110Q391 147 370 176Q349 205 317.5 231Q286 257 249.5 283Q213 309 181.5 339Q150 369 129 406.5Q108 444 108 493Q108 541 128.5 582.5Q149 624 185.5 654.5Q222 685 274 702.5Q326 720 389 720Q444 720 500 705.5Q556 691 606 661L522 482L505 484Q512 592 483 646Q454 700 377 700Q320 700 283.5 672Q247 644 247 597Q247 561 269.5 533Q292 505 325 480Q358 455 397.5 430Q437 405 470 374.5Q503 344 525.5 305.5Q548 267 548 215ZM431 851 597 906H611L467 776H372L294 906H310Z" glyph-name="Scaron" horiz-adv-x="587" unicode="&#352;" /><glyph d="M66 190Q64 89 96 44Q128 -1 184 -1Q229 -1 257.5 22Q286 45 286 80Q286 106 269.5 127Q253 148 228.5 167.5Q204 187 175.5 206.5Q147 226 122.5 249.5Q98 273 81.5 301.5Q65 330 65 368Q65 408 81.5 442Q98 476 129 501Q160 526 203.5 540Q247 554 300 554Q357 554 404.5 540.5Q452 527 483 506L413 362L401 364Q406 442 379 489Q352 536 289 536Q243 536 217 514.5Q191 493 191 461Q191 434 208.5 413Q226 392 253 372Q280 352 310.5 332.5Q341 313 368 289Q395 265 412.5 236Q430 207 430 168Q430 129 412.5 95Q395 61 362 36.5Q329 12 282 -2.5Q235 -17 176 -17Q120 -17 68.5 -4.5Q17 8 -18 31L52 192ZM329 688 495 743H509L365 613H270L192 743H208Z" glyph-name="Scaron.smcp" horiz-adv-x="469" /><glyph d="M245 -170Q285 -170 317.5 -158Q350 -146 373.5 -124.5Q397 -103 410 -73Q423 -43 423 -7Q423 41 401 78.5Q379 116 345.5 149.5Q312 183 273.5 216Q235 249 201.5 287Q168 325 146 371.5Q124 418 124 479Q124 531 144.5 575Q165 619 202.5 651.5Q240 684 292.5 702Q345 720 408 720Q464 720 520.5 705.5Q577 691 628 661L544 482L527 486Q535 598 505 649Q475 700 397 700Q337 700 300 669Q263 638 263 581Q263 538 286 505Q309 472 344 442Q379 412 419 382Q459 352 494 315Q529 278 552 230.5Q575 183 575 120Q575 58 550 0.5Q525 -57 479 -101Q433 -145 369.5 -171.5Q306 -198 230 -198Q164 -198 112 -182Q60 -166 24 -139Q-12 -112 -31.5 -75.5Q-51 -39 -51 2Q-51 38 -36.5 69Q-22 100 4 122.5Q30 145 65 158Q100 171 142 171Q201 171 234.5 140Q268 109 268 55Q268 9 245.5 -21Q223 -51 181 -51Q149 -51 128.5 -33.5Q108 -16 108 12Q108 40 126.5 56Q145 72 171 72Q184 72 197.5 68.5Q211 65 221 63Q231 61 237.5 63.5Q244 66 244 78Q244 91 237 103.5Q230 116 218 126Q206 136 189.5 142.5Q173 149 154 149Q133 149 113.5 141Q94 133 79.5 116.5Q65 100 56 75Q47 50 47 16Q47 -26 62 -60.5Q77 -95 103.5 -119.5Q130 -144 166.5 -157Q203 -170 245 -170ZM436 851 602 906H616L472 776H377L299 906H315Z" glyph-name="Scaron.swsh" horiz-adv-x="635" /><glyph d="M188 -279Q148 -279 120 -269Q92 -259 70 -242L78 -228Q111 -255 159 -255Q208 -255 233.5 -231.5Q259 -208 259 -176Q259 -120 187 -120Q168 -120 153 -123L150 -119L217 -20Q185 -18 154 -12.5Q123 -7 94.5 1Q66 9 42 19.5Q18 30 1 42L89 246L106 244Q103 172 113.5 125Q124 78 143.5 49.5Q163 21 191 9.5Q219 -2 252 -2Q315 -2 353 30Q391 62 391 110Q391 147 370 176Q349 205 317.5 231Q286 257 249.5 283Q213 309 181.5 339Q150 369 129 406.5Q108 444 108 493Q108 541 128.5 582.5Q149 624 185.5 654.5Q222 685 274 702.5Q326 720 389 720Q444 720 500 705.5Q556 691 606 661L522 482L505 484Q512 592 483 646Q454 700 377 700Q320 700 283.5 672Q247 644 247 597Q247 561 269.5 533Q292 505 325 480Q358 455 397.5 430Q437 405 470 374.5Q503 344 525.5 305.5Q548 267 548 215Q548 166 527.5 123Q507 80 468.5 48Q430 16 375.5 -2.5Q321 -21 253 -21H239L208 -68Q227 -64 248 -64Q297 -64 324.5 -87Q352 -110 352 -152Q352 -178 341 -201.5Q330 -225 309 -242Q288 -259 257.5 -269Q227 -279 188 -279Z" glyph-name="Scedilla" horiz-adv-x="587" unicode="&#350;" /><glyph d="M126 -279Q86 -279 58 -269Q30 -259 8 -242L16 -228Q49 -255 97 -255Q146 -255 171.5 -231.5Q197 -208 197 -176Q197 -120 125 -120Q106 -120 91 -123L88 -119L157 -17Q106 -15 60 -2.5Q14 10 -18 31L52 192L66 190Q64 89 96 44Q128 -1 184 -1Q229 -1 257.5 22Q286 45 286 80Q286 106 269.5 127Q253 148 228.5 167.5Q204 187 175.5 206.5Q147 226 122.5 249.5Q98 273 81.5 301.5Q65 330 65 368Q65 408 81.5 442Q98 476 129 501Q160 526 203.5 540Q247 554 300 554Q357 554 404.5 540.5Q452 527 483 506L413 362L401 364Q406 442 379 489Q352 536 289 536Q243 536 217 514.5Q191 493 191 461Q191 434 208.5 413Q226 392 253 372Q280 352 310.5 332.5Q341 313 368 289Q395 265 412.5 236Q430 207 430 168Q430 129 412.5 95Q395 61 362.5 36.5Q330 12 284 -2.5Q238 -17 180 -17L146 -68Q165 -64 186 -64Q235 -64 262.5 -87Q290 -110 290 -152Q290 -178 279 -201.5Q268 -225 247 -242Q226 -259 195.5 -269Q165 -279 126 -279Z" glyph-name="Scedilla.smcp" horiz-adv-x="469" /><glyph d="M182 -464Q142 -464 114 -454Q86 -444 64 -427L72 -413Q105 -440 153 -440Q202 -440 227.5 -416.5Q253 -393 253 -361Q253 -305 181 -305Q162 -305 147 -308L144 -304L216 -198Q153 -196 103.5 -179.5Q54 -163 19.5 -136Q-15 -109 -33 -73.5Q-51 -38 -51 2Q-51 38 -36.5 69Q-22 100 4 122.5Q30 145 65 158Q100 171 142 171Q201 171 234.5 140Q268 109 268 55Q268 9 245.5 -21Q223 -51 181 -51Q149 -51 128.5 -33.5Q108 -16 108 12Q108 40 126.5 56Q145 72 171 72Q184 72 197.5 68.5Q211 65 221 63Q231 61 237.5 63.5Q244 66 244 78Q244 91 237 103.5Q230 116 218 126Q206 136 189.5 142.5Q173 149 154 149Q133 149 113.5 141Q94 133 79.5 116.5Q65 100 56 75Q47 50 47 16Q47 -26 62 -60.5Q77 -95 103.5 -119.5Q130 -144 166.5 -157Q203 -170 245 -170Q285 -170 317.5 -158Q350 -146 373.5 -124.5Q397 -103 410 -73Q423 -43 423 -7Q423 41 401 78.5Q379 116 345.5 149.5Q312 183 273.5 216Q235 249 201.5 287Q168 325 146 371.5Q124 418 124 479Q124 531 144.5 575Q165 619 202.5 651.5Q240 684 292.5 702Q345 720 408 720Q464 720 520.5 705.5Q577 691 628 661L544 482L527 486Q535 598 505 649Q475 700 397 700Q337 700 300 669Q263 638 263 581Q263 538 286 505Q309 472 344 442Q379 412 419 382Q459 352 494 315Q529 278 552 230.5Q575 183 575 120Q575 58 550.5 1.5Q526 -55 481.5 -99Q437 -143 375.5 -170Q314 -197 239 -198L202 -253Q221 -249 242 -249Q291 -249 318.5 -272Q346 -295 346 -337Q346 -363 335 -386.5Q324 -410 303 -427Q282 -444 251.5 -454Q221 -464 182 -464Z" glyph-name="Scedilla.swsh" horiz-adv-x="635" /><glyph d="M548 215Q548 166 527.5 123Q507 80 468.5 48Q430 16 375.5 -2.5Q321 -21 253 -21Q218 -21 181.5 -16.5Q145 -12 111.5 -4Q78 4 49.5 16Q21 28 1 42L89 246L106 244Q103 172 113.5 125Q124 78 143.5 49.5Q163 21 191 9.5Q219 -2 252 -2Q315 -2 353 30Q391 62 391 110Q391 147 370 176Q349 205 317.5 231Q286 257 249.5 283Q213 309 181.5 339Q150 369 129 406.5Q108 444 108 493Q108 541 128.5 582.5Q149 624 185.5 654.5Q222 685 274 702.5Q326 720 389 720Q444 720 500 705.5Q556 691 606 661L522 482L505 484Q512 592 483 646Q454 700 377 700Q320 700 283.5 672Q247 644 247 597Q247 561 269.5 533Q292 505 325 480Q358 455 397.5 430Q437 405 470 374.5Q503 344 525.5 305.5Q548 267 548 215ZM441 832 275 776H261L405 906H500L578 776H561Z" glyph-name="Scircumflex" horiz-adv-x="587" unicode="&#348;" /><glyph d="M66 190Q64 89 96 44Q128 -1 184 -1Q229 -1 257.5 22Q286 45 286 80Q286 106 269.5 127Q253 148 228.5 167.5Q204 187 175.5 206.5Q147 226 122.5 249.5Q98 273 81.5 301.5Q65 330 65 368Q65 408 81.5 442Q98 476 129 501Q160 526 203.5 540Q247 554 300 554Q357 554 404.5 540.5Q452 527 483 506L413 362L401 364Q406 442 379 489Q352 536 289 536Q243 536 217 514.5Q191 493 191 461Q191 434 208.5 413Q226 392 253 372Q280 352 310.5 332.5Q341 313 368 289Q395 265 412.5 236Q430 207 430 168Q430 129 412.5 95Q395 61 362 36.5Q329 12 282 -2.5Q235 -17 176 -17Q120 -17 68.5 -4.5Q17 8 -18 31L52 192ZM339 669 173 613H159L303 743H398L476 613H459Z" glyph-name="Scircumflex.smcp" horiz-adv-x="469" /><glyph d="M245 -170Q285 -170 317.5 -158Q350 -146 373.5 -124.5Q397 -103 410 -73Q423 -43 423 -7Q423 41 401 78.5Q379 116 345.5 149.5Q312 183 273.5 216Q235 249 201.5 287Q168 325 146 371.5Q124 418 124 479Q124 531 144.5 575Q165 619 202.5 651.5Q240 684 292.5 702Q345 720 408 720Q464 720 520.5 705.5Q577 691 628 661L544 482L527 486Q535 598 505 649Q475 700 397 700Q337 700 300 669Q263 638 263 581Q263 538 286 505Q309 472 344 442Q379 412 419 382Q459 352 494 315Q529 278 552 230.5Q575 183 575 120Q575 58 550 0.5Q525 -57 479 -101Q433 -145 369.5 -171.5Q306 -198 230 -198Q164 -198 112 -182Q60 -166 24 -139Q-12 -112 -31.5 -75.5Q-51 -39 -51 2Q-51 38 -36.5 69Q-22 100 4 122.5Q30 145 65 158Q100 171 142 171Q201 171 234.5 140Q268 109 268 55Q268 9 245.5 -21Q223 -51 181 -51Q149 -51 128.5 -33.5Q108 -16 108 12Q108 40 126.5 56Q145 72 171 72Q184 72 197.5 68.5Q211 65 221 63Q231 61 237.5 63.5Q244 66 244 78Q244 91 237 103.5Q230 116 218 126Q206 136 189.5 142.5Q173 149 154 149Q133 149 113.5 141Q94 133 79.5 116.5Q65 100 56 75Q47 50 47 16Q47 -26 62 -60.5Q77 -95 103.5 -119.5Q130 -144 166.5 -157Q203 -170 245 -170ZM446 832 280 776H266L410 906H505L583 776H566Z" glyph-name="Scircumflex.swsh" horiz-adv-x="635" /><glyph d="M117 -346Q130 -343 146 -336Q162 -329 176 -319Q190 -309 199.5 -297.5Q209 -286 209 -275Q209 -258 194.5 -248.5Q180 -239 163 -228.5Q146 -218 131.5 -202.5Q117 -187 117 -157Q117 -122 143.5 -98Q170 -74 208 -74Q243 -74 265.5 -98Q288 -122 288 -169Q288 -199 274 -231Q260 -263 237 -290Q214 -317 184.5 -336.5Q155 -356 123 -361ZM548 215Q548 166 527.5 123Q507 80 468.5 48Q430 16 375.5 -2.5Q321 -21 253 -21Q218 -21 181.5 -16.5Q145 -12 111.5 -4Q78 4 49.5 16Q21 28 1 42L89 246L106 244Q103 172 113.5 125Q124 78 143.5 49.5Q163 21 191 9.5Q219 -2 252 -2Q315 -2 353 30Q391 62 391 110Q391 147 370 176Q349 205 317.5 231Q286 257 249.5 283Q213 309 181.5 339Q150 369 129 406.5Q108 444 108 493Q108 541 128.5 582.5Q149 624 185.5 654.5Q222 685 274 702.5Q326 720 389 720Q444 720 500 705.5Q556 691 606 661L522 482L505 484Q512 592 483 646Q454 700 377 700Q320 700 283.5 672Q247 644 247 597Q247 561 269.5 533Q292 505 325 480Q358 455 397.5 430Q437 405 470 374.5Q503 344 525.5 305.5Q548 267 548 215Z" glyph-name="Scommaaccent" horiz-adv-x="587" unicode="&#536;" /><glyph d="M55 -346Q68 -343 84 -336Q100 -329 114 -319Q128 -309 137.5 -297.5Q147 -286 147 -275Q147 -258 132.5 -248.5Q118 -239 101 -228.5Q84 -218 69.5 -202.5Q55 -187 55 -157Q55 -122 81.5 -98Q108 -74 146 -74Q181 -74 203.5 -98Q226 -122 226 -169Q226 -199 212 -231Q198 -263 175 -290Q152 -317 122.5 -336.5Q93 -356 61 -361ZM66 190Q64 89 96 44Q128 -1 184 -1Q229 -1 257.5 22Q286 45 286 80Q286 106 269.5 127Q253 148 228.5 167.5Q204 187 175.5 206.5Q147 226 122.5 249.5Q98 273 81.5 301.5Q65 330 65 368Q65 408 81.5 442Q98 476 129 501Q160 526 203.5 540Q247 554 300 554Q357 554 404.5 540.5Q452 527 483 506L413 362L401 364Q406 442 379 489Q352 536 289 536Q243 536 217 514.5Q191 493 191 461Q191 434 208.5 413Q226 392 253 372Q280 352 310.5 332.5Q341 313 368 289Q395 265 412.5 236Q430 207 430 168Q430 129 412.5 95Q395 61 362 36.5Q329 12 282 -2.5Q235 -17 176 -17Q120 -17 68.5 -4.5Q17 8 -18 31L52 192Z" glyph-name="Scommaaccent.smcp" horiz-adv-x="469" /><glyph d="M111 -531Q124 -528 140 -521Q156 -514 170 -504Q184 -494 193.5 -482.5Q203 -471 203 -460Q203 -443 188.5 -433.5Q174 -424 157 -413.5Q140 -403 125.5 -387.5Q111 -372 111 -342Q111 -307 137.5 -283Q164 -259 202 -259Q237 -259 259.5 -283Q282 -307 282 -354Q282 -384 268 -416Q254 -448 231 -475Q208 -502 178.5 -521.5Q149 -541 117 -546ZM245 -170Q285 -170 317.5 -158Q350 -146 373.5 -124.5Q397 -103 410 -73Q423 -43 423 -7Q423 41 401 78.5Q379 116 345.5 149.5Q312 183 273.5 216Q235 249 201.5 287Q168 325 146 371.5Q124 418 124 479Q124 531 144.5 575Q165 619 202.5 651.5Q240 684 292.5 702Q345 720 408 720Q464 720 520.5 705.5Q577 691 628 661L544 482L527 486Q535 598 505 649Q475 700 397 700Q337 700 300 669Q263 638 263 581Q263 538 286 505Q309 472 344 442Q379 412 419 382Q459 352 494 315Q529 278 552 230.5Q575 183 575 120Q575 58 550 0.5Q525 -57 479 -101Q433 -145 369.5 -171.5Q306 -198 230 -198Q164 -198 112 -182Q60 -166 24 -139Q-12 -112 -31.5 -75.5Q-51 -39 -51 2Q-51 38 -36.5 69Q-22 100 4 122.5Q30 145 65 158Q100 171 142 171Q201 171 234.5 140Q268 109 268 55Q268 9 245.5 -21Q223 -51 181 -51Q149 -51 128.5 -33.5Q108 -16 108 12Q108 40 126.5 56Q145 72 171 72Q184 72 197.5 68.5Q211 65 221 63Q231 61 237.5 63.5Q244 66 244 78Q244 91 237 103.5Q230 116 218 126Q206 136 189.5 142.5Q173 149 154 149Q133 149 113.5 141Q94 133 79.5 116.5Q65 100 56 75Q47 50 47 16Q47 -26 62 -60.5Q77 -95 103.5 -119.5Q130 -144 166.5 -157Q203 -170 245 -170Z" glyph-name="Scommaaccent.swsh" horiz-adv-x="635" /><glyph d="M730 700 706 482H695L678 535Q666 576 652.5 603.5Q639 631 623.5 648Q608 665 590 672Q572 679 550 679H527L390 110Q383 80 385 61.5Q387 43 395.5 32Q404 21 417.5 16Q431 11 446 10L443 0H106L109 10Q125 11 140.5 16Q156 21 170 32Q184 43 195 61.5Q206 80 213 110L351 679H328Q305 679 282 671.5Q259 664 234 647Q209 630 181.5 602Q154 574 123 532L86 482H74L148 700Z" glyph-name="T" horiz-adv-x="658" unicode="T" /><glyph d="M583 537 560 366H550L535 410Q513 474 488.5 496.5Q464 519 432 519H425L318 91Q312 66 313.5 50.5Q315 35 322.5 26.5Q330 18 341 14.5Q352 11 365 10L362 0H67L70 10Q83 11 95.5 14.5Q108 18 119.5 26.5Q131 35 141 50.5Q151 66 157 91L264 519H252Q235 519 218 514Q201 509 182.5 496Q164 483 141.5 462Q119 441 92 409L55 366H44L104 537Z" glyph-name="T.smcp" horiz-adv-x="543" /><glyph d="M458 0H121L124 10Q139 11 154.5 16Q170 21 184 32Q198 43 209.5 61.5Q221 80 228 110L363 631Q343 635 322.5 637Q302 639 279 639Q182 639 135.5 608Q89 577 89 531Q89 508 97 497Q105 486 116 486Q126 486 134 492Q142 498 150 504.5Q158 511 168 517Q178 523 192 523Q212 523 223 510Q234 497 234 478Q234 453 216.5 436Q199 419 167 419Q123 419 92 450Q61 481 61 538Q61 578 78 616Q95 654 129 683Q163 712 213.5 729.5Q264 747 331 747Q378 747 427 739Q476 731 525 721Q574 711 622.5 703Q671 695 718 695Q747 695 758.5 700Q770 705 770 714Q770 721 762.5 728Q755 735 745.5 742.5Q736 750 728.5 760Q721 770 721 785Q721 806 735.5 820Q750 834 776 834Q799 834 812.5 817.5Q826 801 826 772Q826 737 807.5 705Q789 673 757.5 649Q726 625 684 610.5Q642 596 596 596Q561 596 531 599L405 110Q397 80 399.5 61.5Q402 43 410.5 32Q419 21 432.5 16Q446 11 461 10Z" glyph-name="T.swsh" horiz-adv-x="693" /><glyph d="M950 -12Q898 -12 877.5 22.5Q857 57 877 125L936 329Q955 395 918 395Q902 395 877.5 378.5Q853 362 807 316L722 0H564L714 554Q717 565 720 575Q723 585 727 595Q669 595 622.5 600Q576 605 534 611L405 110Q397 80 399.5 61.5Q402 43 410.5 32Q419 21 432.5 16Q446 11 461 10L458 0H122L124 10Q139 11 154.5 16Q170 21 184 32Q198 43 209 61.5Q220 80 228 110L364 635Q344 637 323 638Q302 639 279 639Q180 639 132 607.5Q84 576 84 530Q84 507 93.5 496.5Q103 486 116 486Q126 486 134 492Q142 498 150 504.5Q158 511 168 517Q178 523 192 523Q212 523 223 510Q234 497 234 478Q234 453 216.5 436Q199 419 167 419Q123 419 92 450Q61 481 61 538Q61 578 78 616Q95 654 129 683Q163 712 213.5 729.5Q264 747 331 747Q382 747 435.5 740Q489 733 545 724Q601 715 659 706.5Q717 698 777 695Q812 743 855.5 764Q899 785 949 785Q981 785 999 771.5Q1017 758 1017 735Q1017 702 984 669.5Q951 637 888 617L815 344Q885 416 937 446Q989 476 1026 476Q1073 476 1093.5 435Q1114 394 1092 321L1031 117Q1020 80 1025 65.5Q1030 51 1045 51Q1059 51 1075.5 61.5Q1092 72 1110 95L1121 85Q1079 35 1036.5 11.5Q994 -12 950 -12ZM970 759Q954 759 940 745.5Q926 732 912 697Q961 702 978 714Q995 726 995 740Q995 759 970 759Z" glyph-name="T_h" horiz-adv-x="1145" /><glyph d="M443 0H106L109 10Q125 11 140.5 16Q156 21 170 32Q184 43 195 61.5Q206 80 213 110L275 367H116L121 386H280L351 679H328Q305 679 282 671.5Q259 664 234 647Q209 630 181.5 602Q154 574 123 532L86 482H74L148 700H730L706 482H695L678 535Q666 576 652.5 603.5Q639 631 623.5 648Q608 665 590 672Q572 679 550 679H527L456 386H612L607 367H452L390 110Q383 80 385 61.5Q387 43 395.5 32Q404 21 417.5 16Q431 11 446 10Z" glyph-name="Tbar" horiz-adv-x="654" unicode="&#358;" /><glyph d="M362 0H67L70 10Q83 11 95.5 14.5Q108 18 119.5 26.5Q131 35 141 50.5Q151 66 157 91L204 278H80L85 297H209L264 519H252Q235 519 218 514Q201 509 182.5 496Q164 483 141.5 462Q119 441 92 409L55 366H44L104 537H583L560 366H550L535 410Q513 474 488.5 496.5Q464 519 432 519H425L370 297H493L488 278H365L318 91Q312 66 313.5 50.5Q315 35 322.5 26.5Q330 18 341 14.5Q352 11 365 10Z" glyph-name="Tbar.smcp" horiz-adv-x="543" /><glyph d="M458 0H121L124 10Q139 11 154.5 16Q170 21 184 32Q198 43 209.5 61.5Q221 80 228 110L281 317H125L130 336H286L363 631Q343 635 322.5 637Q302 639 279 639Q182 639 135.5 608Q89 577 89 531Q89 508 97 497Q105 486 116 486Q126 486 134 492Q142 498 150 504.5Q158 511 168 517Q178 523 192 523Q212 523 223 510Q234 497 234 478Q234 453 216.5 436Q199 419 167 419Q123 419 92 450Q61 481 61 538Q61 578 78 616Q95 654 129 683Q163 712 213.5 729.5Q264 747 331 747Q378 747 427 739Q476 731 525 721Q574 711 622.5 703Q671 695 718 695Q747 695 758.5 700Q770 705 770 714Q770 721 762.5 728Q755 735 745.5 742.5Q736 750 728.5 760Q721 770 721 785Q721 806 735.5 820Q750 834 776 834Q799 834 812.5 817.5Q826 801 826 772Q826 737 807.5 705Q789 673 757.5 649Q726 625 684 610.5Q642 596 596 596Q561 596 531 599L463 336H621L616 317H458L405 110Q397 80 399.5 61.5Q402 43 410.5 32Q419 21 432.5 16Q446 11 461 10Z" glyph-name="Tbar.swsh" horiz-adv-x="693" /><glyph d="M730 700 706 482H695L678 535Q666 576 652.5 603.5Q639 631 623.5 648Q608 665 590 672Q572 679 550 679H527L390 110Q383 80 385 61.5Q387 43 395.5 32Q404 21 417.5 16Q431 11 446 10L443 0H106L109 10Q125 11 140.5 16Q156 21 170 32Q184 43 195 61.5Q206 80 213 110L351 679H328Q305 679 282 671.5Q259 664 234 647Q209 630 181.5 602Q154 574 123 532L86 482H74L148 700ZM473 851 639 906H653L509 776H414L336 906H352Z" glyph-name="Tcaron" horiz-adv-x="658" unicode="&#356;" /><glyph d="M583 537 560 366H550L535 410Q513 474 488.5 496.5Q464 519 432 519H425L318 91Q312 66 313.5 50.5Q315 35 322.5 26.5Q330 18 341 14.5Q352 11 365 10L362 0H67L70 10Q83 11 95.5 14.5Q108 18 119.5 26.5Q131 35 141 50.5Q151 66 157 91L264 519H252Q235 519 218 514Q201 509 182.5 496Q164 483 141.5 462Q119 441 92 409L55 366H44L104 537ZM377 688 543 743H557L413 613H318L240 743H256Z" glyph-name="Tcaron.smcp" horiz-adv-x="543" /><glyph d="M458 0H121L124 10Q139 11 154.5 16Q170 21 184 32Q198 43 209.5 61.5Q221 80 228 110L363 631Q343 635 322.5 637Q302 639 279 639Q182 639 135.5 608Q89 577 89 531Q89 508 97 497Q105 486 116 486Q126 486 134 492Q142 498 150 504.5Q158 511 168 517Q178 523 192 523Q212 523 223 510Q234 497 234 478Q234 453 216.5 436Q199 419 167 419Q123 419 92 450Q61 481 61 538Q61 578 78 616Q95 654 129 683Q163 712 213.5 729.5Q264 747 331 747Q378 747 427 739Q476 731 525 721Q574 711 622.5 703Q671 695 718 695Q747 695 758.5 700Q770 705 770 714Q770 721 762.5 728Q755 735 745.5 742.5Q736 750 728.5 760Q721 770 721 785Q721 806 735.5 820Q750 834 776 834Q799 834 812.5 817.5Q826 801 826 772Q826 737 807.5 705Q789 673 757.5 649Q726 625 684 610.5Q642 596 596 596Q561 596 531 599L405 110Q397 80 399.5 61.5Q402 43 410.5 32Q419 21 432.5 16Q446 11 461 10ZM502 867 668 922H682L538 792H443L365 922H381Z" glyph-name="Tcaron.swsh" horiz-adv-x="693" /><glyph d="M157 -346Q170 -343 186 -336Q202 -329 216 -319Q230 -309 239.5 -297.5Q249 -286 249 -275Q249 -258 234.5 -248.5Q220 -239 203 -228.5Q186 -218 171.5 -202.5Q157 -187 157 -157Q157 -122 183.5 -98Q210 -74 248 -74Q283 -74 305.5 -98Q328 -122 328 -169Q328 -199 314 -231Q300 -263 277 -290Q254 -317 224.5 -336.5Q195 -356 163 -361ZM730 700 706 482H695L678 535Q666 576 652.5 603.5Q639 631 623.5 648Q608 665 590 672Q572 679 550 679H527L390 110Q383 80 385 61.5Q387 43 395.5 32Q404 21 417.5 16Q431 11 446 10L443 0H106L109 10Q125 11 140.5 16Q156 21 170 32Q184 43 195 61.5Q206 80 213 110L351 679H328Q305 679 282 671.5Q259 664 234 647Q209 630 181.5 602Q154 574 123 532L86 482H74L148 700Z" glyph-name="Tcommaaccent" horiz-adv-x="658" unicode="&#354;" /><glyph d="M100 -346Q113 -343 129 -336Q145 -329 159 -319Q173 -309 182.5 -297.5Q192 -286 192 -275Q192 -258 177.5 -248.5Q163 -239 146 -228.5Q129 -218 114.5 -202.5Q100 -187 100 -157Q100 -122 126.5 -98Q153 -74 191 -74Q226 -74 248.5 -98Q271 -122 271 -169Q271 -199 257 -231Q243 -263 220 -290Q197 -317 167.5 -336.5Q138 -356 106 -361ZM583 537 560 366H550L535 410Q513 474 488.5 496.5Q464 519 432 519H425L318 91Q312 66 313.5 50.5Q315 35 322.5 26.5Q330 18 341 14.5Q352 11 365 10L362 0H67L70 10Q83 11 95.5 14.5Q108 18 119.5 26.5Q131 35 141 50.5Q151 66 157 91L264 519H252Q235 519 218 514Q201 509 182.5 496Q164 483 141.5 462Q119 441 92 409L55 366H44L104 537Z" glyph-name="Tcommaaccent.smcp" horiz-adv-x="543" /><glyph d="M176 -346Q189 -343 205 -336Q221 -329 235 -319Q249 -309 258.5 -297.5Q268 -286 268 -275Q268 -258 253.5 -248.5Q239 -239 222 -228.5Q205 -218 190.5 -202.5Q176 -187 176 -157Q176 -122 202.5 -98Q229 -74 267 -74Q302 -74 324.5 -98Q347 -122 347 -169Q347 -199 333 -231Q319 -263 296 -290Q273 -317 243.5 -336.5Q214 -356 182 -361ZM458 0H121L124 10Q139 11 154.5 16Q170 21 184 32Q198 43 209.5 61.5Q221 80 228 110L363 631Q343 635 322.5 637Q302 639 279 639Q182 639 135.5 608Q89 577 89 531Q89 508 97 497Q105 486 116 486Q126 486 134 492Q142 498 150 504.5Q158 511 168 517Q178 523 192 523Q212 523 223 510Q234 497 234 478Q234 453 216.5 436Q199 419 167 419Q123 419 92 450Q61 481 61 538Q61 578 78 616Q95 654 129 683Q163 712 213.5 729.5Q264 747 331 747Q378 747 427 739Q476 731 525 721Q574 711 622.5 703Q671 695 718 695Q747 695 758.5 700Q770 705 770 714Q770 721 762.5 728Q755 735 745.5 742.5Q736 750 728.5 760Q721 770 721 785Q721 806 735.5 820Q750 834 776 834Q799 834 812.5 817.5Q826 801 826 772Q826 737 807.5 705Q789 673 757.5 649Q726 625 684 610.5Q642 596 596 596Q561 596 531 599L405 110Q397 80 399.5 61.5Q402 43 410.5 32Q419 21 432.5 16Q446 11 461 10Z" glyph-name="Tcommaaccent.swsh" horiz-adv-x="693" /><glyph d="M349 544 259 168H280Q320 168 356.5 184Q393 200 421 230Q449 260 466 304Q483 348 483 405Q483 475 452 509.5Q421 544 371 544ZM298 0H-35L-32 10Q-17 11 -2 16.5Q13 22 26.5 33.5Q40 45 51 64Q62 83 69 113L183 587Q190 617 188 636Q186 655 178 666.5Q170 678 157.5 683Q145 688 131 690L134 700H468L465 690Q449 688 433.5 683Q418 678 404 666.5Q390 655 378 636Q366 617 359 587L354 566H414Q476 566 522 552Q568 538 598.5 513.5Q629 489 644 455.5Q659 422 659 384Q659 335 635 292Q611 249 565.5 216.5Q520 184 454 165.5Q388 147 304 147H254L246 113Q239 83 241 64Q243 45 251.5 33.5Q260 22 273 16.5Q286 11 301 10Z" glyph-name="Thorn" horiz-adv-x="659" unicode="&#222;" /><glyph d="M383 308Q383 368 357.5 393.5Q332 419 289 419L219 131H227Q263 131 292 144Q321 157 341.5 180.5Q362 204 372.5 236.5Q383 269 383 308ZM246 0H-35L-32 10Q-20 11 -8 15Q4 19 14.5 28.5Q25 38 34 53.5Q43 69 49 94L134 443Q140 468 138.5 483.5Q137 499 131 508.5Q125 518 115 522Q105 526 94 527L97 537H379L376 527Q364 526 352.5 522Q341 518 330 508.5Q319 499 310 483.5Q301 468 295 443L294 438H325Q383 438 423.5 427.5Q464 417 490 398.5Q516 380 528 355.5Q540 331 540 303Q540 263 519 228.5Q498 194 459 168Q420 142 365.5 127Q311 112 244 112H214L210 94Q204 69 205.5 53.5Q207 38 213 28.5Q219 19 228.5 15Q238 11 249 10Z" glyph-name="Thorn.smcp" horiz-adv-x="555" /><glyph d="M618 244Q583 110 513.5 45.5Q444 -19 332 -19Q257 -19 205.5 3.5Q154 26 126 66Q98 106 92 160Q86 214 102 277L177 587Q184 617 182.5 636Q181 655 172.5 666.5Q164 678 150.5 683Q137 688 121 690L124 700H463L460 690Q445 688 429 683Q413 678 398.5 666.5Q384 655 372.5 636Q361 617 354 587L271 236Q259 185 262 147.5Q265 110 281 85Q297 60 323.5 47.5Q350 35 386 35Q420 35 452 47.5Q484 60 512 87Q540 114 562 157.5Q584 201 599 263L643 446Q670 560 657.5 623.5Q645 687 583 690L586 700H828L825 690Q796 688 774 671.5Q752 655 734.5 626Q717 597 702.5 557.5Q688 518 676 470Z" glyph-name="U" horiz-adv-x="724" unicode="U" /><glyph d="M494 188Q465 83 409.5 34Q354 -15 263 -15Q141 -15 93 49.5Q45 114 72 222L128 443Q135 469 133 485Q131 501 124.5 510Q118 519 107 522.5Q96 526 85 527L88 537H379L376 527Q351 525 326 508.5Q301 492 289 443L225 177Q207 106 232.5 67.5Q258 29 315 29Q368 29 408.5 67Q449 105 473 194L515 358Q524 393 525.5 423.5Q527 454 521 476.5Q515 499 500.5 512.5Q486 526 463 527L466 537H661L658 527Q635 526 617.5 512.5Q600 499 585.5 476Q571 453 559.5 422.5Q548 392 539 357Z" glyph-name="U.smcp" horiz-adv-x="596" /><glyph d="M618 244Q583 110 513.5 45.5Q444 -19 332 -19Q257 -19 205.5 3.5Q154 26 126 66Q98 106 92 160Q86 214 102 277L177 587Q184 617 182.5 636Q181 655 172.5 666.5Q164 678 150.5 683Q137 688 121 690L124 700H463L460 690Q445 688 429 683Q413 678 398.5 666.5Q384 655 372.5 636Q361 617 354 587L271 236Q259 185 262 147.5Q265 110 281 85Q297 60 323.5 47.5Q350 35 386 35Q420 35 452 47.5Q484 60 512 87Q540 114 562 157.5Q584 201 599 263L643 446Q670 560 657.5 623.5Q645 687 583 690L586 700H828L825 690Q796 688 774 671.5Q752 655 734.5 626Q717 597 702.5 557.5Q688 518 676 470ZM583 898Q607 922 635 922Q658 922 672 907.5Q686 893 686 872Q686 853 673 836Q660 819 629 811L475 771H464Z" glyph-name="Uacute" horiz-adv-x="724" unicode="&#218;" /><glyph d="M494 188Q465 83 409.5 34Q354 -15 263 -15Q141 -15 93 49.5Q45 114 72 222L128 443Q135 469 133 485Q131 501 124.5 510Q118 519 107 522.5Q96 526 85 527L88 537H379L376 527Q351 525 326 508.5Q301 492 289 443L225 177Q207 106 232.5 67.5Q258 29 315 29Q368 29 408.5 67Q449 105 473 194L515 358Q524 393 525.5 423.5Q527 454 521 476.5Q515 499 500.5 512.5Q486 526 463 527L466 537H661L658 527Q635 526 617.5 512.5Q600 499 585.5 476Q571 453 559.5 422.5Q548 392 539 357ZM475 735Q499 759 527 759Q550 759 564 744.5Q578 730 578 709Q578 690 565 673Q552 656 521 648L367 608H356Z" glyph-name="Uacute.smcp" horiz-adv-x="596" /><glyph d="M618 244Q583 110 513.5 45.5Q444 -19 332 -19Q257 -19 205.5 3.5Q154 26 126 66Q98 106 92 160Q86 214 102 277L177 587Q184 617 182.5 636Q181 655 172.5 666.5Q164 678 150.5 683Q137 688 121 690L124 700H463L460 690Q445 688 429 683Q413 678 398.5 666.5Q384 655 372.5 636Q361 617 354 587L271 236Q259 185 262 147.5Q265 110 281 85Q297 60 323.5 47.5Q350 35 386 35Q420 35 452 47.5Q484 60 512 87Q540 114 562 157.5Q584 201 599 263L643 446Q670 560 657.5 623.5Q645 687 583 690L586 700H828L825 690Q796 688 774 671.5Q752 655 734.5 626Q717 597 702.5 557.5Q688 518 676 470ZM539 779Q509 779 484 787Q459 795 441 812Q423 829 414.5 854.5Q406 880 409 915H423Q428 888 456.5 872Q485 856 542 856Q601 856 634 873Q667 890 677 915H691Q688 881 675 855.5Q662 830 641 813Q620 796 593.5 787.5Q567 779 539 779Z" glyph-name="Ubreve" horiz-adv-x="724" unicode="&#364;" /><glyph d="M494 188Q465 83 409.5 34Q354 -15 263 -15Q141 -15 93 49.5Q45 114 72 222L128 443Q135 469 133 485Q131 501 124.5 510Q118 519 107 522.5Q96 526 85 527L88 537H379L376 527Q351 525 326 508.5Q301 492 289 443L225 177Q207 106 232.5 67.5Q258 29 315 29Q368 29 408.5 67Q449 105 473 194L515 358Q524 393 525.5 423.5Q527 454 521 476.5Q515 499 500.5 512.5Q486 526 463 527L466 537H661L658 527Q635 526 617.5 512.5Q600 499 585.5 476Q571 453 559.5 422.5Q548 392 539 357ZM431 616Q401 616 376 624Q351 632 333 649Q315 666 306.5 691.5Q298 717 301 752H315Q320 725 348.5 709Q377 693 434 693Q493 693 526 710Q559 727 569 752H583Q580 718 567 692.5Q554 667 533 650Q512 633 485.5 624.5Q459 616 431 616Z" glyph-name="Ubreve.smcp" horiz-adv-x="596" /><glyph d="M618 244Q583 110 513.5 45.5Q444 -19 332 -19Q257 -19 205.5 3.5Q154 26 126 66Q98 106 92 160Q86 214 102 277L177 587Q184 617 182.5 636Q181 655 172.5 666.5Q164 678 150.5 683Q137 688 121 690L124 700H463L460 690Q445 688 429 683Q413 678 398.5 666.5Q384 655 372.5 636Q361 617 354 587L271 236Q259 185 262 147.5Q265 110 281 85Q297 60 323.5 47.5Q350 35 386 35Q420 35 452 47.5Q484 60 512 87Q540 114 562 157.5Q584 201 599 263L643 446Q670 560 657.5 623.5Q645 687 583 690L586 700H828L825 690Q796 688 774 671.5Q752 655 734.5 626Q717 597 702.5 557.5Q688 518 676 470ZM551 832 385 776H371L515 906H610L688 776H671Z" glyph-name="Ucircumflex" horiz-adv-x="724" unicode="&#219;" /><glyph d="M494 188Q465 83 409.5 34Q354 -15 263 -15Q141 -15 93 49.5Q45 114 72 222L128 443Q135 469 133 485Q131 501 124.5 510Q118 519 107 522.5Q96 526 85 527L88 537H379L376 527Q351 525 326 508.5Q301 492 289 443L225 177Q207 106 232.5 67.5Q258 29 315 29Q368 29 408.5 67Q449 105 473 194L515 358Q524 393 525.5 423.5Q527 454 521 476.5Q515 499 500.5 512.5Q486 526 463 527L466 537H661L658 527Q635 526 617.5 512.5Q600 499 585.5 476Q571 453 559.5 422.5Q548 392 539 357ZM443 669 277 613H263L407 743H502L580 613H563Z" glyph-name="Ucircumflex.smcp" horiz-adv-x="596" /><glyph d="M618 244Q583 110 513.5 45.5Q444 -19 332 -19Q257 -19 205.5 3.5Q154 26 126 66Q98 106 92 160Q86 214 102 277L177 587Q184 617 182.5 636Q181 655 172.5 666.5Q164 678 150.5 683Q137 688 121 690L124 700H463L460 690Q445 688 429 683Q413 678 398.5 666.5Q384 655 372.5 636Q361 617 354 587L271 236Q259 185 262 147.5Q265 110 281 85Q297 60 323.5 47.5Q350 35 386 35Q420 35 452 47.5Q484 60 512 87Q540 114 562 157.5Q584 201 599 263L643 446Q670 560 657.5 623.5Q645 687 583 690L586 700H828L825 690Q796 688 774 671.5Q752 655 734.5 626Q717 597 702.5 557.5Q688 518 676 470ZM566 858Q566 875 573 890Q580 905 591 916Q602 927 617 933.5Q632 940 649 940Q682 940 705.5 917Q729 894 729 861Q729 844 722 829Q715 814 704 803Q693 792 677.5 785.5Q662 779 646 779Q613 779 589.5 802Q566 825 566 858ZM362 858Q362 875 369 890Q376 905 387 916Q398 927 413 933.5Q428 940 445 940Q478 940 501.5 917Q525 894 525 861Q525 844 518 829Q511 814 500 803Q489 792 473.5 785.5Q458 779 442 779Q409 779 385.5 802Q362 825 362 858Z" glyph-name="Udieresis" horiz-adv-x="724" unicode="&#220;" /><glyph d="M494 188Q465 83 409.5 34Q354 -15 263 -15Q141 -15 93 49.5Q45 114 72 222L128 443Q135 469 133 485Q131 501 124.5 510Q118 519 107 522.5Q96 526 85 527L88 537H379L376 527Q351 525 326 508.5Q301 492 289 443L225 177Q207 106 232.5 67.5Q258 29 315 29Q368 29 408.5 67Q449 105 473 194L515 358Q524 393 525.5 423.5Q527 454 521 476.5Q515 499 500.5 512.5Q486 526 463 527L466 537H661L658 527Q635 526 617.5 512.5Q600 499 585.5 476Q571 453 559.5 422.5Q548 392 539 357ZM458 695Q458 712 465 727Q472 742 483 753Q494 764 509 770.5Q524 777 541 777Q574 777 597.5 754Q621 731 621 698Q621 681 614 666Q607 651 596 640Q585 629 569.5 622.5Q554 616 538 616Q505 616 481.5 639Q458 662 458 695ZM254 695Q254 712 261 727Q268 742 279 753Q290 764 305 770.5Q320 777 337 777Q370 777 393.5 754Q417 731 417 698Q417 681 410 666Q403 651 392 640Q381 629 365.5 622.5Q350 616 334 616Q301 616 277.5 639Q254 662 254 695Z" glyph-name="Udieresis.smcp" horiz-adv-x="596" /><glyph d="M618 244Q583 110 513.5 45.5Q444 -19 332 -19Q257 -19 205.5 3.5Q154 26 126 66Q98 106 92 160Q86 214 102 277L177 587Q184 617 182.5 636Q181 655 172.5 666.5Q164 678 150.5 683Q137 688 121 690L124 700H463L460 690Q445 688 429 683Q413 678 398.5 666.5Q384 655 372.5 636Q361 617 354 587L271 236Q259 185 262 147.5Q265 110 281 85Q297 60 323.5 47.5Q350 35 386 35Q420 35 452 47.5Q484 60 512 87Q540 114 562 157.5Q584 201 599 263L643 446Q670 560 657.5 623.5Q645 687 583 690L586 700H828L825 690Q796 688 774 671.5Q752 655 734.5 626Q717 597 702.5 557.5Q688 518 676 470ZM577 771 424 811Q393 819 380 836Q367 853 367 872Q367 893 381 907.5Q395 922 418 922Q446 922 470 898L589 771Z" glyph-name="Ugrave" horiz-adv-x="724" unicode="&#217;" /><glyph d="M494 188Q465 83 409.5 34Q354 -15 263 -15Q141 -15 93 49.5Q45 114 72 222L128 443Q135 469 133 485Q131 501 124.5 510Q118 519 107 522.5Q96 526 85 527L88 537H379L376 527Q351 525 326 508.5Q301 492 289 443L225 177Q207 106 232.5 67.5Q258 29 315 29Q368 29 408.5 67Q449 105 473 194L515 358Q524 393 525.5 423.5Q527 454 521 476.5Q515 499 500.5 512.5Q486 526 463 527L466 537H661L658 527Q635 526 617.5 512.5Q600 499 585.5 476Q571 453 559.5 422.5Q548 392 539 357ZM469 608 316 648Q285 656 272 673Q259 690 259 709Q259 730 273 744.5Q287 759 310 759Q338 759 362 735L481 608Z" glyph-name="Ugrave.smcp" horiz-adv-x="596" /><glyph d="M618 244Q583 110 513.5 45.5Q444 -19 332 -19Q257 -19 205.5 3.5Q154 26 126 66Q98 106 92 160Q86 214 102 277L177 587Q184 617 182.5 636Q181 655 172.5 666.5Q164 678 150.5 683Q137 688 121 690L124 700H463L460 690Q445 688 429 683Q413 678 398.5 666.5Q384 655 372.5 636Q361 617 354 587L271 236Q259 185 262 147.5Q265 110 281 85Q297 60 323.5 47.5Q350 35 386 35Q420 35 452 47.5Q484 60 512 87Q540 114 562 157.5Q584 201 599 263L643 446Q670 560 657.5 623.5Q645 687 583 690L586 700H828L825 690Q796 688 774 671.5Q752 655 734.5 626Q717 597 702.5 557.5Q688 518 676 470ZM492 885Q514 918 545 918Q563 918 575 907Q587 896 587 880Q587 863 574 846.5Q561 830 535 819L428 775H418ZM659 885Q670 902 684.5 910Q699 918 713 918Q730 918 742 907Q754 896 754 880Q754 863 741.5 846.5Q729 830 703 819L596 775H586Z" glyph-name="Uhungarumlaut" horiz-adv-x="724" unicode="&#368;" /><glyph d="M494 188Q465 83 409.5 34Q354 -15 263 -15Q141 -15 93 49.5Q45 114 72 222L128 443Q135 469 133 485Q131 501 124.5 510Q118 519 107 522.5Q96 526 85 527L88 537H379L376 527Q351 525 326 508.5Q301 492 289 443L225 177Q207 106 232.5 67.5Q258 29 315 29Q368 29 408.5 67Q449 105 473 194L515 358Q524 393 525.5 423.5Q527 454 521 476.5Q515 499 500.5 512.5Q486 526 463 527L466 537H661L658 527Q635 526 617.5 512.5Q600 499 585.5 476Q571 453 559.5 422.5Q548 392 539 357ZM384 722Q406 755 437 755Q455 755 467 744Q479 733 479 717Q479 700 466 683.5Q453 667 427 656L320 612H310ZM551 722Q562 739 576.5 747Q591 755 605 755Q622 755 634 744Q646 733 646 717Q646 700 633.5 683.5Q621 667 595 656L488 612H478Z" glyph-name="Uhungarumlaut.smcp" horiz-adv-x="596" /><glyph d="M618 244Q583 110 513.5 45.5Q444 -19 332 -19Q257 -19 205.5 3.5Q154 26 126 66Q98 106 92 160Q86 214 102 277L177 587Q184 617 182.5 636Q181 655 172.5 666.5Q164 678 150.5 683Q137 688 121 690L124 700H463L460 690Q445 688 429 683Q413 678 398.5 666.5Q384 655 372.5 636Q361 617 354 587L271 236Q259 185 262 147.5Q265 110 281 85Q297 60 323.5 47.5Q350 35 386 35Q420 35 452 47.5Q484 60 512 87Q540 114 562 157.5Q584 201 599 263L643 446Q670 560 657.5 623.5Q645 687 583 690L586 700H828L825 690Q796 688 774 671.5Q752 655 734.5 626Q717 597 702.5 557.5Q688 518 676 470ZM683 845 677 814H404L410 845Z" glyph-name="Umacron" horiz-adv-x="724" unicode="&#362;" /><glyph d="M494 188Q465 83 409.5 34Q354 -15 263 -15Q141 -15 93 49.5Q45 114 72 222L128 443Q135 469 133 485Q131 501 124.5 510Q118 519 107 522.5Q96 526 85 527L88 537H379L376 527Q351 525 326 508.5Q301 492 289 443L225 177Q207 106 232.5 67.5Q258 29 315 29Q368 29 408.5 67Q449 105 473 194L515 358Q524 393 525.5 423.5Q527 454 521 476.5Q515 499 500.5 512.5Q486 526 463 527L466 537H661L658 527Q635 526 617.5 512.5Q600 499 585.5 476Q571 453 559.5 422.5Q548 392 539 357ZM575 682 569 651H296L302 682Z" glyph-name="Umacron.smcp" horiz-adv-x="596" /><glyph d="M339 -245Q297 -245 277 -221Q257 -197 257 -164Q257 -121 284 -82.5Q311 -44 357 -18Q351 -19 345 -19Q339 -19 332 -19Q257 -19 205.5 3.5Q154 26 126 66Q98 106 92 160Q86 214 102 277L177 587Q184 617 182.5 636Q181 655 172.5 666.5Q164 678 150.5 683Q137 688 121 690L124 700H463L460 690Q445 688 429 683Q413 678 398.5 666.5Q384 655 372.5 636Q361 617 354 587L271 236Q259 185 262 147.5Q265 110 281 85Q297 60 323.5 47.5Q350 35 386 35Q420 35 452 47.5Q484 60 512 87Q540 114 562 157.5Q584 201 599 263L643 446Q670 560 657.5 623.5Q645 687 583 690L586 700H828L825 690Q796 688 774 671.5Q752 655 734.5 626Q717 597 702.5 557.5Q688 518 676 470L618 244Q565 35 418 -8Q390 -22 369 -57Q348 -92 348 -140Q348 -174 359.5 -188.5Q371 -203 394 -203Q400 -203 409 -202Q418 -201 432 -195L437 -203Q420 -217 394.5 -231Q369 -245 339 -245Z" glyph-name="Uogonek" horiz-adv-x="724" unicode="&#370;" /></font>
</defs>
</svg>
